<svg width="1211" height="1342" viewBox="0 0 1211 1342" fill="none" xmlns="http://www.w3.org/2000/svg">
<ellipse cx="428.662" cy="936.279" rx="354.956" ry="335.959" fill=" #080708"/>
<path d="M765.81 64.3313C879.166 552.637 591.472 650.822 433.456 638.876L746.389 793.296C666.608 633.619 1022.66 563.553 1210.66 548.48L887.809 1.23496e-05L765.81 64.3313Z" fill=" #080708"/>
<path 
 d="M855.73 959.653C855.73 959.647 855.73 959.641 855.731 959.635L856.623 959.688C855.677 975.433 853.782 990.937 850.992 1006.15L848.533 1005.7C848.529 1005.72 848.526 1005.74 848.522 1005.76L847.647 1005.6C850.415 990.504 852.295 975.123 853.234 959.503L855.73 959.653ZM856.623 912.87C855.677 897.125 853.782 881.621 850.992 866.407L848.533 866.858C848.529 866.839 848.526 866.819 848.522 866.8L847.647 866.96C850.415 882.054 852.295 897.435 853.234 913.055L855.73 912.905C855.73 912.911 855.73 912.917 855.731 912.923L856.623 912.87ZM838.9 821.152L836.514 821.898C831.876 807.06 826.359 792.579 820.019 778.51L820.808 778.154C820.827 778.195 820.845 778.236 820.864 778.277L823.143 777.25C829.533 791.432 835.094 806.028 839.769 820.985L838.93 821.247C838.92 821.216 838.91 821.184 838.9 821.152ZM800.612 736.099L798.47 737.388C790.489 724.124 781.736 711.331 772.266 699.065L772.922 698.559C772.958 698.606 772.994 698.652 773.03 698.699L775.009 697.171C784.554 709.536 793.378 722.431 801.422 735.8L800.695 736.237C800.667 736.191 800.64 736.145 800.612 736.099ZM743.647 662.243L741.853 663.985C731.1 652.911 719.699 642.408 707.708 632.532L708.209 631.924C708.255 631.962 708.301 631.999 708.346 632.037L709.936 630.107C722.022 640.063 733.514 650.649 744.353 661.811L743.774 662.374C743.732 662.33 743.689 662.287 743.647 662.243ZM671.676 602.928L670.307 605.019C657.417 596.58 644.01 588.797 630.14 581.722L630.482 581.052C630.525 581.074 630.569 581.096 630.612 581.119L631.748 578.892C645.729 586.023 659.242 593.868 672.236 602.375L671.815 603.018C671.769 602.988 671.723 602.958 671.676 602.928ZM588.613 560.534L587.721 562.87C573.364 557.386 558.618 552.622 543.533 548.626L543.719 547.925C543.749 547.933 543.779 547.941 543.81 547.949L544.45 545.532C559.655 549.56 574.519 554.362 588.99 559.889L588.727 560.578C588.689 560.563 588.651 560.549 588.613 560.534ZM498.468 536.637L498.084 539.107C482.939 536.754 467.525 535.157 451.886 534.361L451.922 533.648C451.929 533.649 451.936 533.649 451.944 533.65L452.071 531.153C467.835 531.956 483.372 533.565 498.639 535.937L498.528 536.646C498.508 536.643 498.488 536.64 498.468 536.637ZM405.403 533.648L405.439 534.361C389.8 535.157 374.385 536.754 359.24 539.107L358.856 536.637C358.836 536.64 358.816 536.643 358.796 536.646L358.686 535.937C373.952 533.565 389.49 531.956 405.254 531.153L405.381 533.65C405.388 533.649 405.395 533.649 405.403 533.648ZM313.606 547.925L313.792 548.626C298.707 552.622 283.961 557.386 269.604 562.87L268.712 560.534C268.673 560.549 268.635 560.563 268.597 560.578L268.334 559.889C282.806 554.362 297.67 549.56 312.875 545.532L313.515 547.949C313.545 547.941 313.575 547.933 313.606 547.925ZM226.843 581.052L227.184 581.722C213.315 588.797 199.908 596.58 187.018 605.019L185.648 602.928C185.602 602.958 185.556 602.988 185.51 603.018L185.089 602.375C198.082 593.868 211.596 586.023 225.576 578.892L226.712 581.119C226.756 581.096 226.799 581.074 226.843 581.052ZM149.115 631.924L149.616 632.532C137.625 642.408 126.225 652.911 115.471 663.985L113.678 662.243C113.635 662.287 113.593 662.33 113.551 662.374L112.971 661.811C123.811 650.649 135.302 640.063 147.389 630.107L148.978 632.037C149.024 631.999 149.07 631.962 149.115 631.924ZM84.403 698.559L85.0584 699.065C75.589 711.331 66.8351 724.124 58.8547 737.388L56.7126 736.099C56.6848 736.145 56.6571 736.191 56.6294 736.237L55.903 735.8C63.9471 722.431 72.7708 709.536 82.3158 697.171L84.2948 698.699C84.3308 698.652 84.3669 698.606 84.403 698.559ZM36.5165 778.154L37.3054 778.51C30.9659 792.579 25.4485 807.06 20.8105 821.898L18.4243 821.152C18.4144 821.184 18.4045 821.216 18.3946 821.247L17.5551 820.985C22.2302 806.028 27.7916 791.432 34.1817 777.25L36.461 778.277C36.4795 778.236 36.498 778.195 36.5165 778.154ZM8.80253 866.8L9.67712 866.961C6.90909 882.054 5.02926 897.435 4.09044 913.055L1.59494 912.905C1.59458 912.911 1.59421 912.917 1.59385 912.923L0.701612 912.87C1.64793 897.125 3.54277 881.621 6.3329 866.407L8.79189 866.858C8.79543 866.839 8.79898 866.819 8.80253 866.8ZM838.93 1051.31L839.769 1051.57C835.094 1066.53 829.533 1081.13 823.143 1095.31L820.864 1094.28C820.845 1094.32 820.826 1094.36 820.808 1094.4L820.019 1094.05C826.359 1079.98 831.876 1065.5 836.514 1050.66L838.9 1051.41C838.91 1051.37 838.92 1051.34 838.93 1051.31ZM800.695 1136.32L801.422 1136.76C793.378 1150.13 784.554 1163.02 775.009 1175.39L773.03 1173.86C772.994 1173.91 772.958 1173.95 772.922 1174L772.266 1173.49C781.736 1161.23 790.489 1148.43 798.47 1135.17L800.612 1136.46C800.64 1136.41 800.667 1136.37 800.695 1136.32ZM743.774 1210.18L744.353 1210.75C733.514 1221.91 722.023 1232.5 709.936 1242.45L708.346 1240.52C708.301 1240.56 708.255 1240.6 708.209 1240.63L707.708 1240.03C719.699 1230.15 731.1 1219.65 741.853 1208.57L743.647 1210.31C743.689 1210.27 743.732 1210.23 743.774 1210.18ZM671.815 1269.54L672.236 1270.18C659.243 1278.69 645.729 1286.53 631.748 1293.67L630.612 1291.44C630.569 1291.46 630.525 1291.48 630.482 1291.51L630.14 1290.84C644.01 1283.76 657.417 1275.98 670.307 1267.54L671.676 1269.63C671.723 1269.6 671.769 1269.57 671.815 1269.54ZM588.727 1311.98L588.99 1312.67C574.519 1318.2 559.655 1323 544.45 1327.03L543.81 1324.61C543.779 1324.62 543.749 1324.63 543.719 1324.63L543.533 1323.93C558.618 1319.94 573.364 1315.17 587.721 1309.69L588.613 1312.02C588.651 1312.01 588.689 1311.99 588.727 1311.98ZM498.528 1335.91L498.639 1336.62C483.372 1338.99 467.835 1340.6 452.071 1341.41L451.944 1338.91C451.936 1338.91 451.929 1338.91 451.922 1338.91L451.886 1338.2C467.525 1337.4 482.939 1335.8 498.085 1333.45L498.468 1335.92C498.488 1335.92 498.508 1335.91 498.528 1335.91ZM405.381 1338.91L405.254 1341.41C389.49 1340.6 373.952 1338.99 358.686 1336.62L358.796 1335.91C358.816 1335.91 358.836 1335.92 358.856 1335.92L359.24 1333.45C374.385 1335.8 389.8 1337.4 405.439 1338.2L405.403 1338.91C405.395 1338.91 405.388 1338.91 405.381 1338.91ZM313.515 1324.61L312.875 1327.03C297.67 1323 282.806 1318.2 268.334 1312.67L268.597 1311.98C268.635 1311.99 268.673 1312.01 268.712 1312.02L269.604 1309.69C283.961 1315.17 298.707 1319.94 313.792 1323.93L313.606 1324.63C313.575 1324.63 313.545 1324.62 313.515 1324.61ZM226.712 1291.44L225.576 1293.67C211.596 1286.53 198.082 1278.69 185.089 1270.18L185.51 1269.54C185.556 1269.57 185.602 1269.6 185.648 1269.63L187.018 1267.54C199.908 1275.98 213.315 1283.76 227.184 1290.84L226.843 1291.51C226.799 1291.48 226.756 1291.46 226.712 1291.44ZM148.978 1240.52L147.389 1242.45C135.302 1232.5 123.811 1221.91 112.971 1210.75L113.551 1210.18C113.593 1210.23 113.635 1210.27 113.678 1210.31L115.471 1208.57C126.225 1219.65 137.625 1230.15 149.616 1240.03L149.115 1240.63C149.07 1240.6 149.024 1240.56 148.978 1240.52ZM84.2948 1173.86L82.3158 1175.39C72.7709 1163.02 63.9471 1150.13 55.903 1136.76L56.6294 1136.32C56.6571 1136.37 56.6849 1136.41 56.7126 1136.46L58.8547 1135.17C66.8351 1148.43 75.589 1161.23 85.0584 1173.49L84.403 1174C84.3669 1173.95 84.3308 1173.91 84.2948 1173.86ZM36.461 1094.28L34.1817 1095.31C27.7916 1081.13 22.2302 1066.53 17.5551 1051.57L18.3946 1051.31C18.4045 1051.34 18.4144 1051.37 18.4244 1051.41L20.8105 1050.66C25.4486 1065.5 30.9659 1079.98 37.3054 1094.05L36.5165 1094.4C36.498 1094.36 36.4795 1094.32 36.461 1094.28ZM8.79188 1005.7L6.33289 1006.15C3.54277 990.937 1.64793 975.433 0.70161 959.688L1.59385 959.635C1.59421 959.641 1.59458 959.647 1.59494 959.653L4.09044 959.503C5.02926 975.123 6.9091 990.504 9.67713 1005.6L8.80254 1005.76C8.79898 1005.74 8.79543 1005.72 8.79188 1005.7Z" stroke=" #080708" stroke-width="2" stroke-dasharray="50 50"/>
</svg>
