<svg width="57" height="54" viewBox="0 0 57 54" fill="none" xmlns="http://www.w3.org/2000/svg">
<g filter="url(#filter0_i_38_326)">
<circle cx="27" cy="27" r="16" fill="#F85A11"/>
</g>
<circle cx="27" cy="27" r="21.5" stroke="#321203" stroke-width="11"/>
<g filter="url(#filter1_d_38_326)">
<ellipse cx="20.2235" cy="20.2235" rx="4.32941" ry="4.70588" fill="white"/>
<path d="M24.0529 20.2235C24.0529 22.5864 22.2999 24.4293 20.2235 24.4293C18.147 24.4293 16.394 22.5864 16.394 20.2235C16.394 17.8605 18.147 16.0176 20.2235 16.0176C22.2999 16.0176 24.0529 17.8605 24.0529 20.2235Z" stroke="#EEEEEE"/>
</g>
<g filter="url(#filter2_dd_38_326)">
<path d="M38.8588 20.2235C38.8588 22.8224 36.9204 24.9293 34.5294 24.9293C32.1383 24.9293 30.2 22.8224 30.2 20.2235C30.2 17.6245 32.1383 15.5176 34.5294 15.5176C36.9204 15.5176 38.8588 17.6245 38.8588 20.2235Z" fill="white"/>
<path d="M38.3588 20.2235C38.3588 22.5864 36.6059 24.4293 34.5294 24.4293C32.4529 24.4293 30.7 22.5864 30.7 20.2235C30.7 17.8605 32.4529 16.0176 34.5294 16.0176C36.6059 16.0176 38.3588 17.8605 38.3588 20.2235Z" stroke="#EEEEEE"/>
</g>
<g filter="url(#filter3_i_38_326)">
<path d="M31.2058 29.2589C31.2058 31.4176 29.618 33.0883 27.7529 33.0883C25.8877 33.0883 24.2999 31.4176 24.2999 29.2589C24.2999 27.1001 25.8877 25.4294 27.7529 25.4294C29.618 25.4294 31.2058 27.1001 31.2058 29.2589Z" fill="#D6761D" stroke="#CC740C"/>
<path d="M28.7733 29.2589C28.7733 29.8447 28.3085 30.3051 27.7529 30.3051C27.1973 30.3051 26.7325 29.8447 26.7325 29.2589C26.7325 28.6731 27.1973 28.2126 27.7529 28.2126C28.3085 28.2126 28.7733 28.6731 28.7733 29.2589Z" fill="#EA661B" stroke="#CC740C"/>
</g>
<path d="M37.0588 34.3411C35.0765 37.1582 29.4041 41.0412 21.2482 36.8999C19.1961 37.7251 16.9239 40.3302 15.7424 42.0054C12.3735 38.7937 16.5864 36.9663 20.048 36.242C19.3372 35.8238 18.6091 35.3449 17.8643 34.7998C18.7541 35.2023 19.9954 35.6405 21.4704 35.997C25.6748 37.0134 31.7786 37.3665 37.0588 34.3411Z" fill="#820707"/>
<path d="M23.047 38.4824C24.5418 39.6188 28.6675 41.2097 33.2117 38.4824" stroke="#820707"/>
<path d="M25.7129 40.7412C26.3245 41.4753 28.0439 42.5309 30.0285 40.8804" stroke="#820707"/>
<path d="M15.894 39.9881C16.6418 39.1177 17.0699 38.3263 18.1529 38.1057" stroke="#F85A11" stroke-linecap="round"/>
<ellipse cx="20.4118" cy="22.4822" rx="1.88235" ry="2.44706" fill="#321203"/>
<ellipse cx="34.7176" cy="22.4822" rx="1.88235" ry="2.44706" fill="#321203"/>
<defs>
<filter id="filter0_i_38_326" x="0" y="0" width="54" height="55" filterUnits="userSpaceOnUse" color-interpolation-filters="sRGB">
<feFlood flood-opacity="0" result="BackgroundImageFix"/>
<feBlend mode="normal" in="SourceGraphic" in2="BackgroundImageFix" result="shape"/>
<feColorMatrix in="SourceAlpha" type="matrix" values="0 0 0 0 0 0 0 0 0 0 0 0 0 0 0 0 0 0 127 0" result="hardAlpha"/>
<feOffset dy="1"/>
<feGaussianBlur stdDeviation="2"/>
<feComposite in2="hardAlpha" operator="arithmetic" k2="-1" k3="1"/>
<feColorMatrix type="matrix" values="0 0 0 0 0.0470588 0 0 0 0 0.0470588 0 0 0 0 0.0509804 0 0 0 0.05 0"/>
<feBlend mode="normal" in2="shape" result="effect1_innerShadow_38_326"/>
</filter>
<filter id="filter1_d_38_326" x="11.894" y="15.5176" width="16.6588" height="17.4119" filterUnits="userSpaceOnUse" color-interpolation-filters="sRGB">
<feFlood flood-opacity="0" result="BackgroundImageFix"/>
<feColorMatrix in="SourceAlpha" type="matrix" values="0 0 0 0 0 0 0 0 0 0 0 0 0 0 0 0 0 0 127 0" result="hardAlpha"/>
<feOffset dy="4"/>
<feGaussianBlur stdDeviation="2"/>
<feComposite in2="hardAlpha" operator="out"/>
<feColorMatrix type="matrix" values="0 0 0 0 0 0 0 0 0 0 0 0 0 0 0 0 0 0 0.25 0"/>
<feBlend mode="normal" in2="BackgroundImageFix" result="effect1_dropShadow_38_326"/>
<feBlend mode="normal" in="SourceGraphic" in2="effect1_dropShadow_38_326" result="shape"/>
</filter>
<filter id="filter2_dd_38_326" x="12.2" y="5.51758" width="44.6589" height="45.4119" filterUnits="userSpaceOnUse" color-interpolation-filters="sRGB">
<feFlood flood-opacity="0" result="BackgroundImageFix"/>
<feColorMatrix in="SourceAlpha" type="matrix" values="0 0 0 0 0 0 0 0 0 0 0 0 0 0 0 0 0 0 127 0" result="hardAlpha"/>
<feOffset dy="4"/>
<feGaussianBlur stdDeviation="2"/>
<feColorMatrix type="matrix" values="0 0 0 0 0 0 0 0 0 0 0 0 0 0 0 0 0 0 0.3 0"/>
<feBlend mode="normal" in2="BackgroundImageFix" result="effect1_dropShadow_38_326"/>
<feColorMatrix in="SourceAlpha" type="matrix" values="0 0 0 0 0 0 0 0 0 0 0 0 0 0 0 0 0 0 127 0" result="hardAlpha"/>
<feMorphology radius="6" operator="dilate" in="SourceAlpha" result="effect2_dropShadow_38_326"/>
<feOffset dy="8"/>
<feGaussianBlur stdDeviation="6"/>
<feColorMatrix type="matrix" values="0 0 0 0 0 0 0 0 0 0 0 0 0 0 0 0 0 0 0.15 0"/>
<feBlend mode="normal" in2="effect1_dropShadow_38_326" result="effect2_dropShadow_38_326"/>
<feBlend mode="normal" in="SourceGraphic" in2="effect2_dropShadow_38_326" result="shape"/>
</filter>
<filter id="filter3_i_38_326" x="23.7999" y="24.9294" width="7.90588" height="12.6589" filterUnits="userSpaceOnUse" color-interpolation-filters="sRGB">
<feFlood flood-opacity="0" result="BackgroundImageFix"/>
<feBlend mode="normal" in="SourceGraphic" in2="BackgroundImageFix" result="shape"/>
<feColorMatrix in="SourceAlpha" type="matrix" values="0 0 0 0 0 0 0 0 0 0 0 0 0 0 0 0 0 0 127 0" result="hardAlpha"/>
<feOffset dy="4"/>
<feGaussianBlur stdDeviation="2"/>
<feComposite in2="hardAlpha" operator="arithmetic" k2="-1" k3="1"/>
<feColorMatrix type="matrix" values="0 0 0 0 0 0 0 0 0 0 0 0 0 0 0 0 0 0 0.25 0"/>
<feBlend mode="normal" in2="shape" result="effect1_innerShadow_38_326"/>
</filter>
</defs>
</svg>
