<svg width="368" height="103" viewBox="0 0 368 103" fill="none" xmlns="http://www.w3.org/2000/svg">
<path d="M113.837 41.8828C113.619 41.9557 113.455 41.9648 113.345 41.9102C113.236 41.8555 113.154 41.7643 113.099 41.6367C113.044 41.5091 113.017 41.3724 113.017 41.2266C113.017 41.0625 113.026 40.9076 113.044 40.7617C113.063 40.6341 113.09 40.4883 113.126 40.3242C113.181 40.1602 113.245 40.0052 113.318 39.8594C113.391 39.7135 113.473 39.5951 113.564 39.5039C113.673 39.3945 113.81 39.3216 113.974 39.2852C114.813 39.1393 115.624 39.0299 116.408 38.957C117.21 38.8841 117.93 38.8294 118.568 38.793C119.297 38.7383 119.999 38.7109 120.673 38.7109C120.819 38.7109 120.965 38.7201 121.111 38.7383C121.257 38.7383 121.402 38.7383 121.548 38.7383C121.712 38.7018 121.84 38.6927 121.931 38.7109C122.04 38.7109 122.132 38.7201 122.205 38.7383C122.733 38.7565 123.28 38.7839 123.845 38.8203C124.319 38.8568 124.848 38.9023 125.431 38.957C126.033 38.9935 126.625 39.0482 127.208 39.1211C127.263 39.2669 127.272 39.4492 127.236 39.668C127.218 39.7773 127.199 39.8867 127.181 39.9961C127.163 40.1055 127.117 40.2057 127.044 40.2969C126.99 40.388 126.917 40.4792 126.826 40.5703C126.753 40.6432 126.662 40.707 126.552 40.7617C125.932 40.7435 125.331 40.7344 124.747 40.7344C124.182 40.7161 123.681 40.707 123.244 40.707H121.767C121.53 41.5456 121.238 42.5846 120.892 43.8242C120.546 45.0456 120.19 46.3398 119.826 47.707C119.479 49.056 119.142 50.4049 118.814 51.7539C118.504 53.0846 118.258 54.2878 118.076 55.3633C117.893 56.4023 117.711 57.4232 117.529 58.4258C117.456 58.8451 117.374 59.2826 117.283 59.7383C117.21 60.194 117.137 60.6406 117.064 61.0781C117.009 61.5156 116.955 61.9349 116.9 62.3359C116.845 62.737 116.8 63.1016 116.763 63.4297C116.471 63.5755 116.198 63.6849 115.943 63.7578C115.688 63.849 115.46 63.9128 115.259 63.9492C115.022 64.0039 114.803 64.0312 114.603 64.0312C114.165 64.0312 113.892 63.9766 113.783 63.8672C113.692 63.776 113.682 63.5846 113.755 63.293C113.81 63.0378 113.974 62.3451 114.247 61.2148C114.357 60.7409 114.494 60.1393 114.658 59.4102C114.84 58.6992 115.05 57.8333 115.287 56.8125C115.524 55.7734 115.806 54.5703 116.134 53.2031C116.462 51.8177 116.836 50.2318 117.255 48.4453L119.087 40.8438C118.54 40.9167 118.003 40.9987 117.474 41.0898C116.945 41.181 116.444 41.2812 115.97 41.3906C115.514 41.4818 115.095 41.5729 114.712 41.6641C114.348 41.7552 114.056 41.8281 113.837 41.8828ZM138.426 52.9844C138.554 52.8385 138.681 52.7656 138.809 52.7656C138.955 52.7474 139.064 52.7839 139.137 52.875C139.228 52.9479 139.264 53.0664 139.246 53.2305C139.246 53.3945 139.173 53.5768 139.027 53.7773C138.681 54.2513 138.28 54.7435 137.824 55.2539C137.369 55.7461 136.876 56.2292 136.348 56.7031C135.837 57.1771 135.318 57.6237 134.789 58.043C134.261 58.4622 133.75 58.8086 133.258 59.082C132.711 59.3919 132.246 59.5469 131.863 59.5469C131.499 59.5469 131.134 59.3099 130.77 58.8359C130.442 58.4167 130.277 57.9701 130.277 57.4961C130.296 57.0039 130.405 56.3932 130.606 55.6641C130.733 55.2083 130.906 54.6706 131.125 54.0508C131.362 53.4128 131.544 52.8021 131.672 52.2188C131.818 51.6354 131.863 51.1432 131.809 50.7422C131.754 50.3229 131.517 50.1133 131.098 50.1133C130.806 50.1133 130.487 50.2135 130.141 50.4141C129.813 50.6146 129.475 50.8789 129.129 51.207C128.801 51.5169 128.482 51.8724 128.172 52.2734C127.862 52.6745 127.589 53.0664 127.352 53.4492C127.206 54.1602 127.06 54.862 126.914 55.5547C126.787 56.138 126.65 56.776 126.504 57.4688C126.376 58.1432 126.249 58.7448 126.121 59.2734C126.012 59.3646 125.893 59.4284 125.766 59.4648C125.638 59.5013 125.52 59.5195 125.41 59.5195C125.283 59.5195 125.155 59.5104 125.027 59.4922C124.882 59.4557 124.745 59.401 124.617 59.3281C124.508 59.2552 124.399 59.1549 124.289 59.0273C124.18 58.918 124.098 58.763 124.043 58.5625C124.863 55.1901 125.511 52.4831 125.985 50.4414C126.458 48.3997 126.823 46.8411 127.078 45.7656C127.37 44.4896 127.57 43.6055 127.68 43.1133C127.735 42.7669 127.78 42.4297 127.817 42.1016C127.853 41.8099 127.871 41.5091 127.871 41.1992C127.871 40.8893 127.844 40.6068 127.789 40.3516C127.935 40.2604 128.09 40.1875 128.254 40.1328C128.436 40.0781 128.61 40.0326 128.774 39.9961C128.974 39.9414 129.175 39.8958 129.375 39.8594C129.576 39.8229 129.758 39.8047 129.922 39.8047C130.068 39.8047 130.205 39.8229 130.332 39.8594C130.46 39.8776 130.542 39.9323 130.578 40.0234C130.688 40.1146 130.733 40.2969 130.715 40.5703C130.715 40.8438 130.697 41.1263 130.66 41.418C130.587 41.7643 130.505 42.138 130.414 42.5391C130.031 44.0156 129.603 45.4557 129.129 46.8594C128.655 48.2448 128.218 49.7305 127.817 51.3164C128.054 50.9518 128.336 50.5781 128.664 50.1953C128.992 49.8125 129.348 49.4661 129.731 49.1562C130.132 48.8281 130.551 48.5638 130.988 48.3633C131.426 48.1445 131.891 48.0352 132.383 48.0352C132.638 48.0352 132.875 48.0807 133.094 48.1719C133.331 48.2448 133.531 48.3815 133.695 48.582C133.878 48.7643 134.014 49.0195 134.106 49.3477C134.197 49.6576 134.233 50.0495 134.215 50.5234C134.215 50.8151 134.179 51.1159 134.106 51.4258C134.051 51.7357 133.969 52.082 133.86 52.4648C133.75 52.8294 133.604 53.2396 133.422 53.6953C133.258 54.151 133.057 54.6797 132.82 55.2812C132.656 55.7005 132.529 56.056 132.438 56.3477C132.347 56.6393 132.365 56.8945 132.492 57.1133C132.656 57.4049 132.975 57.4779 133.449 57.332C133.942 57.168 134.671 56.694 135.637 55.9102C135.856 55.7279 136.102 55.5 136.375 55.2266C136.649 54.9531 136.913 54.6797 137.168 54.4062C137.423 54.1146 137.66 53.8411 137.879 53.5859C138.098 53.3307 138.28 53.1302 138.426 52.9844ZM150.026 53.3125C149.479 54.1146 148.86 54.8984 148.167 55.6641C147.474 56.4115 146.736 57.0859 145.952 57.6875C145.186 58.2708 144.393 58.7448 143.573 59.1094C142.771 59.474 141.987 59.6562 141.222 59.6562C140.821 59.6562 140.383 59.556 139.909 59.3555C139.453 59.1732 139.034 58.8815 138.651 58.4805C138.268 58.0794 137.959 57.5599 137.722 56.9219C137.503 56.2839 137.439 55.5091 137.53 54.5977C137.603 53.8503 137.831 53.0664 138.214 52.2461C138.615 51.4076 139.098 50.6419 139.663 49.9492C140.246 49.2565 140.893 48.6823 141.604 48.2266C142.334 47.7708 143.063 47.543 143.792 47.543C144.485 47.543 144.986 47.7161 145.296 48.0625C145.606 48.4089 145.742 48.8372 145.706 49.3477C145.651 49.9128 145.487 50.4323 145.214 50.9062C144.959 51.3802 144.649 51.8086 144.284 52.1914C143.919 52.5742 143.528 52.9206 143.108 53.2305C142.707 53.5404 142.324 53.8229 141.96 54.0781C141.559 54.3516 141.176 54.6159 140.811 54.8711C140.447 55.1081 140.128 55.3268 139.854 55.5273C139.873 55.9831 139.955 56.3659 140.1 56.6758C140.246 56.9857 140.429 57.2409 140.647 57.4414C140.866 57.6237 141.112 57.7604 141.386 57.8516C141.677 57.9245 141.969 57.9609 142.261 57.9609C142.88 57.9609 143.528 57.7695 144.202 57.3867C144.877 56.9857 145.533 56.5117 146.171 55.9648C146.827 55.3997 147.429 54.8164 147.975 54.2148C148.541 53.6133 149.005 53.0938 149.37 52.6562C149.498 52.5104 149.625 52.4284 149.753 52.4102C149.899 52.3737 150.008 52.3919 150.081 52.4648C150.172 52.5195 150.218 52.6289 150.218 52.793C150.218 52.9388 150.154 53.112 150.026 53.3125ZM143.026 49.1016C142.807 49.1016 142.543 49.2109 142.233 49.4297C141.942 49.6484 141.65 49.9674 141.358 50.3867C141.067 50.7878 140.793 51.2891 140.538 51.8906C140.283 52.474 140.091 53.1484 139.964 53.9141C140.182 53.75 140.419 53.5859 140.675 53.4219C140.93 53.2396 141.185 53.0482 141.44 52.8477C142.224 52.2461 142.771 51.7174 143.081 51.2617C143.391 50.806 143.564 50.4141 143.6 50.0859C143.637 49.7396 143.6 49.4935 143.491 49.3477C143.382 49.1836 143.227 49.1016 143.026 49.1016ZM166.5 46.4492C166.482 46.3945 166.537 46.2578 166.664 46.0391C166.792 45.8021 166.929 45.5195 167.075 45.1914C167.239 44.8451 167.394 44.4622 167.539 44.043C167.703 43.6055 167.813 43.1589 167.867 42.7031C167.94 42.2474 167.94 41.7917 167.867 41.3359C167.795 40.8802 167.603 40.4427 167.293 40.0234C167.111 39.8047 166.838 39.6862 166.473 39.668C166.127 39.6315 165.726 39.6862 165.27 39.832C164.832 39.9596 164.367 40.1693 163.875 40.4609C163.401 40.7344 162.964 41.0625 162.563 41.4453C162.162 41.8099 161.815 42.2201 161.524 42.6758C161.25 43.1315 161.095 43.5964 161.059 44.0703C161.022 44.4531 161.032 44.8086 161.086 45.1367C161.159 45.4648 161.25 45.7656 161.36 46.0391C161.469 46.3125 161.588 46.5677 161.715 46.8047C161.843 47.0417 161.961 47.2513 162.071 47.4336C162.216 47.6888 162.444 47.9714 162.754 48.2812C163.064 48.5911 163.401 48.9466 163.766 49.3477C164.131 49.7305 164.495 50.168 164.86 50.6602C165.224 51.1523 165.543 51.7083 165.817 52.3281C166.09 52.9479 166.282 53.6406 166.391 54.4062C166.5 55.1719 166.491 56.0195 166.364 56.9492C166.163 58.2982 165.844 59.4193 165.407 60.3125C164.969 61.224 164.486 61.9531 163.957 62.5C163.447 63.0469 162.927 63.4388 162.399 63.6758C161.87 63.931 161.433 64.0951 161.086 64.168C160.813 64.2227 160.485 64.2682 160.102 64.3047C159.737 64.3594 159.345 64.3503 158.926 64.2773C158.525 64.2227 158.115 64.0951 157.696 63.8945C157.276 63.7122 156.903 63.4206 156.575 63.0195C156.192 62.5638 155.891 62.0716 155.672 61.543C155.472 61.0872 155.326 60.5586 155.235 59.957C155.125 59.3737 155.171 58.763 155.371 58.125C155.517 57.9609 155.672 57.8151 155.836 57.6875C156 57.5599 156.164 57.4505 156.328 57.3594C156.511 57.25 156.702 57.1497 156.903 57.0586C157.14 56.9857 157.377 56.9219 157.614 56.8672C157.814 56.8307 158.024 56.8125 158.242 56.8125C158.479 56.7943 158.698 56.8216 158.899 56.8945C158.625 57.2044 158.434 57.4961 158.325 57.7695C158.252 57.9154 158.197 58.043 158.16 58.1523C158.088 58.4987 158.06 58.9089 158.078 59.3828C158.115 59.875 158.215 60.3398 158.379 60.7773C158.562 61.2331 158.817 61.6159 159.145 61.9258C159.473 62.2539 159.91 62.4271 160.457 62.4453C161.788 62.4818 162.918 61.4427 163.848 59.3281C164.158 58.6719 164.313 58.0065 164.313 57.332C164.331 56.6576 164.249 56.0104 164.067 55.3906C163.903 54.7708 163.675 54.1966 163.383 53.668C163.11 53.1211 162.827 52.6562 162.535 52.2734C162.244 51.8906 161.888 51.4805 161.469 51.043C161.068 50.5872 160.667 50.0951 160.266 49.5664C159.865 49.0378 159.5 48.4635 159.172 47.8438C158.862 47.224 158.653 46.5495 158.543 45.8203C158.397 44.7995 158.489 43.8698 158.817 43.0312C159.163 42.1745 159.619 41.4271 160.184 40.7891C160.767 40.151 161.396 39.6315 162.071 39.2305C162.763 38.8294 163.374 38.5742 163.903 38.4648C166.838 37.8815 168.761 38.3737 169.672 39.9414C170.055 40.543 170.265 41.181 170.301 41.8555C170.338 42.5299 170.292 43.1589 170.164 43.7422C170.055 44.3073 169.909 44.7904 169.727 45.1914C169.563 45.5742 169.453 45.7839 169.399 45.8203C169.289 45.9297 169.116 46.0482 168.879 46.1758C168.642 46.3034 168.259 46.4219 167.731 46.5312C167.585 46.5677 167.439 46.5859 167.293 46.5859C167.166 46.5859 167.029 46.5768 166.883 46.5586C166.737 46.5404 166.61 46.5039 166.5 46.4492ZM178.128 54.6523C177.946 55.3451 177.7 55.9922 177.39 56.5938C177.08 57.1953 176.706 57.7148 176.269 58.1523C175.849 58.5898 175.366 58.9271 174.819 59.1641C174.291 59.4193 173.707 59.5469 173.069 59.5469C172.322 59.5469 171.73 59.3828 171.292 59.0547C170.873 58.7448 170.554 58.3529 170.335 57.8789C170.134 57.4049 170.016 56.8854 169.98 56.3203C169.925 55.7552 169.897 55.2266 169.897 54.7344C169.897 54.388 169.943 54.0052 170.034 53.5859C170.107 53.1667 170.217 52.7383 170.362 52.3008C170.508 51.8633 170.69 51.4258 170.909 50.9883C171.146 50.5508 171.42 50.1497 171.73 49.7852C171.839 49.4753 172.003 49.2018 172.222 48.9648C172.459 48.7279 172.723 48.5365 173.015 48.3906C173.325 48.2266 173.653 48.1081 173.999 48.0352C174.345 47.944 174.683 47.8984 175.011 47.8984C175.065 47.8984 175.111 47.9076 175.147 47.9258C175.202 47.944 175.257 47.9622 175.312 47.9805C175.549 47.9987 175.84 48.0898 176.187 48.2539C176.551 48.418 176.897 48.6641 177.226 48.9922C177.572 49.3203 177.864 49.7396 178.101 50.25C178.338 50.7422 178.456 51.3438 178.456 52.0547C178.456 52.2005 178.447 52.3828 178.429 52.6016C178.411 52.8021 178.392 52.9753 178.374 53.1211C178.793 52.957 179.231 52.7565 179.687 52.5195C180.142 52.2826 180.58 52.0365 180.999 51.7812C181.437 51.5078 181.838 51.2344 182.202 50.9609C182.567 50.6875 182.858 50.4414 183.077 50.2227C183.259 50.0586 183.414 49.9674 183.542 49.9492C183.67 49.931 183.761 49.9674 183.815 50.0586C183.87 50.1497 183.879 50.2773 183.843 50.4414C183.806 50.6055 183.706 50.7878 183.542 50.9883C183.451 51.0977 183.214 51.3164 182.831 51.6445C182.467 51.9727 182.029 52.3281 181.519 52.7109C181.008 53.0938 180.452 53.4674 179.851 53.832C179.249 54.1966 178.675 54.4701 178.128 54.6523ZM173.507 50.4961C173.452 50.6602 173.425 50.8333 173.425 51.0156C173.425 51.3073 173.443 51.6172 173.48 51.9453C173.516 52.2552 173.607 52.5378 173.753 52.793C173.899 53.0482 174.127 53.2669 174.437 53.4492C174.765 53.6133 175.211 53.6953 175.776 53.6953C175.868 53.6953 175.959 53.6953 176.05 53.6953C176.141 53.6771 176.232 53.6589 176.323 53.6406C176.378 53.4036 176.424 53.194 176.46 53.0117C176.515 52.8112 176.542 52.638 176.542 52.4922C176.578 52.1458 176.578 51.7904 176.542 51.4258C176.506 51.0612 176.433 50.7331 176.323 50.4414C176.232 50.1315 176.105 49.8854 175.94 49.7031C175.795 49.5026 175.612 49.4023 175.394 49.4023C175.047 49.4023 174.71 49.5026 174.382 49.7031C174.072 49.8854 173.78 50.1497 173.507 50.4961ZM171.757 55.3086C171.757 55.6367 171.775 55.9648 171.812 56.293C171.848 56.6029 171.921 56.8854 172.03 57.1406C172.14 57.3776 172.286 57.5781 172.468 57.7422C172.65 57.888 172.887 57.9609 173.179 57.9609C173.507 57.9609 173.808 57.888 174.081 57.7422C174.355 57.5781 174.601 57.3776 174.819 57.1406C175.038 56.8854 175.23 56.6029 175.394 56.293C175.576 55.9648 175.731 55.6276 175.858 55.2812C175.731 55.2995 175.603 55.3177 175.476 55.3359C175.366 55.3359 175.239 55.3359 175.093 55.3359C174.4 55.3359 173.799 55.1354 173.288 54.7344C172.796 54.3151 172.413 53.7865 172.14 53.1484C172.03 53.5312 171.939 53.9049 171.866 54.2695C171.793 54.6341 171.757 54.9805 171.757 55.3086ZM184.724 59.4375C184.032 59.4375 183.467 59.3281 183.029 59.1094C182.592 58.8906 182.245 58.6263 181.99 58.3164C181.753 57.9883 181.58 57.6419 181.47 57.2773C181.379 56.8945 181.334 56.5482 181.334 56.2383C181.334 55.6914 181.379 55.1172 181.47 54.5156C181.562 53.8958 181.671 53.3307 181.799 52.8203C181.926 52.2917 182.036 51.8451 182.127 51.4805C182.236 51.1159 182.309 50.888 182.345 50.7969C182.51 50.2682 182.719 49.8125 182.974 49.4297C183.248 49.0286 183.622 48.7552 184.095 48.6094C184.278 48.5729 184.469 48.5365 184.67 48.5C184.834 48.4818 184.998 48.4727 185.162 48.4727C185.344 48.4727 185.508 48.5 185.654 48.5547C185.162 49.8125 184.77 50.8607 184.478 51.6992C184.205 52.5378 183.995 53.2214 183.849 53.75C183.685 54.3516 183.585 54.8346 183.549 55.1992C183.457 56.0195 183.53 56.6393 183.767 57.0586C184.004 57.4779 184.487 57.6875 185.217 57.6875C185.691 57.6875 186.146 57.5143 186.584 57.168C187.021 56.8034 187.422 56.3385 187.787 55.7734C187.732 55.4818 187.705 55.181 187.705 54.8711C187.705 54.2878 187.75 53.7227 187.842 53.1758C187.951 52.6107 188.069 52.0911 188.197 51.6172C188.343 51.125 188.489 50.6875 188.635 50.3047C188.799 49.9219 188.935 49.6211 189.045 49.4023C189.245 48.9648 189.427 48.7005 189.592 48.6094C189.756 48.5 190.02 48.4362 190.385 48.418C190.53 48.3997 190.649 48.3997 190.74 48.418C190.849 48.418 190.941 48.4271 191.013 48.4453C191.232 48.5 191.342 48.6094 191.342 48.7734C191.342 49.0651 191.323 49.5026 191.287 50.0859C191.25 50.6693 191.141 51.2708 190.959 51.8906C190.831 52.401 190.704 52.8385 190.576 53.2031C190.467 53.5495 190.357 53.8503 190.248 54.1055C190.138 54.3424 190.029 54.543 189.92 54.707C189.81 54.8529 189.71 54.9896 189.619 55.1172C189.655 55.6641 189.701 56.1016 189.756 56.4297C189.81 56.7578 189.874 57.013 189.947 57.1953C190.038 57.3594 190.138 57.4779 190.248 57.5508C190.375 57.6055 190.512 57.6328 190.658 57.6328C190.913 57.6328 191.214 57.5143 191.56 57.2773C191.907 57.0221 192.262 56.7122 192.627 56.3477C193.01 55.9648 193.383 55.5547 193.748 55.1172C194.131 54.6615 194.477 54.2331 194.787 53.832C195.097 53.431 195.361 53.0846 195.58 52.793C195.799 52.4831 195.935 52.2917 195.99 52.2188C196.118 52.0547 196.236 51.9544 196.345 51.918C196.473 51.8815 196.573 51.8997 196.646 51.9727C196.719 52.0273 196.756 52.1276 196.756 52.2734C196.774 52.401 196.737 52.5469 196.646 52.7109C196.282 53.4036 195.826 54.1419 195.279 54.9258C194.75 55.6914 194.176 56.4023 193.556 57.0586C192.955 57.7148 192.344 58.2617 191.724 58.6992C191.105 59.1367 190.521 59.3555 189.974 59.3555C189.482 59.3555 189.09 59.1914 188.799 58.8633C188.525 58.5169 188.288 58.0247 188.088 57.3867C187.668 58.043 187.176 58.5534 186.611 58.918C186.046 59.2643 185.417 59.4375 184.724 59.4375ZM204.829 52.082C204.902 51.9727 204.993 51.9089 205.102 51.8906C205.23 51.8542 205.33 51.8633 205.403 51.918C205.476 51.9727 205.512 52.0638 205.512 52.1914C205.53 52.319 205.485 52.4922 205.375 52.7109C205.011 53.4036 204.528 54.151 203.926 54.9531C203.343 55.7552 202.723 56.5117 202.067 57.2227C201.411 57.9154 200.773 58.4896 200.153 58.9453C199.533 59.401 199.013 59.6289 198.594 59.6289C197.993 59.6289 197.491 59.5104 197.09 59.2734C196.689 59.0365 196.37 58.7448 196.133 58.3984C195.915 58.0521 195.76 57.6784 195.668 57.2773C195.577 56.8581 195.55 56.4753 195.586 56.1289C195.605 55.8372 195.668 55.3177 195.778 54.5703C195.887 53.8047 196.033 52.9297 196.215 51.9453C196.398 50.9427 196.598 49.8763 196.817 48.7461C197.054 47.5977 197.3 46.4948 197.555 45.4375C197.245 45.474 196.935 45.5104 196.625 45.5469C196.316 45.5833 196.033 45.6016 195.778 45.6016C195.194 45.6016 194.648 45.5378 194.137 45.4102C193.609 45.2643 193.217 45.1276 192.961 45C192.816 44.9271 192.752 44.8268 192.77 44.6992C192.788 44.5534 192.843 44.4167 192.934 44.2891C193.025 44.1432 193.144 44.0247 193.29 43.9336C193.417 43.8242 193.536 43.7695 193.645 43.7695C193.991 43.806 194.365 43.8424 194.766 43.8789C195.167 43.8971 195.605 43.8971 196.079 43.8789C196.425 43.8607 196.753 43.8333 197.063 43.7969C197.391 43.7604 197.71 43.7148 198.02 43.6602C198.257 42.7852 198.485 42.0286 198.704 41.3906C198.941 40.7344 199.15 40.2786 199.332 40.0234C199.387 39.9323 199.506 39.8594 199.688 39.8047C199.888 39.7318 200.098 39.6862 200.317 39.668C200.536 39.6315 200.745 39.6315 200.946 39.668C201.146 39.6862 201.292 39.75 201.383 39.8594C201.474 40.0052 201.511 40.3789 201.493 40.9805C201.474 41.582 201.374 42.3477 201.192 43.2773C201.957 43.2773 202.632 43.3229 203.215 43.4141C203.817 43.487 204.327 43.5781 204.747 43.6875C205.166 43.7786 205.503 43.8789 205.758 43.9883C206.013 44.0794 206.205 44.1432 206.332 44.1797C206.46 44.2161 206.524 44.3073 206.524 44.4531C206.542 44.599 206.515 44.7539 206.442 44.918C206.387 45.0638 206.287 45.1914 206.141 45.3008C205.995 45.4102 205.831 45.4466 205.649 45.4102C205.467 45.3919 205.257 45.3555 205.02 45.3008C204.801 45.2461 204.528 45.2005 204.2 45.1641C203.89 45.1276 203.516 45.0911 203.079 45.0547C202.641 45.0182 202.131 45 201.547 45C201.438 45 201.31 45.0091 201.165 45.0273C201.037 45.0273 200.9 45.0273 200.754 45.0273C200.681 45.319 200.609 45.6107 200.536 45.9023C200.481 46.1758 200.399 46.4674 200.29 46.7773C200.053 47.5065 199.779 48.2995 199.469 49.1562C199.196 49.9036 198.868 50.7604 198.485 51.7266C198.102 52.6927 197.674 53.7227 197.2 54.8164C197.09 55.6003 197.099 56.2018 197.227 56.6211C197.373 57.0221 197.546 57.3138 197.747 57.4961C197.984 57.6966 198.275 57.806 198.622 57.8242C198.895 57.8607 199.223 57.7695 199.606 57.5508C200.007 57.3138 200.417 57.0039 200.836 56.6211C201.256 56.2383 201.675 55.819 202.094 55.3633C202.532 54.9076 202.933 54.4609 203.297 54.0234C203.662 53.5859 203.981 53.194 204.254 52.8477C204.528 52.4831 204.719 52.2279 204.829 52.082ZM217.577 52.9844C217.705 52.8385 217.833 52.7656 217.96 52.7656C218.106 52.7474 218.215 52.7839 218.288 52.875C218.379 52.9479 218.416 53.0664 218.398 53.2305C218.398 53.3945 218.325 53.5768 218.179 53.7773C217.833 54.2513 217.432 54.7435 216.976 55.2539C216.52 55.7461 216.028 56.2292 215.499 56.7031C214.989 57.1771 214.469 57.6237 213.941 58.043C213.412 58.4622 212.902 58.8086 212.409 59.082C211.862 59.3919 211.398 59.5469 211.015 59.5469C210.65 59.5469 210.286 59.3099 209.921 58.8359C209.593 58.4167 209.429 57.9701 209.429 57.4961C209.447 57.0039 209.557 56.3932 209.757 55.6641C209.885 55.2083 210.058 54.6706 210.277 54.0508C210.514 53.4128 210.696 52.8021 210.823 52.2188C210.969 51.6354 211.015 51.1432 210.96 50.7422C210.905 50.3229 210.668 50.1133 210.249 50.1133C209.958 50.1133 209.639 50.2135 209.292 50.4141C208.964 50.6146 208.627 50.8789 208.28 51.207C207.952 51.5169 207.633 51.8724 207.323 52.2734C207.014 52.6745 206.74 53.0664 206.503 53.4492C206.357 54.1602 206.211 54.862 206.066 55.5547C205.938 56.138 205.801 56.776 205.655 57.4688C205.528 58.1432 205.4 58.7448 205.273 59.2734C205.163 59.3646 205.045 59.4284 204.917 59.4648C204.79 59.5013 204.671 59.5195 204.562 59.5195C204.434 59.5195 204.307 59.5104 204.179 59.4922C204.033 59.4557 203.896 59.401 203.769 59.3281C203.659 59.2552 203.55 59.1549 203.441 59.0273C203.331 58.918 203.249 58.763 203.195 58.5625C204.015 55.1901 204.662 52.4831 205.136 50.4414C205.61 48.3997 205.974 46.8411 206.23 45.7656C206.521 44.4896 206.722 43.6055 206.831 43.1133C206.886 42.7669 206.932 42.4297 206.968 42.1016C207.004 41.8099 207.023 41.5091 207.023 41.1992C207.023 40.8893 206.995 40.6068 206.941 40.3516C207.086 40.2604 207.241 40.1875 207.405 40.1328C207.588 40.0781 207.761 40.0326 207.925 39.9961C208.126 39.9414 208.326 39.8958 208.527 39.8594C208.727 39.8229 208.909 39.8047 209.073 39.8047C209.219 39.8047 209.356 39.8229 209.484 39.8594C209.611 39.8776 209.693 39.9323 209.73 40.0234C209.839 40.1146 209.885 40.2969 209.866 40.5703C209.866 40.8438 209.848 41.1263 209.812 41.418C209.739 41.7643 209.657 42.138 209.566 42.5391C209.183 44.0156 208.754 45.4557 208.28 46.8594C207.807 48.2448 207.369 49.7305 206.968 51.3164C207.205 50.9518 207.487 50.5781 207.816 50.1953C208.144 49.8125 208.499 49.4661 208.882 49.1562C209.283 48.8281 209.702 48.5638 210.14 48.3633C210.577 48.1445 211.042 48.0352 211.534 48.0352C211.79 48.0352 212.027 48.0807 212.245 48.1719C212.482 48.2448 212.683 48.3815 212.847 48.582C213.029 48.7643 213.166 49.0195 213.257 49.3477C213.348 49.6576 213.385 50.0495 213.366 50.5234C213.366 50.8151 213.33 51.1159 213.257 51.4258C213.202 51.7357 213.12 52.082 213.011 52.4648C212.902 52.8294 212.756 53.2396 212.573 53.6953C212.409 54.151 212.209 54.6797 211.972 55.2812C211.808 55.7005 211.68 56.056 211.589 56.3477C211.498 56.6393 211.516 56.8945 211.644 57.1133C211.808 57.4049 212.127 57.4779 212.601 57.332C213.093 57.168 213.822 56.694 214.788 55.9102C215.007 55.7279 215.253 55.5 215.527 55.2266C215.8 54.9531 216.064 54.6797 216.32 54.4062C216.575 54.1146 216.812 53.8411 217.03 53.5859C217.249 53.3307 217.432 53.1302 217.577 52.9844ZM232.028 52.082C231.682 51.7174 231.399 51.2708 231.18 50.7422C230.98 50.1953 230.825 49.6576 230.715 49.1289C230.588 48.5273 230.497 47.8893 230.442 47.2148C230.351 45.9023 230.497 44.7083 230.88 43.6328C231.262 42.5573 231.782 41.6367 232.438 40.8711C233.094 40.1055 233.824 39.513 234.626 39.0938C235.446 38.6745 236.239 38.4648 237.005 38.4648C237.351 38.4648 237.624 38.5469 237.825 38.7109C238.044 38.875 238.208 39.0755 238.317 39.3125C238.426 39.5495 238.49 39.7956 238.508 40.0508C238.545 40.306 238.563 40.5156 238.563 40.6797C238.563 41.263 238.545 41.8372 238.508 42.4023C238.49 42.9674 238.445 43.569 238.372 44.207C238.317 44.8451 238.226 45.5286 238.098 46.2578C237.971 46.987 237.807 47.7982 237.606 48.6914C237.497 49.1836 237.342 49.8125 237.141 50.5781C236.941 51.3438 236.704 52.1914 236.43 53.1211C237.251 53.1393 237.907 53.1758 238.399 53.2305C238.909 53.2669 239.238 53.2943 239.383 53.3125C239.511 53.3307 239.602 53.3945 239.657 53.5039C239.73 53.6133 239.693 53.7865 239.548 54.0234C239.402 54.2422 239.192 54.3698 238.919 54.4062C238.663 54.4427 238.408 54.4609 238.153 54.4609C238.007 54.4609 237.734 54.4609 237.333 54.4609C236.95 54.4609 236.494 54.4792 235.965 54.5156C235.583 55.6458 235.145 56.7852 234.653 57.9336C234.179 59.0638 233.65 60.0846 233.067 60.9961C232.484 61.9258 231.846 62.6732 231.153 63.2383C230.46 63.8216 229.722 64.1133 228.938 64.1133C227.808 64.1133 226.851 63.8945 226.067 63.457C225.301 63.0378 224.682 62.5365 224.208 61.9531C223.715 61.388 223.36 60.8138 223.141 60.2305C222.923 59.6654 222.813 59.2279 222.813 58.918C222.813 58.3711 222.959 57.8151 223.251 57.25C223.542 56.6849 224.007 56.1562 224.645 55.6641C225.265 55.1536 226.076 54.707 227.079 54.3242C228.081 53.9414 229.284 53.6497 230.688 53.4492C231.271 53.3763 231.827 53.3216 232.356 53.2852C232.885 53.2305 233.386 53.1849 233.86 53.1484C234.225 51.7812 234.589 50.3867 234.954 48.9648C235.337 47.543 235.665 46.2305 235.938 45.0273C236.048 44.5352 236.157 44.0065 236.266 43.4414C236.376 42.8581 236.458 42.3112 236.512 41.8008C236.585 41.2904 236.622 40.862 236.622 40.5156C236.64 40.1693 236.603 39.9779 236.512 39.9414C236.458 39.9232 236.321 39.9961 236.102 40.1602C235.883 40.306 235.628 40.5247 235.337 40.8164C235.045 41.1081 234.753 41.4635 234.462 41.8828C234.188 42.2839 233.96 42.7214 233.778 43.1953C233.45 44.125 233.195 45.0365 233.012 45.9297C232.867 46.6953 232.775 47.5065 232.739 48.3633C232.702 49.2201 232.839 49.9948 233.149 50.6875C233.113 50.9427 233.058 51.1523 232.985 51.3164C232.93 51.4076 232.885 51.4896 232.848 51.5625C232.794 51.6172 232.73 51.681 232.657 51.7539C232.584 51.8086 232.493 51.8724 232.383 51.9453C232.292 52 232.174 52.0456 232.028 52.082ZM231.7 59.7109C231.9 59.2917 232.146 58.6445 232.438 57.7695C232.73 56.8945 233.04 55.8828 233.368 54.7344C232.475 54.8438 231.572 54.9987 230.661 55.1992C229.749 55.3815 228.92 55.6367 228.173 55.9648C227.443 56.2747 226.842 56.6576 226.368 57.1133C225.912 57.569 225.684 58.1068 225.684 58.7266C225.684 59.3828 225.812 59.957 226.067 60.4492C226.34 60.9414 226.659 61.3516 227.024 61.6797C227.407 62.0078 227.79 62.2539 228.173 62.418C228.574 62.6003 228.911 62.6914 229.184 62.6914C229.458 62.6914 229.713 62.582 229.95 62.3633C230.205 62.1628 230.433 61.9076 230.633 61.5977C230.852 61.306 231.044 60.987 231.208 60.6406C231.39 60.2943 231.554 59.9844 231.7 59.7109ZM248.359 59.6836C247.939 59.6836 247.575 59.6016 247.265 59.4375C246.973 59.2917 246.736 59.0911 246.554 58.8359C246.372 58.5807 246.253 58.2891 246.199 57.9609C246.144 57.6146 246.162 57.25 246.253 56.8672C246.308 56.612 246.399 56.2747 246.527 55.8555C246.654 55.418 246.782 54.9531 246.91 54.4609C247.055 53.9505 247.183 53.4492 247.292 52.957C247.42 52.4466 247.502 51.9909 247.538 51.5898C247.575 51.1706 247.557 50.8333 247.484 50.5781C247.411 50.3047 247.256 50.168 247.019 50.168C246.727 50.168 246.426 50.2682 246.117 50.4688C245.807 50.651 245.488 50.9062 245.16 51.2344C244.85 51.5625 244.531 51.9453 244.202 52.3828C243.893 52.8021 243.583 53.2396 243.273 53.6953C243.109 54.3151 242.972 54.862 242.863 55.3359C242.753 55.7917 242.653 56.2109 242.562 56.5938C242.489 56.9583 242.416 57.2865 242.343 57.5781C242.27 57.8516 242.206 58.1159 242.152 58.3711C242.097 58.5534 241.933 58.7357 241.66 58.918C241.386 59.082 241.094 59.2188 240.785 59.3281C240.475 59.4375 240.21 59.4922 239.992 59.4922C239.755 59.4922 239.654 59.4102 239.691 59.2461C239.709 59.1367 239.773 58.8906 239.882 58.5078C239.973 58.125 240.092 57.6784 240.238 57.168C240.365 56.6393 240.502 56.0833 240.648 55.5C240.794 54.9167 240.93 54.3607 241.058 53.832C241.149 53.4128 241.249 52.9479 241.359 52.4375C241.45 52 241.559 51.4896 241.687 50.9062C241.833 50.3229 241.997 49.6849 242.179 48.9922C242.307 48.8828 242.434 48.8008 242.562 48.7461C242.708 48.6732 242.854 48.6185 242.999 48.582C243.145 48.5273 243.3 48.4909 243.464 48.4727C243.61 48.4727 243.756 48.4818 243.902 48.5C244.029 48.5182 244.157 48.5547 244.285 48.6094C244.43 48.6458 244.558 48.7096 244.667 48.8008C244.613 48.9284 244.549 49.1107 244.476 49.3477C244.403 49.5664 244.33 49.8034 244.257 50.0586C244.184 50.3503 244.093 50.651 243.984 50.9609C244.221 50.6328 244.485 50.3047 244.777 49.9766C245.087 49.6302 245.415 49.3203 245.761 49.0469C246.126 48.7734 246.508 48.5547 246.91 48.3906C247.311 48.2083 247.721 48.1172 248.14 48.1172C248.486 48.1172 248.796 48.2174 249.07 48.418C249.343 48.6185 249.553 48.901 249.699 49.2656C249.863 49.612 249.954 50.0312 249.972 50.5234C250.008 51.0156 249.945 51.5534 249.781 52.1367L249.48 53.3398C249.389 53.7227 249.27 54.1784 249.124 54.707C248.997 55.2174 248.833 55.7826 248.632 56.4023C248.523 56.8034 248.477 57.1497 248.495 57.4414C248.532 57.7331 248.714 57.8789 249.042 57.8789C249.37 57.8789 249.781 57.6784 250.273 57.2773C250.783 56.8763 251.294 56.3932 251.804 55.8281C252.314 55.263 252.798 54.6888 253.253 54.1055C253.709 53.5039 254.055 53.0208 254.292 52.6562C254.456 52.4193 254.611 52.2643 254.757 52.1914C254.903 52.1185 255.012 52.1094 255.085 52.1641C255.176 52.2188 255.222 52.3464 255.222 52.5469C255.222 52.7292 255.149 52.9661 255.003 53.2578C254.876 53.513 254.675 53.8503 254.402 54.2695C254.147 54.6888 253.837 55.1354 253.472 55.6094C253.107 56.0833 252.716 56.5664 252.296 57.0586C251.877 57.5326 251.439 57.9701 250.984 58.3711C250.528 58.7539 250.072 59.0638 249.617 59.3008C249.179 59.556 248.76 59.6836 248.359 59.6836ZM262.147 53.7773C262.055 54.3424 261.964 54.8802 261.873 55.3906C261.8 55.901 261.755 56.3112 261.736 56.6211C261.718 57.0768 261.8 57.4049 261.982 57.6055C262.165 57.806 262.365 57.9062 262.584 57.9062C262.839 57.9062 263.149 57.7786 263.514 57.5234C263.897 57.2682 264.298 56.9492 264.717 56.5664C265.136 56.1836 265.555 55.7643 265.975 55.3086C266.394 54.8529 266.777 54.4245 267.123 54.0234C267.488 53.6042 267.788 53.2396 268.025 52.9297C268.281 52.6198 268.454 52.4193 268.545 52.3281C268.654 52.2188 268.764 52.1549 268.873 52.1367C269.001 52.1185 269.101 52.1367 269.174 52.1914C269.247 52.2461 269.283 52.3464 269.283 52.4922C269.283 52.638 269.21 52.8203 269.065 53.0391C268.846 53.3854 268.563 53.7956 268.217 54.2695C267.871 54.7253 267.488 55.1992 267.068 55.6914C266.649 56.1836 266.203 56.6667 265.729 57.1406C265.273 57.6146 264.808 58.0339 264.334 58.3984C263.878 58.763 263.432 59.0547 262.994 59.2734C262.575 59.5104 262.192 59.6289 261.846 59.6289C261.591 59.6289 261.344 59.556 261.107 59.4102C260.889 59.2643 260.688 59.0729 260.506 58.8359C260.324 58.599 260.178 58.3346 260.068 58.043C259.977 57.7513 259.941 57.4596 259.959 57.168C259.977 57.0404 260.005 56.8216 260.041 56.5117C259.275 57.3685 258.501 58.0521 257.717 58.5625C256.951 59.0547 256.213 59.3008 255.502 59.3008C255.247 59.3008 254.973 59.237 254.682 59.1094C254.39 58.9818 254.126 58.7721 253.889 58.4805C253.67 58.1888 253.488 57.806 253.342 57.332C253.196 56.8581 253.141 56.2839 253.178 55.6094C253.232 54.5521 253.442 53.5495 253.807 52.6016C254.171 51.6536 254.627 50.8333 255.174 50.1406C255.739 49.4297 256.368 48.8737 257.061 48.4727C257.772 48.0534 258.482 47.8438 259.193 47.8438C259.503 47.8438 259.786 47.9258 260.041 48.0898C260.296 48.2357 260.515 48.4362 260.697 48.6914C260.88 48.9284 261.025 49.1927 261.135 49.4844C261.262 49.776 261.354 50.0495 261.408 50.3047C261.536 49.776 261.654 49.2565 261.764 48.7461C261.873 48.2357 261.982 47.7526 262.092 47.2969C262.274 46.6224 262.466 45.8932 262.666 45.1094C262.848 44.4349 263.058 43.6602 263.295 42.7852C263.532 41.9102 263.796 40.9896 264.088 40.0234C264.27 39.8776 264.443 39.7682 264.607 39.6953C264.772 39.6224 264.927 39.5677 265.072 39.5312C265.236 39.4766 265.391 39.4492 265.537 39.4492C265.719 39.4492 265.884 39.4766 266.029 39.5312C266.175 39.5677 266.294 39.6862 266.385 39.8867C266.494 40.069 266.567 40.3516 266.604 40.7344C266.64 41.1172 266.64 41.6367 266.604 42.293C266.567 43.0951 266.421 43.9701 266.166 44.918C265.929 45.8659 265.61 46.8503 265.209 47.8711C264.808 48.8737 264.343 49.8854 263.815 50.9062C263.304 51.9089 262.748 52.8659 262.147 53.7773ZM260.533 54.1328C260.606 53.7865 260.67 53.4401 260.725 53.0938C260.798 52.7474 260.88 52.3919 260.971 52.0273C260.934 52.0456 260.898 52.0638 260.861 52.082C260.843 52.1003 260.816 52.1185 260.779 52.1367C260.579 52.2279 260.442 52.2279 260.369 52.1367C260.296 52.0273 260.26 51.8633 260.26 51.6445C260.26 51.5352 260.251 51.3438 260.232 51.0703C260.214 50.7786 260.16 50.487 260.068 50.1953C259.996 49.8854 259.877 49.6211 259.713 49.4023C259.549 49.1654 259.321 49.0469 259.029 49.0469C258.61 49.0469 258.182 49.2656 257.744 49.7031C257.307 50.1224 256.897 50.6419 256.514 51.2617C256.131 51.8633 255.812 52.5104 255.557 53.2031C255.302 53.8958 255.156 54.5156 255.119 55.0625C255.083 55.9375 255.192 56.5664 255.447 56.9492C255.703 57.332 256.049 57.5234 256.486 57.5234C256.815 57.5234 257.17 57.3958 257.553 57.1406C257.954 56.8854 258.337 56.5755 258.701 56.2109C259.084 55.8464 259.43 55.4727 259.74 55.0898C260.068 54.707 260.333 54.388 260.533 54.1328ZM273.282 42.8945C273.227 43.0951 273.118 43.2956 272.954 43.4961C272.808 43.6784 272.635 43.8333 272.434 43.9609C272.252 44.0703 272.061 44.1432 271.86 44.1797C271.66 44.2161 271.496 44.1797 271.368 44.0703C270.985 43.7786 270.785 43.4688 270.766 43.1406C270.748 42.7943 270.83 42.4753 271.012 42.1836C271.195 41.8737 271.423 41.6185 271.696 41.418C271.97 41.1992 272.207 41.0716 272.407 41.0352C272.608 40.9987 272.772 41.0443 272.899 41.1719C273.045 41.2812 273.154 41.4362 273.227 41.6367C273.3 41.819 273.337 42.0286 273.337 42.2656C273.355 42.5026 273.337 42.7122 273.282 42.8945ZM269.509 48.7188C269.6 48.6094 269.773 48.5182 270.028 48.4453C270.283 48.3724 270.548 48.3177 270.821 48.2812C271.095 48.2266 271.341 48.1992 271.559 48.1992C271.796 48.181 271.933 48.181 271.97 48.1992C271.988 48.2174 271.942 48.4089 271.833 48.7734C271.723 49.138 271.587 49.5664 271.423 50.0586C271.259 50.5508 271.085 51.0612 270.903 51.5898C270.721 52.1003 270.584 52.5195 270.493 52.8477C270.402 53.1758 270.292 53.5495 270.165 53.9688C270.037 54.3698 269.919 54.7708 269.809 55.1719C269.718 55.5547 269.654 55.9193 269.618 56.2656C269.582 56.612 269.609 56.8763 269.7 57.0586C269.791 57.2773 269.891 57.4323 270.001 57.5234C270.11 57.5964 270.229 57.6328 270.356 57.6328C270.721 57.6328 271.177 57.4323 271.723 57.0312C272.289 56.6302 272.854 56.1562 273.419 55.6094C274.002 55.0443 274.54 54.4792 275.032 53.9141C275.524 53.3307 275.889 52.8659 276.126 52.5195C276.272 52.3372 276.417 52.2188 276.563 52.1641C276.727 52.1094 276.855 52.1185 276.946 52.1914C277.055 52.2643 277.11 52.3828 277.11 52.5469C277.128 52.7109 277.074 52.9023 276.946 53.1211C276.654 53.6315 276.226 54.2422 275.661 54.9531C275.096 55.6458 274.494 56.3203 273.856 56.9766C273.218 57.6146 272.589 58.1615 271.97 58.6172C271.368 59.0729 270.876 59.3099 270.493 59.3281C270.183 59.3464 269.873 59.2917 269.563 59.1641C269.272 59.0547 268.998 58.8997 268.743 58.6992C268.506 58.4805 268.305 58.2344 268.141 57.9609C267.977 57.6693 267.886 57.3685 267.868 57.0586C267.813 56.6029 267.813 55.9831 267.868 55.1992C267.923 54.3971 268.023 53.5859 268.169 52.7656C268.315 51.9271 268.497 51.1341 268.716 50.3867C268.953 49.6393 269.217 49.0833 269.509 48.7188ZM289.257 53.5586C289.002 53.9232 288.674 54.3789 288.273 54.9258C287.872 55.4544 287.453 55.9922 287.015 56.5391C286.596 57.0677 286.177 57.5599 285.757 58.0156C285.356 58.4531 285.019 58.763 284.746 58.9453C284.563 59.0547 284.354 59.1458 284.117 59.2188C283.88 59.2917 283.634 59.3372 283.378 59.3555C283.141 59.3737 282.914 59.3555 282.695 59.3008C282.476 59.2643 282.285 59.1914 282.121 59.082C281.957 58.9544 281.82 58.7721 281.71 58.5352C281.619 58.3346 281.528 58.0703 281.437 57.7422C281.364 57.4141 281.337 57.0039 281.355 56.5117C280.917 57.2409 280.434 57.806 279.906 58.207C279.377 58.5898 278.876 58.8724 278.402 59.0547C277.855 59.2552 277.308 59.3737 276.761 59.4102C276.506 59.4102 276.233 59.319 275.941 59.1367C275.649 58.9727 275.403 58.7083 275.203 58.3438C275.002 57.9609 274.875 57.4779 274.82 56.8945C274.765 56.293 274.838 55.582 275.039 54.7617C275.294 53.6497 275.695 52.638 276.242 51.7266C276.807 50.8151 277.417 50.0404 278.074 49.4023C278.73 48.7461 279.377 48.2539 280.015 47.9258C280.653 47.5977 281.182 47.4518 281.601 47.4883C282.093 47.5794 282.494 47.7253 282.804 47.9258C283.059 48.1081 283.223 48.3815 283.296 48.7461C283.388 49.0924 283.242 49.5573 282.859 50.1406C283.114 50.0859 283.324 50.0495 283.488 50.0312C283.67 50.013 283.807 50.0039 283.898 50.0039C284.007 50.0039 284.08 50.013 284.117 50.0312C284.135 50.0677 284.144 50.1497 284.144 50.2773C284.144 50.3867 284.117 50.5964 284.062 50.9062C284.007 51.2161 283.925 51.6354 283.816 52.1641C283.707 52.6927 283.561 53.3763 283.378 54.2148C283.342 54.3789 283.306 54.5339 283.269 54.6797C283.251 54.8073 283.223 54.944 283.187 55.0898C283.169 55.2174 283.141 55.3724 283.105 55.5547C283.069 55.737 283.023 55.9648 282.968 56.2383C282.95 56.4023 282.941 56.5846 282.941 56.7852C282.959 56.9674 282.996 57.1406 283.05 57.3047C283.105 57.4688 283.187 57.6055 283.296 57.7148C283.424 57.806 283.597 57.8516 283.816 57.8516C283.998 57.8516 284.235 57.7422 284.527 57.5234C284.819 57.2865 285.128 56.9948 285.457 56.6484C285.785 56.2839 286.122 55.8919 286.468 55.4727C286.833 55.0352 287.17 54.6159 287.48 54.2148C287.79 53.8138 288.063 53.4583 288.3 53.1484C288.556 52.8385 288.738 52.6107 288.847 52.4648C288.993 52.3008 289.139 52.2096 289.285 52.1914C289.431 52.1549 289.54 52.1914 289.613 52.3008C289.686 52.4102 289.695 52.5742 289.64 52.793C289.604 53.0117 289.476 53.2669 289.257 53.5586ZM281.246 54.7617C281.337 54.3971 281.446 53.9688 281.574 53.4766C281.701 52.9844 281.811 52.5104 281.902 52.0547C281.993 51.599 282.057 51.2253 282.093 50.9336C282.148 50.6237 282.139 50.4779 282.066 50.4961C281.975 50.5143 281.875 50.5417 281.765 50.5781C281.674 50.6146 281.556 50.6419 281.41 50.6602C281.264 50.6784 281.118 50.7057 280.972 50.7422C281.118 50.4505 281.2 50.2135 281.218 50.0312C281.255 49.8307 281.264 49.6758 281.246 49.5664C281.227 49.4388 281.191 49.3385 281.136 49.2656C280.936 49.1016 280.58 49.2383 280.07 49.6758C279.578 50.0951 279.003 50.8789 278.347 52.0273C278.074 52.5013 277.855 53.0117 277.691 53.5586C277.527 54.0872 277.408 54.5885 277.335 55.0625C277.281 55.5365 277.272 55.9557 277.308 56.3203C277.345 56.6667 277.417 56.8945 277.527 57.0039C277.727 57.2044 277.955 57.3047 278.21 57.3047C278.466 57.2865 278.721 57.2135 278.976 57.0859C279.25 56.9401 279.514 56.7578 279.769 56.5391C280.042 56.3203 280.279 56.0924 280.48 55.8555C280.699 55.6185 280.872 55.3997 281 55.1992C281.145 54.9987 281.227 54.8529 281.246 54.7617ZM295.826 59.6836C295.407 59.6836 295.043 59.6016 294.733 59.4375C294.441 59.2917 294.204 59.0911 294.022 58.8359C293.839 58.5807 293.721 58.2891 293.666 57.9609C293.612 57.6146 293.63 57.25 293.721 56.8672C293.776 56.612 293.867 56.2747 293.994 55.8555C294.122 55.418 294.25 54.9531 294.377 54.4609C294.523 53.9505 294.651 53.4492 294.76 52.957C294.888 52.4466 294.97 51.9909 295.006 51.5898C295.043 51.1706 295.024 50.8333 294.951 50.5781C294.878 50.3047 294.724 50.168 294.487 50.168C294.195 50.168 293.894 50.2682 293.584 50.4688C293.274 50.651 292.955 50.9062 292.627 51.2344C292.317 51.5625 291.998 51.9453 291.67 52.3828C291.36 52.8021 291.05 53.2396 290.74 53.6953C290.576 54.3151 290.44 54.862 290.33 55.3359C290.221 55.7917 290.121 56.2109 290.03 56.5938C289.957 56.9583 289.884 57.2865 289.811 57.5781C289.738 57.8516 289.674 58.1159 289.619 58.3711C289.565 58.5534 289.401 58.7357 289.127 58.918C288.854 59.082 288.562 59.2188 288.252 59.3281C287.942 59.4375 287.678 59.4922 287.459 59.4922C287.222 59.4922 287.122 59.4102 287.158 59.2461C287.177 59.1367 287.24 58.8906 287.35 58.5078C287.441 58.125 287.559 57.6784 287.705 57.168C287.833 56.6393 287.97 56.0833 288.115 55.5C288.261 54.9167 288.398 54.3607 288.526 53.832C288.617 53.4128 288.717 52.9479 288.826 52.4375C288.918 52 289.027 51.4896 289.155 50.9062C289.3 50.3229 289.464 49.6849 289.647 48.9922C289.774 48.8828 289.902 48.8008 290.03 48.7461C290.175 48.6732 290.321 48.6185 290.467 48.582C290.613 48.5273 290.768 48.4909 290.932 48.4727C291.078 48.4727 291.224 48.4818 291.369 48.5C291.497 48.5182 291.625 48.5547 291.752 48.6094C291.898 48.6458 292.026 48.7096 292.135 48.8008C292.08 48.9284 292.017 49.1107 291.944 49.3477C291.871 49.5664 291.798 49.8034 291.725 50.0586C291.652 50.3503 291.561 50.651 291.451 50.9609C291.688 50.6328 291.953 50.3047 292.244 49.9766C292.554 49.6302 292.882 49.3203 293.229 49.0469C293.593 48.7734 293.976 48.5547 294.377 48.3906C294.778 48.2083 295.188 48.1172 295.608 48.1172C295.954 48.1172 296.264 48.2174 296.537 48.418C296.811 48.6185 297.02 48.901 297.166 49.2656C297.33 49.612 297.421 50.0312 297.44 50.5234C297.476 51.0156 297.412 51.5534 297.248 52.1367L296.947 53.3398C296.856 53.7227 296.738 54.1784 296.592 54.707C296.464 55.2174 296.3 55.7826 296.1 56.4023C295.99 56.8034 295.945 57.1497 295.963 57.4414C296 57.7331 296.182 57.8789 296.51 57.8789C296.838 57.8789 297.248 57.6784 297.74 57.2773C298.251 56.8763 298.761 56.3932 299.272 55.8281C299.782 55.263 300.265 54.6888 300.721 54.1055C301.177 53.5039 301.523 53.0208 301.76 52.6562C301.924 52.4193 302.079 52.2643 302.225 52.1914C302.371 52.1185 302.48 52.1094 302.553 52.1641C302.644 52.2188 302.69 52.3464 302.69 52.5469C302.69 52.7292 302.617 52.9661 302.471 53.2578C302.343 53.513 302.143 53.8503 301.869 54.2695C301.614 54.6888 301.304 55.1354 300.94 55.6094C300.575 56.0833 300.183 56.5664 299.764 57.0586C299.345 57.5326 298.907 57.9701 298.451 58.3711C297.996 58.7539 297.54 59.0638 297.084 59.3008C296.647 59.556 296.227 59.6836 295.826 59.6836ZM307.652 62.9102C307.725 62.8555 307.843 62.7643 308.007 62.6367C308.153 62.5091 308.336 62.2721 308.554 61.9258C308.755 61.5794 308.983 61.0781 309.238 60.4219C309.493 59.7656 309.757 58.8724 310.031 57.7422C310.177 57.1406 310.368 56.375 310.605 55.4453C310.842 54.5156 311.097 53.5221 311.371 52.4648C311.662 51.4076 311.954 50.3229 312.246 49.2109C312.537 48.0807 312.82 47.0143 313.093 46.0117C313.367 44.9909 313.613 44.0703 313.832 43.25C314.05 42.4297 314.224 41.7917 314.351 41.3359C314.005 41.5547 313.668 41.8008 313.34 42.0742C313.048 42.3112 312.738 42.5846 312.41 42.8945C312.082 43.1862 311.763 43.4961 311.453 43.8242C311.216 43.6237 311.034 43.4049 310.906 43.168C310.833 43.0586 310.769 42.9401 310.715 42.8125C310.605 42.5391 310.55 42.2565 310.55 41.9648C310.55 41.6732 310.778 41.3724 311.234 41.0625C311.471 40.8984 311.827 40.6615 312.3 40.3516C312.793 40.0417 313.394 39.7409 314.105 39.4492C314.816 39.1393 315.646 38.875 316.593 38.6562C317.541 38.4375 318.59 38.3281 319.738 38.3281C320.886 38.3281 321.807 38.556 322.5 39.0117C323.211 39.4674 323.748 40.0234 324.113 40.6797C324.496 41.3359 324.742 42.0286 324.851 42.7578C324.961 43.487 324.988 44.125 324.933 44.6719C324.824 45.6927 324.496 46.7591 323.949 47.8711C323.402 48.9831 322.646 50.013 321.679 50.9609C320.713 51.8906 319.537 52.6836 318.152 53.3398C316.767 53.9961 315.181 54.3698 313.394 54.4609C313.248 55.1536 313.103 55.8646 312.957 56.5938C312.811 57.3229 312.656 58.043 312.492 58.7539C312.328 59.4466 312.155 60.0938 311.972 60.6953C311.808 61.3151 311.635 61.8438 311.453 62.2812C311.271 62.7552 311.034 63.1289 310.742 63.4023C310.45 63.694 309.985 63.8398 309.347 63.8398C309.019 63.8398 308.718 63.7578 308.445 63.5938C308.153 63.4297 307.889 63.2018 307.652 62.9102ZM314.132 50.4414C314.078 50.7331 314.005 51.1159 313.914 51.5898C313.841 52.0456 313.75 52.5651 313.64 53.1484C314.132 53.0755 314.679 52.9479 315.281 52.7656C315.882 52.5651 316.484 52.3008 317.086 51.9727C317.687 51.6445 318.271 51.2526 318.836 50.7969C319.419 50.3229 319.948 49.7852 320.422 49.1836C320.896 48.5638 321.287 47.8711 321.597 47.1055C321.925 46.3216 322.135 45.4557 322.226 44.5078C322.317 43.5964 322.263 42.8398 322.062 42.2383C321.88 41.6185 321.606 41.1263 321.242 40.7617C320.877 40.3789 320.458 40.1146 319.984 39.9688C319.51 39.8047 319.036 39.7227 318.562 39.7227C318.106 39.7227 317.66 39.7865 317.222 39.9141C316.785 40.0417 316.347 40.2057 315.91 40.4062C315.965 40.4245 316.028 40.4701 316.101 40.543C316.211 40.6523 316.293 40.8073 316.347 41.0078C315.91 42.776 315.545 44.2526 315.254 45.4375C314.98 46.6224 314.761 47.5885 314.597 48.3359C314.397 49.2109 314.242 49.9128 314.132 50.4414ZM324.393 58.5625C325.195 55.1901 325.833 52.4831 326.307 50.4414C326.799 48.3997 327.173 46.8411 327.428 45.7656C327.72 44.4896 327.92 43.6055 328.03 43.1133C328.084 42.7669 328.13 42.4297 328.166 42.1016C328.203 41.8099 328.221 41.5091 328.221 41.1992C328.221 40.8893 328.194 40.6068 328.139 40.3516C328.285 40.2604 328.44 40.1875 328.604 40.1328C328.786 40.0781 328.959 40.0326 329.123 39.9961C329.324 39.9414 329.524 39.8958 329.725 39.8594C329.926 39.8229 330.108 39.8047 330.272 39.8047C330.418 39.8047 330.554 39.8229 330.682 39.8594C330.81 39.8776 330.892 39.9323 330.928 40.0234C331.037 40.1146 331.083 40.2969 331.065 40.5703C331.065 40.8438 331.047 41.1263 331.01 41.418C330.937 41.7643 330.855 42.138 330.764 42.5391C330.545 43.3229 330.245 44.4531 329.862 45.9297C329.534 47.1875 329.087 48.901 328.522 51.0703C327.975 53.2396 327.282 55.974 326.444 59.2734C326.353 59.3646 326.243 59.4284 326.116 59.4648C325.988 59.5013 325.87 59.5195 325.76 59.5195C325.633 59.5195 325.496 59.5104 325.35 59.4922C325.222 59.4557 325.095 59.401 324.967 59.3281C324.858 59.2552 324.748 59.1549 324.639 59.0273C324.53 58.918 324.448 58.763 324.393 58.5625ZM345.235 53.5586C344.98 53.9232 344.652 54.3789 344.251 54.9258C343.85 55.4544 343.431 55.9922 342.993 56.5391C342.574 57.0677 342.155 57.5599 341.735 58.0156C341.334 58.4531 340.997 58.763 340.724 58.9453C340.541 59.0547 340.332 59.1458 340.095 59.2188C339.858 59.2917 339.612 59.3372 339.357 59.3555C339.12 59.3737 338.892 59.3555 338.673 59.3008C338.454 59.2643 338.263 59.1914 338.099 59.082C337.935 58.9544 337.798 58.7721 337.689 58.5352C337.597 58.3346 337.506 58.0703 337.415 57.7422C337.342 57.4141 337.315 57.0039 337.333 56.5117C336.896 57.2409 336.413 57.806 335.884 58.207C335.355 58.5898 334.854 58.8724 334.38 59.0547C333.833 59.2552 333.286 59.3737 332.739 59.4102C332.484 59.4102 332.211 59.319 331.919 59.1367C331.627 58.9727 331.381 58.7083 331.181 58.3438C330.98 57.9609 330.853 57.4779 330.798 56.8945C330.743 56.293 330.816 55.582 331.017 54.7617C331.272 53.6497 331.673 52.638 332.22 51.7266C332.785 50.8151 333.396 50.0404 334.052 49.4023C334.708 48.7461 335.355 48.2539 335.993 47.9258C336.631 47.5977 337.16 47.4518 337.579 47.4883C338.071 47.5794 338.472 47.7253 338.782 47.9258C339.038 48.1081 339.202 48.3815 339.275 48.7461C339.366 49.0924 339.22 49.5573 338.837 50.1406C339.092 50.0859 339.302 50.0495 339.466 50.0312C339.648 50.013 339.785 50.0039 339.876 50.0039C339.985 50.0039 340.058 50.013 340.095 50.0312C340.113 50.0677 340.122 50.1497 340.122 50.2773C340.122 50.3867 340.095 50.5964 340.04 50.9062C339.985 51.2161 339.903 51.6354 339.794 52.1641C339.685 52.6927 339.539 53.3763 339.357 54.2148C339.32 54.3789 339.284 54.5339 339.247 54.6797C339.229 54.8073 339.202 54.944 339.165 55.0898C339.147 55.2174 339.12 55.3724 339.083 55.5547C339.047 55.737 339.001 55.9648 338.946 56.2383C338.928 56.4023 338.919 56.5846 338.919 56.7852C338.937 56.9674 338.974 57.1406 339.028 57.3047C339.083 57.4688 339.165 57.6055 339.275 57.7148C339.402 57.806 339.575 57.8516 339.794 57.8516C339.976 57.8516 340.213 57.7422 340.505 57.5234C340.797 57.2865 341.107 56.9948 341.435 56.6484C341.763 56.2839 342.1 55.8919 342.446 55.4727C342.811 55.0352 343.148 54.6159 343.458 54.2148C343.768 53.8138 344.041 53.4583 344.278 53.1484C344.534 52.8385 344.716 52.6107 344.825 52.4648C344.971 52.3008 345.117 52.2096 345.263 52.1914C345.409 52.1549 345.518 52.1914 345.591 52.3008C345.664 52.4102 345.673 52.5742 345.618 52.793C345.582 53.0117 345.454 53.2669 345.235 53.5586ZM337.224 54.7617C337.315 54.3971 337.424 53.9688 337.552 53.4766C337.679 52.9844 337.789 52.5104 337.88 52.0547C337.971 51.599 338.035 51.2253 338.071 50.9336C338.126 50.6237 338.117 50.4779 338.044 50.4961C337.953 50.5143 337.853 50.5417 337.743 50.5781C337.652 50.6146 337.534 50.6419 337.388 50.6602C337.242 50.6784 337.096 50.7057 336.95 50.7422C337.096 50.4505 337.178 50.2135 337.196 50.0312C337.233 49.8307 337.242 49.6758 337.224 49.5664C337.206 49.4388 337.169 49.3385 337.114 49.2656C336.914 49.1016 336.558 49.2383 336.048 49.6758C335.556 50.0951 334.982 50.8789 334.325 52.0273C334.052 52.5013 333.833 53.0117 333.669 53.5586C333.505 54.0872 333.387 54.5885 333.314 55.0625C333.259 55.5365 333.25 55.9557 333.286 56.3203C333.323 56.6667 333.396 56.8945 333.505 57.0039C333.706 57.2044 333.933 57.3047 334.189 57.3047C334.444 57.2865 334.699 57.2135 334.954 57.0859C335.228 56.9401 335.492 56.7578 335.747 56.5391C336.021 56.3203 336.258 56.0924 336.458 55.8555C336.677 55.6185 336.85 55.3997 336.978 55.1992C337.123 54.9987 337.206 54.8529 337.224 54.7617ZM353.773 52.082C353.846 51.9727 353.937 51.9089 354.047 51.8906C354.174 51.8542 354.275 51.8633 354.348 51.918C354.42 51.9727 354.457 52.0638 354.457 52.1914C354.475 52.319 354.43 52.4922 354.32 52.7109C353.956 53.4036 353.473 54.151 352.871 54.9531C352.288 55.7552 351.668 56.5117 351.012 57.2227C350.355 57.9154 349.717 58.4896 349.098 58.9453C348.478 59.401 347.958 59.6289 347.539 59.6289C346.937 59.6289 346.436 59.5104 346.035 59.2734C345.634 59.0365 345.315 58.7448 345.078 58.3984C344.859 58.0521 344.704 57.6784 344.613 57.2773C344.522 56.8581 344.495 56.4753 344.531 56.1289C344.549 55.8372 344.613 55.3177 344.723 54.5703C344.832 53.8047 344.978 52.9297 345.16 51.9453C345.342 50.9427 345.543 49.8763 345.762 48.7461C345.999 47.5977 346.245 46.4948 346.5 45.4375C346.19 45.474 345.88 45.5104 345.57 45.5469C345.26 45.5833 344.978 45.6016 344.723 45.6016C344.139 45.6016 343.592 45.5378 343.082 45.4102C342.553 45.2643 342.161 45.1276 341.906 45C341.76 44.9271 341.696 44.8268 341.715 44.6992C341.733 44.5534 341.788 44.4167 341.879 44.2891C341.97 44.1432 342.088 44.0247 342.234 43.9336C342.362 43.8242 342.48 43.7695 342.59 43.7695C342.936 43.806 343.31 43.8424 343.711 43.8789C344.112 43.8971 344.549 43.8971 345.023 43.8789C345.37 43.8607 345.698 43.8333 346.008 43.7969C346.336 43.7604 346.655 43.7148 346.965 43.6602C347.202 42.7852 347.43 42.0286 347.648 41.3906C347.885 40.7344 348.095 40.2786 348.277 40.0234C348.332 39.9323 348.45 39.8594 348.633 39.8047C348.833 39.7318 349.043 39.6862 349.262 39.668C349.48 39.6315 349.69 39.6315 349.89 39.668C350.091 39.6862 350.237 39.75 350.328 39.8594C350.419 40.0052 350.456 40.3789 350.437 40.9805C350.419 41.582 350.319 42.3477 350.137 43.2773C350.902 43.2773 351.577 43.3229 352.16 43.4141C352.762 43.487 353.272 43.5781 353.691 43.6875C354.111 43.7786 354.448 43.8789 354.703 43.9883C354.958 44.0794 355.15 44.1432 355.277 44.1797C355.405 44.2161 355.469 44.3073 355.469 44.4531C355.487 44.599 355.459 44.7539 355.387 44.918C355.332 45.0638 355.232 45.1914 355.086 45.3008C354.94 45.4102 354.776 45.4466 354.594 45.4102C354.411 45.3919 354.202 45.3555 353.965 45.3008C353.746 45.2461 353.473 45.2005 353.144 45.1641C352.834 45.1276 352.461 45.0911 352.023 45.0547C351.586 45.0182 351.075 45 350.492 45C350.383 45 350.255 45.0091 350.109 45.0273C349.982 45.0273 349.845 45.0273 349.699 45.0273C349.626 45.319 349.553 45.6107 349.48 45.9023C349.426 46.1758 349.344 46.4674 349.234 46.7773C348.997 47.5065 348.724 48.2995 348.414 49.1562C348.14 49.9036 347.812 50.7604 347.43 51.7266C347.047 52.6927 346.618 53.7227 346.144 54.8164C346.035 55.6003 346.044 56.2018 346.172 56.6211C346.318 57.0221 346.491 57.3138 346.691 57.4961C346.928 57.6966 347.22 57.806 347.566 57.8242C347.84 57.8607 348.168 57.7695 348.551 57.5508C348.952 57.3138 349.362 57.0039 349.781 56.6211C350.2 56.2383 350.62 55.819 351.039 55.3633C351.476 54.9076 351.877 54.4609 352.242 54.0234C352.607 53.5859 352.926 53.194 353.199 52.8477C353.473 52.4831 353.664 52.2279 353.773 52.082ZM364.799 53.3125C364.253 54.1146 363.633 54.8984 362.94 55.6641C362.247 56.4115 361.509 57.0859 360.725 57.6875C359.96 58.2708 359.167 58.7448 358.346 59.1094C357.544 59.474 356.76 59.6562 355.995 59.6562C355.594 59.6562 355.156 59.556 354.682 59.3555C354.226 59.1732 353.807 58.8815 353.424 58.4805C353.042 58.0794 352.732 57.5599 352.495 56.9219C352.276 56.2839 352.212 55.5091 352.303 54.5977C352.376 53.8503 352.604 53.0664 352.987 52.2461C353.388 51.4076 353.871 50.6419 354.436 49.9492C355.019 49.2565 355.667 48.6823 356.378 48.2266C357.107 47.7708 357.836 47.543 358.565 47.543C359.258 47.543 359.759 47.7161 360.069 48.0625C360.379 48.4089 360.516 48.8372 360.479 49.3477C360.424 49.9128 360.26 50.4323 359.987 50.9062C359.732 51.3802 359.422 51.8086 359.057 52.1914C358.693 52.5742 358.301 52.9206 357.881 53.2305C357.48 53.5404 357.098 53.8229 356.733 54.0781C356.332 54.3516 355.949 54.6159 355.585 54.8711C355.22 55.1081 354.901 55.3268 354.628 55.5273C354.646 55.9831 354.728 56.3659 354.874 56.6758C355.019 56.9857 355.202 57.2409 355.42 57.4414C355.639 57.6237 355.885 57.7604 356.159 57.8516C356.45 57.9245 356.742 57.9609 357.034 57.9609C357.654 57.9609 358.301 57.7695 358.975 57.3867C359.65 56.9857 360.306 56.5117 360.944 55.9648C361.6 55.3997 362.202 54.8164 362.749 54.2148C363.314 53.6133 363.779 53.0938 364.143 52.6562C364.271 52.5104 364.398 52.4284 364.526 52.4102C364.672 52.3737 364.781 52.3919 364.854 52.4648C364.945 52.5195 364.991 52.6289 364.991 52.793C364.991 52.9388 364.927 53.112 364.799 53.3125ZM357.799 49.1016C357.581 49.1016 357.316 49.2109 357.006 49.4297C356.715 49.6484 356.423 49.9674 356.131 50.3867C355.84 50.7878 355.566 51.2891 355.311 51.8906C355.056 52.474 354.864 53.1484 354.737 53.9141C354.956 53.75 355.193 53.5859 355.448 53.4219C355.703 53.2396 355.958 53.0482 356.213 52.8477C356.997 52.2461 357.544 51.7174 357.854 51.2617C358.164 50.806 358.337 50.4141 358.374 50.0859C358.41 49.7396 358.374 49.4935 358.264 49.3477C358.155 49.1836 358 49.1016 357.799 49.1016Z" fill="#F85A11"/>
<g filter="url(#filter0_i_41_62)">
<ellipse cx="51" cy="51.5" rx="40" ry="40.5" fill="#F85A11"/>
</g>
<path d="M51 97.5C76.1932 97.5 96.5 76.8405 96.5 51.5C96.5 26.1595 76.1932 5.5 51 5.5C25.8068 5.5 5.5 26.1595 5.5 51.5C5.5 76.8405 25.8068 97.5 51 97.5Z" stroke="#321203" stroke-width="11"/>
<g filter="url(#filter1_d_41_62)">
<ellipse cx="34.0588" cy="34.3468" rx="10.8235" ry="11.9118" fill="white"/>
<path d="M44.3823 34.3468C44.3823 40.6955 39.7163 45.7586 34.0588 45.7586C28.4012 45.7586 23.7352 40.6955 23.7352 34.3468C23.7352 27.9981 28.4012 22.9351 34.0588 22.9351C39.7163 22.9351 44.3823 27.9981 44.3823 34.3468Z" stroke="#EEEEEE"/>
</g>
<g filter="url(#filter2_dd_41_62)">
<path d="M80.6471 34.3468C80.6471 40.9255 75.8012 46.2586 69.8235 46.2586C63.8459 46.2586 59 40.9255 59 34.3468C59 27.7681 63.8459 22.4351 69.8235 22.4351C75.8012 22.4351 80.6471 27.7681 80.6471 34.3468Z" fill="white"/>
<path d="M80.1471 34.3468C80.1471 40.6955 75.4811 45.7586 69.8235 45.7586C64.166 45.7586 59.5 40.6955 59.5 34.3468C59.5 27.9981 64.166 22.9351 69.8235 22.9351C75.4811 22.9351 80.1471 27.9981 80.1471 34.3468Z" stroke="#EEEEEE"/>
</g>
<g filter="url(#filter3_i_41_62)">
<path d="M62.2647 57.2176C62.2647 63.0437 58.0167 67.6764 52.8824 67.6764C47.748 67.6764 43.5 63.0437 43.5 57.2176C43.5 51.3915 47.748 46.7588 52.8824 46.7588C58.0167 46.7588 62.2647 51.3915 62.2647 57.2176Z" fill="#D6761D" stroke="#CC740C"/>
<path d="M56.1834 57.2181C56.1834 59.1174 54.6918 60.6319 52.8824 60.6319C51.0731 60.6319 49.5815 59.1174 49.5815 57.2181C49.5815 55.3187 51.0731 53.8042 52.8824 53.8042C54.6918 53.8042 56.1834 55.3187 56.1834 57.2181Z" fill="#EA661B" stroke="#CC740C"/>
</g>
<path d="M76.1471 70.0824C71.1915 77.2131 57.0103 87.0421 36.6206 76.5594C31.4903 78.648 25.8099 85.2424 22.8562 89.4828C14.4338 81.3531 24.9662 76.7273 33.6201 74.894C31.8432 73.8354 30.0228 72.6232 28.1608 71.2434C30.3854 72.2623 33.4885 73.3715 37.1761 74.274C47.687 76.8466 62.9467 77.7405 76.1471 70.0824Z" fill="#820707"/>
<path d="M41.1177 80.5649C44.8547 83.4414 55.1689 87.4684 66.5294 80.5649" stroke="#820707"/>
<path d="M47.7822 86.2822C49.3113 88.1404 53.6099 90.8124 58.5714 86.6346" stroke="#820707"/>
<path d="M23.2352 84.3765C25.1045 82.1734 26.1749 80.1702 28.8823 79.6118" stroke="#F85A11" stroke-linecap="round"/>
<ellipse cx="34.4785" cy="40.0206" rx="4.655" ry="6.15" fill="#321203"/>
<ellipse cx="70.2431" cy="40.0206" rx="4.655" ry="6.15" fill="#321203"/>
<path d="M353 74.0049C353.662 79.9606 367.258 80.8904 367.258 74.653C367.258 72.7635 366.545 75.4666 365.998 76.5613C365.214 78.1297 363.503 78.6981 362.073 79.3337C358.039 81.1269 356.678 78.1123 353.648 76.5973" stroke="#321203" stroke-linecap="round"/>
<path d="M356.5 68H356" stroke="black" stroke-width="3" stroke-linecap="round"/>
<path d="M364 68H365" stroke="black" stroke-width="3" stroke-linecap="round"/>
<defs>
<filter id="filter0_i_41_62" x="0" y="0" width="102" height="104" filterUnits="userSpaceOnUse" color-interpolation-filters="sRGB">
<feFlood flood-opacity="0" result="BackgroundImageFix"/>
<feBlend mode="normal" in="SourceGraphic" in2="BackgroundImageFix" result="shape"/>
<feColorMatrix in="SourceAlpha" type="matrix" values="0 0 0 0 0 0 0 0 0 0 0 0 0 0 0 0 0 0 127 0" result="hardAlpha"/>
<feOffset dy="1"/>
<feGaussianBlur stdDeviation="2"/>
<feComposite in2="hardAlpha" operator="arithmetic" k2="-1" k3="1"/>
<feColorMatrix type="matrix" values="0 0 0 0 0.0470588 0 0 0 0 0.0470588 0 0 0 0 0.0509804 0 0 0 0.05 0"/>
<feBlend mode="normal" in2="shape" result="effect1_innerShadow_41_62"/>
</filter>
<filter id="filter1_d_41_62" x="19.2352" y="22.4351" width="29.6471" height="31.8235" filterUnits="userSpaceOnUse" color-interpolation-filters="sRGB">
<feFlood flood-opacity="0" result="BackgroundImageFix"/>
<feColorMatrix in="SourceAlpha" type="matrix" values="0 0 0 0 0 0 0 0 0 0 0 0 0 0 0 0 0 0 127 0" result="hardAlpha"/>
<feOffset dy="4"/>
<feGaussianBlur stdDeviation="2"/>
<feComposite in2="hardAlpha" operator="out"/>
<feColorMatrix type="matrix" values="0 0 0 0 0 0 0 0 0 0 0 0 0 0 0 0 0 0 0.25 0"/>
<feBlend mode="normal" in2="BackgroundImageFix" result="effect1_dropShadow_41_62"/>
<feBlend mode="normal" in="SourceGraphic" in2="effect1_dropShadow_41_62" result="shape"/>
</filter>
<filter id="filter2_dd_41_62" x="41" y="12.4351" width="57.6471" height="59.8235" filterUnits="userSpaceOnUse" color-interpolation-filters="sRGB">
<feFlood flood-opacity="0" result="BackgroundImageFix"/>
<feColorMatrix in="SourceAlpha" type="matrix" values="0 0 0 0 0 0 0 0 0 0 0 0 0 0 0 0 0 0 127 0" result="hardAlpha"/>
<feOffset dy="4"/>
<feGaussianBlur stdDeviation="2"/>
<feColorMatrix type="matrix" values="0 0 0 0 0 0 0 0 0 0 0 0 0 0 0 0 0 0 0.3 0"/>
<feBlend mode="normal" in2="BackgroundImageFix" result="effect1_dropShadow_41_62"/>
<feColorMatrix in="SourceAlpha" type="matrix" values="0 0 0 0 0 0 0 0 0 0 0 0 0 0 0 0 0 0 127 0" result="hardAlpha"/>
<feMorphology radius="6" operator="dilate" in="SourceAlpha" result="effect2_dropShadow_41_62"/>
<feOffset dy="8"/>
<feGaussianBlur stdDeviation="6"/>
<feColorMatrix type="matrix" values="0 0 0 0 0 0 0 0 0 0 0 0 0 0 0 0 0 0 0.15 0"/>
<feBlend mode="normal" in2="effect1_dropShadow_41_62" result="effect2_dropShadow_41_62"/>
<feBlend mode="normal" in="SourceGraphic" in2="effect2_dropShadow_41_62" result="shape"/>
</filter>
<filter id="filter3_i_41_62" x="43" y="46.2588" width="19.7646" height="25.9177" filterUnits="userSpaceOnUse" color-interpolation-filters="sRGB">
<feFlood flood-opacity="0" result="BackgroundImageFix"/>
<feBlend mode="normal" in="SourceGraphic" in2="BackgroundImageFix" result="shape"/>
<feColorMatrix in="SourceAlpha" type="matrix" values="0 0 0 0 0 0 0 0 0 0 0 0 0 0 0 0 0 0 127 0" result="hardAlpha"/>
<feOffset dy="4"/>
<feGaussianBlur stdDeviation="2"/>
<feComposite in2="hardAlpha" operator="arithmetic" k2="-1" k3="1"/>
<feColorMatrix type="matrix" values="0 0 0 0 0 0 0 0 0 0 0 0 0 0 0 0 0 0 0.25 0"/>
<feBlend mode="normal" in2="shape" result="effect1_innerShadow_41_62"/>
</filter>
</defs>
</svg>
