<svg width="330" height="107" viewBox="0 0 330 107" fill="none" xmlns="http://www.w3.org/2000/svg">
<path d="M315 71.0049C315.662 76.9606 329.258 77.8904 329.258 71.653C329.258 69.7635 328.545 72.4666 327.998 73.5613C327.214 75.1297 325.503 75.6981 324.073 76.3337C320.039 78.1269 318.678 75.1123 315.648 73.5973" stroke="#321203" stroke-linecap="round"/>
<path d="M117.43 47.3281C117.242 47.3906 117.102 47.3984 117.008 47.3516C116.914 47.3047 116.844 47.2266 116.797 47.1172C116.75 47.0078 116.727 46.8906 116.727 46.7656C116.727 46.625 116.734 46.4922 116.75 46.3672C116.766 46.2578 116.789 46.1328 116.82 45.9922C116.867 45.8516 116.922 45.7188 116.984 45.5938C117.047 45.4688 117.117 45.3672 117.195 45.2891C117.289 45.1953 117.406 45.1328 117.547 45.1016C118.266 44.9766 118.961 44.8828 119.633 44.8203C120.32 44.7578 120.938 44.7109 121.484 44.6797C122.109 44.6328 122.711 44.6094 123.289 44.6094C123.414 44.6094 123.539 44.6172 123.664 44.6328C123.789 44.6328 123.914 44.6328 124.039 44.6328C124.18 44.6016 124.289 44.5938 124.367 44.6094C124.461 44.6094 124.539 44.6172 124.602 44.6328C125.055 44.6484 125.523 44.6719 126.008 44.7031C126.414 44.7344 126.867 44.7734 127.367 44.8203C127.883 44.8516 128.391 44.8984 128.891 44.9609C128.938 45.0859 128.945 45.2422 128.914 45.4297C128.898 45.5234 128.883 45.6172 128.867 45.7109C128.852 45.8047 128.812 45.8906 128.75 45.9688C128.703 46.0469 128.641 46.125 128.562 46.2031C128.5 46.2656 128.422 46.3203 128.328 46.3672C127.797 46.3516 127.281 46.3438 126.781 46.3438C126.297 46.3281 125.867 46.3203 125.492 46.3203H124.227C124.023 47.0391 123.773 47.9297 123.477 48.9922C123.18 50.0391 122.875 51.1484 122.562 52.3203C122.266 53.4766 121.977 54.6328 121.695 55.7891C121.43 56.9297 121.219 57.9609 121.062 58.8828C120.906 59.7734 120.75 60.6484 120.594 61.5078C120.531 61.8672 120.461 62.2422 120.383 62.6328C120.32 63.0234 120.258 63.4062 120.195 63.7812C120.148 64.1562 120.102 64.5156 120.055 64.8594C120.008 65.2031 119.969 65.5156 119.938 65.7969C119.688 65.9219 119.453 66.0156 119.234 66.0781C119.016 66.1562 118.82 66.2109 118.648 66.2422C118.445 66.2891 118.258 66.3125 118.086 66.3125C117.711 66.3125 117.477 66.2656 117.383 66.1719C117.305 66.0938 117.297 65.9297 117.359 65.6797C117.406 65.4609 117.547 64.8672 117.781 63.8984C117.875 63.4922 117.992 62.9766 118.133 62.3516C118.289 61.7422 118.469 61 118.672 60.125C118.875 59.2344 119.117 58.2031 119.398 57.0312C119.68 55.8438 120 54.4844 120.359 52.9531L121.93 46.4375C121.461 46.5 121 46.5703 120.547 46.6484C120.094 46.7266 119.664 46.8125 119.258 46.9062C118.867 46.9844 118.508 47.0625 118.18 47.1406C117.867 47.2188 117.617 47.2812 117.43 47.3281ZM138.266 56.8438C138.375 56.7188 138.484 56.6562 138.594 56.6562C138.719 56.6406 138.812 56.6719 138.875 56.75C138.953 56.8125 138.984 56.9141 138.969 57.0547C138.969 57.1953 138.906 57.3516 138.781 57.5234C138.484 57.9297 138.141 58.3516 137.75 58.7891C137.359 59.2109 136.938 59.625 136.484 60.0312C136.047 60.4375 135.602 60.8203 135.148 61.1797C134.695 61.5391 134.258 61.8359 133.836 62.0703C133.367 62.3359 132.969 62.4688 132.641 62.4688C132.328 62.4688 132.016 62.2656 131.703 61.8594C131.422 61.5 131.281 61.1172 131.281 60.7109C131.297 60.2891 131.391 59.7656 131.562 59.1406C131.672 58.75 131.82 58.2891 132.008 57.7578C132.211 57.2109 132.367 56.6875 132.477 56.1875C132.602 55.6875 132.641 55.2656 132.594 54.9219C132.547 54.5625 132.344 54.3828 131.984 54.3828C131.734 54.3828 131.461 54.4688 131.164 54.6406C130.883 54.8125 130.594 55.0391 130.297 55.3203C130.016 55.5859 129.742 55.8906 129.477 56.2344C129.211 56.5781 128.977 56.9141 128.773 57.2422C128.648 57.8516 128.523 58.4531 128.398 59.0469C128.289 59.5469 128.172 60.0938 128.047 60.6875C127.938 61.2656 127.828 61.7812 127.719 62.2344C127.625 62.3125 127.523 62.3672 127.414 62.3984C127.305 62.4297 127.203 62.4453 127.109 62.4453C127 62.4453 126.891 62.4375 126.781 62.4219C126.656 62.3906 126.539 62.3438 126.43 62.2812C126.336 62.2188 126.242 62.1328 126.148 62.0234C126.055 61.9297 125.984 61.7969 125.938 61.625C126.641 58.7344 127.195 56.4141 127.602 54.6641C128.008 52.9141 128.32 51.5781 128.539 50.6562C128.789 49.5625 128.961 48.8047 129.055 48.3828C129.102 48.0859 129.141 47.7969 129.172 47.5156C129.203 47.2656 129.219 47.0078 129.219 46.7422C129.219 46.4766 129.195 46.2344 129.148 46.0156C129.273 45.9375 129.406 45.875 129.547 45.8281C129.703 45.7812 129.852 45.7422 129.992 45.7109C130.164 45.6641 130.336 45.625 130.508 45.5938C130.68 45.5625 130.836 45.5469 130.977 45.5469C131.102 45.5469 131.219 45.5625 131.328 45.5938C131.438 45.6094 131.508 45.6562 131.539 45.7344C131.633 45.8125 131.672 45.9688 131.656 46.2031C131.656 46.4375 131.641 46.6797 131.609 46.9297C131.547 47.2266 131.477 47.5469 131.398 47.8906C131.07 49.1562 130.703 50.3906 130.297 51.5938C129.891 52.7812 129.516 54.0547 129.172 55.4141C129.375 55.1016 129.617 54.7812 129.898 54.4531C130.18 54.125 130.484 53.8281 130.812 53.5625C131.156 53.2812 131.516 53.0547 131.891 52.8828C132.266 52.6953 132.664 52.6016 133.086 52.6016C133.305 52.6016 133.508 52.6406 133.695 52.7188C133.898 52.7812 134.07 52.8984 134.211 53.0703C134.367 53.2266 134.484 53.4453 134.562 53.7266C134.641 53.9922 134.672 54.3281 134.656 54.7344C134.656 54.9844 134.625 55.2422 134.562 55.5078C134.516 55.7734 134.445 56.0703 134.352 56.3984C134.258 56.7109 134.133 57.0625 133.977 57.4531C133.836 57.8438 133.664 58.2969 133.461 58.8125C133.32 59.1719 133.211 59.4766 133.133 59.7266C133.055 59.9766 133.07 60.1953 133.18 60.3828C133.32 60.6328 133.594 60.6953 134 60.5703C134.422 60.4297 135.047 60.0234 135.875 59.3516C136.062 59.1953 136.273 59 136.508 58.7656C136.742 58.5312 136.969 58.2969 137.188 58.0625C137.406 57.8125 137.609 57.5781 137.797 57.3594C137.984 57.1406 138.141 56.9688 138.266 56.8438ZM147.969 57.125C147.5 57.8125 146.969 58.4844 146.375 59.1406C145.781 59.7812 145.148 60.3594 144.477 60.875C143.82 61.375 143.141 61.7812 142.438 62.0938C141.75 62.4062 141.078 62.5625 140.422 62.5625C140.078 62.5625 139.703 62.4766 139.297 62.3047C138.906 62.1484 138.547 61.8984 138.219 61.5547C137.891 61.2109 137.625 60.7656 137.422 60.2188C137.234 59.6719 137.18 59.0078 137.258 58.2266C137.32 57.5859 137.516 56.9141 137.844 56.2109C138.188 55.4922 138.602 54.8359 139.086 54.2422C139.586 53.6484 140.141 53.1562 140.75 52.7656C141.375 52.375 142 52.1797 142.625 52.1797C143.219 52.1797 143.648 52.3281 143.914 52.625C144.18 52.9219 144.297 53.2891 144.266 53.7266C144.219 54.2109 144.078 54.6562 143.844 55.0625C143.625 55.4688 143.359 55.8359 143.047 56.1641C142.734 56.4922 142.398 56.7891 142.039 57.0547C141.695 57.3203 141.367 57.5625 141.055 57.7812C140.711 58.0156 140.383 58.2422 140.07 58.4609C139.758 58.6641 139.484 58.8516 139.25 59.0234C139.266 59.4141 139.336 59.7422 139.461 60.0078C139.586 60.2734 139.742 60.4922 139.93 60.6641C140.117 60.8203 140.328 60.9375 140.562 61.0156C140.812 61.0781 141.062 61.1094 141.312 61.1094C141.844 61.1094 142.398 60.9453 142.977 60.6172C143.555 60.2734 144.117 59.8672 144.664 59.3984C145.227 58.9141 145.742 58.4141 146.211 57.8984C146.695 57.3828 147.094 56.9375 147.406 56.5625C147.516 56.4375 147.625 56.3672 147.734 56.3516C147.859 56.3203 147.953 56.3359 148.016 56.3984C148.094 56.4453 148.133 56.5391 148.133 56.6797C148.133 56.8047 148.078 56.9531 147.969 57.125ZM141.969 53.5156C141.781 53.5156 141.555 53.6094 141.289 53.7969C141.039 53.9844 140.789 54.2578 140.539 54.6172C140.289 54.9609 140.055 55.3906 139.836 55.9062C139.617 56.4062 139.453 56.9844 139.344 57.6406C139.531 57.5 139.734 57.3594 139.953 57.2188C140.172 57.0625 140.391 56.8984 140.609 56.7266C141.281 56.2109 141.75 55.7578 142.016 55.3672C142.281 54.9766 142.43 54.6406 142.461 54.3594C142.492 54.0625 142.461 53.8516 142.367 53.7266C142.273 53.5859 142.141 53.5156 141.969 53.5156ZM161.609 51.2422C161.594 51.1953 161.641 51.0781 161.75 50.8906C161.859 50.6875 161.977 50.4453 162.102 50.1641C162.242 49.8672 162.375 49.5391 162.5 49.1797C162.641 48.8047 162.734 48.4219 162.781 48.0312C162.844 47.6406 162.844 47.25 162.781 46.8594C162.719 46.4688 162.555 46.0938 162.289 45.7344C162.133 45.5469 161.898 45.4453 161.586 45.4297C161.289 45.3984 160.945 45.4453 160.555 45.5703C160.18 45.6797 159.781 45.8594 159.359 46.1094C158.953 46.3438 158.578 46.625 158.234 46.9531C157.891 47.2656 157.594 47.6172 157.344 48.0078C157.109 48.3984 156.977 48.7969 156.945 49.2031C156.914 49.5312 156.922 49.8359 156.969 50.1172C157.031 50.3984 157.109 50.6562 157.203 50.8906C157.297 51.125 157.398 51.3438 157.508 51.5469C157.617 51.75 157.719 51.9297 157.812 52.0859C157.938 52.3047 158.133 52.5469 158.398 52.8125C158.664 53.0781 158.953 53.3828 159.266 53.7266C159.578 54.0547 159.891 54.4297 160.203 54.8516C160.516 55.2734 160.789 55.75 161.023 56.2812C161.258 56.8125 161.422 57.4062 161.516 58.0625C161.609 58.7188 161.602 59.4453 161.492 60.2422C161.32 61.3984 161.047 62.3594 160.672 63.125C160.297 63.9062 159.883 64.5312 159.43 65C158.992 65.4688 158.547 65.8047 158.094 66.0078C157.641 66.2266 157.266 66.3672 156.969 66.4297C156.734 66.4766 156.453 66.5156 156.125 66.5469C155.812 66.5938 155.477 66.5859 155.117 66.5234C154.773 66.4766 154.422 66.3672 154.062 66.1953C153.703 66.0391 153.383 65.7891 153.102 65.4453C152.773 65.0547 152.516 64.6328 152.328 64.1797C152.156 63.7891 152.031 63.3359 151.953 62.8203C151.859 62.3203 151.898 61.7969 152.07 61.25C152.195 61.1094 152.328 60.9844 152.469 60.875C152.609 60.7656 152.75 60.6719 152.891 60.5938C153.047 60.5 153.211 60.4141 153.383 60.3359C153.586 60.2734 153.789 60.2188 153.992 60.1719C154.164 60.1406 154.344 60.125 154.531 60.125C154.734 60.1094 154.922 60.1328 155.094 60.1953C154.859 60.4609 154.695 60.7109 154.602 60.9453C154.539 61.0703 154.492 61.1797 154.461 61.2734C154.398 61.5703 154.375 61.9219 154.391 62.3281C154.422 62.75 154.508 63.1484 154.648 63.5234C154.805 63.9141 155.023 64.2422 155.305 64.5078C155.586 64.7891 155.961 64.9375 156.43 64.9531C157.57 64.9844 158.539 64.0938 159.336 62.2812C159.602 61.7188 159.734 61.1484 159.734 60.5703C159.75 59.9922 159.68 59.4375 159.523 58.9062C159.383 58.375 159.188 57.8828 158.938 57.4297C158.703 56.9609 158.461 56.5625 158.211 56.2344C157.961 55.9062 157.656 55.5547 157.297 55.1797C156.953 54.7891 156.609 54.3672 156.266 53.9141C155.922 53.4609 155.609 52.9688 155.328 52.4375C155.062 51.9062 154.883 51.3281 154.789 50.7031C154.664 49.8281 154.742 49.0312 155.023 48.3125C155.32 47.5781 155.711 46.9375 156.195 46.3906C156.695 45.8438 157.234 45.3984 157.812 45.0547C158.406 44.7109 158.93 44.4922 159.383 44.3984C161.898 43.8984 163.547 44.3203 164.328 45.6641C164.656 46.1797 164.836 46.7266 164.867 47.3047C164.898 47.8828 164.859 48.4219 164.75 48.9219C164.656 49.4062 164.531 49.8203 164.375 50.1641C164.234 50.4922 164.141 50.6719 164.094 50.7031C164 50.7969 163.852 50.8984 163.648 51.0078C163.445 51.1172 163.117 51.2188 162.664 51.3125C162.539 51.3438 162.414 51.3594 162.289 51.3594C162.18 51.3594 162.062 51.3516 161.938 51.3359C161.812 51.3203 161.703 51.2891 161.609 51.2422ZM171.336 58.2734C171.18 58.8672 170.969 59.4219 170.703 59.9375C170.438 60.4531 170.117 60.8984 169.742 61.2734C169.383 61.6484 168.969 61.9375 168.5 62.1406C168.047 62.3594 167.547 62.4688 167 62.4688C166.359 62.4688 165.852 62.3281 165.477 62.0469C165.117 61.7812 164.844 61.4453 164.656 61.0391C164.484 60.6328 164.383 60.1875 164.352 59.7031C164.305 59.2188 164.281 58.7656 164.281 58.3438C164.281 58.0469 164.32 57.7188 164.398 57.3594C164.461 57 164.555 56.6328 164.68 56.2578C164.805 55.8828 164.961 55.5078 165.148 55.1328C165.352 54.7578 165.586 54.4141 165.852 54.1016C165.945 53.8359 166.086 53.6016 166.273 53.3984C166.477 53.1953 166.703 53.0312 166.953 52.9062C167.219 52.7656 167.5 52.6641 167.797 52.6016C168.094 52.5234 168.383 52.4844 168.664 52.4844C168.711 52.4844 168.75 52.4922 168.781 52.5078C168.828 52.5234 168.875 52.5391 168.922 52.5547C169.125 52.5703 169.375 52.6484 169.672 52.7891C169.984 52.9297 170.281 53.1406 170.562 53.4219C170.859 53.7031 171.109 54.0625 171.312 54.5C171.516 54.9219 171.617 55.4375 171.617 56.0469C171.617 56.1719 171.609 56.3281 171.594 56.5156C171.578 56.6875 171.562 56.8359 171.547 56.9609C171.906 56.8203 172.281 56.6484 172.672 56.4453C173.062 56.2422 173.438 56.0312 173.797 55.8125C174.172 55.5781 174.516 55.3438 174.828 55.1094C175.141 54.875 175.391 54.6641 175.578 54.4766C175.734 54.3359 175.867 54.2578 175.977 54.2422C176.086 54.2266 176.164 54.2578 176.211 54.3359C176.258 54.4141 176.266 54.5234 176.234 54.6641C176.203 54.8047 176.117 54.9609 175.977 55.1328C175.898 55.2266 175.695 55.4141 175.367 55.6953C175.055 55.9766 174.68 56.2812 174.242 56.6094C173.805 56.9375 173.328 57.2578 172.812 57.5703C172.297 57.8828 171.805 58.1172 171.336 58.2734ZM167.375 54.7109C167.328 54.8516 167.305 55 167.305 55.1562C167.305 55.4062 167.32 55.6719 167.352 55.9531C167.383 56.2188 167.461 56.4609 167.586 56.6797C167.711 56.8984 167.906 57.0859 168.172 57.2422C168.453 57.3828 168.836 57.4531 169.32 57.4531C169.398 57.4531 169.477 57.4531 169.555 57.4531C169.633 57.4375 169.711 57.4219 169.789 57.4062C169.836 57.2031 169.875 57.0234 169.906 56.8672C169.953 56.6953 169.977 56.5469 169.977 56.4219C170.008 56.125 170.008 55.8203 169.977 55.5078C169.945 55.1953 169.883 54.9141 169.789 54.6641C169.711 54.3984 169.602 54.1875 169.461 54.0312C169.336 53.8594 169.18 53.7734 168.992 53.7734C168.695 53.7734 168.406 53.8594 168.125 54.0312C167.859 54.1875 167.609 54.4141 167.375 54.7109ZM165.875 58.8359C165.875 59.1172 165.891 59.3984 165.922 59.6797C165.953 59.9453 166.016 60.1875 166.109 60.4062C166.203 60.6094 166.328 60.7812 166.484 60.9219C166.641 61.0469 166.844 61.1094 167.094 61.1094C167.375 61.1094 167.633 61.0469 167.867 60.9219C168.102 60.7812 168.312 60.6094 168.5 60.4062C168.688 60.1875 168.852 59.9453 168.992 59.6797C169.148 59.3984 169.281 59.1094 169.391 58.8125C169.281 58.8281 169.172 58.8438 169.062 58.8594C168.969 58.8594 168.859 58.8594 168.734 58.8594C168.141 58.8594 167.625 58.6875 167.188 58.3438C166.766 57.9844 166.438 57.5312 166.203 56.9844C166.109 57.3125 166.031 57.6328 165.969 57.9453C165.906 58.2578 165.875 58.5547 165.875 58.8359ZM176.75 62.375C176.156 62.375 175.672 62.2812 175.297 62.0938C174.922 61.9062 174.625 61.6797 174.406 61.4141C174.203 61.1328 174.055 60.8359 173.961 60.5234C173.883 60.1953 173.844 59.8984 173.844 59.6328C173.844 59.1641 173.883 58.6719 173.961 58.1562C174.039 57.625 174.133 57.1406 174.242 56.7031C174.352 56.25 174.445 55.8672 174.523 55.5547C174.617 55.2422 174.68 55.0469 174.711 54.9688C174.852 54.5156 175.031 54.125 175.25 53.7969C175.484 53.4531 175.805 53.2188 176.211 53.0938C176.367 53.0625 176.531 53.0312 176.703 53C176.844 52.9844 176.984 52.9766 177.125 52.9766C177.281 52.9766 177.422 53 177.547 53.0469C177.125 54.125 176.789 55.0234 176.539 55.7422C176.305 56.4609 176.125 57.0469 176 57.5C175.859 58.0156 175.773 58.4297 175.742 58.7422C175.664 59.4453 175.727 59.9766 175.93 60.3359C176.133 60.6953 176.547 60.875 177.172 60.875C177.578 60.875 177.969 60.7266 178.344 60.4297C178.719 60.1172 179.062 59.7188 179.375 59.2344C179.328 58.9844 179.305 58.7266 179.305 58.4609C179.305 57.9609 179.344 57.4766 179.422 57.0078C179.516 56.5234 179.617 56.0781 179.727 55.6719C179.852 55.25 179.977 54.875 180.102 54.5469C180.242 54.2188 180.359 53.9609 180.453 53.7734C180.625 53.3984 180.781 53.1719 180.922 53.0938C181.062 53 181.289 52.9453 181.602 52.9297C181.727 52.9141 181.828 52.9141 181.906 52.9297C182 52.9297 182.078 52.9375 182.141 52.9531C182.328 53 182.422 53.0938 182.422 53.2344C182.422 53.4844 182.406 53.8594 182.375 54.3594C182.344 54.8594 182.25 55.375 182.094 55.9062C181.984 56.3438 181.875 56.7188 181.766 57.0312C181.672 57.3281 181.578 57.5859 181.484 57.8047C181.391 58.0078 181.297 58.1797 181.203 58.3203C181.109 58.4453 181.023 58.5625 180.945 58.6719C180.977 59.1406 181.016 59.5156 181.062 59.7969C181.109 60.0781 181.164 60.2969 181.227 60.4531C181.305 60.5938 181.391 60.6953 181.484 60.7578C181.594 60.8047 181.711 60.8281 181.836 60.8281C182.055 60.8281 182.312 60.7266 182.609 60.5234C182.906 60.3047 183.211 60.0391 183.523 59.7266C183.852 59.3984 184.172 59.0469 184.484 58.6719C184.812 58.2812 185.109 57.9141 185.375 57.5703C185.641 57.2266 185.867 56.9297 186.055 56.6797C186.242 56.4141 186.359 56.25 186.406 56.1875C186.516 56.0469 186.617 55.9609 186.711 55.9297C186.82 55.8984 186.906 55.9141 186.969 55.9766C187.031 56.0234 187.062 56.1094 187.062 56.2344C187.078 56.3438 187.047 56.4688 186.969 56.6094C186.656 57.2031 186.266 57.8359 185.797 58.5078C185.344 59.1641 184.852 59.7734 184.32 60.3359C183.805 60.8984 183.281 61.3672 182.75 61.7422C182.219 62.1172 181.719 62.3047 181.25 62.3047C180.828 62.3047 180.492 62.1641 180.242 61.8828C180.008 61.5859 179.805 61.1641 179.633 60.6172C179.273 61.1797 178.852 61.6172 178.367 61.9297C177.883 62.2266 177.344 62.375 176.75 62.375ZM193.742 56.0703C193.805 55.9766 193.883 55.9219 193.977 55.9062C194.086 55.875 194.172 55.8828 194.234 55.9297C194.297 55.9766 194.328 56.0547 194.328 56.1641C194.344 56.2734 194.305 56.4219 194.211 56.6094C193.898 57.2031 193.484 57.8438 192.969 58.5312C192.469 59.2188 191.938 59.8672 191.375 60.4766C190.812 61.0703 190.266 61.5625 189.734 61.9531C189.203 62.3438 188.758 62.5391 188.398 62.5391C187.883 62.5391 187.453 62.4375 187.109 62.2344C186.766 62.0312 186.492 61.7812 186.289 61.4844C186.102 61.1875 185.969 60.8672 185.891 60.5234C185.812 60.1641 185.789 59.8359 185.82 59.5391C185.836 59.2891 185.891 58.8438 185.984 58.2031C186.078 57.5469 186.203 56.7969 186.359 55.9531C186.516 55.0938 186.688 54.1797 186.875 53.2109C187.078 52.2266 187.289 51.2812 187.508 50.375C187.242 50.4062 186.977 50.4375 186.711 50.4688C186.445 50.5 186.203 50.5156 185.984 50.5156C185.484 50.5156 185.016 50.4609 184.578 50.3516C184.125 50.2266 183.789 50.1094 183.57 50C183.445 49.9375 183.391 49.8516 183.406 49.7422C183.422 49.6172 183.469 49.5 183.547 49.3906C183.625 49.2656 183.727 49.1641 183.852 49.0859C183.961 48.9922 184.062 48.9453 184.156 48.9453C184.453 48.9766 184.773 49.0078 185.117 49.0391C185.461 49.0547 185.836 49.0547 186.242 49.0391C186.539 49.0234 186.82 49 187.086 48.9688C187.367 48.9375 187.641 48.8984 187.906 48.8516C188.109 48.1016 188.305 47.4531 188.492 46.9062C188.695 46.3438 188.875 45.9531 189.031 45.7344C189.078 45.6562 189.18 45.5938 189.336 45.5469C189.508 45.4844 189.688 45.4453 189.875 45.4297C190.062 45.3984 190.242 45.3984 190.414 45.4297C190.586 45.4453 190.711 45.5 190.789 45.5938C190.867 45.7188 190.898 46.0391 190.883 46.5547C190.867 47.0703 190.781 47.7266 190.625 48.5234C191.281 48.5234 191.859 48.5625 192.359 48.6406C192.875 48.7031 193.312 48.7812 193.672 48.875C194.031 48.9531 194.32 49.0391 194.539 49.1328C194.758 49.2109 194.922 49.2656 195.031 49.2969C195.141 49.3281 195.195 49.4062 195.195 49.5312C195.211 49.6562 195.188 49.7891 195.125 49.9297C195.078 50.0547 194.992 50.1641 194.867 50.2578C194.742 50.3516 194.602 50.3828 194.445 50.3516C194.289 50.3359 194.109 50.3047 193.906 50.2578C193.719 50.2109 193.484 50.1719 193.203 50.1406C192.938 50.1094 192.617 50.0781 192.242 50.0469C191.867 50.0156 191.43 50 190.93 50C190.836 50 190.727 50.0078 190.602 50.0234C190.492 50.0234 190.375 50.0234 190.25 50.0234C190.188 50.2734 190.125 50.5234 190.062 50.7734C190.016 51.0078 189.945 51.2578 189.852 51.5234C189.648 52.1484 189.414 52.8281 189.148 53.5625C188.914 54.2031 188.633 54.9375 188.305 55.7656C187.977 56.5938 187.609 57.4766 187.203 58.4141C187.109 59.0859 187.117 59.6016 187.227 59.9609C187.352 60.3047 187.5 60.5547 187.672 60.7109C187.875 60.8828 188.125 60.9766 188.422 60.9922C188.656 61.0234 188.938 60.9453 189.266 60.7578C189.609 60.5547 189.961 60.2891 190.32 59.9609C190.68 59.6328 191.039 59.2734 191.398 58.8828C191.773 58.4922 192.117 58.1094 192.43 57.7344C192.742 57.3594 193.016 57.0234 193.25 56.7266C193.484 56.4141 193.648 56.1953 193.742 56.0703ZM204.43 56.8438C204.539 56.7188 204.648 56.6562 204.758 56.6562C204.883 56.6406 204.977 56.6719 205.039 56.75C205.117 56.8125 205.148 56.9141 205.133 57.0547C205.133 57.1953 205.07 57.3516 204.945 57.5234C204.648 57.9297 204.305 58.3516 203.914 58.7891C203.523 59.2109 203.102 59.625 202.648 60.0312C202.211 60.4375 201.766 60.8203 201.312 61.1797C200.859 61.5391 200.422 61.8359 200 62.0703C199.531 62.3359 199.133 62.4688 198.805 62.4688C198.492 62.4688 198.18 62.2656 197.867 61.8594C197.586 61.5 197.445 61.1172 197.445 60.7109C197.461 60.2891 197.555 59.7656 197.727 59.1406C197.836 58.75 197.984 58.2891 198.172 57.7578C198.375 57.2109 198.531 56.6875 198.641 56.1875C198.766 55.6875 198.805 55.2656 198.758 54.9219C198.711 54.5625 198.508 54.3828 198.148 54.3828C197.898 54.3828 197.625 54.4688 197.328 54.6406C197.047 54.8125 196.758 55.0391 196.461 55.3203C196.18 55.5859 195.906 55.8906 195.641 56.2344C195.375 56.5781 195.141 56.9141 194.938 57.2422C194.812 57.8516 194.688 58.4531 194.562 59.0469C194.453 59.5469 194.336 60.0938 194.211 60.6875C194.102 61.2656 193.992 61.7812 193.883 62.2344C193.789 62.3125 193.688 62.3672 193.578 62.3984C193.469 62.4297 193.367 62.4453 193.273 62.4453C193.164 62.4453 193.055 62.4375 192.945 62.4219C192.82 62.3906 192.703 62.3438 192.594 62.2812C192.5 62.2188 192.406 62.1328 192.312 62.0234C192.219 61.9297 192.148 61.7969 192.102 61.625C192.805 58.7344 193.359 56.4141 193.766 54.6641C194.172 52.9141 194.484 51.5781 194.703 50.6562C194.953 49.5625 195.125 48.8047 195.219 48.3828C195.266 48.0859 195.305 47.7969 195.336 47.5156C195.367 47.2656 195.383 47.0078 195.383 46.7422C195.383 46.4766 195.359 46.2344 195.312 46.0156C195.438 45.9375 195.57 45.875 195.711 45.8281C195.867 45.7812 196.016 45.7422 196.156 45.7109C196.328 45.6641 196.5 45.625 196.672 45.5938C196.844 45.5625 197 45.5469 197.141 45.5469C197.266 45.5469 197.383 45.5625 197.492 45.5938C197.602 45.6094 197.672 45.6562 197.703 45.7344C197.797 45.8125 197.836 45.9688 197.82 46.2031C197.82 46.4375 197.805 46.6797 197.773 46.9297C197.711 47.2266 197.641 47.5469 197.562 47.8906C197.234 49.1562 196.867 50.3906 196.461 51.5938C196.055 52.7812 195.68 54.0547 195.336 55.4141C195.539 55.1016 195.781 54.7812 196.062 54.4531C196.344 54.125 196.648 53.8281 196.977 53.5625C197.32 53.2812 197.68 53.0547 198.055 52.8828C198.43 52.6953 198.828 52.6016 199.25 52.6016C199.469 52.6016 199.672 52.6406 199.859 52.7188C200.062 52.7812 200.234 52.8984 200.375 53.0703C200.531 53.2266 200.648 53.4453 200.727 53.7266C200.805 53.9922 200.836 54.3281 200.82 54.7344C200.82 54.9844 200.789 55.2422 200.727 55.5078C200.68 55.7734 200.609 56.0703 200.516 56.3984C200.422 56.7109 200.297 57.0625 200.141 57.4531C200 57.8438 199.828 58.2969 199.625 58.8125C199.484 59.1719 199.375 59.4766 199.297 59.7266C199.219 59.9766 199.234 60.1953 199.344 60.3828C199.484 60.6328 199.758 60.6953 200.164 60.5703C200.586 60.4297 201.211 60.0234 202.039 59.3516C202.227 59.1953 202.438 59 202.672 58.7656C202.906 58.5312 203.133 58.2969 203.352 58.0625C203.57 57.8125 203.773 57.5781 203.961 57.3594C204.148 57.1406 204.305 56.9688 204.43 56.8438ZM216.336 56.0703C216.039 55.7578 215.797 55.375 215.609 54.9219C215.438 54.4531 215.305 53.9922 215.211 53.5391C215.102 53.0234 215.023 52.4766 214.977 51.8984C214.898 50.7734 215.023 49.75 215.352 48.8281C215.68 47.9062 216.125 47.1172 216.688 46.4609C217.25 45.8047 217.875 45.2969 218.562 44.9375C219.266 44.5781 219.945 44.3984 220.602 44.3984C220.898 44.3984 221.133 44.4688 221.305 44.6094C221.492 44.75 221.633 44.9219 221.727 45.125C221.82 45.3281 221.875 45.5391 221.891 45.7578C221.922 45.9766 221.938 46.1562 221.938 46.2969C221.938 46.7969 221.922 47.2891 221.891 47.7734C221.875 48.2578 221.836 48.7734 221.773 49.3203C221.727 49.8672 221.648 50.4531 221.539 51.0781C221.43 51.7031 221.289 52.3984 221.117 53.1641C221.023 53.5859 220.891 54.125 220.719 54.7812C220.547 55.4375 220.344 56.1641 220.109 56.9609C220.812 56.9766 221.375 57.0078 221.797 57.0547C222.234 57.0859 222.516 57.1094 222.641 57.125C222.75 57.1406 222.828 57.1953 222.875 57.2891C222.938 57.3828 222.906 57.5312 222.781 57.7344C222.656 57.9219 222.477 58.0312 222.242 58.0625C222.023 58.0938 221.805 58.1094 221.586 58.1094C221.461 58.1094 221.227 58.1094 220.883 58.1094C220.555 58.1094 220.164 58.125 219.711 58.1562C219.383 59.125 219.008 60.1016 218.586 61.0859C218.18 62.0547 217.727 62.9297 217.227 63.7109C216.727 64.5078 216.18 65.1484 215.586 65.6328C214.992 66.1328 214.359 66.3828 213.688 66.3828C212.719 66.3828 211.898 66.1953 211.227 65.8203C210.57 65.4609 210.039 65.0312 209.633 64.5312C209.211 64.0469 208.906 63.5547 208.719 63.0547C208.531 62.5703 208.438 62.1953 208.438 61.9297C208.438 61.4609 208.562 60.9844 208.812 60.5C209.062 60.0156 209.461 59.5625 210.008 59.1406C210.539 58.7031 211.234 58.3203 212.094 57.9922C212.953 57.6641 213.984 57.4141 215.188 57.2422C215.688 57.1797 216.164 57.1328 216.617 57.1016C217.07 57.0547 217.5 57.0156 217.906 56.9844C218.219 55.8125 218.531 54.6172 218.844 53.3984C219.172 52.1797 219.453 51.0547 219.688 50.0234C219.781 49.6016 219.875 49.1484 219.969 48.6641C220.062 48.1641 220.133 47.6953 220.18 47.2578C220.242 46.8203 220.273 46.4531 220.273 46.1562C220.289 45.8594 220.258 45.6953 220.18 45.6641C220.133 45.6484 220.016 45.7109 219.828 45.8516C219.641 45.9766 219.422 46.1641 219.172 46.4141C218.922 46.6641 218.672 46.9688 218.422 47.3281C218.188 47.6719 217.992 48.0469 217.836 48.4531C217.555 49.25 217.336 50.0312 217.18 50.7969C217.055 51.4531 216.977 52.1484 216.945 52.8828C216.914 53.6172 217.031 54.2812 217.297 54.875C217.266 55.0938 217.219 55.2734 217.156 55.4141C217.109 55.4922 217.07 55.5625 217.039 55.625C216.992 55.6719 216.938 55.7266 216.875 55.7891C216.812 55.8359 216.734 55.8906 216.641 55.9531C216.562 56 216.461 56.0391 216.336 56.0703ZM216.055 62.6094C216.227 62.25 216.438 61.6953 216.688 60.9453C216.938 60.1953 217.203 59.3281 217.484 58.3438C216.719 58.4375 215.945 58.5703 215.164 58.7422C214.383 58.8984 213.672 59.1172 213.031 59.3984C212.406 59.6641 211.891 59.9922 211.484 60.3828C211.094 60.7734 210.898 61.2344 210.898 61.7656C210.898 62.3281 211.008 62.8203 211.227 63.2422C211.461 63.6641 211.734 64.0156 212.047 64.2969C212.375 64.5781 212.703 64.7891 213.031 64.9297C213.375 65.0859 213.664 65.1641 213.898 65.1641C214.133 65.1641 214.352 65.0703 214.555 64.8828C214.773 64.7109 214.969 64.4922 215.141 64.2266C215.328 63.9766 215.492 63.7031 215.633 63.4062C215.789 63.1094 215.93 62.8438 216.055 62.6094ZM230.094 62.5859C229.734 62.5859 229.422 62.5156 229.156 62.375C228.906 62.25 228.703 62.0781 228.547 61.8594C228.391 61.6406 228.289 61.3906 228.242 61.1094C228.195 60.8125 228.211 60.5 228.289 60.1719C228.336 59.9531 228.414 59.6641 228.523 59.3047C228.633 58.9297 228.742 58.5312 228.852 58.1094C228.977 57.6719 229.086 57.2422 229.18 56.8203C229.289 56.3828 229.359 55.9922 229.391 55.6484C229.422 55.2891 229.406 55 229.344 54.7812C229.281 54.5469 229.148 54.4297 228.945 54.4297C228.695 54.4297 228.438 54.5156 228.172 54.6875C227.906 54.8438 227.633 55.0625 227.352 55.3438C227.086 55.625 226.812 55.9531 226.531 56.3281C226.266 56.6875 226 57.0625 225.734 57.4531C225.594 57.9844 225.477 58.4531 225.383 58.8594C225.289 59.25 225.203 59.6094 225.125 59.9375C225.062 60.25 225 60.5312 224.938 60.7812C224.875 61.0156 224.82 61.2422 224.773 61.4609C224.727 61.6172 224.586 61.7734 224.352 61.9297C224.117 62.0703 223.867 62.1875 223.602 62.2812C223.336 62.375 223.109 62.4219 222.922 62.4219C222.719 62.4219 222.633 62.3516 222.664 62.2109C222.68 62.1172 222.734 61.9062 222.828 61.5781C222.906 61.25 223.008 60.8672 223.133 60.4297C223.242 59.9766 223.359 59.5 223.484 59C223.609 58.5 223.727 58.0234 223.836 57.5703C223.914 57.2109 224 56.8125 224.094 56.375C224.172 56 224.266 55.5625 224.375 55.0625C224.5 54.5625 224.641 54.0156 224.797 53.4219C224.906 53.3281 225.016 53.2578 225.125 53.2109C225.25 53.1484 225.375 53.1016 225.5 53.0703C225.625 53.0234 225.758 52.9922 225.898 52.9766C226.023 52.9766 226.148 52.9844 226.273 53C226.383 53.0156 226.492 53.0469 226.602 53.0938C226.727 53.125 226.836 53.1797 226.93 53.2578C226.883 53.3672 226.828 53.5234 226.766 53.7266C226.703 53.9141 226.641 54.1172 226.578 54.3359C226.516 54.5859 226.438 54.8438 226.344 55.1094C226.547 54.8281 226.773 54.5469 227.023 54.2656C227.289 53.9688 227.57 53.7031 227.867 53.4688C228.18 53.2344 228.508 53.0469 228.852 52.9062C229.195 52.75 229.547 52.6719 229.906 52.6719C230.203 52.6719 230.469 52.7578 230.703 52.9297C230.938 53.1016 231.117 53.3438 231.242 53.6562C231.383 53.9531 231.461 54.3125 231.477 54.7344C231.508 55.1562 231.453 55.6172 231.312 56.1172L231.055 57.1484C230.977 57.4766 230.875 57.8672 230.75 58.3203C230.641 58.7578 230.5 59.2422 230.328 59.7734C230.234 60.1172 230.195 60.4141 230.211 60.6641C230.242 60.9141 230.398 61.0391 230.68 61.0391C230.961 61.0391 231.312 60.8672 231.734 60.5234C232.172 60.1797 232.609 59.7656 233.047 59.2812C233.484 58.7969 233.898 58.3047 234.289 57.8047C234.68 57.2891 234.977 56.875 235.18 56.5625C235.32 56.3594 235.453 56.2266 235.578 56.1641C235.703 56.1016 235.797 56.0938 235.859 56.1406C235.938 56.1875 235.977 56.2969 235.977 56.4688C235.977 56.625 235.914 56.8281 235.789 57.0781C235.68 57.2969 235.508 57.5859 235.273 57.9453C235.055 58.3047 234.789 58.6875 234.477 59.0938C234.164 59.5 233.828 59.9141 233.469 60.3359C233.109 60.7422 232.734 61.1172 232.344 61.4609C231.953 61.7891 231.562 62.0547 231.172 62.2578C230.797 62.4766 230.438 62.5859 230.094 62.5859ZM241.672 57.5234C241.594 58.0078 241.516 58.4688 241.438 58.9062C241.375 59.3438 241.336 59.6953 241.32 59.9609C241.305 60.3516 241.375 60.6328 241.531 60.8047C241.688 60.9766 241.859 61.0625 242.047 61.0625C242.266 61.0625 242.531 60.9531 242.844 60.7344C243.172 60.5156 243.516 60.2422 243.875 59.9141C244.234 59.5859 244.594 59.2266 244.953 58.8359C245.312 58.4453 245.641 58.0781 245.938 57.7344C246.25 57.375 246.508 57.0625 246.711 56.7969C246.93 56.5312 247.078 56.3594 247.156 56.2812C247.25 56.1875 247.344 56.1328 247.438 56.1172C247.547 56.1016 247.633 56.1172 247.695 56.1641C247.758 56.2109 247.789 56.2969 247.789 56.4219C247.789 56.5469 247.727 56.7031 247.602 56.8906C247.414 57.1875 247.172 57.5391 246.875 57.9453C246.578 58.3359 246.25 58.7422 245.891 59.1641C245.531 59.5859 245.148 60 244.742 60.4062C244.352 60.8125 243.953 61.1719 243.547 61.4844C243.156 61.7969 242.773 62.0469 242.398 62.2344C242.039 62.4375 241.711 62.5391 241.414 62.5391C241.195 62.5391 240.984 62.4766 240.781 62.3516C240.594 62.2266 240.422 62.0625 240.266 61.8594C240.109 61.6562 239.984 61.4297 239.891 61.1797C239.812 60.9297 239.781 60.6797 239.797 60.4297C239.812 60.3203 239.836 60.1328 239.867 59.8672C239.211 60.6016 238.547 61.1875 237.875 61.625C237.219 62.0469 236.586 62.2578 235.977 62.2578C235.758 62.2578 235.523 62.2031 235.273 62.0938C235.023 61.9844 234.797 61.8047 234.594 61.5547C234.406 61.3047 234.25 60.9766 234.125 60.5703C234 60.1641 233.953 59.6719 233.984 59.0938C234.031 58.1875 234.211 57.3281 234.523 56.5156C234.836 55.7031 235.227 55 235.695 54.4062C236.18 53.7969 236.719 53.3203 237.312 52.9766C237.922 52.6172 238.531 52.4375 239.141 52.4375C239.406 52.4375 239.648 52.5078 239.867 52.6484C240.086 52.7734 240.273 52.9453 240.43 53.1641C240.586 53.3672 240.711 53.5938 240.805 53.8438C240.914 54.0938 240.992 54.3281 241.039 54.5469C241.148 54.0938 241.25 53.6484 241.344 53.2109C241.438 52.7734 241.531 52.3594 241.625 51.9688C241.781 51.3906 241.945 50.7656 242.117 50.0938C242.273 49.5156 242.453 48.8516 242.656 48.1016C242.859 47.3516 243.086 46.5625 243.336 45.7344C243.492 45.6094 243.641 45.5156 243.781 45.4531C243.922 45.3906 244.055 45.3438 244.18 45.3125C244.32 45.2656 244.453 45.2422 244.578 45.2422C244.734 45.2422 244.875 45.2656 245 45.3125C245.125 45.3438 245.227 45.4453 245.305 45.6172C245.398 45.7734 245.461 46.0156 245.492 46.3438C245.523 46.6719 245.523 47.1172 245.492 47.6797C245.461 48.3672 245.336 49.1172 245.117 49.9297C244.914 50.7422 244.641 51.5859 244.297 52.4609C243.953 53.3203 243.555 54.1875 243.102 55.0625C242.664 55.9219 242.188 56.7422 241.672 57.5234ZM240.289 57.8281C240.352 57.5312 240.406 57.2344 240.453 56.9375C240.516 56.6406 240.586 56.3359 240.664 56.0234C240.633 56.0391 240.602 56.0547 240.57 56.0703C240.555 56.0859 240.531 56.1016 240.5 56.1172C240.328 56.1953 240.211 56.1953 240.148 56.1172C240.086 56.0234 240.055 55.8828 240.055 55.6953C240.055 55.6016 240.047 55.4375 240.031 55.2031C240.016 54.9531 239.969 54.7031 239.891 54.4531C239.828 54.1875 239.727 53.9609 239.586 53.7734C239.445 53.5703 239.25 53.4688 239 53.4688C238.641 53.4688 238.273 53.6562 237.898 54.0312C237.523 54.3906 237.172 54.8359 236.844 55.3672C236.516 55.8828 236.242 56.4375 236.023 57.0312C235.805 57.625 235.68 58.1562 235.648 58.625C235.617 59.375 235.711 59.9141 235.93 60.2422C236.148 60.5703 236.445 60.7344 236.82 60.7344C237.102 60.7344 237.406 60.625 237.734 60.4062C238.078 60.1875 238.406 59.9219 238.719 59.6094C239.047 59.2969 239.344 58.9766 239.609 58.6484C239.891 58.3203 240.117 58.0469 240.289 57.8281ZM250.977 48.1953C250.93 48.3672 250.836 48.5391 250.695 48.7109C250.57 48.8672 250.422 49 250.25 49.1094C250.094 49.2031 249.93 49.2656 249.758 49.2969C249.586 49.3281 249.445 49.2969 249.336 49.2031C249.008 48.9531 248.836 48.6875 248.82 48.4062C248.805 48.1094 248.875 47.8359 249.031 47.5859C249.188 47.3203 249.383 47.1016 249.617 46.9297C249.852 46.7422 250.055 46.6328 250.227 46.6016C250.398 46.5703 250.539 46.6094 250.648 46.7188C250.773 46.8125 250.867 46.9453 250.93 47.1172C250.992 47.2734 251.023 47.4531 251.023 47.6562C251.039 47.8594 251.023 48.0391 250.977 48.1953ZM247.742 53.1875C247.82 53.0938 247.969 53.0156 248.188 52.9531C248.406 52.8906 248.633 52.8438 248.867 52.8125C249.102 52.7656 249.312 52.7422 249.5 52.7422C249.703 52.7266 249.82 52.7266 249.852 52.7422C249.867 52.7578 249.828 52.9219 249.734 53.2344C249.641 53.5469 249.523 53.9141 249.383 54.3359C249.242 54.7578 249.094 55.1953 248.938 55.6484C248.781 56.0859 248.664 56.4453 248.586 56.7266C248.508 57.0078 248.414 57.3281 248.305 57.6875C248.195 58.0312 248.094 58.375 248 58.7188C247.922 59.0469 247.867 59.3594 247.836 59.6562C247.805 59.9531 247.828 60.1797 247.906 60.3359C247.984 60.5234 248.07 60.6562 248.164 60.7344C248.258 60.7969 248.359 60.8281 248.469 60.8281C248.781 60.8281 249.172 60.6562 249.641 60.3125C250.125 59.9688 250.609 59.5625 251.094 59.0938C251.594 58.6094 252.055 58.125 252.477 57.6406C252.898 57.1406 253.211 56.7422 253.414 56.4453C253.539 56.2891 253.664 56.1875 253.789 56.1406C253.93 56.0938 254.039 56.1016 254.117 56.1641C254.211 56.2266 254.258 56.3281 254.258 56.4688C254.273 56.6094 254.227 56.7734 254.117 56.9609C253.867 57.3984 253.5 57.9219 253.016 58.5312C252.531 59.125 252.016 59.7031 251.469 60.2656C250.922 60.8125 250.383 61.2812 249.852 61.6719C249.336 62.0625 248.914 62.2656 248.586 62.2812C248.32 62.2969 248.055 62.25 247.789 62.1406C247.539 62.0469 247.305 61.9141 247.086 61.7422C246.883 61.5547 246.711 61.3438 246.57 61.1094C246.43 60.8594 246.352 60.6016 246.336 60.3359C246.289 59.9453 246.289 59.4141 246.336 58.7422C246.383 58.0547 246.469 57.3594 246.594 56.6562C246.719 55.9375 246.875 55.2578 247.062 54.6172C247.266 53.9766 247.492 53.5 247.742 53.1875ZM264.43 57.3359C264.211 57.6484 263.93 58.0391 263.586 58.5078C263.242 58.9609 262.883 59.4219 262.508 59.8906C262.148 60.3438 261.789 60.7656 261.43 61.1562C261.086 61.5312 260.797 61.7969 260.562 61.9531C260.406 62.0469 260.227 62.125 260.023 62.1875C259.82 62.25 259.609 62.2891 259.391 62.3047C259.188 62.3203 258.992 62.3047 258.805 62.2578C258.617 62.2266 258.453 62.1641 258.312 62.0703C258.172 61.9609 258.055 61.8047 257.961 61.6016C257.883 61.4297 257.805 61.2031 257.727 60.9219C257.664 60.6406 257.641 60.2891 257.656 59.8672C257.281 60.4922 256.867 60.9766 256.414 61.3203C255.961 61.6484 255.531 61.8906 255.125 62.0469C254.656 62.2188 254.188 62.3203 253.719 62.3516C253.5 62.3516 253.266 62.2734 253.016 62.1172C252.766 61.9766 252.555 61.75 252.383 61.4375C252.211 61.1094 252.102 60.6953 252.055 60.1953C252.008 59.6797 252.07 59.0703 252.242 58.3672C252.461 57.4141 252.805 56.5469 253.273 55.7656C253.758 54.9844 254.281 54.3203 254.844 53.7734C255.406 53.2109 255.961 52.7891 256.508 52.5078C257.055 52.2266 257.508 52.1016 257.867 52.1328C258.289 52.2109 258.633 52.3359 258.898 52.5078C259.117 52.6641 259.258 52.8984 259.32 53.2109C259.398 53.5078 259.273 53.9062 258.945 54.4062C259.164 54.3594 259.344 54.3281 259.484 54.3125C259.641 54.2969 259.758 54.2891 259.836 54.2891C259.93 54.2891 259.992 54.2969 260.023 54.3125C260.039 54.3438 260.047 54.4141 260.047 54.5234C260.047 54.6172 260.023 54.7969 259.977 55.0625C259.93 55.3281 259.859 55.6875 259.766 56.1406C259.672 56.5938 259.547 57.1797 259.391 57.8984C259.359 58.0391 259.328 58.1719 259.297 58.2969C259.281 58.4062 259.258 58.5234 259.227 58.6484C259.211 58.7578 259.188 58.8906 259.156 59.0469C259.125 59.2031 259.086 59.3984 259.039 59.6328C259.023 59.7734 259.016 59.9297 259.016 60.1016C259.031 60.2578 259.062 60.4062 259.109 60.5469C259.156 60.6875 259.227 60.8047 259.32 60.8984C259.43 60.9766 259.578 61.0156 259.766 61.0156C259.922 61.0156 260.125 60.9219 260.375 60.7344C260.625 60.5312 260.891 60.2812 261.172 59.9844C261.453 59.6719 261.742 59.3359 262.039 58.9766C262.352 58.6016 262.641 58.2422 262.906 57.8984C263.172 57.5547 263.406 57.25 263.609 56.9844C263.828 56.7188 263.984 56.5234 264.078 56.3984C264.203 56.2578 264.328 56.1797 264.453 56.1641C264.578 56.1328 264.672 56.1641 264.734 56.2578C264.797 56.3516 264.805 56.4922 264.758 56.6797C264.727 56.8672 264.617 57.0859 264.43 57.3359ZM257.562 58.3672C257.641 58.0547 257.734 57.6875 257.844 57.2656C257.953 56.8438 258.047 56.4375 258.125 56.0469C258.203 55.6562 258.258 55.3359 258.289 55.0859C258.336 54.8203 258.328 54.6953 258.266 54.7109C258.188 54.7266 258.102 54.75 258.008 54.7812C257.93 54.8125 257.828 54.8359 257.703 54.8516C257.578 54.8672 257.453 54.8906 257.328 54.9219C257.453 54.6719 257.523 54.4688 257.539 54.3125C257.57 54.1406 257.578 54.0078 257.562 53.9141C257.547 53.8047 257.516 53.7188 257.469 53.6562C257.297 53.5156 256.992 53.6328 256.555 54.0078C256.133 54.3672 255.641 55.0391 255.078 56.0234C254.844 56.4297 254.656 56.8672 254.516 57.3359C254.375 57.7891 254.273 58.2188 254.211 58.625C254.164 59.0312 254.156 59.3906 254.188 59.7031C254.219 60 254.281 60.1953 254.375 60.2891C254.547 60.4609 254.742 60.5469 254.961 60.5469C255.18 60.5312 255.398 60.4688 255.617 60.3594C255.852 60.2344 256.078 60.0781 256.297 59.8906C256.531 59.7031 256.734 59.5078 256.906 59.3047C257.094 59.1016 257.242 58.9141 257.352 58.7422C257.477 58.5703 257.547 58.4453 257.562 58.3672ZM269.82 62.5859C269.461 62.5859 269.148 62.5156 268.883 62.375C268.633 62.25 268.43 62.0781 268.273 61.8594C268.117 61.6406 268.016 61.3906 267.969 61.1094C267.922 60.8125 267.938 60.5 268.016 60.1719C268.062 59.9531 268.141 59.6641 268.25 59.3047C268.359 58.9297 268.469 58.5312 268.578 58.1094C268.703 57.6719 268.812 57.2422 268.906 56.8203C269.016 56.3828 269.086 55.9922 269.117 55.6484C269.148 55.2891 269.133 55 269.07 54.7812C269.008 54.5469 268.875 54.4297 268.672 54.4297C268.422 54.4297 268.164 54.5156 267.898 54.6875C267.633 54.8438 267.359 55.0625 267.078 55.3438C266.812 55.625 266.539 55.9531 266.258 56.3281C265.992 56.6875 265.727 57.0625 265.461 57.4531C265.32 57.9844 265.203 58.4531 265.109 58.8594C265.016 59.25 264.93 59.6094 264.852 59.9375C264.789 60.25 264.727 60.5312 264.664 60.7812C264.602 61.0156 264.547 61.2422 264.5 61.4609C264.453 61.6172 264.312 61.7734 264.078 61.9297C263.844 62.0703 263.594 62.1875 263.328 62.2812C263.062 62.375 262.836 62.4219 262.648 62.4219C262.445 62.4219 262.359 62.3516 262.391 62.2109C262.406 62.1172 262.461 61.9062 262.555 61.5781C262.633 61.25 262.734 60.8672 262.859 60.4297C262.969 59.9766 263.086 59.5 263.211 59C263.336 58.5 263.453 58.0234 263.562 57.5703C263.641 57.2109 263.727 56.8125 263.82 56.375C263.898 56 263.992 55.5625 264.102 55.0625C264.227 54.5625 264.367 54.0156 264.523 53.4219C264.633 53.3281 264.742 53.2578 264.852 53.2109C264.977 53.1484 265.102 53.1016 265.227 53.0703C265.352 53.0234 265.484 52.9922 265.625 52.9766C265.75 52.9766 265.875 52.9844 266 53C266.109 53.0156 266.219 53.0469 266.328 53.0938C266.453 53.125 266.562 53.1797 266.656 53.2578C266.609 53.3672 266.555 53.5234 266.492 53.7266C266.43 53.9141 266.367 54.1172 266.305 54.3359C266.242 54.5859 266.164 54.8438 266.07 55.1094C266.273 54.8281 266.5 54.5469 266.75 54.2656C267.016 53.9688 267.297 53.7031 267.594 53.4688C267.906 53.2344 268.234 53.0469 268.578 52.9062C268.922 52.75 269.273 52.6719 269.633 52.6719C269.93 52.6719 270.195 52.7578 270.43 52.9297C270.664 53.1016 270.844 53.3438 270.969 53.6562C271.109 53.9531 271.188 54.3125 271.203 54.7344C271.234 55.1562 271.18 55.6172 271.039 56.1172L270.781 57.1484C270.703 57.4766 270.602 57.8672 270.477 58.3203C270.367 58.7578 270.227 59.2422 270.055 59.7734C269.961 60.1172 269.922 60.4141 269.938 60.6641C269.969 60.9141 270.125 61.0391 270.406 61.0391C270.688 61.0391 271.039 60.8672 271.461 60.5234C271.898 60.1797 272.336 59.7656 272.773 59.2812C273.211 58.7969 273.625 58.3047 274.016 57.8047C274.406 57.2891 274.703 56.875 274.906 56.5625C275.047 56.3594 275.18 56.2266 275.305 56.1641C275.43 56.1016 275.523 56.0938 275.586 56.1406C275.664 56.1875 275.703 56.2969 275.703 56.4688C275.703 56.625 275.641 56.8281 275.516 57.0781C275.406 57.2969 275.234 57.5859 275 57.9453C274.781 58.3047 274.516 58.6875 274.203 59.0938C273.891 59.5 273.555 59.9141 273.195 60.3359C272.836 60.7422 272.461 61.1172 272.07 61.4609C271.68 61.7891 271.289 62.0547 270.898 62.2578C270.523 62.4766 270.164 62.5859 269.82 62.5859ZM279.477 65.3516C279.539 65.3047 279.641 65.2266 279.781 65.1172C279.906 65.0078 280.062 64.8047 280.25 64.5078C280.422 64.2109 280.617 63.7812 280.836 63.2188C281.055 62.6562 281.281 61.8906 281.516 60.9219C281.641 60.4062 281.805 59.75 282.008 58.9531C282.211 58.1562 282.43 57.3047 282.664 56.3984C282.914 55.4922 283.164 54.5625 283.414 53.6094C283.664 52.6406 283.906 51.7266 284.141 50.8672C284.375 49.9922 284.586 49.2031 284.773 48.5C284.961 47.7969 285.109 47.25 285.219 46.8594C284.922 47.0469 284.633 47.2578 284.352 47.4922C284.102 47.6953 283.836 47.9297 283.555 48.1953C283.273 48.4453 283 48.7109 282.734 48.9922C282.531 48.8203 282.375 48.6328 282.266 48.4297C282.203 48.3359 282.148 48.2344 282.102 48.125C282.008 47.8906 281.961 47.6484 281.961 47.3984C281.961 47.1484 282.156 46.8906 282.547 46.625C282.75 46.4844 283.055 46.2812 283.461 46.0156C283.883 45.75 284.398 45.4922 285.008 45.2422C285.617 44.9766 286.328 44.75 287.141 44.5625C287.953 44.375 288.852 44.2812 289.836 44.2812C290.82 44.2812 291.609 44.4766 292.203 44.8672C292.812 45.2578 293.273 45.7344 293.586 46.2969C293.914 46.8594 294.125 47.4531 294.219 48.0781C294.312 48.7031 294.336 49.25 294.289 49.7188C294.195 50.5938 293.914 51.5078 293.445 52.4609C292.977 53.4141 292.328 54.2969 291.5 55.1094C290.672 55.9062 289.664 56.5859 288.477 57.1484C287.289 57.7109 285.93 58.0312 284.398 58.1094C284.273 58.7031 284.148 59.3125 284.023 59.9375C283.898 60.5625 283.766 61.1797 283.625 61.7891C283.484 62.3828 283.336 62.9375 283.18 63.4531C283.039 63.9844 282.891 64.4375 282.734 64.8125C282.578 65.2188 282.375 65.5391 282.125 65.7734C281.875 66.0234 281.477 66.1484 280.93 66.1484C280.648 66.1484 280.391 66.0781 280.156 65.9375C279.906 65.7969 279.68 65.6016 279.477 65.3516ZM285.031 54.6641C284.984 54.9141 284.922 55.2422 284.844 55.6484C284.781 56.0391 284.703 56.4844 284.609 56.9844C285.031 56.9219 285.5 56.8125 286.016 56.6562C286.531 56.4844 287.047 56.2578 287.562 55.9766C288.078 55.6953 288.578 55.3594 289.062 54.9688C289.562 54.5625 290.016 54.1016 290.422 53.5859C290.828 53.0547 291.164 52.4609 291.43 51.8047C291.711 51.1328 291.891 50.3906 291.969 49.5781C292.047 48.7969 292 48.1484 291.828 47.6328C291.672 47.1016 291.438 46.6797 291.125 46.3672C290.812 46.0391 290.453 45.8125 290.047 45.6875C289.641 45.5469 289.234 45.4766 288.828 45.4766C288.438 45.4766 288.055 45.5312 287.68 45.6406C287.305 45.75 286.93 45.8906 286.555 46.0625C286.602 46.0781 286.656 46.1172 286.719 46.1797C286.812 46.2734 286.883 46.4062 286.93 46.5781C286.555 48.0938 286.242 49.3594 285.992 50.375C285.758 51.3906 285.57 52.2188 285.43 52.8594C285.258 53.6094 285.125 54.2109 285.031 54.6641ZM293.586 61.625C294.273 58.7344 294.82 56.4141 295.227 54.6641C295.648 52.9141 295.969 51.5781 296.188 50.6562C296.438 49.5625 296.609 48.8047 296.703 48.3828C296.75 48.0859 296.789 47.7969 296.82 47.5156C296.852 47.2656 296.867 47.0078 296.867 46.7422C296.867 46.4766 296.844 46.2344 296.797 46.0156C296.922 45.9375 297.055 45.875 297.195 45.8281C297.352 45.7812 297.5 45.7422 297.641 45.7109C297.812 45.6641 297.984 45.625 298.156 45.5938C298.328 45.5625 298.484 45.5469 298.625 45.5469C298.75 45.5469 298.867 45.5625 298.977 45.5938C299.086 45.6094 299.156 45.6562 299.188 45.7344C299.281 45.8125 299.32 45.9688 299.305 46.2031C299.305 46.4375 299.289 46.6797 299.258 46.9297C299.195 47.2266 299.125 47.5469 299.047 47.8906C298.859 48.5625 298.602 49.5312 298.273 50.7969C297.992 51.875 297.609 53.3438 297.125 55.2031C296.656 57.0625 296.062 59.4062 295.344 62.2344C295.266 62.3125 295.172 62.3672 295.062 62.3984C294.953 62.4297 294.852 62.4453 294.758 62.4453C294.648 62.4453 294.531 62.4375 294.406 62.4219C294.297 62.3906 294.188 62.3438 294.078 62.2812C293.984 62.2188 293.891 62.1328 293.797 62.0234C293.703 61.9297 293.633 61.7969 293.586 61.625ZM311.211 57.3359C310.992 57.6484 310.711 58.0391 310.367 58.5078C310.023 58.9609 309.664 59.4219 309.289 59.8906C308.93 60.3438 308.57 60.7656 308.211 61.1562C307.867 61.5312 307.578 61.7969 307.344 61.9531C307.188 62.0469 307.008 62.125 306.805 62.1875C306.602 62.25 306.391 62.2891 306.172 62.3047C305.969 62.3203 305.773 62.3047 305.586 62.2578C305.398 62.2266 305.234 62.1641 305.094 62.0703C304.953 61.9609 304.836 61.8047 304.742 61.6016C304.664 61.4297 304.586 61.2031 304.508 60.9219C304.445 60.6406 304.422 60.2891 304.438 59.8672C304.062 60.4922 303.648 60.9766 303.195 61.3203C302.742 61.6484 302.312 61.8906 301.906 62.0469C301.438 62.2188 300.969 62.3203 300.5 62.3516C300.281 62.3516 300.047 62.2734 299.797 62.1172C299.547 61.9766 299.336 61.75 299.164 61.4375C298.992 61.1094 298.883 60.6953 298.836 60.1953C298.789 59.6797 298.852 59.0703 299.023 58.3672C299.242 57.4141 299.586 56.5469 300.055 55.7656C300.539 54.9844 301.062 54.3203 301.625 53.7734C302.188 53.2109 302.742 52.7891 303.289 52.5078C303.836 52.2266 304.289 52.1016 304.648 52.1328C305.07 52.2109 305.414 52.3359 305.68 52.5078C305.898 52.6641 306.039 52.8984 306.102 53.2109C306.18 53.5078 306.055 53.9062 305.727 54.4062C305.945 54.3594 306.125 54.3281 306.266 54.3125C306.422 54.2969 306.539 54.2891 306.617 54.2891C306.711 54.2891 306.773 54.2969 306.805 54.3125C306.82 54.3438 306.828 54.4141 306.828 54.5234C306.828 54.6172 306.805 54.7969 306.758 55.0625C306.711 55.3281 306.641 55.6875 306.547 56.1406C306.453 56.5938 306.328 57.1797 306.172 57.8984C306.141 58.0391 306.109 58.1719 306.078 58.2969C306.062 58.4062 306.039 58.5234 306.008 58.6484C305.992 58.7578 305.969 58.8906 305.938 59.0469C305.906 59.2031 305.867 59.3984 305.82 59.6328C305.805 59.7734 305.797 59.9297 305.797 60.1016C305.812 60.2578 305.844 60.4062 305.891 60.5469C305.938 60.6875 306.008 60.8047 306.102 60.8984C306.211 60.9766 306.359 61.0156 306.547 61.0156C306.703 61.0156 306.906 60.9219 307.156 60.7344C307.406 60.5312 307.672 60.2812 307.953 59.9844C308.234 59.6719 308.523 59.3359 308.82 58.9766C309.133 58.6016 309.422 58.2422 309.688 57.8984C309.953 57.5547 310.188 57.25 310.391 56.9844C310.609 56.7188 310.766 56.5234 310.859 56.3984C310.984 56.2578 311.109 56.1797 311.234 56.1641C311.359 56.1328 311.453 56.1641 311.516 56.2578C311.578 56.3516 311.586 56.4922 311.539 56.6797C311.508 56.8672 311.398 57.0859 311.211 57.3359ZM304.344 58.3672C304.422 58.0547 304.516 57.6875 304.625 57.2656C304.734 56.8438 304.828 56.4375 304.906 56.0469C304.984 55.6562 305.039 55.3359 305.07 55.0859C305.117 54.8203 305.109 54.6953 305.047 54.7109C304.969 54.7266 304.883 54.75 304.789 54.7812C304.711 54.8125 304.609 54.8359 304.484 54.8516C304.359 54.8672 304.234 54.8906 304.109 54.9219C304.234 54.6719 304.305 54.4688 304.32 54.3125C304.352 54.1406 304.359 54.0078 304.344 53.9141C304.328 53.8047 304.297 53.7188 304.25 53.6562C304.078 53.5156 303.773 53.6328 303.336 54.0078C302.914 54.3672 302.422 55.0391 301.859 56.0234C301.625 56.4297 301.438 56.8672 301.297 57.3359C301.156 57.7891 301.055 58.2188 300.992 58.625C300.945 59.0312 300.938 59.3906 300.969 59.7031C301 60 301.062 60.1953 301.156 60.2891C301.328 60.4609 301.523 60.5469 301.742 60.5469C301.961 60.5312 302.18 60.4688 302.398 60.3594C302.633 60.2344 302.859 60.0781 303.078 59.8906C303.312 59.7031 303.516 59.5078 303.688 59.3047C303.875 59.1016 304.023 58.9141 304.133 58.7422C304.258 58.5703 304.328 58.4453 304.344 58.3672ZM318.289 56.0703C318.352 55.9766 318.43 55.9219 318.523 55.9062C318.633 55.875 318.719 55.8828 318.781 55.9297C318.844 55.9766 318.875 56.0547 318.875 56.1641C318.891 56.2734 318.852 56.4219 318.758 56.6094C318.445 57.2031 318.031 57.8438 317.516 58.5312C317.016 59.2188 316.484 59.8672 315.922 60.4766C315.359 61.0703 314.812 61.5625 314.281 61.9531C313.75 62.3438 313.305 62.5391 312.945 62.5391C312.43 62.5391 312 62.4375 311.656 62.2344C311.312 62.0312 311.039 61.7812 310.836 61.4844C310.648 61.1875 310.516 60.8672 310.438 60.5234C310.359 60.1641 310.336 59.8359 310.367 59.5391C310.383 59.2891 310.438 58.8438 310.531 58.2031C310.625 57.5469 310.75 56.7969 310.906 55.9531C311.062 55.0938 311.234 54.1797 311.422 53.2109C311.625 52.2266 311.836 51.2812 312.055 50.375C311.789 50.4062 311.523 50.4375 311.258 50.4688C310.992 50.5 310.75 50.5156 310.531 50.5156C310.031 50.5156 309.562 50.4609 309.125 50.3516C308.672 50.2266 308.336 50.1094 308.117 50C307.992 49.9375 307.938 49.8516 307.953 49.7422C307.969 49.6172 308.016 49.5 308.094 49.3906C308.172 49.2656 308.273 49.1641 308.398 49.0859C308.508 48.9922 308.609 48.9453 308.703 48.9453C309 48.9766 309.32 49.0078 309.664 49.0391C310.008 49.0547 310.383 49.0547 310.789 49.0391C311.086 49.0234 311.367 49 311.633 48.9688C311.914 48.9375 312.188 48.8984 312.453 48.8516C312.656 48.1016 312.852 47.4531 313.039 46.9062C313.242 46.3438 313.422 45.9531 313.578 45.7344C313.625 45.6562 313.727 45.5938 313.883 45.5469C314.055 45.4844 314.234 45.4453 314.422 45.4297C314.609 45.3984 314.789 45.3984 314.961 45.4297C315.133 45.4453 315.258 45.5 315.336 45.5938C315.414 45.7188 315.445 46.0391 315.43 46.5547C315.414 47.0703 315.328 47.7266 315.172 48.5234C315.828 48.5234 316.406 48.5625 316.906 48.6406C317.422 48.7031 317.859 48.7812 318.219 48.875C318.578 48.9531 318.867 49.0391 319.086 49.1328C319.305 49.2109 319.469 49.2656 319.578 49.2969C319.688 49.3281 319.742 49.4062 319.742 49.5312C319.758 49.6562 319.734 49.7891 319.672 49.9297C319.625 50.0547 319.539 50.1641 319.414 50.2578C319.289 50.3516 319.148 50.3828 318.992 50.3516C318.836 50.3359 318.656 50.3047 318.453 50.2578C318.266 50.2109 318.031 50.1719 317.75 50.1406C317.484 50.1094 317.164 50.0781 316.789 50.0469C316.414 50.0156 315.977 50 315.477 50C315.383 50 315.273 50.0078 315.148 50.0234C315.039 50.0234 314.922 50.0234 314.797 50.0234C314.734 50.2734 314.672 50.5234 314.609 50.7734C314.562 51.0078 314.492 51.2578 314.398 51.5234C314.195 52.1484 313.961 52.8281 313.695 53.5625C313.461 54.2031 313.18 54.9375 312.852 55.7656C312.523 56.5938 312.156 57.4766 311.75 58.4141C311.656 59.0859 311.664 59.6016 311.773 59.9609C311.898 60.3047 312.047 60.5547 312.219 60.7109C312.422 60.8828 312.672 60.9766 312.969 60.9922C313.203 61.0234 313.484 60.9453 313.812 60.7578C314.156 60.5547 314.508 60.2891 314.867 59.9609C315.227 59.6328 315.586 59.2734 315.945 58.8828C316.32 58.4922 316.664 58.1094 316.977 57.7344C317.289 57.3594 317.562 57.0234 317.797 56.7266C318.031 56.4141 318.195 56.1953 318.289 56.0703ZM327.5 57.125C327.031 57.8125 326.5 58.4844 325.906 59.1406C325.312 59.7812 324.68 60.3594 324.008 60.875C323.352 61.375 322.672 61.7812 321.969 62.0938C321.281 62.4062 320.609 62.5625 319.953 62.5625C319.609 62.5625 319.234 62.4766 318.828 62.3047C318.438 62.1484 318.078 61.8984 317.75 61.5547C317.422 61.2109 317.156 60.7656 316.953 60.2188C316.766 59.6719 316.711 59.0078 316.789 58.2266C316.852 57.5859 317.047 56.9141 317.375 56.2109C317.719 55.4922 318.133 54.8359 318.617 54.2422C319.117 53.6484 319.672 53.1562 320.281 52.7656C320.906 52.375 321.531 52.1797 322.156 52.1797C322.75 52.1797 323.18 52.3281 323.445 52.625C323.711 52.9219 323.828 53.2891 323.797 53.7266C323.75 54.2109 323.609 54.6562 323.375 55.0625C323.156 55.4688 322.891 55.8359 322.578 56.1641C322.266 56.4922 321.93 56.7891 321.57 57.0547C321.227 57.3203 320.898 57.5625 320.586 57.7812C320.242 58.0156 319.914 58.2422 319.602 58.4609C319.289 58.6641 319.016 58.8516 318.781 59.0234C318.797 59.4141 318.867 59.7422 318.992 60.0078C319.117 60.2734 319.273 60.4922 319.461 60.6641C319.648 60.8203 319.859 60.9375 320.094 61.0156C320.344 61.0781 320.594 61.1094 320.844 61.1094C321.375 61.1094 321.93 60.9453 322.508 60.6172C323.086 60.2734 323.648 59.8672 324.195 59.3984C324.758 58.9141 325.273 58.4141 325.742 57.8984C326.227 57.3828 326.625 56.9375 326.938 56.5625C327.047 56.4375 327.156 56.3672 327.266 56.3516C327.391 56.3203 327.484 56.3359 327.547 56.3984C327.625 56.4453 327.664 56.5391 327.664 56.6797C327.664 56.8047 327.609 56.9531 327.5 57.125ZM321.5 53.5156C321.312 53.5156 321.086 53.6094 320.82 53.7969C320.57 53.9844 320.32 54.2578 320.07 54.6172C319.82 54.9609 319.586 55.3906 319.367 55.9062C319.148 56.4062 318.984 56.9844 318.875 57.6406C319.062 57.5 319.266 57.3594 319.484 57.2188C319.703 57.0625 319.922 56.8984 320.141 56.7266C320.812 56.2109 321.281 55.7578 321.547 55.3672C321.812 54.9766 321.961 54.6406 321.992 54.3594C322.023 54.0625 321.992 53.8516 321.898 53.7266C321.805 53.5859 321.672 53.5156 321.5 53.5156Z" fill="#F85A11"/>
<g filter="url(#filter0_i_38_309)">
<circle cx="53.5" cy="53.5" r="42.5" fill="#F85A11"/>
</g>
<circle cx="53.5" cy="53.5" r="48" stroke="#321203" stroke-width="11"/>
<g filter="url(#filter1_d_38_309)">
<ellipse cx="35.5" cy="35.5" rx="11.5" ry="12.5" fill="white"/>
<path d="M46.5 35.5C46.5 42.1675 41.5367 47.5 35.5 47.5C29.4633 47.5 24.5 42.1675 24.5 35.5C24.5 28.8325 29.4633 23.5 35.5 23.5C41.5367 23.5 46.5 28.8325 46.5 35.5Z" stroke="#EEEEEE"/>
</g>
<g filter="url(#filter2_dd_38_309)">
<path d="M85 35.5C85 42.4036 79.8513 48 73.5 48C67.1487 48 62 42.4036 62 35.5C62 28.5964 67.1487 23 73.5 23C79.8513 23 85 28.5964 85 35.5Z" fill="white"/>
<path d="M84.5 35.5C84.5 42.1675 79.5367 47.5 73.5 47.5C67.4633 47.5 62.5 42.1675 62.5 35.5C62.5 28.8325 67.4633 23.5 73.5 23.5C79.5367 23.5 84.5 28.8325 84.5 35.5Z" stroke="#EEEEEE"/>
</g>
<g filter="url(#filter3_i_38_309)">
<path d="M65.5 59.5C65.5 65.6189 60.981 70.5 55.5 70.5C50.019 70.5 45.5 65.6189 45.5 59.5C45.5 53.3811 50.019 48.5 55.5 48.5C60.981 48.5 65.5 53.3811 65.5 59.5Z" fill="#D6761D" stroke="#CC740C"/>
<path d="M59.0386 59.5002C59.0386 61.5004 57.4465 63.1074 55.5001 63.1074C53.5538 63.1074 51.9617 61.5004 51.9617 59.5002C51.9617 57.5001 53.5538 55.8931 55.5001 55.8931C57.4465 55.8931 59.0386 57.5001 59.0386 59.5002Z" fill="#EA661B" stroke="#CC740C"/>
</g>
<path d="M80.2188 73C74.9534 80.4829 59.886 90.7972 38.2219 79.7969C32.771 81.9887 26.7355 88.9086 23.5972 93.3584C14.6485 84.8274 25.8391 79.9731 35.0339 78.0492C33.1459 76.9384 31.2118 75.6663 29.2334 74.2183C31.597 75.2876 34.894 76.4515 38.8121 77.3986C49.9799 80.0982 66.1933 81.0363 80.2188 73Z" fill="#820707"/>
<path d="M43 84C46.9706 87.0185 57.9294 91.2444 70 84" stroke="#820707"/>
<path d="M50.0811 90C51.7057 91.95 56.2729 94.7539 61.5445 90.3698" stroke="#820707"/>
<path d="M24 88C25.9861 85.6881 27.1234 83.586 30 83" stroke="#F85A11" stroke-linecap="round"/>
<ellipse cx="36" cy="41.5" rx="5" ry="6.5" fill="#321203"/>
<ellipse cx="74" cy="41.5" rx="5" ry="6.5" fill="#321203"/>
<path d="M317.5 67H317" stroke="black" stroke-width="3" stroke-linecap="round"/>
<path d="M325 67H326" stroke="black" stroke-width="3" stroke-linecap="round"/>
<defs>
<filter id="filter0_i_38_309" x="0" y="0" width="107" height="108" filterUnits="userSpaceOnUse" color-interpolation-filters="sRGB">
<feFlood flood-opacity="0" result="BackgroundImageFix"/>
<feBlend mode="normal" in="SourceGraphic" in2="BackgroundImageFix" result="shape"/>
<feColorMatrix in="SourceAlpha" type="matrix" values="0 0 0 0 0 0 0 0 0 0 0 0 0 0 0 0 0 0 127 0" result="hardAlpha"/>
<feOffset dy="1"/>
<feGaussianBlur stdDeviation="2"/>
<feComposite in2="hardAlpha" operator="arithmetic" k2="-1" k3="1"/>
<feColorMatrix type="matrix" values="0 0 0 0 0.0470588 0 0 0 0 0.0470588 0 0 0 0 0.0509804 0 0 0 0.05 0"/>
<feBlend mode="normal" in2="shape" result="effect1_innerShadow_38_309"/>
</filter>
<filter id="filter1_d_38_309" x="20" y="23" width="31" height="33" filterUnits="userSpaceOnUse" color-interpolation-filters="sRGB">
<feFlood flood-opacity="0" result="BackgroundImageFix"/>
<feColorMatrix in="SourceAlpha" type="matrix" values="0 0 0 0 0 0 0 0 0 0 0 0 0 0 0 0 0 0 127 0" result="hardAlpha"/>
<feOffset dy="4"/>
<feGaussianBlur stdDeviation="2"/>
<feComposite in2="hardAlpha" operator="out"/>
<feColorMatrix type="matrix" values="0 0 0 0 0 0 0 0 0 0 0 0 0 0 0 0 0 0 0.25 0"/>
<feBlend mode="normal" in2="BackgroundImageFix" result="effect1_dropShadow_38_309"/>
<feBlend mode="normal" in="SourceGraphic" in2="effect1_dropShadow_38_309" result="shape"/>
</filter>
<filter id="filter2_dd_38_309" x="44" y="13" width="59" height="61" filterUnits="userSpaceOnUse" color-interpolation-filters="sRGB">
<feFlood flood-opacity="0" result="BackgroundImageFix"/>
<feColorMatrix in="SourceAlpha" type="matrix" values="0 0 0 0 0 0 0 0 0 0 0 0 0 0 0 0 0 0 127 0" result="hardAlpha"/>
<feOffset dy="4"/>
<feGaussianBlur stdDeviation="2"/>
<feColorMatrix type="matrix" values="0 0 0 0 0 0 0 0 0 0 0 0 0 0 0 0 0 0 0.3 0"/>
<feBlend mode="normal" in2="BackgroundImageFix" result="effect1_dropShadow_38_309"/>
<feColorMatrix in="SourceAlpha" type="matrix" values="0 0 0 0 0 0 0 0 0 0 0 0 0 0 0 0 0 0 127 0" result="hardAlpha"/>
<feMorphology radius="6" operator="dilate" in="SourceAlpha" result="effect2_dropShadow_38_309"/>
<feOffset dy="8"/>
<feGaussianBlur stdDeviation="6"/>
<feColorMatrix type="matrix" values="0 0 0 0 0 0 0 0 0 0 0 0 0 0 0 0 0 0 0.15 0"/>
<feBlend mode="normal" in2="effect1_dropShadow_38_309" result="effect2_dropShadow_38_309"/>
<feBlend mode="normal" in="SourceGraphic" in2="effect2_dropShadow_38_309" result="shape"/>
</filter>
<filter id="filter3_i_38_309" x="45" y="48" width="21" height="27" filterUnits="userSpaceOnUse" color-interpolation-filters="sRGB">
<feFlood flood-opacity="0" result="BackgroundImageFix"/>
<feBlend mode="normal" in="SourceGraphic" in2="BackgroundImageFix" result="shape"/>
<feColorMatrix in="SourceAlpha" type="matrix" values="0 0 0 0 0 0 0 0 0 0 0 0 0 0 0 0 0 0 127 0" result="hardAlpha"/>
<feOffset dy="4"/>
<feGaussianBlur stdDeviation="2"/>
<feComposite in2="hardAlpha" operator="arithmetic" k2="-1" k3="1"/>
<feColorMatrix type="matrix" values="0 0 0 0 0 0 0 0 0 0 0 0 0 0 0 0 0 0 0.25 0"/>
<feBlend mode="normal" in2="shape" result="effect1_innerShadow_38_309"/>
</filter>
</defs>
</svg>
