<svg width="1613" height="916" viewBox="0 0 1613 916" fill="none" xmlns="http://www.w3.org/2000/svg">
<g clip-path="url(#clip0_70_199)">
<rect width="1613" height="916" fill="#FEEFE7"/>
<g clip-path="url(#clip1_70_199)">
<path d="M639.353 154.02L566.22 116.329L563.513 121.581L636.646 159.272L639.353 154.02Z" fill="#E6E6E6" fill-opacity="0.35" stroke="#E6E6E6" stroke-opacity="0.35" stroke-width="6.25"/>
<path d="M583.631 65.1039C591.041 68.9227 600.481 65.3555 604.717 57.1364C608.953 48.9173 606.38 39.1586 598.971 35.3398C591.561 31.521 582.12 35.0882 577.884 43.3073C573.648 51.5264 576.221 61.2851 583.631 65.1039Z" fill="#E6E6E6" fill-opacity="0.35" stroke="#E6E6E6" stroke-opacity="0.35" stroke-width="6.25"/>
<path d="M573.565 134.702L550.941 123.042L560.566 104.367L560.42 76.2239C560.477 75.1451 561.342 74.1135 562.356 74.0825C563.371 74.0516 564.273 74.8857 564.217 75.9645L564.342 108.344C564.417 110.783 565.582 113.045 567.686 114.13L590.836 126.061C594.125 127.756 598.259 126.193 600.139 122.546C602.019 118.898 600.892 114.624 597.604 112.93L578.193 103.111L577.617 66.4364C577.636 63.4919 576.002 61.1723 573.24 59.7487C572.845 59.5453 571.981 59.2845 571.511 59.227C571.041 59.1695 570.44 59.0443 569.97 58.9868C556.684 57.3099 537.513 72.5429 526.911 93.1151C523.546 99.3211 521.046 104.495 518.752 109.592C515.275 115.37 515.499 122.688 519.632 127.588C520.722 128.703 521.943 129.887 523.259 130.565L556.931 147.919L538.884 182.935C536.403 187.75 537.943 193.16 542.152 195.329C546.361 197.499 551.736 195.468 554.142 190.799L576.626 147.174C577.753 144.986 578.092 142.39 577.472 140.04C576.928 137.543 575.406 135.651 573.565 134.702Z" fill="#E6E6E6" fill-opacity="0.35" stroke="#E6E6E6" stroke-opacity="0.35" stroke-width="6.25"/>
<path d="M670.311 109.777C677.721 113.596 687.162 110.029 691.398 101.81C695.634 93.5906 693.061 83.832 685.651 80.0132C678.242 76.1944 668.801 79.7615 664.565 87.9806C660.329 96.1998 662.902 105.958 670.311 109.777Z" fill="#E6E6E6" fill-opacity="0.35" stroke="#E6E6E6" stroke-opacity="0.35" stroke-width="6.25"/>
<path d="M680.411 172.226C691.013 151.653 692.295 127.201 683.22 117.354C682.901 117.004 682.45 116.587 682.131 116.238C681.811 115.889 681.097 115.336 680.703 115.133C677.94 113.709 675.103 113.724 672.716 115.448L642.569 136.473L623.309 126.362C620.152 124.735 615.886 126.23 614.006 129.877C612.202 133.379 613.253 137.799 616.542 139.493L639.691 151.424C641.796 152.509 644.314 152.145 646.344 150.791L672.995 132.026C673.841 131.354 675.043 131.605 675.607 132.449C676.17 133.294 675.832 134.597 674.986 135.269L651.982 151.48L642.357 170.156L619.47 158.36C617.628 157.411 615.204 157.27 612.799 158.061C610.468 158.707 608.607 160.702 607.48 162.891L584.996 206.516C582.515 211.33 584.055 216.74 588.264 218.91C592.473 221.079 597.848 219.048 600.254 214.379L618.301 179.363L651.974 196.717C653.289 197.395 654.886 197.849 656.502 197.943C662.892 198.466 669.056 194.257 671.669 188.217C674.545 183.606 677.309 178.567 680.411 172.226Z" fill="#E6E6E6" fill-opacity="0.35" stroke="#E6E6E6" stroke-opacity="0.35" stroke-width="6.25"/>
</g>
<g clip-path="url(#clip2_70_199)">
<path d="M881.59 828.004L793.864 803.002L792.099 809.196L879.825 834.198L881.59 828.004Z" fill="#E6E6E6" fill-opacity="0.35" stroke="#E6E6E6" stroke-opacity="0.35" stroke-width="6.25"/>
<path d="M801.33 744.484C810.218 747.017 819.663 741.214 822.426 731.521C825.188 721.829 820.222 711.918 811.334 709.385C802.446 706.852 793.001 712.656 790.238 722.348C787.476 732.04 792.442 741.951 801.33 744.484Z" fill="#E6E6E6" fill-opacity="0.35" stroke="#E6E6E6" stroke-opacity="0.35" stroke-width="6.25"/>
<path d="M805.926 821.136L778.788 813.402L785.065 791.379L778.634 761.269C778.455 760.102 779.163 758.815 780.256 758.569C781.35 758.323 782.514 759.027 782.693 760.194L790.048 794.845C790.673 797.442 792.44 799.62 794.965 800.339L822.734 808.254C826.678 809.378 830.815 806.836 832.041 802.535C833.266 798.233 831.092 793.893 827.147 792.769L803.904 786.33L795.104 747.174C794.469 744.017 792.179 741.876 788.866 740.931C788.392 740.797 787.397 740.699 786.874 740.736C786.352 740.773 785.672 740.765 785.149 740.802C770.365 741.798 752.967 762.139 746.053 786.399C743.787 793.752 742.228 799.819 740.876 805.759C738.393 812.678 740.267 820.468 745.842 824.847C747.273 825.813 748.862 826.824 750.439 827.274L790.831 838.786L779.062 880.079C777.444 885.757 780.32 891.227 785.369 892.666C790.418 894.105 795.795 890.801 797.365 885.295L812.027 833.851C812.762 831.27 812.551 828.419 811.355 826.032C810.208 823.473 808.135 821.766 805.926 821.136Z" fill="#E6E6E6" fill-opacity="0.35" stroke="#E6E6E6" stroke-opacity="0.35" stroke-width="6.25"/>
<path d="M905.307 774.118C914.195 776.651 923.64 770.848 926.402 761.155C929.165 751.463 924.199 741.552 915.31 739.019C906.422 736.486 896.978 742.289 894.215 751.982C891.453 761.674 896.419 771.585 905.307 774.118Z" fill="#E6E6E6" fill-opacity="0.35" stroke="#E6E6E6" stroke-opacity="0.35" stroke-width="6.25"/>
<path d="M930.182 838.877C937.096 814.617 933.036 788.16 920.998 779.52C920.573 779.213 919.991 778.861 919.567 778.554C919.143 778.247 918.245 777.806 917.772 777.671C914.458 776.726 911.384 777.338 909.179 779.687L881.167 808.537L858.023 801.755C854.236 800.675 849.942 803.172 848.716 807.474C847.539 811.603 849.665 816.115 853.61 817.24L881.379 825.154C883.903 825.874 886.553 824.955 888.453 823.078L913.177 797.383C913.945 796.485 915.305 796.501 916.105 797.287C916.904 798.073 916.827 799.539 916.06 800.437L894.722 822.632L888.445 844.655L860.991 836.83C858.782 836.201 856.121 836.559 853.689 837.912C851.305 839.093 849.732 841.621 848.996 844.201L834.334 895.646C832.716 901.324 835.592 906.794 840.641 908.233C845.69 909.672 851.067 906.368 852.636 900.862L864.405 859.569L904.797 871.081C906.375 871.53 908.208 871.681 909.982 871.442C917.029 870.66 922.777 864.857 924.265 857.84C926.357 852.297 928.231 846.32 930.182 838.877Z" fill="#E6E6E6" fill-opacity="0.35" stroke="#E6E6E6" stroke-opacity="0.35" stroke-width="6.25"/>
</g>
<g clip-path="url(#clip3_70_199)">
<path d="M376.502 397.565L296.103 354.474L293.274 359.752L373.673 402.843L376.502 397.565Z" fill="#E6E6E6" fill-opacity="0.35" stroke="#E6E6E6" stroke-opacity="0.35" stroke-width="6.25"/>
<path d="M313.91 302.494C322.056 306.86 332.248 303.704 336.675 295.445C341.101 287.186 338.086 276.952 329.94 272.586C321.794 268.22 311.602 271.376 307.176 279.635C302.749 287.894 305.764 298.128 313.91 302.494Z" fill="#E6E6E6" fill-opacity="0.35" stroke="#E6E6E6" stroke-opacity="0.35" stroke-width="6.25"/>
<path d="M304.5 373.884L279.628 360.553L289.686 341.787L288.905 312.683C288.942 311.57 289.86 310.553 290.964 310.578C292.067 310.603 293.067 311.516 293.029 312.628L293.883 346.113C294.018 348.639 295.335 351.043 297.649 352.283L323.099 365.923C326.714 367.861 331.178 366.479 333.142 362.814C335.107 359.148 333.786 354.666 330.171 352.729L308.836 341.482L307.397 303.533C307.353 300.489 305.523 297.999 302.487 296.372C302.053 296.139 301.107 295.821 300.594 295.735C300.082 295.649 299.425 295.485 298.912 295.4C284.421 292.917 263.901 307.586 252.822 328.258C249.299 334.484 246.693 339.693 244.311 344.833C240.655 350.611 241.061 358.189 245.667 363.488C246.877 364.703 248.232 365.996 249.678 366.771L286.696 386.611L267.838 421.797C265.245 426.635 267.04 432.316 271.667 434.796C276.294 437.276 282.097 435.479 284.612 430.787L308.106 386.951C309.285 384.752 309.596 382.088 308.87 379.623C308.222 377.011 306.524 374.969 304.5 373.884Z" fill="#E6E6E6" fill-opacity="0.35" stroke="#E6E6E6" stroke-opacity="0.35" stroke-width="6.25"/>
<path d="M409.203 353.568C417.349 357.934 427.541 354.778 431.968 346.519C436.394 338.26 433.379 328.025 425.233 323.66C417.087 319.294 406.895 322.45 402.469 330.709C398.042 338.967 401.058 349.202 409.203 353.568Z" fill="#E6E6E6" fill-opacity="0.35" stroke="#E6E6E6" stroke-opacity="0.35" stroke-width="6.25"/>
<path d="M421.574 418.702C432.653 398.03 433.506 372.821 423.415 362.128C423.06 361.749 422.56 361.293 422.205 360.914C421.85 360.535 421.061 359.923 420.627 359.69C417.59 358.063 414.504 357.918 411.945 359.566L379.613 379.605L358.435 368.065C354.964 366.205 350.356 367.51 348.392 371.175C346.506 374.694 347.748 379.323 351.363 381.26L376.813 394.901C379.126 396.141 381.858 395.906 384.036 394.62L412.615 376.722C413.521 376.075 414.835 376.402 415.467 377.307C416.098 378.212 415.759 379.539 414.854 380.187L390.185 395.651L380.127 414.417L354.966 400.932C352.942 399.847 350.301 399.564 347.702 400.246C345.181 400.783 343.2 402.741 342.022 404.94L318.527 448.776C315.934 453.614 317.729 459.294 322.357 461.775C326.984 464.255 332.787 462.458 335.301 457.766L354.16 422.58L391.178 442.421C392.624 443.196 394.372 443.755 396.132 443.943C403.095 444.844 409.708 440.84 412.418 434.743C415.445 430.138 418.339 425.084 421.574 418.702Z" fill="#E6E6E6" fill-opacity="0.35" stroke="#E6E6E6" stroke-opacity="0.35" stroke-width="6.25"/>
</g>
<g clip-path="url(#clip4_70_199)">
<path d="M203.44 737.068L204.259 727.714L188.152 732.825L193.667 740.169L203.44 737.068ZM207.739 738.681L191.609 743.719L191.632 743.792C186.861 748.284 184.77 754.983 186.765 761.271C189.641 770.337 199.757 775.095 209.375 772.043C219.07 768.967 224.491 759.199 221.637 750.206C219.799 743.868 214.227 739.6 207.739 738.681ZM207.879 763.263L208.622 765.602L206.198 766.372L205.525 764.251C203.86 764.699 202.157 764.757 201.079 764.616L200.925 761.687C202.104 761.876 203.728 761.844 205.292 761.347C206.621 760.926 207.554 760.066 207.252 759.116C206.974 758.239 205.928 757.927 204.045 757.961C201.21 757.975 199.04 757.376 198.345 755.182C197.695 753.135 198.772 751.103 201.189 749.773L200.517 747.653L202.94 746.883L203.59 748.931C205.255 748.483 206.443 748.428 207.364 748.619L207.495 751.474C206.777 751.38 205.442 751.24 203.722 751.786C202.158 752.282 201.819 753.114 202.005 753.699C202.26 754.503 203.259 754.669 205.524 754.755C208.719 754.788 210.309 755.732 210.936 757.706C211.539 759.607 210.532 761.858 207.879 763.263ZM55.9859 760.838L57.1355 745.746L31.1765 753.983L39.957 765.924L55.9859 760.838ZM62.773 763.513L62.7498 763.44L36.6344 771.727L36.6576 771.8C28.9014 779.09 25.633 789.945 28.881 800.181C33.5441 814.877 49.9691 822.703 65.6853 817.716C81.4014 812.729 90.3097 796.866 85.6466 782.169C82.3987 771.933 73.3132 764.998 62.773 763.513ZM63.1221 803.4L64.3285 807.202L60.4972 808.418L59.3836 804.908C56.6238 805.703 53.9679 805.741 52.1721 805.506L51.953 800.747C53.8733 801.103 56.5524 801.139 59.0545 800.345C61.322 799.625 62.6306 798.325 62.1434 796.789C61.7026 795.4 60.15 794.847 56.9785 794.887C52.2373 794.862 48.7643 793.953 47.6275 790.37C46.5836 787.08 48.2736 783.727 52.2639 781.656L51.1503 778.146L54.9816 776.931L56.0256 780.221C58.7854 779.426 60.668 779.392 62.1278 779.653L62.2773 784.192C61.1449 784.149 58.9899 783.867 56.1751 784.761C53.5949 785.579 53.0827 786.949 53.3843 787.899C53.7787 789.142 55.3632 789.525 59.1747 789.603C64.3533 789.65 66.9576 791.077 68.0016 794.367C69.0224 797.584 67.4019 801.157 63.1221 803.4ZM128.64 762.25C140.055 758.628 146.489 747.171 143.102 736.496C139.715 725.821 127.852 720.169 116.437 723.791C105.021 727.414 98.5872 738.871 101.974 749.546C105.361 760.221 117.224 765.873 128.64 762.25ZM98.6685 833.245L61.6849 844.98C49.6437 848.8 43.5894 831.89 56.4907 827.796L88.3921 817.674L98.8959 786.496C102.064 777.765 107.275 772.49 116.032 769.711L143.477 761.003C152.234 758.224 159.409 759.408 167.155 764.837L193.713 784.255L225.928 774.034C238.829 769.94 243.397 787.322 231.747 791.019L194.764 802.754C191.871 803.672 188.05 803.838 185.011 801.583L164.873 787.21L180.409 836.441L129.82 852.493L114.128 803.311L106.118 826.616C104.755 830.187 101.562 832.327 98.6685 833.245Z" fill="#E6E6E6" fill-opacity="0.35" stroke="#E6E6E6" stroke-opacity="0.35" stroke-width="3.125"/>
</g>
<g clip-path="url(#clip5_70_199)">
<path d="M886.568 374.212L894.934 367.487L880.533 358.644L877.83 368.846L886.568 374.212ZM887.912 378.921L873.559 370.002L873.512 370.079C866.747 369.809 859.811 373.422 855.785 379.978C849.981 389.43 852.337 401.269 860.935 406.549C869.603 411.872 881.205 408.499 886.962 399.123C891.128 392.653 891.213 384.832 887.912 378.921ZM867.367 398.427L865.869 400.866L863.702 399.535L865.06 397.325C863.638 396.347 862.521 395.031 861.963 394.059L864.324 391.625C864.905 392.716 865.953 393.989 867.351 394.848C868.539 395.578 869.845 395.645 870.454 394.654C871.016 393.739 870.621 392.657 869.411 391.179C867.619 388.924 866.76 386.717 868.165 384.43C869.475 382.296 871.856 381.554 874.491 382.437L875.848 380.226L878.015 381.557L876.705 383.691C878.126 384.669 878.917 385.575 879.335 386.461L877.021 388.819C876.649 388.171 875.928 386.993 874.39 386.049C872.992 385.19 872.082 385.576 871.707 386.186C871.192 387.024 871.68 387.954 873.03 389.832C875.008 392.412 875.214 394.427 873.95 396.486C872.733 398.468 870.211 399.439 867.367 398.427ZM774.059 275.102L787.449 264.114L764.241 249.863L759.729 266.302L774.059 275.102ZM776.074 282.638L776.121 282.561L752.773 268.224L752.726 268.3C741.739 267.852 730.576 273.804 724.022 284.475C714.614 299.797 718.355 319.1 732.406 327.728C746.456 336.356 765.364 330.961 774.772 315.639C781.326 304.967 781.444 292.234 776.074 282.638ZM742.814 314.385L740.379 318.349L736.954 316.245L739.201 312.586C736.801 311.008 735.102 308.915 734.172 307.294L738.029 303.364C738.936 305.18 740.588 307.349 742.825 308.723C744.852 309.968 746.765 309.988 747.748 308.387C748.637 306.939 748.127 305.261 746.103 302.758C743.147 298.949 741.731 295.455 744.025 291.72C746.131 288.289 750.006 286.995 754.249 288.551L756.496 284.892L759.921 286.995L757.815 290.425C760.215 292.004 761.425 293.482 762.122 294.855L758.406 298.556C757.731 297.617 756.615 295.672 754.098 294.126C751.792 292.71 750.32 293.381 749.712 294.372C748.916 295.668 749.59 297.236 751.916 300.345C755.128 304.521 755.565 307.728 753.458 311.159C751.399 314.513 747.383 316.036 742.814 314.385ZM818.478 334.29C828.684 340.557 842.34 336.661 849.174 325.531C856.008 314.402 853.306 300.461 843.1 294.194C832.894 287.927 819.239 291.823 812.405 302.952C805.57 314.082 808.272 328.023 818.478 334.29ZM740.075 366.344L707.01 346.04C696.245 339.43 706.639 321.249 718.174 328.331L746.694 345.845L779.457 329.643C788.774 325.287 796.473 325.291 804.302 330.099L828.839 345.166C836.668 349.973 840.177 356.642 840.483 367.117L840.854 403.666L869.655 421.351C881.189 428.434 869.467 445.799 859.051 439.403L825.986 419.099C823.4 417.511 820.863 414.588 820.848 410.38L820.272 382.944L788.7 434.203L743.472 406.43L774.905 355.085L750.315 367.068C746.462 368.796 742.661 367.932 740.075 366.344Z" fill="#E6E6E6" fill-opacity="0.35" stroke="#E6E6E6" stroke-opacity="0.35" stroke-width="3.125"/>
</g>
<g clip-path="url(#clip6_70_199)">
<path d="M417.181 520.563L415.704 510.91L401.747 518.698L408.712 525.288L417.181 520.563ZM421.622 521.515L407.625 529.232L407.665 529.303C404.246 534.641 403.885 541.796 407.278 547.876C412.17 556.643 422.851 559.862 431.184 555.212C439.585 550.524 442.348 539.712 437.495 531.015C434.238 524.86 427.959 521.409 421.622 521.515ZM427.664 546.514L428.926 548.777L426.826 549.949L425.682 547.898C424.219 548.622 422.628 548.954 421.578 548.983L420.728 546.027C421.885 546.03 423.409 545.736 424.764 544.98C425.916 544.337 426.588 543.313 426.075 542.394C425.602 541.546 424.541 541.396 422.774 541.733C420.105 542.203 417.915 541.941 416.732 539.82C415.627 537.84 416.154 535.599 418.113 533.857L416.969 531.807L419.069 530.635L420.174 532.614C421.636 531.891 422.743 531.645 423.657 531.691L424.467 534.576C423.767 534.596 422.475 534.668 420.984 535.5C419.629 536.256 419.51 537.157 419.826 537.722C420.26 538.5 421.242 538.509 423.398 538.233C426.417 537.753 428.144 538.459 429.209 540.367C430.235 542.206 429.826 544.659 427.664 546.514ZM283.879 568.428L281.334 552.881L258.841 565.432L269.99 576.178L283.879 568.428ZM290.92 570.062L290.881 569.991L268.252 582.618L268.291 582.688C262.732 591.353 262.26 602.928 267.783 612.826C275.713 627.037 293.079 632.366 306.697 624.767C320.315 617.169 324.9 599.591 316.97 585.38C311.447 575.482 301.214 569.881 290.92 570.062ZM300.839 610.606L302.89 614.282L299.57 616.135L297.677 612.741C295.266 613.994 292.771 614.459 291.022 614.508L289.671 609.699C291.567 609.753 294.101 609.359 296.269 608.149C298.234 607.053 299.155 605.519 298.327 604.034C297.577 602.691 295.98 602.377 293 602.927C288.524 603.663 285.031 603.294 283.098 599.83C281.323 596.648 282.11 592.964 285.374 590.216L283.481 586.822L286.8 584.97L288.576 588.151C290.986 586.899 292.753 586.562 294.192 586.593L295.425 591.19C294.347 591.328 292.247 591.387 289.808 592.748C287.572 593.996 287.419 595.472 287.932 596.391C288.602 597.593 290.188 597.728 293.8 597.196C298.694 596.412 301.492 597.447 303.267 600.628C305.003 603.739 304.334 607.636 300.839 610.606ZM352.715 558.203C362.606 552.684 365.917 539.989 360.158 529.666C354.398 519.344 341.855 515.495 331.964 521.015C322.072 526.534 318.761 539.229 324.521 549.552C330.28 559.874 342.823 563.723 352.715 558.203ZM341.526 635.279L309.48 653.161C299.046 658.983 289.273 642.741 300.452 636.503L328.094 621.079L330.502 587.657C331.389 578.261 335.034 572.055 342.622 567.821L366.403 554.552C373.991 550.318 381.04 550.372 389.648 554.654L419.355 570.157L447.269 554.581C458.447 548.344 466.934 565.303 456.839 570.936L424.792 588.818C422.286 590.217 418.724 590.999 415.317 589.191L392.876 577.793L419.358 625.412L375.523 649.872L348.905 602.328L346.956 627.336C346.53 631.19 344.033 633.881 341.526 635.279Z" fill="#E6E6E6" fill-opacity="0.35" stroke="#E6E6E6" stroke-opacity="0.35" stroke-width="3.125"/>
</g>
<g clip-path="url(#clip7_70_199)">
<path d="M1173.65 539.661L1171 529.262L1156.98 538.705L1165.15 545.392L1173.65 539.661ZM1178.5 540.389L1164.43 549.758L1164.48 549.832C1161.43 555.878 1161.85 563.688 1166.15 570.067C1172.35 579.266 1184.1 582.025 1192.47 576.386C1200.9 570.701 1202.64 558.745 1196.49 549.621C1192.33 543.15 1185.24 539.832 1178.5 540.389ZM1187.74 567.168L1189.34 569.542L1187.23 570.963L1185.78 568.811C1184.3 569.7 1182.64 570.172 1181.53 570.277L1180.29 567.12C1181.52 567.043 1183.11 566.617 1184.47 565.7C1185.63 564.921 1186.23 563.76 1185.58 562.795C1184.98 561.905 1183.84 561.816 1181.99 562.305C1179.19 563.002 1176.83 562.87 1175.33 560.644C1173.93 558.567 1174.24 556.093 1176.14 554.06L1174.69 551.909L1176.8 550.488L1178.19 552.565C1179.67 551.677 1180.83 551.331 1181.81 551.318L1182.99 554.401C1182.25 554.471 1180.88 554.64 1179.38 555.648C1178.02 556.565 1178 557.554 1178.4 558.147C1178.95 558.963 1179.99 558.904 1182.26 558.454C1185.43 557.722 1187.35 558.369 1188.7 560.372C1190 562.301 1189.84 564.998 1187.74 567.168ZM1036.84 601.011L1032.39 584.272L1009.8 599.493L1022.9 610.409L1036.84 601.011ZM1044.54 602.298L1044.49 602.224L1021.76 617.536L1021.81 617.61C1016.86 627.425 1017.65 640.05 1024.65 650.436C1034.7 665.346 1053.81 669.936 1067.49 660.722C1081.16 651.507 1084.08 632.063 1074.03 617.153C1067.03 606.768 1055.49 601.385 1044.54 602.298ZM1059.65 645.721L1062.25 649.579L1058.92 651.825L1056.52 648.264C1054.09 649.795 1051.48 650.474 1049.62 650.649L1047.64 645.511C1049.67 645.438 1052.33 644.833 1054.5 643.366C1056.48 642.037 1057.29 640.304 1056.24 638.746C1055.29 637.336 1053.55 637.106 1050.43 637.912C1045.74 639.024 1041.98 638.865 1039.53 635.231C1037.28 631.892 1037.7 627.829 1040.88 624.612L1038.48 621.051L1041.81 618.805L1044.06 622.143C1046.49 620.613 1048.34 620.123 1049.88 620.057L1051.7 624.973C1050.57 625.198 1048.34 625.408 1045.89 627.059C1043.64 628.572 1043.65 630.189 1044.3 631.153C1045.15 632.414 1046.85 632.451 1050.65 631.62C1055.78 630.428 1058.88 631.359 1061.13 634.697C1063.33 637.961 1063.05 642.246 1059.65 645.721ZM1109.11 585.098C1119.04 578.405 1121.15 564.362 1113.86 553.532C1106.56 542.702 1092.75 539.386 1082.82 546.079C1072.89 552.773 1070.78 566.816 1078.07 577.646C1085.37 588.476 1099.18 591.791 1109.11 585.098ZM1105.81 669.737L1073.63 691.421C1063.16 698.481 1050.92 681.489 1062.14 673.925L1089.9 655.221L1088.72 618.689C1088.61 608.405 1091.81 601.399 1099.43 596.265L1123.3 580.174C1130.92 575.039 1138.45 574.607 1148.11 578.668L1181.53 593.469L1209.55 574.581C1220.78 567.017 1231.73 584.879 1221.59 591.71L1189.41 613.394C1186.9 615.091 1183.19 616.189 1179.35 614.46L1154.14 603.619L1187.72 653.588L1143.7 683.249L1109.99 633.372L1110.71 660.716C1110.69 664.939 1108.33 668.04 1105.81 669.737Z" fill="#E6E6E6" fill-opacity="0.35" stroke="#E6E6E6" stroke-opacity="0.35" stroke-width="3.125"/>
</g>
<g clip-path="url(#clip8_70_199)">
<path d="M1559.67 309.26L1560.06 298.533L1543.95 303.644L1549.9 312.361L1559.67 309.26ZM1564.12 311.323L1547.98 316.348L1548.01 316.434C1543.38 321.375 1541.58 328.985 1543.9 336.318C1547.26 346.891 1557.76 352.851 1567.37 349.799C1577.07 346.723 1582.1 335.74 1578.78 325.253C1576.61 317.871 1570.75 312.691 1564.12 311.323ZM1565.44 339.622L1566.3 342.35L1563.88 343.119L1563.09 340.647C1561.42 341.082 1559.7 341.067 1558.6 340.853L1558.3 337.475C1559.51 337.749 1561.15 337.79 1562.72 337.293C1564.05 336.872 1564.95 335.927 1564.6 334.819C1564.28 333.796 1563.2 333.387 1561.29 333.336C1558.41 333.216 1556.18 332.423 1555.37 329.865C1554.61 327.477 1555.61 325.191 1558 323.775L1557.21 321.303L1559.64 320.533L1560.39 322.921C1562.06 322.485 1563.27 322.479 1564.21 322.742L1564.48 326.035C1563.75 325.893 1562.38 325.668 1560.66 326.214C1559.1 326.71 1558.8 327.651 1559.01 328.333C1559.31 329.271 1560.33 329.51 1562.64 329.717C1565.88 329.908 1567.54 331.07 1568.27 333.372C1568.98 335.589 1568.06 338.132 1565.44 339.622ZM1411.12 329.556L1411.56 312.241L1385.6 320.478L1395.09 334.642L1411.12 329.556ZM1418.14 332.96L1418.11 332.875L1391.99 341.161L1392.02 341.247C1384.5 349.265 1381.7 361.602 1385.49 373.539C1390.92 390.677 1407.97 400.471 1423.69 395.484C1439.4 390.498 1447.69 372.666 1442.25 355.528C1438.46 343.591 1428.91 335.173 1418.14 332.96ZM1420.4 378.884L1421.81 383.318L1417.98 384.534L1416.68 380.441C1413.91 381.224 1411.22 381.14 1409.39 380.784L1408.93 375.296C1410.9 375.798 1413.62 375.967 1416.12 375.173C1418.39 374.454 1419.66 373.019 1419.09 371.229C1418.58 369.609 1416.97 368.897 1413.76 368.792C1408.94 368.537 1405.37 367.323 1404.05 363.145C1402.83 359.308 1404.38 355.53 1408.34 353.338L1407.04 349.245L1410.87 348.029L1412.09 351.866C1414.85 351.083 1416.76 351.134 1418.25 351.505L1418.62 356.737C1417.47 356.633 1415.27 356.205 1412.46 357.099C1409.88 357.917 1409.42 359.469 1409.77 360.578C1410.23 362.027 1411.86 362.543 1415.73 362.816C1420.99 363.118 1423.7 364.885 1424.92 368.722C1426.11 372.473 1424.64 376.507 1420.4 378.884ZM1484.94 334.661C1496.36 331.039 1502.34 318.16 1498.39 305.712C1494.44 293.263 1482.13 286.19 1470.71 289.812C1459.3 293.435 1453.31 306.313 1457.26 318.762C1461.21 331.21 1473.53 338.283 1484.94 334.661ZM1457.92 414.937L1420.93 426.672C1408.89 430.492 1401.94 410.739 1414.84 406.645L1446.74 396.523L1455.91 361.142C1458.71 351.245 1463.74 345.423 1472.5 342.644L1499.95 333.936C1508.7 331.158 1516.04 332.864 1524.17 339.483L1552.06 363.105L1584.27 352.883C1597.18 348.79 1602.65 369.014 1591 372.711L1554.01 384.446C1551.12 385.364 1547.25 385.372 1544.06 382.631L1522.92 365.124L1541.05 422.531L1490.46 438.583L1472.18 381.225L1465.16 407.664C1463.95 411.709 1460.81 414.019 1457.92 414.937Z" fill="#E6E6E6" fill-opacity="0.35" stroke="#E6E6E6" stroke-opacity="0.35" stroke-width="3.125"/>
</g>
<g clip-path="url(#clip9_70_199)">
<path d="M1261.52 136.035L1269.88 129.298L1255.46 120.477L1252.77 130.682L1261.52 136.035ZM1262.87 140.743L1248.5 131.845L1248.46 131.921C1241.69 131.661 1234.76 135.285 1230.75 141.846C1224.95 151.307 1227.33 163.143 1235.93 168.41C1244.61 173.72 1256.21 170.33 1261.95 160.945C1266.11 154.469 1266.18 146.649 1262.87 140.743ZM1242.35 160.278L1240.86 162.72L1238.69 161.392L1240.05 159.179C1238.62 158.204 1237.5 156.89 1236.94 155.918L1239.3 153.48C1239.88 154.571 1240.93 155.843 1242.33 156.699C1243.52 157.427 1244.83 157.493 1245.44 156.501C1246 155.585 1245.6 154.504 1244.39 153.027C1242.59 150.775 1241.73 148.569 1243.13 146.28C1244.44 144.144 1246.82 143.398 1249.45 144.278L1250.81 142.065L1252.98 143.392L1251.67 145.529C1253.09 146.504 1253.89 147.409 1254.3 148.295L1251.99 150.656C1251.62 150.009 1250.9 148.832 1249.36 147.89C1247.96 147.034 1247.05 147.42 1246.68 148.031C1246.16 148.87 1246.65 149.799 1248 151.675C1249.99 154.252 1250.19 156.267 1248.93 158.327C1247.72 160.311 1245.2 161.286 1242.35 160.278ZM1148.87 37.0897L1162.24 26.0823L1139.01 11.8649L1134.52 28.3109L1148.87 37.0897ZM1150.89 44.6223L1150.94 44.546L1127.57 30.243L1127.52 30.3193C1116.54 29.8868 1105.38 35.8547 1098.84 46.5363C1089.46 61.8719 1093.23 81.1693 1107.29 89.7768C1121.35 98.3843 1140.25 92.9617 1149.64 77.626C1156.18 66.9445 1156.28 54.2105 1150.89 44.6223ZM1117.68 76.418L1115.25 80.3854L1111.82 78.2871L1114.06 74.6248C1111.66 73.0497 1109.96 70.9592 1109.03 69.3398L1112.88 65.4043C1113.79 67.2192 1115.44 69.386 1117.68 70.7563C1119.71 71.9982 1121.62 72.0154 1122.6 70.4132C1123.49 68.9636 1122.98 67.2865 1120.95 64.7865C1117.99 60.9816 1116.57 57.4897 1118.86 53.7512C1120.96 50.3178 1124.83 49.0178 1129.08 50.5673L1131.32 46.905L1134.75 49.0034L1132.64 52.4367C1135.05 54.0119 1136.26 55.4881 1136.96 56.8599L1133.25 60.5664C1132.57 59.6283 1131.45 57.685 1128.93 56.1433C1126.62 54.7301 1125.15 55.4035 1124.55 56.3954C1123.75 57.6924 1124.43 59.2597 1126.76 62.3647C1129.98 66.5363 1130.42 69.7432 1128.32 73.1765C1126.26 76.5336 1122.25 78.0625 1117.68 76.418ZM1193.37 96.2127C1203.59 102.465 1217.24 98.5485 1224.05 87.4092C1230.87 76.2699 1228.15 62.3329 1217.93 56.0807C1207.72 49.8285 1194.07 53.7448 1187.25 64.8841C1180.43 76.0234 1183.16 89.9605 1193.37 96.2127ZM1115.02 128.381L1081.92 108.126C1071.15 101.531 1081.51 83.3348 1093.06 90.4007L1121.6 107.873L1154.34 91.6231C1163.65 87.2534 1171.35 87.246 1179.19 92.0422L1203.75 107.073C1211.58 111.869 1215.1 118.533 1215.42 129.008L1215.85 165.556L1244.68 183.199C1256.22 190.265 1244.52 207.647 1234.1 201.266L1201 181.011C1198.41 179.426 1195.87 176.508 1195.85 172.299L1195.24 144.864L1163.74 196.169L1118.47 168.462L1149.83 117.072L1125.26 129.091C1121.41 130.824 1117.6 129.966 1115.02 128.381Z" fill="#E6E6E6" fill-opacity="0.35" stroke="#E6E6E6" stroke-opacity="0.35" stroke-width="3.125"/>
</g>
<g clip-path="url(#clip10_70_199)">
<path d="M349.447 35.9182C316.174 44.8957 291.936 76.8887 292.588 104.687C292.726 110.911 295.221 126.502 295.221 126.502L290.268 168.742C290.133 169.511 290.158 170.236 290.383 171.07C291.221 174.178 294.529 175.969 297.801 175.086L307.615 172.438L312.871 191.919C316.962 207.079 333.201 215.871 349.16 211.566L360.65 208.466L365.988 228.25L444.183 207.152L428.251 148.102C441.89 130.76 447.483 108.027 441.491 85.8166C431.101 47.3094 389.901 25.0032 349.447 35.9182ZM316.997 135.508C312.528 136.714 307.917 134.217 306.751 129.897C305.606 125.652 308.336 121.174 312.804 119.969C317.352 118.742 321.963 121.238 323.109 125.483C324.274 129.804 321.545 134.281 316.997 135.508ZM426.691 131.852C426.691 131.852 420.992 98.9916 381.176 109.734C323.559 123.979 311.331 75.803 311.331 75.803C319.751 61.0079 334.124 49.2417 352.396 44.3116C387.345 34.882 423.011 54.1274 431.99 87.4043C436.141 102.792 433.781 118.473 426.691 131.852ZM371.172 104.383C387.689 99.9265 397.738 83.5534 393.484 67.7867C389.23 52.0199 372.389 42.902 355.792 47.38C339.196 51.858 329.327 68.2638 333.581 84.0306C337.815 99.7215 354.655 108.839 371.172 104.383ZM362.461 78.7592C356.465 78.4255 352.318 76.6982 351.05 71.9984C349.884 67.6777 351.996 63.4486 357.215 60.9019L355.947 56.2022L360.096 55.0827L361.303 59.555C364.734 58.6292 367.391 58.6441 369.472 59.0585L369.31 65.1199C367.81 64.9553 365.331 64.6485 362.299 65.4666C359.266 66.2847 357.979 68.177 358.368 69.6173C358.9 71.5881 361.019 71.8294 365.598 72.3018C371.795 72.7441 375.164 74.7625 376.371 79.2348C377.578 83.7071 375.626 87.8932 369.909 90.818L371.116 95.2903L366.967 96.4098L365.801 92.0891C362.21 93.0579 358.374 93.1171 356.373 92.6811L356.335 86.5111C358.495 86.904 361.814 87.1472 365.005 86.286C368.437 85.3603 369.724 83.468 369.192 81.4971C368.66 79.5263 366.839 79.123 362.461 78.7592Z" fill="#E6E6E6" fill-opacity="0.35" stroke="#E6E6E6" stroke-opacity="0.35" stroke-width="3.30579"/>
</g>
<g clip-path="url(#clip11_70_199)">
<path d="M1461.45 697.918C1428.17 706.896 1403.94 738.889 1404.59 766.687C1404.73 772.911 1407.22 788.502 1407.22 788.502L1402.27 830.742C1402.13 831.511 1402.16 832.236 1402.38 833.07C1403.22 836.178 1406.53 837.969 1409.8 837.086L1419.62 834.438L1424.87 853.919C1428.96 869.079 1445.2 877.871 1461.16 873.566L1472.65 870.466L1477.99 890.25L1556.18 869.152L1540.25 810.102C1553.89 792.76 1559.48 770.027 1553.49 747.817C1543.1 709.309 1501.9 687.003 1461.45 697.918ZM1429 797.508C1424.53 798.714 1419.92 796.217 1418.75 791.897C1417.61 787.652 1420.34 783.174 1424.8 781.969C1429.35 780.742 1433.96 783.238 1435.11 787.483C1436.27 791.804 1433.54 796.281 1429 797.508ZM1538.69 793.852C1538.69 793.852 1532.99 760.992 1493.18 771.734C1435.56 785.979 1423.33 737.803 1423.33 737.803C1431.75 723.008 1446.12 711.242 1464.4 706.312C1499.34 696.882 1535.01 716.127 1543.99 749.404C1548.14 764.792 1545.78 780.473 1538.69 793.852ZM1483.17 766.383C1499.69 761.926 1509.74 745.553 1505.48 729.787C1501.23 714.02 1484.39 704.902 1467.79 709.38C1451.2 713.858 1441.33 730.264 1445.58 746.031C1449.81 761.722 1466.66 770.839 1483.17 766.383ZM1474.46 740.759C1468.46 740.425 1464.32 738.698 1463.05 733.998C1461.88 729.678 1464 725.449 1469.21 722.902L1467.95 718.202L1472.1 717.083L1473.3 721.555C1476.73 720.629 1479.39 720.644 1481.47 721.059L1481.31 727.12C1479.81 726.955 1477.33 726.649 1474.3 727.467C1471.27 728.285 1469.98 730.177 1470.37 731.617C1470.9 733.588 1473.02 733.829 1477.6 734.302C1483.79 734.744 1487.16 736.762 1488.37 741.235C1489.58 745.707 1487.63 749.893 1481.91 752.818L1483.12 757.29L1478.97 758.41L1477.8 754.089C1474.21 755.058 1470.37 755.117 1468.37 754.681L1468.33 748.511C1470.5 748.904 1473.81 749.147 1477.01 748.286C1480.44 747.36 1481.72 745.468 1481.19 743.497C1480.66 741.526 1478.84 741.123 1474.46 740.759Z" fill="#E6E6E6" fill-opacity="0.35" stroke="#E6E6E6" stroke-opacity="0.35" stroke-width="3.30579"/>
</g>
<g clip-path="url(#clip12_70_199)">
<path fill-rule="evenodd" clip-rule="evenodd" d="M175.694 134.548C171.843 149.406 163.36 160.745 150.243 168.518C137.106 176.302 123.156 178.281 108.39 174.454C93.6846 170.642 82.4473 162.151 74.7347 148.948C67.0291 135.778 65.0779 121.734 68.9288 106.876C72.7681 92.063 81.265 80.7909 94.4241 72.9808C107.605 65.2085 121.549 63.1962 136.24 67.0038C151.005 70.8307 162.234 79.3515 169.932 92.5513C177.596 105.758 179.533 119.735 175.694 134.548ZM57.7864 93.4226C63.3096 91.4176 66.7521 87.8184 68.8463 78.0836L75.2633 53.3255C76.1153 49.8541 69.9875 47.8183 68.6695 51.6165L63.2256 71.6399C62.2364 75.3954 56.5939 74.0608 57.6142 70.1855L63.2367 49.4732C64.125 45.7394 58.2683 43.8219 57.1341 47.8915C55.6396 53.6579 53.0062 62.8374 51.5117 68.6038C50.866 72.3205 45.5323 71.4496 46.7338 67.3654L52.3213 46.7879C52.9133 43.9524 50.1072 42.1542 47.6818 42.9321C45.0953 43.7802 44.8003 46.7567 44.086 49.1449L37.1707 72.639C35.5041 79.5596 35.8533 85.628 40.5944 89.3983C41.3198 89.9699 42.3773 90.5477 43.6366 91.0819L26.8143 148.387C25.8212 151.79 27.8786 155.313 31.1383 156.157L31.8825 156.35C35.5589 157.303 39.4888 154.949 40.3823 151.073L53.5386 93.6323C55.3202 93.8064 56.839 93.7685 57.7864 93.4226ZM177.447 185.575L190.809 133.654C175.45 118.453 191.711 79.431 209.752 84.3467C231.685 90.3031 222.523 136.376 202.313 136.46L190.164 189.095C187.869 199.049 174.609 196.587 177.447 185.575ZM153.409 128.724C151.165 137.381 146.23 143.982 138.554 148.53C130.902 153.052 122.768 154.22 114.165 151.991C105.621 149.776 99.079 144.804 94.5862 137.134C90.1011 129.434 88.9785 121.263 91.2223 112.606C93.4505 104.009 98.4007 97.4119 106.054 92.8899C113.721 88.3718 121.84 87.1994 130.384 89.4138C147.66 93.9076 157.92 111.32 153.409 128.724ZM160.687 130.61C163.444 119.976 162.079 109.92 156.545 100.446C151.01 90.9718 142.916 84.878 132.274 82.1197C121.662 79.3691 111.656 80.7718 102.262 86.3767C92.8222 91.97 86.7001 100.085 83.9439 110.72C81.1799 121.384 82.5893 131.451 88.1157 140.955C93.6013 150.433 101.654 156.564 112.266 159.315C122.894 162.069 132.941 160.629 142.399 155.025C151.835 149.383 157.927 141.259 160.687 130.61Z" fill="#E6E6E6" fill-opacity="0.35" stroke="#E6E6E6" stroke-opacity="0.35" stroke-width="6.51042"/>
</g>
<g clip-path="url(#clip13_70_199)">
<path fill-rule="evenodd" clip-rule="evenodd" d="M911.714 572.543C907.076 590.439 897.342 604.222 882.51 613.835C867.657 623.462 852.025 626.148 835.614 621.895C819.269 617.659 806.905 607.735 798.586 592.084C790.274 576.472 788.411 559.683 793.05 541.787C797.674 523.946 807.422 510.243 822.301 500.585C837.204 490.971 852.829 488.244 869.157 492.476C885.568 496.73 897.922 506.689 906.225 522.337C914.49 537.993 916.338 554.702 911.714 572.543ZM780.904 525.914C787.12 523.386 791.048 518.994 793.608 507.279L801.337 477.459C802.367 473.279 795.566 470.977 794.008 475.559L787.473 499.682C786.283 504.206 780.009 502.734 781.236 498.066L787.986 473.113C789.063 468.618 782.563 466.451 781.204 471.355C779.403 478.3 776.254 489.362 774.454 496.308C773.648 500.777 767.709 499.854 769.143 494.931L775.851 470.141C776.577 466.729 773.482 464.637 770.754 465.624C767.845 466.699 767.449 470.273 766.597 473.152L758.339 501.468C756.321 509.801 756.574 517.067 761.786 521.479C762.584 522.148 763.752 522.816 765.147 523.428L745.057 592.495C743.871 596.596 746.09 600.771 749.713 601.71L750.54 601.924C754.626 602.983 759.07 600.073 760.156 595.407L776.153 526.261C778.14 526.43 779.838 526.35 780.904 525.914ZM912.52 633.665L928.622 571.131C911.805 553.257 930.855 506.118 950.901 511.603C975.273 518.247 963.996 573.676 941.412 574.234L926.649 637.597C923.861 649.58 909.1 646.929 912.52 633.665ZM886.946 566.066C884.244 576.493 878.58 584.517 869.902 590.141C861.249 595.734 852.135 597.319 842.573 594.84C833.077 592.379 825.88 586.567 821.033 577.475C816.196 568.348 815.126 558.579 817.829 548.152C820.513 537.797 826.193 529.778 834.845 524.185C843.514 518.597 852.612 517.008 862.108 519.469C881.31 524.465 892.38 545.104 886.946 566.066ZM895.036 568.163C898.356 555.355 897.058 543.332 891.089 532.101C885.119 520.871 876.213 513.749 864.385 510.684C852.59 507.627 841.379 509.534 830.756 516.464C820.082 523.381 813.059 533.247 809.739 546.055C806.41 558.9 807.757 570.935 813.717 582.202C819.632 593.438 828.491 600.605 840.287 603.662C852.098 606.723 863.356 604.77 874.051 597.839C884.721 590.863 891.712 580.989 895.036 568.163Z" fill="#E6E6E6" fill-opacity="0.35" stroke="#E6E6E6" stroke-opacity="0.35" stroke-width="6.51042"/>
</g>
<g clip-path="url(#clip14_70_199)">
<path fill-rule="evenodd" clip-rule="evenodd" d="M1533.63 151.604C1526.05 168.466 1514.14 180.417 1497.91 187.4C1481.65 194.393 1465.78 194.414 1450.32 187.462C1434.92 180.539 1424.4 168.679 1418.83 151.851C1413.26 135.065 1414.25 118.202 1421.83 101.34C1429.39 84.5298 1441.3 72.6606 1457.59 65.6405C1473.9 58.6685 1489.76 58.6066 1505.14 65.5229C1520.6 72.4742 1531.11 84.3685 1536.66 101.189C1542.18 118.012 1541.19 134.794 1533.63 151.604ZM1412.52 83.6512C1419.08 82.2041 1423.69 78.5349 1428.18 67.4164L1440.81 39.3197C1442.53 35.3722 1436.21 31.9602 1433.9 36.2154L1423.41 58.8968C1421.47 63.1562 1415.54 60.6504 1417.53 56.255L1428.38 32.7917C1430.2 28.5413 1424.15 25.3135 1421.99 29.9187C1419.05 36.4627 1414.08 46.838 1411.14 53.382C1409.6 57.6525 1403.9 55.7439 1406.14 51.1327L1416.92 27.8223C1418.21 24.5807 1415.51 21.9984 1412.65 22.5131C1409.6 23.0838 1408.61 26.5405 1407.29 29.2351L1394.39 55.7606C1391 63.6355 1390.03 70.8404 1394.42 76.0657C1395.1 76.859 1396.14 77.7145 1397.41 78.5521L1366 143.259C1364.14 147.103 1365.62 151.592 1369.04 153.126L1369.82 153.477C1373.67 155.207 1378.54 153.085 1380.39 148.668L1407.78 83.195C1409.71 83.6949 1411.4 83.9017 1412.52 83.6512ZM1524.16 211.992L1550.54 153.054C1536.97 132.608 1563.67 89.3414 1582.51 98.1173C1605.42 108.763 1584.98 161.509 1562.63 158.262L1537.42 218.242C1532.66 229.587 1518.56 224.492 1524.16 211.992ZM1510.31 141.056C1505.89 150.881 1498.96 157.838 1489.46 161.924C1479.99 165.983 1470.74 166.013 1461.73 161.962C1452.78 157.94 1446.66 151.001 1443.42 141.224C1440.18 131.413 1440.77 121.604 1445.19 111.779C1449.57 102.023 1456.52 95.0725 1465.99 91.0136C1475.47 86.9616 1484.71 86.9248 1493.66 90.947C1511.74 99.0996 1519.19 121.305 1510.31 141.056ZM1517.93 144.483C1523.36 132.414 1524.1 120.345 1520.1 108.271C1516.1 96.1964 1508.52 87.6795 1497.38 82.6693C1486.26 77.673 1474.89 77.6689 1463.25 82.7149C1451.57 87.7399 1442.99 96.2845 1437.56 108.353C1432.12 120.455 1431.43 132.545 1435.41 144.654C1439.35 156.724 1446.88 165.278 1457.99 170.274C1469.12 175.277 1480.55 175.244 1492.26 170.209C1503.95 165.126 1512.5 156.568 1517.93 144.483Z" fill="#E6E6E6" fill-opacity="0.35" stroke="#E6E6E6" stroke-opacity="0.35" stroke-width="6.51042"/>
</g>
<g clip-path="url(#clip15_70_199)">
<path d="M1397.1 248.187L1345.67 285.617C1342.86 287.658 1339.61 287.125 1337.55 284.283L1305.49 240.234C1295.01 243.517 1283.54 239.549 1276.99 230.549C1268.37 218.708 1270.83 202.43 1282.52 193.923L1329.28 159.897C1340.97 151.39 1357.22 154.057 1365.83 165.898C1372.38 174.898 1372.63 187.033 1366.28 195.999L1398.33 240.048C1400.4 242.89 1399.91 246.146 1397.1 248.187Z" fill="#E6E6E6" fill-opacity="0.35" stroke="#E6E6E6" stroke-opacity="0.35" stroke-width="0.008"/>
</g>
<g clip-path="url(#clip16_70_199)">
<path fill-rule="evenodd" clip-rule="evenodd" d="M1460.88 601.171C1450.69 616.598 1437.02 626.483 1419.87 630.771C1402.7 635.065 1387.04 632.541 1372.89 623.2C1358.8 613.895 1350.32 600.501 1347.52 582.998C1344.72 565.536 1348.4 549.049 1358.58 533.622C1368.74 518.241 1382.4 508.437 1399.61 504.121C1416.82 499.856 1432.49 502.339 1446.56 511.634C1460.71 520.975 1469.17 534.401 1471.96 551.894C1474.7 569.385 1471.04 585.791 1460.88 601.171ZM1352.24 514.669C1358.94 514.292 1364.08 511.41 1370.29 501.156L1387.27 475.45C1389.6 471.829 1383.91 467.448 1380.95 471.278L1366.95 491.982C1364.36 495.876 1358.9 492.45 1361.58 488.431L1376.05 467.012C1378.52 463.108 1373.08 458.953 1370.2 463.151C1366.25 469.138 1359.68 478.583 1355.73 484.57C1353.52 488.538 1348.2 485.739 1351.15 481.547L1365.53 460.268C1367.32 457.275 1365.07 454.293 1362.17 454.343C1359.07 454.418 1357.54 457.671 1355.8 460.118L1338.81 484.231C1334.2 491.46 1332.09 498.415 1335.59 504.278C1336.13 505.169 1337.02 506.18 1338.14 507.211L1296.75 566.041C1294.3 569.536 1295.04 574.205 1298.17 576.268L1298.88 576.739C1302.4 579.065 1307.55 577.752 1310.09 573.689L1347.63 513.458C1349.46 514.261 1351.09 514.736 1352.24 514.669ZM1441.84 659.256L1477.33 605.314C1467.21 582.955 1500.51 544.533 1517.7 556.217C1538.6 570.4 1509.97 619.185 1488.43 612.394L1453.93 667.554C1447.41 677.987 1434.3 670.696 1441.84 659.256ZM1439.55 587.017C1433.61 596.006 1425.65 601.761 1415.62 604.27C1405.62 606.757 1396.49 605.303 1388.24 599.86C1380.06 594.454 1375.13 586.624 1373.49 576.452C1371.87 566.249 1374.03 556.661 1379.96 547.673C1385.86 538.746 1393.83 533 1403.83 530.513C1413.84 528.035 1422.96 529.48 1431.15 534.886C1447.7 545.835 1451.48 568.947 1439.55 587.017ZM1446.52 591.622C1453.81 580.581 1456.48 568.787 1454.47 556.228C1452.46 543.668 1446.35 534.046 1436.15 527.312C1425.98 520.598 1414.76 518.77 1402.46 521.883C1390.12 524.969 1380.28 532.026 1372.99 543.068C1365.68 554.14 1363.05 565.962 1365.04 578.553C1367 591.099 1373.05 600.75 1383.22 607.464C1393.4 614.188 1404.69 615.989 1417.05 612.897C1429.41 609.755 1439.22 602.679 1446.52 591.622Z" fill="#E6E6E6" fill-opacity="0.35" stroke="#E6E6E6" stroke-opacity="0.35" stroke-width="6.51042"/>
</g>
<g clip-path="url(#clip17_70_199)">
<path d="M135.475 378.881L79.7625 397.387C76.7237 398.396 73.9382 396.782 72.7988 393.352L55.1381 340.182C44.8821 339.78 35.5761 332.079 31.968 321.217C27.2205 306.924 33.5521 292.125 46.214 287.919L96.8617 271.096C109.524 266.89 123.451 274.96 128.199 289.253C131.807 300.116 128.957 311.854 120.98 318.312L138.641 371.482C139.78 374.912 138.514 377.872 135.475 378.881Z" fill="#E6E6E6" fill-opacity="0.35" stroke="#E6E6E6" stroke-opacity="0.35" stroke-width="0.008"/>
<path d="M137.603 255.955L115.825 263.189C123.675 268.199 130.259 276.169 133.487 285.888C137.665 298.466 135.575 312.491 128.737 322.38L143.929 368.117C144.689 370.404 144.752 372.288 144.815 374.171L176.217 363.741C179.256 362.731 180.522 359.772 179.382 356.341L161.722 303.171C169.699 296.713 172.548 284.975 168.94 274.112C164.193 259.819 150.265 251.75 137.603 255.955Z" fill="#E6E6E6" fill-opacity="0.35" stroke="#E6E6E6" stroke-opacity="0.35" stroke-width="0.008"/>
</g>
<g clip-path="url(#clip18_70_199)">
<path d="M638.183 623.491L569.676 646.246C565.939 647.487 562.674 645.984 561.513 642.489L543.518 588.313C531.147 588.541 520.384 581.12 516.708 570.052C511.87 555.488 520.456 539.7 536.026 534.529L598.305 513.842C613.875 508.67 630.201 516.184 635.038 530.748C638.715 541.816 634.531 554.201 624.481 561.42L642.476 615.597C643.637 619.092 641.92 622.249 638.183 623.491Z" fill="#E6E6E6" fill-opacity="0.35" stroke="#E6E6E6" stroke-opacity="0.35" stroke-width="0.008"/>
<path d="M654.357 495.224L627.577 504.12C636.749 508.835 644.205 516.707 647.494 526.61C651.751 539.426 648.341 554.142 639.453 564.856L654.932 611.459C655.706 613.789 655.664 615.744 655.622 617.698L694.235 604.873C697.971 603.632 699.689 600.474 698.528 596.979L680.533 542.802C690.582 535.584 694.766 523.198 691.09 512.13C686.252 497.566 669.927 490.053 654.357 495.224Z" fill="#E6E6E6" fill-opacity="0.35" stroke="#E6E6E6" stroke-opacity="0.35" stroke-width="0.008"/>
</g>
<g clip-path="url(#clip19_70_199)">
<path d="M358.76 888.169L302.005 860.077C298.909 858.545 298.115 854.958 300.019 851.11L329.542 791.463C322.159 783.018 321.364 769.05 327.396 756.864C335.332 740.83 352 733.11 364.899 739.495L416.495 765.033C429.394 771.417 433.365 789.352 425.429 805.386C419.397 817.572 407.809 825.411 396.617 824.662L367.094 884.309C365.19 888.157 361.856 889.701 358.76 888.169Z" fill="#E6E6E6" fill-opacity="0.35" stroke="#E6E6E6" stroke-opacity="0.35" stroke-width="0.008"/>
</g>
<g clip-path="url(#clip20_70_199)">
<path d="M1022.31 501.122L963.386 477.147C960.172 475.84 958.912 472.798 960.237 469.542L980.768 419.082C972.451 411.904 969.776 400.064 973.97 389.755C979.489 376.191 994.618 369.698 1008.01 375.147L1061.58 396.942C1074.97 402.391 1081.27 417.602 1075.75 431.166C1071.55 441.475 1061.37 448.084 1050.4 447.416L1029.87 497.876C1028.55 501.131 1025.52 502.43 1022.31 501.122Z" fill="#E6E6E6" fill-opacity="0.35" stroke="#E6E6E6" stroke-opacity="0.35" stroke-width="0.008"/>
</g>
<path d="M943.626 355.834L890.017 334.022C887.093 332.832 886.027 329.869 887.352 326.613L907.883 276.153C900.435 269.328 898.34 257.725 902.534 247.416C908.053 233.852 922.216 226.966 934.4 231.923L983.135 251.753C995.319 256.71 1000.65 271.528 995.132 285.092C990.937 295.401 981.336 302.245 971.239 301.932L950.708 352.391C949.383 355.647 946.551 357.024 943.626 355.834Z" fill="#E6E6E6" fill-opacity="0.35" stroke="#E6E6E6" stroke-opacity="0.35" stroke-width="0.008"/>
<path d="M1161.46 385.967L1140.51 377.44C1143.22 386.132 1143.1 396.202 1139.35 405.426C1134.49 417.362 1124 426.377 1112.58 429.319L1094.92 472.725C1094.04 474.895 1092.89 476.325 1091.74 477.754L1121.96 490.048C1124.88 491.238 1127.71 489.861 1129.04 486.606L1149.57 436.146C1159.66 436.46 1169.27 429.615 1173.46 419.306C1178.98 405.742 1173.65 390.924 1161.46 385.967Z" fill="#E6E6E6" fill-opacity="0.35" stroke="#E6E6E6" stroke-opacity="0.35" stroke-width="0.008"/>
<g clip-path="url(#clip21_70_199)">
<path d="M1059.31 889.122L1000.39 865.147C997.172 863.84 995.912 860.798 997.237 857.542L1017.77 807.082C1009.45 799.904 1006.78 788.064 1010.97 777.755C1016.49 764.191 1031.62 757.698 1045.01 763.147L1098.58 784.942C1111.97 790.391 1118.27 805.602 1112.75 819.166C1108.55 829.475 1098.37 836.084 1087.4 835.416L1066.87 885.876C1065.55 889.131 1062.52 890.43 1059.31 889.122Z" fill="#E6E6E6" fill-opacity="0.35" stroke="#E6E6E6" stroke-opacity="0.35" stroke-width="0.008"/>
</g>
<g clip-path="url(#clip22_70_199)">
<path d="M1059.31 889.122L1000.39 865.147C997.172 863.84 995.912 860.798 997.237 857.542L1017.77 807.082C1009.45 799.904 1006.78 788.064 1010.97 777.755C1016.49 764.191 1031.62 757.698 1045.01 763.147L1098.58 784.942C1111.97 790.391 1118.27 805.602 1112.75 819.166C1108.55 829.475 1098.37 836.084 1087.4 835.416L1066.87 885.876C1065.55 889.131 1062.52 890.43 1059.31 889.122Z" fill="#E6E6E6" fill-opacity="0.35" stroke="#E6E6E6" stroke-opacity="0.35" stroke-width="0.008"/>
</g>
<g clip-path="url(#clip23_70_199)">
<path d="M1145.73 265.985L1105.22 296.039C1103.01 297.679 1100.3 297.11 1098.45 294.617L1069.8 255.986C1061.32 258.411 1051.66 254.628 1045.8 246.736C1038.1 236.351 1039.3 222.579 1048.51 215.748L1085.34 188.426C1094.55 181.596 1108.08 184.439 1115.78 194.824C1121.64 202.717 1122.45 213.057 1117.67 220.467L1146.33 259.099C1148.18 261.592 1147.94 264.346 1145.73 265.985Z" fill="#E6E6E6" fill-opacity="0.35" stroke="#E6E6E6" stroke-opacity="0.35" stroke-width="0.008"/>
</g>
<g clip-path="url(#clip24_70_199)">
<path d="M66.1636 558.383L68.4108 572.641C68.7853 575.017 70.1072 576.653 72.3764 577.547L168.819 615.542C171.088 616.436 173.17 616.142 175.065 614.659L186.433 605.765L66.1636 558.383Z" fill="#E6E6E6" fill-opacity="0.35" stroke="#E6E6E6" stroke-opacity="0.35" stroke-width="6.4"/>
<path d="M57.285 549.314L65.2273 552.443L191.17 602.06L199.112 605.189C202.516 606.53 205.545 605.494 206.685 602.6C207.825 599.707 206.316 596.883 202.912 595.542L197.239 593.307C206.176 567.297 192.412 537.358 166.136 520.877C166.517 519.913 167.464 519.172 168.034 517.725C170.694 510.972 166.544 503.208 158.602 500.079C150.659 496.95 142.329 499.797 139.669 506.549C139.098 507.996 139.286 509.185 138.906 510.149C108.45 504.28 78.5315 517.009 66.7584 541.902L61.0854 539.667C57.6815 538.326 54.6522 539.361 53.5121 542.255C52.372 545.149 53.8811 547.973 57.285 549.314Z" fill="#E6E6E6" fill-opacity="0.35" stroke="#E6E6E6" stroke-opacity="0.35" stroke-width="6.4"/>
<path d="M164.079 620.917C163.892 619.729 162.38 618.576 161.245 618.129C158.976 617.235 157.274 616.565 154.815 616.153L145.724 620.93C136.634 625.706 124.712 626.024 113.933 621.777L112.231 621.107L108.26 619.542L100.885 616.637L96.9138 615.072C93.5099 613.731 92.0008 610.908 93.1409 608.014C94.281 605.12 97.3103 604.085 100.714 605.426L120.57 613.248C122.842 612.472 124.927 610.507 125.877 608.096L126.067 607.613C126.827 605.684 125.505 604.049 123.236 603.155L100.543 594.215C86.9281 588.851 74.059 589.91 64.5882 595.651L49.0561 605.133C48.1088 605.874 47.5387 607.321 47.726 608.509L52.8014 628.896C52.9887 630.084 53.366 630.79 54.5006 631.237L55.0679 631.461C55.6352 631.684 56.7698 632.131 57.5272 631.872C74.9402 629.26 93.6696 631.624 110.689 638.329C123.17 643.246 136.796 641.928 146.08 634.999L162.372 623.588C163.696 623.552 164.266 622.105 164.079 620.917Z" fill="#E6E6E6" fill-opacity="0.35" stroke="#E6E6E6" stroke-opacity="0.35" stroke-width="6.4"/>
</g>
<g clip-path="url(#clip25_70_199)">
<path d="M1165.75 786.039L1166.78 804.905C1166.95 808.05 1168.26 810.103 1170.7 811.065L1274.5 851.958C1276.94 852.92 1279.3 852.31 1281.57 850.128L1295.19 837.035L1165.75 786.039Z" fill="#E6E6E6" fill-opacity="0.35" stroke="#E6E6E6" stroke-opacity="0.35" stroke-width="6.4"/>
<path d="M1156.77 774.811L1165.32 778.178L1300.87 831.58L1309.41 834.947C1313.08 836.391 1316.57 834.69 1318.14 830.695C1319.72 826.7 1318.32 823.074 1314.66 821.631L1308.55 819.226C1321.23 783.456 1308.96 744.779 1281.32 725.428C1281.85 724.096 1282.98 723.005 1283.77 721.007C1287.44 711.686 1283.61 701.716 1275.06 698.348C1266.51 694.981 1256.91 699.659 1253.24 708.98C1252.45 710.978 1252.54 712.55 1252.01 713.881C1218.6 709.178 1183.86 729.333 1168.12 763.9L1162.02 761.494C1158.35 760.051 1154.86 761.752 1153.29 765.747C1151.71 769.742 1153.11 773.367 1156.77 774.811Z" fill="#E6E6E6" fill-opacity="0.35" stroke="#E6E6E6" stroke-opacity="0.35" stroke-width="6.4"/>
<path d="M1268.65 859.652C1268.56 858.079 1266.99 856.692 1265.77 856.211C1263.33 855.249 1261.49 854.527 1258.79 854.231L1248.14 861.572C1237.49 868.913 1224.14 870.576 1212.54 866.005L1210.7 865.284L1206.43 863.6L1198.49 860.473L1194.22 858.789C1190.56 857.346 1189.16 853.72 1190.74 849.725C1192.31 845.73 1195.8 844.029 1199.47 845.473L1220.84 853.892C1223.45 852.616 1225.99 849.768 1227.3 846.439L1227.56 845.773C1228.61 843.11 1227.3 841.056 1224.86 840.094L1200.44 830.472C1185.78 824.699 1171.3 827.453 1160.12 836.126L1141.79 850.439C1140.65 851.53 1139.86 853.527 1139.95 855.1L1143.51 881.882C1143.59 883.455 1143.94 884.361 1145.16 884.842L1145.77 885.083C1146.38 885.323 1147.6 885.804 1148.48 885.379C1168.2 880.074 1188.88 881.298 1207.2 888.514C1220.63 893.806 1235.99 890.627 1247.08 880.382L1266.46 863.406C1267.94 863.221 1268.73 861.224 1268.65 859.652Z" fill="#E6E6E6" fill-opacity="0.35" stroke="#E6E6E6" stroke-opacity="0.35" stroke-width="6.4"/>
</g>
<g clip-path="url(#clip26_70_199)">
<path d="M806.961 153.393L820.673 166.393C822.958 168.559 825.318 169.153 827.754 168.174L931.269 126.572C933.705 125.593 934.998 123.531 935.148 120.385L936.051 101.512L806.961 153.393Z" fill="#E6E6E6" fill-opacity="0.35" stroke="#E6E6E6" stroke-opacity="0.35" stroke-width="6.4"/>
<path d="M792.723 151.403L801.248 147.977L936.427 93.6487L944.951 90.2226C948.605 88.7543 949.973 85.1194 948.372 81.1354C946.771 77.1513 943.268 75.4742 939.614 76.9425L933.525 79.3897C918.164 44.6868 882.674 25.0146 849.293 29.9466C848.759 28.6186 848.834 27.0458 848.034 25.0538C844.298 15.7577 834.664 11.1456 826.139 14.5717C817.615 17.9977 813.852 27.9937 817.588 37.2898C818.389 39.2818 819.531 40.3651 820.065 41.6931C792.555 61.2332 781.158 99.7489 793.475 135.675L787.386 138.123C783.732 139.591 782.364 143.226 783.965 147.21C785.566 151.194 789.07 152.871 792.723 151.403Z" fill="#E6E6E6" fill-opacity="0.35" stroke="#E6E6E6" stroke-opacity="0.35" stroke-width="6.4"/>
<path d="M932.303 141.564C931.16 140.48 929.067 140.55 927.849 141.04C925.413 142.019 923.586 142.753 921.418 144.396L918.723 157.048C916.027 169.7 907.469 180.081 895.899 184.731L894.073 185.465L889.81 187.178L881.894 190.359L877.632 192.072C873.978 193.54 870.475 191.863 868.874 187.879C867.273 183.895 868.641 180.26 872.295 178.792L893.607 170.227C894.633 167.501 894.516 163.691 893.182 160.371L892.915 159.707C891.848 157.051 889.487 156.457 887.052 157.436L862.695 167.225C848.081 173.098 839.447 185.052 837.286 199.032L833.798 222.029C833.722 223.602 834.523 225.594 835.666 226.677L856.65 243.695C857.793 244.778 858.669 245.198 859.887 244.708L860.495 244.463C861.104 244.219 862.322 243.729 862.664 242.82C873.35 225.414 889.216 212.097 907.484 204.755C920.88 199.371 929.856 186.509 930.874 171.445L933.295 145.792C934.246 144.639 933.446 142.647 932.303 141.564Z" fill="#E6E6E6" fill-opacity="0.35" stroke="#E6E6E6" stroke-opacity="0.35" stroke-width="6.4"/>
</g>
<g clip-path="url(#clip27_70_199)">
<path d="M519.646 342.369L520.242 360.529C520.341 363.555 521.509 365.509 523.745 366.39L618.791 403.835C621.028 404.716 623.215 404.084 625.352 401.939L638.174 389.065L519.646 342.369Z" fill="#E6E6E6" fill-opacity="0.35" stroke="#E6E6E6" stroke-opacity="0.35" stroke-width="6.4"/>
<path d="M511.57 331.719L519.397 334.803L643.516 383.701L651.344 386.785C654.698 388.107 657.953 386.402 659.482 382.523C661.01 378.644 659.792 375.176 656.438 373.855L650.847 371.652C663.228 336.946 652.63 299.909 627.478 281.784C627.987 280.491 629.055 279.418 629.82 277.479C633.385 268.427 630.037 258.893 622.21 255.809C614.383 252.725 605.431 257.414 601.865 266.465C601.101 268.405 601.15 269.918 600.641 271.211C569.884 267.31 537.432 287.386 522.255 320.991L516.664 318.789C513.309 317.467 510.054 319.172 508.526 323.051C506.998 326.93 508.215 330.397 511.57 331.719Z" fill="#E6E6E6" fill-opacity="0.35" stroke="#E6E6E6" stroke-opacity="0.35" stroke-width="6.4"/>
<path d="M613.244 411.359C613.194 409.846 611.772 408.539 610.653 408.098C608.417 407.217 606.74 406.556 604.249 406.322L594.278 413.596C584.307 420.871 571.951 422.725 561.329 418.54L559.651 417.879L555.738 416.338L548.469 413.474L544.556 411.932C541.201 410.611 539.984 407.144 541.512 403.264C543.04 399.385 546.295 397.68 549.65 399.002L569.218 406.711C571.66 405.432 574.051 402.64 575.325 399.408L575.58 398.761C576.598 396.175 575.43 394.221 573.194 393.34L550.83 384.53C537.412 379.243 523.987 382.17 513.507 390.738L496.312 404.876C495.243 405.948 494.479 407.888 494.529 409.401L497.306 435.142C497.355 436.655 497.66 437.522 498.778 437.962L499.337 438.183C499.896 438.403 501.014 438.843 501.828 438.417C520.135 432.933 539.201 433.722 555.973 440.33C568.273 445.176 582.512 441.823 592.942 431.742L611.157 415.018C612.529 414.812 613.294 412.872 613.244 411.359Z" fill="#E6E6E6" fill-opacity="0.35" stroke="#E6E6E6" stroke-opacity="0.35" stroke-width="6.4"/>
</g>
<g clip-path="url(#clip28_70_199)">
<path d="M1152.45 352.305L1154.03 371.134C1154.29 374.272 1155.65 376.287 1158.12 377.179L1263.05 415.081C1265.52 415.973 1267.85 415.296 1270.06 413.05L1283.3 399.572L1152.45 352.305Z" fill="#E6E6E6" fill-opacity="0.35" stroke="#E6E6E6" stroke-opacity="0.35" stroke-width="6.4"/>
<path d="M1143.16 341.338L1151.8 344.46L1288.82 393.956L1297.46 397.077C1301.16 398.415 1304.61 396.615 1306.07 392.576C1307.52 388.538 1306.03 384.954 1302.32 383.616L1296.15 381.386C1307.8 345.268 1294.43 306.959 1266.24 288.407C1266.73 287.061 1267.83 285.938 1268.56 283.919C1271.97 274.496 1267.85 264.64 1259.21 261.518C1250.57 258.397 1241.11 263.348 1237.7 272.771C1236.97 274.79 1237.1 276.359 1236.62 277.705C1203.08 273.961 1168.93 295.104 1154.19 330.107L1148.02 327.877C1144.32 326.539 1140.88 328.34 1139.42 332.378C1137.96 336.417 1139.45 340.001 1143.16 341.338Z" fill="#E6E6E6" fill-opacity="0.35" stroke="#E6E6E6" stroke-opacity="0.35" stroke-width="6.4"/>
<path d="M1257.42 422.939C1257.29 421.37 1255.68 420.028 1254.44 419.583C1251.98 418.691 1250.12 418.022 1247.41 417.803L1236.98 425.446C1226.54 433.09 1213.24 435.134 1201.51 430.898L1199.66 430.229L1195.34 428.668L1187.32 425.77L1183 424.209C1179.29 422.872 1177.8 419.288 1179.26 415.249C1180.72 411.211 1184.16 409.41 1187.86 410.748L1209.46 418.552C1212.04 417.201 1214.49 414.282 1215.71 410.917L1215.95 410.244C1216.93 407.551 1215.56 405.536 1213.09 404.645L1188.4 395.726C1173.59 390.375 1159.19 393.543 1148.27 402.532L1130.35 417.365C1129.24 418.488 1128.51 420.507 1128.65 422.076L1132.97 448.746C1133.1 450.315 1133.47 451.211 1134.71 451.657L1135.32 451.88C1135.94 452.103 1137.18 452.549 1138.04 452.099C1157.6 446.231 1178.3 446.862 1196.82 453.551C1210.4 458.456 1225.66 454.838 1236.45 444.28L1255.34 426.755C1256.82 426.528 1257.55 424.509 1257.42 422.939Z" fill="#E6E6E6" fill-opacity="0.35" stroke="#E6E6E6" stroke-opacity="0.35" stroke-width="6.4"/>
</g>
<g clip-path="url(#clip29_70_199)">
<path d="M522.499 783.179L523.468 801.218C523.63 804.224 524.876 806.187 527.206 807.105L626.245 846.123C628.575 847.041 630.825 846.456 632.994 844.367L646.006 831.837L522.499 783.179Z" fill="#E6E6E6" fill-opacity="0.35" stroke="#E6E6E6" stroke-opacity="0.35" stroke-width="6.4"/>
<path d="M513.939 772.449L522.095 775.662L651.428 826.615L659.585 829.829C663.08 831.206 666.414 829.576 667.919 825.755C669.425 821.934 668.098 818.468 664.603 817.091L658.777 814.796C670.91 780.583 659.229 743.609 632.86 725.128C633.362 723.854 634.446 722.81 635.199 720.899C638.712 711.983 635.063 702.453 626.907 699.239C618.751 696.026 609.583 700.507 606.07 709.423C605.317 711.334 605.398 712.837 604.896 714.111C573.007 709.641 539.829 728.941 524.783 762.007L518.957 759.712C515.462 758.335 512.128 759.964 510.623 763.785C509.117 767.607 510.444 771.072 513.939 772.449Z" fill="#E6E6E6" fill-opacity="0.35" stroke="#E6E6E6" stroke-opacity="0.35" stroke-width="6.4"/>
<path d="M620.653 853.484C620.572 851.981 619.075 850.655 617.91 850.196C615.58 849.278 613.832 848.59 611.251 848.308L601.079 855.337C590.907 862.365 578.162 863.966 567.093 859.605L565.345 858.916L561.267 857.31L553.694 854.326L549.616 852.719C546.12 851.342 544.794 847.877 546.299 844.055C547.804 840.234 551.138 838.605 554.634 839.982L575.024 848.015C577.525 846.793 579.944 844.068 581.199 840.883L581.45 840.246C582.453 837.699 581.208 835.737 578.877 834.819L555.574 825.638C541.592 820.129 527.763 822.774 517.089 831.076L499.577 844.777C498.493 845.822 497.74 847.732 497.821 849.236L501.193 874.843C501.273 876.346 501.605 877.212 502.77 877.671L503.353 877.901C503.935 878.13 505.101 878.589 505.934 878.182C524.764 873.093 544.5 874.247 561.977 881.132C574.794 886.182 589.456 883.13 600.049 873.324L618.565 857.076C619.981 856.898 620.734 854.987 620.653 853.484Z" fill="#E6E6E6" fill-opacity="0.35" stroke="#E6E6E6" stroke-opacity="0.35" stroke-width="6.4"/>
</g>
</g>
<defs>
<clipPath id="clip0_70_199">
<rect width="1613" height="916" fill="white"/>
</clipPath>
<clipPath id="clip1_70_199">
<rect width="189.408" height="210.098" fill="white" transform="translate(569.25 -11) rotate(27.2656)"/>
</clipPath>
<clipPath id="clip2_70_199">
<rect width="210" height="229" fill="white" transform="translate(768.767 666) rotate(15.9079)"/>
</clipPath>
<clipPath id="clip3_70_199">
<rect width="210" height="212.914" fill="white" transform="translate(296.579 223) rotate(28.1897)"/>
</clipPath>
<clipPath id="clip4_70_199">
<rect width="210" height="196.373" fill="white" transform="translate(5 732.512) rotate(-17.6042)"/>
</clipPath>
<clipPath id="clip5_70_199">
<rect width="210" height="229" fill="white" transform="translate(765.832 212) rotate(31.5527)"/>
</clipPath>
<clipPath id="clip6_70_199">
<rect width="198.617" height="207.264" fill="white" transform="translate(229 547.779) rotate(-29.1611)"/>
</clipPath>
<clipPath id="clip7_70_199">
<rect width="210" height="229" fill="white" transform="translate(976 582.361) rotate(-33.977)"/>
</clipPath>
<clipPath id="clip8_70_199">
<rect width="210" height="229" fill="white" transform="translate(1358 294.512) rotate(-17.6042)"/>
</clipPath>
<clipPath id="clip9_70_199">
<rect width="210" height="229" fill="white" transform="translate(1140.55 -26) rotate(31.469)"/>
</clipPath>
<clipPath id="clip10_70_199">
<rect width="200" height="190" fill="white" transform="translate(245 64.0996) rotate(-15.0996)"/>
</clipPath>
<clipPath id="clip11_70_199">
<rect width="200" height="190" fill="white" transform="translate(1357 726.1) rotate(-15.0996)"/>
</clipPath>
<clipPath id="clip12_70_199">
<rect width="188.942" height="190.127" fill="white" transform="translate(54.7017 5) rotate(14.5304)"/>
</clipPath>
<clipPath id="clip13_70_199">
<rect width="210" height="229" fill="white" transform="translate(779.455 420) rotate(14.5304)"/>
</clipPath>
<clipPath id="clip14_70_199">
<rect width="210" height="229" fill="white" transform="translate(1428.9 -21) rotate(24.2068)"/>
</clipPath>
<clipPath id="clip15_70_199">
<rect width="185.058" height="187.447" fill="white" transform="translate(1228 182.886) rotate(-36.0427)"/>
</clipPath>
<clipPath id="clip16_70_199">
<rect width="210" height="229" fill="white" transform="translate(1385.19 414) rotate(33.4382)"/>
</clipPath>
<clipPath id="clip17_70_199">
<rect width="170.779" height="192.778" fill="white" transform="translate(0 258.833) rotate(-18.3742)"/>
</clipPath>
<clipPath id="clip18_70_199">
<rect width="210" height="196.427" fill="white" transform="translate(482 507.197) rotate(-18.3742)"/>
</clipPath>
<clipPath id="clip19_70_199">
<rect width="184.225" height="229" fill="white" transform="translate(353.583 678) rotate(26.3334)"/>
</clipPath>
<clipPath id="clip20_70_199">
<rect width="185.058" height="187.447" fill="white" transform="translate(988.645 323) rotate(22.1405)"/>
</clipPath>
<clipPath id="clip21_70_199">
<rect width="185.058" height="187.447" fill="white" transform="translate(1025.64 711) rotate(22.1405)"/>
</clipPath>
<clipPath id="clip22_70_199">
<rect width="185.058" height="187.447" fill="white" transform="translate(1025.64 711) rotate(22.1405)"/>
</clipPath>
<clipPath id="clip23_70_199">
<rect width="146.745" height="165.509" fill="white" transform="translate(1003 204.43) rotate(-36.5692)"/>
</clipPath>
<clipPath id="clip24_70_199">
<rect width="161.3" height="174.429" fill="white" transform="translate(76.9365 452) rotate(21.5028)"/>
</clipPath>
<clipPath id="clip25_70_199">
<rect width="210" height="229" fill="white" transform="translate(1176.94 652) rotate(21.5028)"/>
</clipPath>
<clipPath id="clip26_70_199">
<rect width="210" height="229" fill="white" transform="translate(723 48.3105) rotate(-21.895)"/>
</clipPath>
<clipPath id="clip27_70_199">
<rect width="192.294" height="222.363" fill="white" transform="translate(532.506 213) rotate(21.5028)"/>
</clipPath>
<clipPath id="clip28_70_199">
<rect width="210" height="229" fill="white" transform="translate(1159.8 218) rotate(19.8611)"/>
</clipPath>
<clipPath id="clip29_70_199">
<rect width="200.372" height="219.045" fill="white" transform="translate(533.29 655) rotate(21.5028)"/>
</clipPath>
</defs>
</svg>
