<svg width="357" height="81" viewBox="0 0 357 81" fill="none" xmlns="http://www.w3.org/2000/svg">
<path d="M102.837 30.8828C102.619 30.9557 102.455 30.9648 102.345 30.9102C102.236 30.8555 102.154 30.7643 102.099 30.6367C102.044 30.5091 102.017 30.3724 102.017 30.2266C102.017 30.0625 102.026 29.9076 102.044 29.7617C102.063 29.6341 102.09 29.4883 102.126 29.3242C102.181 29.1602 102.245 29.0052 102.318 28.8594C102.391 28.7135 102.473 28.5951 102.564 28.5039C102.673 28.3945 102.81 28.3216 102.974 28.2852C103.813 28.1393 104.624 28.0299 105.408 27.957C106.21 27.8841 106.93 27.8294 107.568 27.793C108.297 27.7383 108.999 27.7109 109.673 27.7109C109.819 27.7109 109.965 27.7201 110.111 27.7383C110.257 27.7383 110.402 27.7383 110.548 27.7383C110.712 27.7018 110.84 27.6927 110.931 27.7109C111.04 27.7109 111.132 27.7201 111.205 27.7383C111.733 27.7565 112.28 27.7839 112.845 27.8203C113.319 27.8568 113.848 27.9023 114.431 27.957C115.033 27.9935 115.625 28.0482 116.208 28.1211C116.263 28.2669 116.272 28.4492 116.236 28.668C116.218 28.7773 116.199 28.8867 116.181 28.9961C116.163 29.1055 116.117 29.2057 116.044 29.2969C115.99 29.388 115.917 29.4792 115.826 29.5703C115.753 29.6432 115.662 29.707 115.552 29.7617C114.932 29.7435 114.331 29.7344 113.747 29.7344C113.182 29.7161 112.681 29.707 112.244 29.707H110.767C110.53 30.5456 110.238 31.5846 109.892 32.8242C109.546 34.0456 109.19 35.3398 108.826 36.707C108.479 38.056 108.142 39.4049 107.814 40.7539C107.504 42.0846 107.258 43.2878 107.076 44.3633C106.893 45.4023 106.711 46.4232 106.529 47.4258C106.456 47.8451 106.374 48.2826 106.283 48.7383C106.21 49.194 106.137 49.6406 106.064 50.0781C106.009 50.5156 105.955 50.9349 105.9 51.3359C105.845 51.737 105.8 52.1016 105.763 52.4297C105.471 52.5755 105.198 52.6849 104.943 52.7578C104.688 52.849 104.46 52.9128 104.259 52.9492C104.022 53.0039 103.803 53.0312 103.603 53.0312C103.165 53.0312 102.892 52.9766 102.783 52.8672C102.692 52.776 102.682 52.5846 102.755 52.293C102.81 52.0378 102.974 51.3451 103.247 50.2148C103.357 49.7409 103.494 49.1393 103.658 48.4102C103.84 47.6992 104.05 46.8333 104.287 45.8125C104.524 44.7734 104.806 43.5703 105.134 42.2031C105.462 40.8177 105.836 39.2318 106.255 37.4453L108.087 29.8438C107.54 29.9167 107.003 29.9987 106.474 30.0898C105.945 30.181 105.444 30.2812 104.97 30.3906C104.514 30.4818 104.095 30.5729 103.712 30.6641C103.348 30.7552 103.056 30.8281 102.837 30.8828ZM127.426 41.9844C127.554 41.8385 127.681 41.7656 127.809 41.7656C127.955 41.7474 128.064 41.7839 128.137 41.875C128.228 41.9479 128.264 42.0664 128.246 42.2305C128.246 42.3945 128.173 42.5768 128.027 42.7773C127.681 43.2513 127.28 43.7435 126.824 44.2539C126.369 44.7461 125.876 45.2292 125.348 45.7031C124.837 46.1771 124.318 46.6237 123.789 47.043C123.261 47.4622 122.75 47.8086 122.258 48.082C121.711 48.3919 121.246 48.5469 120.863 48.5469C120.499 48.5469 120.134 48.3099 119.77 47.8359C119.442 47.4167 119.277 46.9701 119.277 46.4961C119.296 46.0039 119.405 45.3932 119.606 44.6641C119.733 44.2083 119.906 43.6706 120.125 43.0508C120.362 42.4128 120.544 41.8021 120.672 41.2188C120.818 40.6354 120.863 40.1432 120.809 39.7422C120.754 39.3229 120.517 39.1133 120.098 39.1133C119.806 39.1133 119.487 39.2135 119.141 39.4141C118.813 39.6146 118.475 39.8789 118.129 40.207C117.801 40.5169 117.482 40.8724 117.172 41.2734C116.862 41.6745 116.589 42.0664 116.352 42.4492C116.206 43.1602 116.06 43.862 115.914 44.5547C115.787 45.138 115.65 45.776 115.504 46.4688C115.376 47.1432 115.249 47.7448 115.121 48.2734C115.012 48.3646 114.893 48.4284 114.766 48.4648C114.638 48.5013 114.52 48.5195 114.41 48.5195C114.283 48.5195 114.155 48.5104 114.027 48.4922C113.882 48.4557 113.745 48.401 113.617 48.3281C113.508 48.2552 113.399 48.1549 113.289 48.0273C113.18 47.918 113.098 47.763 113.043 47.5625C113.863 44.1901 114.511 41.4831 114.985 39.4414C115.458 37.3997 115.823 35.8411 116.078 34.7656C116.37 33.4896 116.57 32.6055 116.68 32.1133C116.735 31.7669 116.78 31.4297 116.817 31.1016C116.853 30.8099 116.871 30.5091 116.871 30.1992C116.871 29.8893 116.844 29.6068 116.789 29.3516C116.935 29.2604 117.09 29.1875 117.254 29.1328C117.436 29.0781 117.61 29.0326 117.774 28.9961C117.974 28.9414 118.175 28.8958 118.375 28.8594C118.576 28.8229 118.758 28.8047 118.922 28.8047C119.068 28.8047 119.205 28.8229 119.332 28.8594C119.46 28.8776 119.542 28.9323 119.578 29.0234C119.688 29.1146 119.733 29.2969 119.715 29.5703C119.715 29.8438 119.697 30.1263 119.66 30.418C119.587 30.7643 119.505 31.138 119.414 31.5391C119.031 33.0156 118.603 34.4557 118.129 35.8594C117.655 37.2448 117.218 38.7305 116.817 40.3164C117.054 39.9518 117.336 39.5781 117.664 39.1953C117.992 38.8125 118.348 38.4661 118.731 38.1562C119.132 37.8281 119.551 37.5638 119.988 37.3633C120.426 37.1445 120.891 37.0352 121.383 37.0352C121.638 37.0352 121.875 37.0807 122.094 37.1719C122.331 37.2448 122.531 37.3815 122.695 37.582C122.878 37.7643 123.014 38.0195 123.106 38.3477C123.197 38.6576 123.233 39.0495 123.215 39.5234C123.215 39.8151 123.179 40.1159 123.106 40.4258C123.051 40.7357 122.969 41.082 122.86 41.4648C122.75 41.8294 122.604 42.2396 122.422 42.6953C122.258 43.151 122.057 43.6797 121.82 44.2812C121.656 44.7005 121.529 45.056 121.438 45.3477C121.347 45.6393 121.365 45.8945 121.492 46.1133C121.656 46.4049 121.975 46.4779 122.449 46.332C122.942 46.168 123.671 45.694 124.637 44.9102C124.856 44.7279 125.102 44.5 125.375 44.2266C125.649 43.9531 125.913 43.6797 126.168 43.4062C126.423 43.1146 126.66 42.8411 126.879 42.5859C127.098 42.3307 127.28 42.1302 127.426 41.9844ZM139.026 42.3125C138.479 43.1146 137.86 43.8984 137.167 44.6641C136.474 45.4115 135.736 46.0859 134.952 46.6875C134.186 47.2708 133.393 47.7448 132.573 48.1094C131.771 48.474 130.987 48.6562 130.222 48.6562C129.821 48.6562 129.383 48.556 128.909 48.3555C128.453 48.1732 128.034 47.8815 127.651 47.4805C127.268 47.0794 126.959 46.5599 126.722 45.9219C126.503 45.2839 126.439 44.5091 126.53 43.5977C126.603 42.8503 126.831 42.0664 127.214 41.2461C127.615 40.4076 128.098 39.6419 128.663 38.9492C129.246 38.2565 129.893 37.6823 130.604 37.2266C131.334 36.7708 132.063 36.543 132.792 36.543C133.485 36.543 133.986 36.7161 134.296 37.0625C134.606 37.4089 134.742 37.8372 134.706 38.3477C134.651 38.9128 134.487 39.4323 134.214 39.9062C133.959 40.3802 133.649 40.8086 133.284 41.1914C132.919 41.5742 132.528 41.9206 132.108 42.2305C131.707 42.5404 131.324 42.8229 130.96 43.0781C130.559 43.3516 130.176 43.6159 129.811 43.8711C129.447 44.1081 129.128 44.3268 128.854 44.5273C128.873 44.9831 128.955 45.3659 129.1 45.6758C129.246 45.9857 129.429 46.2409 129.647 46.4414C129.866 46.6237 130.112 46.7604 130.386 46.8516C130.677 46.9245 130.969 46.9609 131.261 46.9609C131.88 46.9609 132.528 46.7695 133.202 46.3867C133.877 45.9857 134.533 45.5117 135.171 44.9648C135.827 44.3997 136.429 43.8164 136.975 43.2148C137.541 42.6133 138.005 42.0938 138.37 41.6562C138.498 41.5104 138.625 41.4284 138.753 41.4102C138.899 41.3737 139.008 41.3919 139.081 41.4648C139.172 41.5195 139.218 41.6289 139.218 41.793C139.218 41.9388 139.154 42.112 139.026 42.3125ZM132.026 38.1016C131.807 38.1016 131.543 38.2109 131.233 38.4297C130.942 38.6484 130.65 38.9674 130.358 39.3867C130.067 39.7878 129.793 40.2891 129.538 40.8906C129.283 41.474 129.091 42.1484 128.964 42.9141C129.182 42.75 129.419 42.5859 129.675 42.4219C129.93 42.2396 130.185 42.0482 130.44 41.8477C131.224 41.2461 131.771 40.7174 132.081 40.2617C132.391 39.806 132.564 39.4141 132.6 39.0859C132.637 38.7396 132.6 38.4935 132.491 38.3477C132.382 38.1836 132.227 38.1016 132.026 38.1016ZM155.5 35.4492C155.482 35.3945 155.537 35.2578 155.664 35.0391C155.792 34.8021 155.929 34.5195 156.075 34.1914C156.239 33.8451 156.394 33.4622 156.539 33.043C156.703 32.6055 156.813 32.1589 156.867 31.7031C156.94 31.2474 156.94 30.7917 156.867 30.3359C156.795 29.8802 156.603 29.4427 156.293 29.0234C156.111 28.8047 155.838 28.6862 155.473 28.668C155.127 28.6315 154.726 28.6862 154.27 28.832C153.832 28.9596 153.367 29.1693 152.875 29.4609C152.401 29.7344 151.964 30.0625 151.563 30.4453C151.162 30.8099 150.815 31.2201 150.524 31.6758C150.25 32.1315 150.095 32.5964 150.059 33.0703C150.022 33.4531 150.032 33.8086 150.086 34.1367C150.159 34.4648 150.25 34.7656 150.36 35.0391C150.469 35.3125 150.588 35.5677 150.715 35.8047C150.843 36.0417 150.961 36.2513 151.071 36.4336C151.216 36.6888 151.444 36.9714 151.754 37.2812C152.064 37.5911 152.401 37.9466 152.766 38.3477C153.131 38.7305 153.495 39.168 153.86 39.6602C154.224 40.1523 154.543 40.7083 154.817 41.3281C155.09 41.9479 155.282 42.6406 155.391 43.4062C155.5 44.1719 155.491 45.0195 155.364 45.9492C155.163 47.2982 154.844 48.4193 154.407 49.3125C153.969 50.224 153.486 50.9531 152.957 51.5C152.447 52.0469 151.927 52.4388 151.399 52.6758C150.87 52.931 150.433 53.0951 150.086 53.168C149.813 53.2227 149.485 53.2682 149.102 53.3047C148.737 53.3594 148.345 53.3503 147.926 53.2773C147.525 53.2227 147.115 53.0951 146.696 52.8945C146.276 52.7122 145.903 52.4206 145.575 52.0195C145.192 51.5638 144.891 51.0716 144.672 50.543C144.472 50.0872 144.326 49.5586 144.235 48.957C144.125 48.3737 144.171 47.763 144.371 47.125C144.517 46.9609 144.672 46.8151 144.836 46.6875C145 46.5599 145.164 46.4505 145.328 46.3594C145.511 46.25 145.702 46.1497 145.903 46.0586C146.14 45.9857 146.377 45.9219 146.614 45.8672C146.814 45.8307 147.024 45.8125 147.242 45.8125C147.479 45.7943 147.698 45.8216 147.899 45.8945C147.625 46.2044 147.434 46.4961 147.325 46.7695C147.252 46.9154 147.197 47.043 147.16 47.1523C147.088 47.4987 147.06 47.9089 147.078 48.3828C147.115 48.875 147.215 49.3398 147.379 49.7773C147.562 50.2331 147.817 50.6159 148.145 50.9258C148.473 51.2539 148.91 51.4271 149.457 51.4453C150.788 51.4818 151.918 50.4427 152.848 48.3281C153.158 47.6719 153.313 47.0065 153.313 46.332C153.331 45.6576 153.249 45.0104 153.067 44.3906C152.903 43.7708 152.675 43.1966 152.383 42.668C152.11 42.1211 151.827 41.6562 151.535 41.2734C151.244 40.8906 150.888 40.4805 150.469 40.043C150.068 39.5872 149.667 39.0951 149.266 38.5664C148.865 38.0378 148.5 37.4635 148.172 36.8438C147.862 36.224 147.653 35.5495 147.543 34.8203C147.397 33.7995 147.489 32.8698 147.817 32.0312C148.163 31.1745 148.619 30.4271 149.184 29.7891C149.767 29.151 150.396 28.6315 151.071 28.2305C151.763 27.8294 152.374 27.5742 152.903 27.4648C155.838 26.8815 157.761 27.3737 158.672 28.9414C159.055 29.543 159.265 30.181 159.301 30.8555C159.338 31.5299 159.292 32.1589 159.164 32.7422C159.055 33.3073 158.909 33.7904 158.727 34.1914C158.563 34.5742 158.453 34.7839 158.399 34.8203C158.289 34.9297 158.116 35.0482 157.879 35.1758C157.642 35.3034 157.259 35.4219 156.731 35.5312C156.585 35.5677 156.439 35.5859 156.293 35.5859C156.166 35.5859 156.029 35.5768 155.883 35.5586C155.737 35.5404 155.61 35.5039 155.5 35.4492ZM167.128 43.6523C166.946 44.3451 166.7 44.9922 166.39 45.5938C166.08 46.1953 165.706 46.7148 165.269 47.1523C164.849 47.5898 164.366 47.9271 163.819 48.1641C163.291 48.4193 162.707 48.5469 162.069 48.5469C161.322 48.5469 160.73 48.3828 160.292 48.0547C159.873 47.7448 159.554 47.3529 159.335 46.8789C159.134 46.4049 159.016 45.8854 158.98 45.3203C158.925 44.7552 158.897 44.2266 158.897 43.7344C158.897 43.388 158.943 43.0052 159.034 42.5859C159.107 42.1667 159.217 41.7383 159.362 41.3008C159.508 40.8633 159.69 40.4258 159.909 39.9883C160.146 39.5508 160.42 39.1497 160.73 38.7852C160.839 38.4753 161.003 38.2018 161.222 37.9648C161.459 37.7279 161.723 37.5365 162.015 37.3906C162.325 37.2266 162.653 37.1081 162.999 37.0352C163.345 36.944 163.683 36.8984 164.011 36.8984C164.065 36.8984 164.111 36.9076 164.147 36.9258C164.202 36.944 164.257 36.9622 164.312 36.9805C164.549 36.9987 164.84 37.0898 165.187 37.2539C165.551 37.418 165.897 37.6641 166.226 37.9922C166.572 38.3203 166.864 38.7396 167.101 39.25C167.338 39.7422 167.456 40.3438 167.456 41.0547C167.456 41.2005 167.447 41.3828 167.429 41.6016C167.411 41.8021 167.392 41.9753 167.374 42.1211C167.793 41.957 168.231 41.7565 168.687 41.5195C169.142 41.2826 169.58 41.0365 169.999 40.7812C170.437 40.5078 170.838 40.2344 171.202 39.9609C171.567 39.6875 171.858 39.4414 172.077 39.2227C172.259 39.0586 172.414 38.9674 172.542 38.9492C172.67 38.931 172.761 38.9674 172.815 39.0586C172.87 39.1497 172.879 39.2773 172.843 39.4414C172.806 39.6055 172.706 39.7878 172.542 39.9883C172.451 40.0977 172.214 40.3164 171.831 40.6445C171.467 40.9727 171.029 41.3281 170.519 41.7109C170.008 42.0938 169.452 42.4674 168.851 42.832C168.249 43.1966 167.675 43.4701 167.128 43.6523ZM162.507 39.4961C162.452 39.6602 162.425 39.8333 162.425 40.0156C162.425 40.3073 162.443 40.6172 162.48 40.9453C162.516 41.2552 162.607 41.5378 162.753 41.793C162.899 42.0482 163.127 42.2669 163.437 42.4492C163.765 42.6133 164.211 42.6953 164.776 42.6953C164.868 42.6953 164.959 42.6953 165.05 42.6953C165.141 42.6771 165.232 42.6589 165.323 42.6406C165.378 42.4036 165.424 42.194 165.46 42.0117C165.515 41.8112 165.542 41.638 165.542 41.4922C165.578 41.1458 165.578 40.7904 165.542 40.4258C165.506 40.0612 165.433 39.7331 165.323 39.4414C165.232 39.1315 165.105 38.8854 164.94 38.7031C164.795 38.5026 164.612 38.4023 164.394 38.4023C164.047 38.4023 163.71 38.5026 163.382 38.7031C163.072 38.8854 162.78 39.1497 162.507 39.4961ZM160.757 44.3086C160.757 44.6367 160.775 44.9648 160.812 45.293C160.848 45.6029 160.921 45.8854 161.03 46.1406C161.14 46.3776 161.286 46.5781 161.468 46.7422C161.65 46.888 161.887 46.9609 162.179 46.9609C162.507 46.9609 162.808 46.888 163.081 46.7422C163.355 46.5781 163.601 46.3776 163.819 46.1406C164.038 45.8854 164.23 45.6029 164.394 45.293C164.576 44.9648 164.731 44.6276 164.858 44.2812C164.731 44.2995 164.603 44.3177 164.476 44.3359C164.366 44.3359 164.239 44.3359 164.093 44.3359C163.4 44.3359 162.799 44.1354 162.288 43.7344C161.796 43.3151 161.413 42.7865 161.14 42.1484C161.03 42.5312 160.939 42.9049 160.866 43.2695C160.793 43.6341 160.757 43.9805 160.757 44.3086ZM173.724 48.4375C173.032 48.4375 172.467 48.3281 172.029 48.1094C171.592 47.8906 171.245 47.6263 170.99 47.3164C170.753 46.9883 170.58 46.6419 170.47 46.2773C170.379 45.8945 170.334 45.5482 170.334 45.2383C170.334 44.6914 170.379 44.1172 170.47 43.5156C170.562 42.8958 170.671 42.3307 170.799 41.8203C170.926 41.2917 171.036 40.8451 171.127 40.4805C171.236 40.1159 171.309 39.888 171.345 39.7969C171.51 39.2682 171.719 38.8125 171.974 38.4297C172.248 38.0286 172.622 37.7552 173.095 37.6094C173.278 37.5729 173.469 37.5365 173.67 37.5C173.834 37.4818 173.998 37.4727 174.162 37.4727C174.344 37.4727 174.508 37.5 174.654 37.5547C174.162 38.8125 173.77 39.8607 173.478 40.6992C173.205 41.5378 172.995 42.2214 172.849 42.75C172.685 43.3516 172.585 43.8346 172.549 44.1992C172.457 45.0195 172.53 45.6393 172.767 46.0586C173.004 46.4779 173.487 46.6875 174.217 46.6875C174.691 46.6875 175.146 46.5143 175.584 46.168C176.021 45.8034 176.422 45.3385 176.787 44.7734C176.732 44.4818 176.705 44.181 176.705 43.8711C176.705 43.2878 176.75 42.7227 176.842 42.1758C176.951 41.6107 177.069 41.0911 177.197 40.6172C177.343 40.125 177.489 39.6875 177.635 39.3047C177.799 38.9219 177.935 38.6211 178.045 38.4023C178.245 37.9648 178.427 37.7005 178.592 37.6094C178.756 37.5 179.02 37.4362 179.385 37.418C179.53 37.3997 179.649 37.3997 179.74 37.418C179.849 37.418 179.941 37.4271 180.013 37.4453C180.232 37.5 180.342 37.6094 180.342 37.7734C180.342 38.0651 180.323 38.5026 180.287 39.0859C180.25 39.6693 180.141 40.2708 179.959 40.8906C179.831 41.401 179.704 41.8385 179.576 42.2031C179.467 42.5495 179.357 42.8503 179.248 43.1055C179.138 43.3424 179.029 43.543 178.92 43.707C178.81 43.8529 178.71 43.9896 178.619 44.1172C178.655 44.6641 178.701 45.1016 178.756 45.4297C178.81 45.7578 178.874 46.013 178.947 46.1953C179.038 46.3594 179.138 46.4779 179.248 46.5508C179.375 46.6055 179.512 46.6328 179.658 46.6328C179.913 46.6328 180.214 46.5143 180.56 46.2773C180.907 46.0221 181.262 45.7122 181.627 45.3477C182.01 44.9648 182.383 44.5547 182.748 44.1172C183.131 43.6615 183.477 43.2331 183.787 42.832C184.097 42.431 184.361 42.0846 184.58 41.793C184.799 41.4831 184.935 41.2917 184.99 41.2188C185.118 41.0547 185.236 40.9544 185.345 40.918C185.473 40.8815 185.573 40.8997 185.646 40.9727C185.719 41.0273 185.756 41.1276 185.756 41.2734C185.774 41.401 185.737 41.5469 185.646 41.7109C185.282 42.4036 184.826 43.1419 184.279 43.9258C183.75 44.6914 183.176 45.4023 182.556 46.0586C181.955 46.7148 181.344 47.2617 180.724 47.6992C180.105 48.1367 179.521 48.3555 178.974 48.3555C178.482 48.3555 178.09 48.1914 177.799 47.8633C177.525 47.5169 177.288 47.0247 177.088 46.3867C176.668 47.043 176.176 47.5534 175.611 47.918C175.046 48.2643 174.417 48.4375 173.724 48.4375ZM193.829 41.082C193.902 40.9727 193.993 40.9089 194.102 40.8906C194.23 40.8542 194.33 40.8633 194.403 40.918C194.476 40.9727 194.512 41.0638 194.512 41.1914C194.53 41.319 194.485 41.4922 194.375 41.7109C194.011 42.4036 193.528 43.151 192.926 43.9531C192.343 44.7552 191.723 45.5117 191.067 46.2227C190.411 46.9154 189.773 47.4896 189.153 47.9453C188.533 48.401 188.013 48.6289 187.594 48.6289C186.993 48.6289 186.491 48.5104 186.09 48.2734C185.689 48.0365 185.37 47.7448 185.133 47.3984C184.915 47.0521 184.76 46.6784 184.668 46.2773C184.577 45.8581 184.55 45.4753 184.586 45.1289C184.605 44.8372 184.668 44.3177 184.778 43.5703C184.887 42.8047 185.033 41.9297 185.215 40.9453C185.398 39.9427 185.598 38.8763 185.817 37.7461C186.054 36.5977 186.3 35.4948 186.555 34.4375C186.245 34.474 185.935 34.5104 185.625 34.5469C185.316 34.5833 185.033 34.6016 184.778 34.6016C184.194 34.6016 183.648 34.5378 183.137 34.4102C182.609 34.2643 182.217 34.1276 181.961 34C181.816 33.9271 181.752 33.8268 181.77 33.6992C181.788 33.5534 181.843 33.4167 181.934 33.2891C182.025 33.1432 182.144 33.0247 182.29 32.9336C182.417 32.8242 182.536 32.7695 182.645 32.7695C182.991 32.806 183.365 32.8424 183.766 32.8789C184.167 32.8971 184.605 32.8971 185.079 32.8789C185.425 32.8607 185.753 32.8333 186.063 32.7969C186.391 32.7604 186.71 32.7148 187.02 32.6602C187.257 31.7852 187.485 31.0286 187.704 30.3906C187.941 29.7344 188.15 29.2786 188.332 29.0234C188.387 28.9323 188.506 28.8594 188.688 28.8047C188.888 28.7318 189.098 28.6862 189.317 28.668C189.536 28.6315 189.745 28.6315 189.946 28.668C190.146 28.6862 190.292 28.75 190.383 28.8594C190.474 29.0052 190.511 29.3789 190.493 29.9805C190.474 30.582 190.374 31.3477 190.192 32.2773C190.957 32.2773 191.632 32.3229 192.215 32.4141C192.817 32.487 193.327 32.5781 193.747 32.6875C194.166 32.7786 194.503 32.8789 194.758 32.9883C195.013 33.0794 195.205 33.1432 195.332 33.1797C195.46 33.2161 195.524 33.3073 195.524 33.4531C195.542 33.599 195.515 33.7539 195.442 33.918C195.387 34.0638 195.287 34.1914 195.141 34.3008C194.995 34.4102 194.831 34.4466 194.649 34.4102C194.467 34.3919 194.257 34.3555 194.02 34.3008C193.801 34.2461 193.528 34.2005 193.2 34.1641C192.89 34.1276 192.516 34.0911 192.079 34.0547C191.641 34.0182 191.131 34 190.547 34C190.438 34 190.31 34.0091 190.165 34.0273C190.037 34.0273 189.9 34.0273 189.754 34.0273C189.681 34.319 189.609 34.6107 189.536 34.9023C189.481 35.1758 189.399 35.4674 189.29 35.7773C189.053 36.5065 188.779 37.2995 188.469 38.1562C188.196 38.9036 187.868 39.7604 187.485 40.7266C187.102 41.6927 186.674 42.7227 186.2 43.8164C186.09 44.6003 186.099 45.2018 186.227 45.6211C186.373 46.0221 186.546 46.3138 186.747 46.4961C186.984 46.6966 187.275 46.806 187.622 46.8242C187.895 46.8607 188.223 46.7695 188.606 46.5508C189.007 46.3138 189.417 46.0039 189.836 45.6211C190.256 45.2383 190.675 44.819 191.094 44.3633C191.532 43.9076 191.933 43.4609 192.297 43.0234C192.662 42.5859 192.981 42.194 193.254 41.8477C193.528 41.4831 193.719 41.2279 193.829 41.082ZM206.577 41.9844C206.705 41.8385 206.833 41.7656 206.96 41.7656C207.106 41.7474 207.215 41.7839 207.288 41.875C207.379 41.9479 207.416 42.0664 207.398 42.2305C207.398 42.3945 207.325 42.5768 207.179 42.7773C206.833 43.2513 206.432 43.7435 205.976 44.2539C205.52 44.7461 205.028 45.2292 204.499 45.7031C203.989 46.1771 203.469 46.6237 202.941 47.043C202.412 47.4622 201.902 47.8086 201.409 48.082C200.862 48.3919 200.398 48.5469 200.015 48.5469C199.65 48.5469 199.286 48.3099 198.921 47.8359C198.593 47.4167 198.429 46.9701 198.429 46.4961C198.447 46.0039 198.557 45.3932 198.757 44.6641C198.885 44.2083 199.058 43.6706 199.277 43.0508C199.514 42.4128 199.696 41.8021 199.823 41.2188C199.969 40.6354 200.015 40.1432 199.96 39.7422C199.905 39.3229 199.668 39.1133 199.249 39.1133C198.958 39.1133 198.639 39.2135 198.292 39.4141C197.964 39.6146 197.627 39.8789 197.28 40.207C196.952 40.5169 196.633 40.8724 196.323 41.2734C196.014 41.6745 195.74 42.0664 195.503 42.4492C195.357 43.1602 195.211 43.862 195.066 44.5547C194.938 45.138 194.801 45.776 194.655 46.4688C194.528 47.1432 194.4 47.7448 194.273 48.2734C194.163 48.3646 194.045 48.4284 193.917 48.4648C193.79 48.5013 193.671 48.5195 193.562 48.5195C193.434 48.5195 193.307 48.5104 193.179 48.4922C193.033 48.4557 192.896 48.401 192.769 48.3281C192.659 48.2552 192.55 48.1549 192.441 48.0273C192.331 47.918 192.249 47.763 192.195 47.5625C193.015 44.1901 193.662 41.4831 194.136 39.4414C194.61 37.3997 194.974 35.8411 195.23 34.7656C195.521 33.4896 195.722 32.6055 195.831 32.1133C195.886 31.7669 195.932 31.4297 195.968 31.1016C196.004 30.8099 196.023 30.5091 196.023 30.1992C196.023 29.8893 195.995 29.6068 195.941 29.3516C196.086 29.2604 196.241 29.1875 196.405 29.1328C196.588 29.0781 196.761 29.0326 196.925 28.9961C197.126 28.9414 197.326 28.8958 197.527 28.8594C197.727 28.8229 197.909 28.8047 198.073 28.8047C198.219 28.8047 198.356 28.8229 198.484 28.8594C198.611 28.8776 198.693 28.9323 198.73 29.0234C198.839 29.1146 198.885 29.2969 198.866 29.5703C198.866 29.8438 198.848 30.1263 198.812 30.418C198.739 30.7643 198.657 31.138 198.566 31.5391C198.183 33.0156 197.754 34.4557 197.28 35.8594C196.807 37.2448 196.369 38.7305 195.968 40.3164C196.205 39.9518 196.487 39.5781 196.816 39.1953C197.144 38.8125 197.499 38.4661 197.882 38.1562C198.283 37.8281 198.702 37.5638 199.14 37.3633C199.577 37.1445 200.042 37.0352 200.534 37.0352C200.79 37.0352 201.027 37.0807 201.245 37.1719C201.482 37.2448 201.683 37.3815 201.847 37.582C202.029 37.7643 202.166 38.0195 202.257 38.3477C202.348 38.6576 202.385 39.0495 202.366 39.5234C202.366 39.8151 202.33 40.1159 202.257 40.4258C202.202 40.7357 202.12 41.082 202.011 41.4648C201.902 41.8294 201.756 42.2396 201.573 42.6953C201.409 43.151 201.209 43.6797 200.972 44.2812C200.808 44.7005 200.68 45.056 200.589 45.3477C200.498 45.6393 200.516 45.8945 200.644 46.1133C200.808 46.4049 201.127 46.4779 201.601 46.332C202.093 46.168 202.822 45.694 203.788 44.9102C204.007 44.7279 204.253 44.5 204.527 44.2266C204.8 43.9531 205.064 43.6797 205.32 43.4062C205.575 43.1146 205.812 42.8411 206.03 42.5859C206.249 42.3307 206.432 42.1302 206.577 41.9844ZM221.028 41.082C220.682 40.7174 220.399 40.2708 220.18 39.7422C219.98 39.1953 219.825 38.6576 219.715 38.1289C219.588 37.5273 219.497 36.8893 219.442 36.2148C219.351 34.9023 219.497 33.7083 219.88 32.6328C220.262 31.5573 220.782 30.6367 221.438 29.8711C222.094 29.1055 222.824 28.513 223.626 28.0938C224.446 27.6745 225.239 27.4648 226.005 27.4648C226.351 27.4648 226.624 27.5469 226.825 27.7109C227.044 27.875 227.208 28.0755 227.317 28.3125C227.426 28.5495 227.49 28.7956 227.508 29.0508C227.545 29.306 227.563 29.5156 227.563 29.6797C227.563 30.263 227.545 30.8372 227.508 31.4023C227.49 31.9674 227.445 32.569 227.372 33.207C227.317 33.8451 227.226 34.5286 227.098 35.2578C226.971 35.987 226.807 36.7982 226.606 37.6914C226.497 38.1836 226.342 38.8125 226.141 39.5781C225.941 40.3438 225.704 41.1914 225.43 42.1211C226.251 42.1393 226.907 42.1758 227.399 42.2305C227.909 42.2669 228.238 42.2943 228.383 42.3125C228.511 42.3307 228.602 42.3945 228.657 42.5039C228.73 42.6133 228.693 42.7865 228.548 43.0234C228.402 43.2422 228.192 43.3698 227.919 43.4062C227.663 43.4427 227.408 43.4609 227.153 43.4609C227.007 43.4609 226.734 43.4609 226.333 43.4609C225.95 43.4609 225.494 43.4792 224.965 43.5156C224.583 44.6458 224.145 45.7852 223.653 46.9336C223.179 48.0638 222.65 49.0846 222.067 49.9961C221.484 50.9258 220.846 51.6732 220.153 52.2383C219.46 52.8216 218.722 53.1133 217.938 53.1133C216.808 53.1133 215.851 52.8945 215.067 52.457C214.301 52.0378 213.682 51.5365 213.208 50.9531C212.715 50.388 212.36 49.8138 212.141 49.2305C211.923 48.6654 211.813 48.2279 211.813 47.918C211.813 47.3711 211.959 46.8151 212.251 46.25C212.542 45.6849 213.007 45.1562 213.645 44.6641C214.265 44.1536 215.076 43.707 216.079 43.3242C217.081 42.9414 218.284 42.6497 219.688 42.4492C220.271 42.3763 220.827 42.3216 221.356 42.2852C221.885 42.2305 222.386 42.1849 222.86 42.1484C223.225 40.7812 223.589 39.3867 223.954 37.9648C224.337 36.543 224.665 35.2305 224.938 34.0273C225.048 33.5352 225.157 33.0065 225.266 32.4414C225.376 31.8581 225.458 31.3112 225.512 30.8008C225.585 30.2904 225.622 29.862 225.622 29.5156C225.64 29.1693 225.603 28.9779 225.512 28.9414C225.458 28.9232 225.321 28.9961 225.102 29.1602C224.883 29.306 224.628 29.5247 224.337 29.8164C224.045 30.1081 223.753 30.4635 223.462 30.8828C223.188 31.2839 222.96 31.7214 222.778 32.1953C222.45 33.125 222.195 34.0365 222.012 34.9297C221.867 35.6953 221.775 36.5065 221.739 37.3633C221.702 38.2201 221.839 38.9948 222.149 39.6875C222.113 39.9427 222.058 40.1523 221.985 40.3164C221.93 40.4076 221.885 40.4896 221.848 40.5625C221.794 40.6172 221.73 40.681 221.657 40.7539C221.584 40.8086 221.493 40.8724 221.383 40.9453C221.292 41 221.174 41.0456 221.028 41.082ZM220.7 48.7109C220.9 48.2917 221.146 47.6445 221.438 46.7695C221.73 45.8945 222.04 44.8828 222.368 43.7344C221.475 43.8438 220.572 43.9987 219.661 44.1992C218.749 44.3815 217.92 44.6367 217.173 44.9648C216.443 45.2747 215.842 45.6576 215.368 46.1133C214.912 46.569 214.684 47.1068 214.684 47.7266C214.684 48.3828 214.812 48.957 215.067 49.4492C215.34 49.9414 215.659 50.3516 216.024 50.6797C216.407 51.0078 216.79 51.2539 217.173 51.418C217.574 51.6003 217.911 51.6914 218.184 51.6914C218.458 51.6914 218.713 51.582 218.95 51.3633C219.205 51.1628 219.433 50.9076 219.633 50.5977C219.852 50.306 220.044 49.987 220.208 49.6406C220.39 49.2943 220.554 48.9844 220.7 48.7109ZM237.359 48.6836C236.939 48.6836 236.575 48.6016 236.265 48.4375C235.973 48.2917 235.736 48.0911 235.554 47.8359C235.372 47.5807 235.253 47.2891 235.199 46.9609C235.144 46.6146 235.162 46.25 235.253 45.8672C235.308 45.612 235.399 45.2747 235.527 44.8555C235.654 44.418 235.782 43.9531 235.91 43.4609C236.055 42.9505 236.183 42.4492 236.292 41.957C236.42 41.4466 236.502 40.9909 236.538 40.5898C236.575 40.1706 236.557 39.8333 236.484 39.5781C236.411 39.3047 236.256 39.168 236.019 39.168C235.727 39.168 235.426 39.2682 235.117 39.4688C234.807 39.651 234.488 39.9062 234.16 40.2344C233.85 40.5625 233.531 40.9453 233.202 41.3828C232.893 41.8021 232.583 42.2396 232.273 42.6953C232.109 43.3151 231.972 43.862 231.863 44.3359C231.753 44.7917 231.653 45.2109 231.562 45.5938C231.489 45.9583 231.416 46.2865 231.343 46.5781C231.27 46.8516 231.206 47.1159 231.152 47.3711C231.097 47.5534 230.933 47.7357 230.66 47.918C230.386 48.082 230.094 48.2188 229.785 48.3281C229.475 48.4375 229.21 48.4922 228.992 48.4922C228.755 48.4922 228.654 48.4102 228.691 48.2461C228.709 48.1367 228.773 47.8906 228.882 47.5078C228.973 47.125 229.092 46.6784 229.238 46.168C229.365 45.6393 229.502 45.0833 229.648 44.5C229.794 43.9167 229.93 43.3607 230.058 42.832C230.149 42.4128 230.249 41.9479 230.359 41.4375C230.45 41 230.559 40.4896 230.687 39.9062C230.833 39.3229 230.997 38.6849 231.179 37.9922C231.307 37.8828 231.434 37.8008 231.562 37.7461C231.708 37.6732 231.854 37.6185 231.999 37.582C232.145 37.5273 232.3 37.4909 232.464 37.4727C232.61 37.4727 232.756 37.4818 232.902 37.5C233.029 37.5182 233.157 37.5547 233.285 37.6094C233.43 37.6458 233.558 37.7096 233.667 37.8008C233.613 37.9284 233.549 38.1107 233.476 38.3477C233.403 38.5664 233.33 38.8034 233.257 39.0586C233.184 39.3503 233.093 39.651 232.984 39.9609C233.221 39.6328 233.485 39.3047 233.777 38.9766C234.087 38.6302 234.415 38.3203 234.761 38.0469C235.126 37.7734 235.508 37.5547 235.91 37.3906C236.311 37.2083 236.721 37.1172 237.14 37.1172C237.486 37.1172 237.796 37.2174 238.07 37.418C238.343 37.6185 238.553 37.901 238.699 38.2656C238.863 38.612 238.954 39.0312 238.972 39.5234C239.008 40.0156 238.945 40.5534 238.781 41.1367L238.48 42.3398C238.389 42.7227 238.27 43.1784 238.124 43.707C237.997 44.2174 237.833 44.7826 237.632 45.4023C237.523 45.8034 237.477 46.1497 237.495 46.4414C237.532 46.7331 237.714 46.8789 238.042 46.8789C238.37 46.8789 238.781 46.6784 239.273 46.2773C239.783 45.8763 240.294 45.3932 240.804 44.8281C241.314 44.263 241.798 43.6888 242.253 43.1055C242.709 42.5039 243.055 42.0208 243.292 41.6562C243.456 41.4193 243.611 41.2643 243.757 41.1914C243.903 41.1185 244.012 41.1094 244.085 41.1641C244.176 41.2188 244.222 41.3464 244.222 41.5469C244.222 41.7292 244.149 41.9661 244.003 42.2578C243.876 42.513 243.675 42.8503 243.402 43.2695C243.147 43.6888 242.837 44.1354 242.472 44.6094C242.107 45.0833 241.716 45.5664 241.296 46.0586C240.877 46.5326 240.439 46.9701 239.984 47.3711C239.528 47.7539 239.072 48.0638 238.617 48.3008C238.179 48.556 237.76 48.6836 237.359 48.6836ZM251.147 42.7773C251.055 43.3424 250.964 43.8802 250.873 44.3906C250.8 44.901 250.755 45.3112 250.736 45.6211C250.718 46.0768 250.8 46.4049 250.982 46.6055C251.165 46.806 251.365 46.9062 251.584 46.9062C251.839 46.9062 252.149 46.7786 252.514 46.5234C252.897 46.2682 253.298 45.9492 253.717 45.5664C254.136 45.1836 254.555 44.7643 254.975 44.3086C255.394 43.8529 255.777 43.4245 256.123 43.0234C256.488 42.6042 256.788 42.2396 257.025 41.9297C257.281 41.6198 257.454 41.4193 257.545 41.3281C257.654 41.2188 257.764 41.1549 257.873 41.1367C258.001 41.1185 258.101 41.1367 258.174 41.1914C258.247 41.2461 258.283 41.3464 258.283 41.4922C258.283 41.638 258.21 41.8203 258.065 42.0391C257.846 42.3854 257.563 42.7956 257.217 43.2695C256.871 43.7253 256.488 44.1992 256.068 44.6914C255.649 45.1836 255.203 45.6667 254.729 46.1406C254.273 46.6146 253.808 47.0339 253.334 47.3984C252.878 47.763 252.432 48.0547 251.994 48.2734C251.575 48.5104 251.192 48.6289 250.846 48.6289C250.591 48.6289 250.344 48.556 250.107 48.4102C249.889 48.2643 249.688 48.0729 249.506 47.8359C249.324 47.599 249.178 47.3346 249.068 47.043C248.977 46.7513 248.941 46.4596 248.959 46.168C248.977 46.0404 249.005 45.8216 249.041 45.5117C248.275 46.3685 247.501 47.0521 246.717 47.5625C245.951 48.0547 245.213 48.3008 244.502 48.3008C244.247 48.3008 243.973 48.237 243.682 48.1094C243.39 47.9818 243.126 47.7721 242.889 47.4805C242.67 47.1888 242.488 46.806 242.342 46.332C242.196 45.8581 242.141 45.2839 242.178 44.6094C242.232 43.5521 242.442 42.5495 242.807 41.6016C243.171 40.6536 243.627 39.8333 244.174 39.1406C244.739 38.4297 245.368 37.8737 246.061 37.4727C246.772 37.0534 247.482 36.8438 248.193 36.8438C248.503 36.8438 248.786 36.9258 249.041 37.0898C249.296 37.2357 249.515 37.4362 249.697 37.6914C249.88 37.9284 250.025 38.1927 250.135 38.4844C250.262 38.776 250.354 39.0495 250.408 39.3047C250.536 38.776 250.654 38.2565 250.764 37.7461C250.873 37.2357 250.982 36.7526 251.092 36.2969C251.274 35.6224 251.466 34.8932 251.666 34.1094C251.848 33.4349 252.058 32.6602 252.295 31.7852C252.532 30.9102 252.796 29.9896 253.088 29.0234C253.27 28.8776 253.443 28.7682 253.607 28.6953C253.772 28.6224 253.927 28.5677 254.072 28.5312C254.236 28.4766 254.391 28.4492 254.537 28.4492C254.719 28.4492 254.884 28.4766 255.029 28.5312C255.175 28.5677 255.294 28.6862 255.385 28.8867C255.494 29.069 255.567 29.3516 255.604 29.7344C255.64 30.1172 255.64 30.6367 255.604 31.293C255.567 32.0951 255.421 32.9701 255.166 33.918C254.929 34.8659 254.61 35.8503 254.209 36.8711C253.808 37.8737 253.343 38.8854 252.815 39.9062C252.304 40.9089 251.748 41.8659 251.147 42.7773ZM249.533 43.1328C249.606 42.7865 249.67 42.4401 249.725 42.0938C249.798 41.7474 249.88 41.3919 249.971 41.0273C249.934 41.0456 249.898 41.0638 249.861 41.082C249.843 41.1003 249.816 41.1185 249.779 41.1367C249.579 41.2279 249.442 41.2279 249.369 41.1367C249.296 41.0273 249.26 40.8633 249.26 40.6445C249.26 40.5352 249.251 40.3438 249.232 40.0703C249.214 39.7786 249.16 39.487 249.068 39.1953C248.996 38.8854 248.877 38.6211 248.713 38.4023C248.549 38.1654 248.321 38.0469 248.029 38.0469C247.61 38.0469 247.182 38.2656 246.744 38.7031C246.307 39.1224 245.897 39.6419 245.514 40.2617C245.131 40.8633 244.812 41.5104 244.557 42.2031C244.302 42.8958 244.156 43.5156 244.119 44.0625C244.083 44.9375 244.192 45.5664 244.447 45.9492C244.703 46.332 245.049 46.5234 245.486 46.5234C245.815 46.5234 246.17 46.3958 246.553 46.1406C246.954 45.8854 247.337 45.5755 247.701 45.2109C248.084 44.8464 248.43 44.4727 248.74 44.0898C249.068 43.707 249.333 43.388 249.533 43.1328ZM262.282 31.8945C262.227 32.0951 262.118 32.2956 261.954 32.4961C261.808 32.6784 261.635 32.8333 261.434 32.9609C261.252 33.0703 261.061 33.1432 260.86 33.1797C260.66 33.2161 260.496 33.1797 260.368 33.0703C259.985 32.7786 259.785 32.4688 259.766 32.1406C259.748 31.7943 259.83 31.4753 260.012 31.1836C260.195 30.8737 260.423 30.6185 260.696 30.418C260.97 30.1992 261.207 30.0716 261.407 30.0352C261.608 29.9987 261.772 30.0443 261.899 30.1719C262.045 30.2812 262.154 30.4362 262.227 30.6367C262.3 30.819 262.337 31.0286 262.337 31.2656C262.355 31.5026 262.337 31.7122 262.282 31.8945ZM258.509 37.7188C258.6 37.6094 258.773 37.5182 259.028 37.4453C259.283 37.3724 259.548 37.3177 259.821 37.2812C260.095 37.2266 260.341 37.1992 260.559 37.1992C260.796 37.181 260.933 37.181 260.97 37.1992C260.988 37.2174 260.942 37.4089 260.833 37.7734C260.723 38.138 260.587 38.5664 260.423 39.0586C260.259 39.5508 260.085 40.0612 259.903 40.5898C259.721 41.1003 259.584 41.5195 259.493 41.8477C259.402 42.1758 259.292 42.5495 259.165 42.9688C259.037 43.3698 258.919 43.7708 258.809 44.1719C258.718 44.5547 258.654 44.9193 258.618 45.2656C258.582 45.612 258.609 45.8763 258.7 46.0586C258.791 46.2773 258.891 46.4323 259.001 46.5234C259.11 46.5964 259.229 46.6328 259.356 46.6328C259.721 46.6328 260.177 46.4323 260.723 46.0312C261.289 45.6302 261.854 45.1562 262.419 44.6094C263.002 44.0443 263.54 43.4792 264.032 42.9141C264.524 42.3307 264.889 41.8659 265.126 41.5195C265.272 41.3372 265.417 41.2188 265.563 41.1641C265.727 41.1094 265.855 41.1185 265.946 41.1914C266.055 41.2643 266.11 41.3828 266.11 41.5469C266.128 41.7109 266.074 41.9023 265.946 42.1211C265.654 42.6315 265.226 43.2422 264.661 43.9531C264.096 44.6458 263.494 45.3203 262.856 45.9766C262.218 46.6146 261.589 47.1615 260.97 47.6172C260.368 48.0729 259.876 48.3099 259.493 48.3281C259.183 48.3464 258.873 48.2917 258.563 48.1641C258.272 48.0547 257.998 47.8997 257.743 47.6992C257.506 47.4805 257.305 47.2344 257.141 46.9609C256.977 46.6693 256.886 46.3685 256.868 46.0586C256.813 45.6029 256.813 44.9831 256.868 44.1992C256.923 43.3971 257.023 42.5859 257.169 41.7656C257.315 40.9271 257.497 40.1341 257.716 39.3867C257.953 38.6393 258.217 38.0833 258.509 37.7188ZM278.257 42.5586C278.002 42.9232 277.674 43.3789 277.273 43.9258C276.872 44.4544 276.453 44.9922 276.015 45.5391C275.596 46.0677 275.177 46.5599 274.757 47.0156C274.356 47.4531 274.019 47.763 273.746 47.9453C273.563 48.0547 273.354 48.1458 273.117 48.2188C272.88 48.2917 272.634 48.3372 272.378 48.3555C272.141 48.3737 271.914 48.3555 271.695 48.3008C271.476 48.2643 271.285 48.1914 271.121 48.082C270.957 47.9544 270.82 47.7721 270.71 47.5352C270.619 47.3346 270.528 47.0703 270.437 46.7422C270.364 46.4141 270.337 46.0039 270.355 45.5117C269.917 46.2409 269.434 46.806 268.906 47.207C268.377 47.5898 267.876 47.8724 267.402 48.0547C266.855 48.2552 266.308 48.3737 265.761 48.4102C265.506 48.4102 265.233 48.319 264.941 48.1367C264.649 47.9727 264.403 47.7083 264.203 47.3438C264.002 46.9609 263.875 46.4779 263.82 45.8945C263.765 45.293 263.838 44.582 264.039 43.7617C264.294 42.6497 264.695 41.638 265.242 40.7266C265.807 39.8151 266.417 39.0404 267.074 38.4023C267.73 37.7461 268.377 37.2539 269.015 36.9258C269.653 36.5977 270.182 36.4518 270.601 36.4883C271.093 36.5794 271.494 36.7253 271.804 36.9258C272.059 37.1081 272.223 37.3815 272.296 37.7461C272.388 38.0924 272.242 38.5573 271.859 39.1406C272.114 39.0859 272.324 39.0495 272.488 39.0312C272.67 39.013 272.807 39.0039 272.898 39.0039C273.007 39.0039 273.08 39.013 273.117 39.0312C273.135 39.0677 273.144 39.1497 273.144 39.2773C273.144 39.3867 273.117 39.5964 273.062 39.9062C273.007 40.2161 272.925 40.6354 272.816 41.1641C272.707 41.6927 272.561 42.3763 272.378 43.2148C272.342 43.3789 272.306 43.5339 272.269 43.6797C272.251 43.8073 272.223 43.944 272.187 44.0898C272.169 44.2174 272.141 44.3724 272.105 44.5547C272.069 44.737 272.023 44.9648 271.968 45.2383C271.95 45.4023 271.941 45.5846 271.941 45.7852C271.959 45.9674 271.996 46.1406 272.05 46.3047C272.105 46.4688 272.187 46.6055 272.296 46.7148C272.424 46.806 272.597 46.8516 272.816 46.8516C272.998 46.8516 273.235 46.7422 273.527 46.5234C273.819 46.2865 274.128 45.9948 274.457 45.6484C274.785 45.2839 275.122 44.8919 275.468 44.4727C275.833 44.0352 276.17 43.6159 276.48 43.2148C276.79 42.8138 277.063 42.4583 277.3 42.1484C277.556 41.8385 277.738 41.6107 277.847 41.4648C277.993 41.3008 278.139 41.2096 278.285 41.1914C278.431 41.1549 278.54 41.1914 278.613 41.3008C278.686 41.4102 278.695 41.5742 278.64 41.793C278.604 42.0117 278.476 42.2669 278.257 42.5586ZM270.246 43.7617C270.337 43.3971 270.446 42.9688 270.574 42.4766C270.701 41.9844 270.811 41.5104 270.902 41.0547C270.993 40.599 271.057 40.2253 271.093 39.9336C271.148 39.6237 271.139 39.4779 271.066 39.4961C270.975 39.5143 270.875 39.5417 270.765 39.5781C270.674 39.6146 270.556 39.6419 270.41 39.6602C270.264 39.6784 270.118 39.7057 269.972 39.7422C270.118 39.4505 270.2 39.2135 270.218 39.0312C270.255 38.8307 270.264 38.6758 270.246 38.5664C270.227 38.4388 270.191 38.3385 270.136 38.2656C269.936 38.1016 269.58 38.2383 269.07 38.6758C268.578 39.0951 268.003 39.8789 267.347 41.0273C267.074 41.5013 266.855 42.0117 266.691 42.5586C266.527 43.0872 266.408 43.5885 266.335 44.0625C266.281 44.5365 266.272 44.9557 266.308 45.3203C266.345 45.6667 266.417 45.8945 266.527 46.0039C266.727 46.2044 266.955 46.3047 267.21 46.3047C267.466 46.2865 267.721 46.2135 267.976 46.0859C268.25 45.9401 268.514 45.7578 268.769 45.5391C269.042 45.3203 269.279 45.0924 269.48 44.8555C269.699 44.6185 269.872 44.3997 270 44.1992C270.145 43.9987 270.227 43.8529 270.246 43.7617ZM284.826 48.6836C284.407 48.6836 284.043 48.6016 283.733 48.4375C283.441 48.2917 283.204 48.0911 283.022 47.8359C282.839 47.5807 282.721 47.2891 282.666 46.9609C282.612 46.6146 282.63 46.25 282.721 45.8672C282.776 45.612 282.867 45.2747 282.994 44.8555C283.122 44.418 283.25 43.9531 283.377 43.4609C283.523 42.9505 283.651 42.4492 283.76 41.957C283.888 41.4466 283.97 40.9909 284.006 40.5898C284.043 40.1706 284.024 39.8333 283.951 39.5781C283.878 39.3047 283.724 39.168 283.487 39.168C283.195 39.168 282.894 39.2682 282.584 39.4688C282.274 39.651 281.955 39.9062 281.627 40.2344C281.317 40.5625 280.998 40.9453 280.67 41.3828C280.36 41.8021 280.05 42.2396 279.74 42.6953C279.576 43.3151 279.44 43.862 279.33 44.3359C279.221 44.7917 279.121 45.2109 279.03 45.5938C278.957 45.9583 278.884 46.2865 278.811 46.5781C278.738 46.8516 278.674 47.1159 278.619 47.3711C278.565 47.5534 278.401 47.7357 278.127 47.918C277.854 48.082 277.562 48.2188 277.252 48.3281C276.942 48.4375 276.678 48.4922 276.459 48.4922C276.222 48.4922 276.122 48.4102 276.158 48.2461C276.177 48.1367 276.24 47.8906 276.35 47.5078C276.441 47.125 276.559 46.6784 276.705 46.168C276.833 45.6393 276.97 45.0833 277.115 44.5C277.261 43.9167 277.398 43.3607 277.526 42.832C277.617 42.4128 277.717 41.9479 277.826 41.4375C277.918 41 278.027 40.4896 278.155 39.9062C278.3 39.3229 278.464 38.6849 278.647 37.9922C278.774 37.8828 278.902 37.8008 279.03 37.7461C279.175 37.6732 279.321 37.6185 279.467 37.582C279.613 37.5273 279.768 37.4909 279.932 37.4727C280.078 37.4727 280.224 37.4818 280.369 37.5C280.497 37.5182 280.625 37.5547 280.752 37.6094C280.898 37.6458 281.026 37.7096 281.135 37.8008C281.08 37.9284 281.017 38.1107 280.944 38.3477C280.871 38.5664 280.798 38.8034 280.725 39.0586C280.652 39.3503 280.561 39.651 280.451 39.9609C280.688 39.6328 280.953 39.3047 281.244 38.9766C281.554 38.6302 281.882 38.3203 282.229 38.0469C282.593 37.7734 282.976 37.5547 283.377 37.3906C283.778 37.2083 284.188 37.1172 284.608 37.1172C284.954 37.1172 285.264 37.2174 285.537 37.418C285.811 37.6185 286.02 37.901 286.166 38.2656C286.33 38.612 286.421 39.0312 286.44 39.5234C286.476 40.0156 286.412 40.5534 286.248 41.1367L285.947 42.3398C285.856 42.7227 285.738 43.1784 285.592 43.707C285.464 44.2174 285.3 44.7826 285.1 45.4023C284.99 45.8034 284.945 46.1497 284.963 46.4414C285 46.7331 285.182 46.8789 285.51 46.8789C285.838 46.8789 286.248 46.6784 286.74 46.2773C287.251 45.8763 287.761 45.3932 288.272 44.8281C288.782 44.263 289.265 43.6888 289.721 43.1055C290.177 42.5039 290.523 42.0208 290.76 41.6562C290.924 41.4193 291.079 41.2643 291.225 41.1914C291.371 41.1185 291.48 41.1094 291.553 41.1641C291.644 41.2188 291.69 41.3464 291.69 41.5469C291.69 41.7292 291.617 41.9661 291.471 42.2578C291.343 42.513 291.143 42.8503 290.869 43.2695C290.614 43.6888 290.304 44.1354 289.94 44.6094C289.575 45.0833 289.183 45.5664 288.764 46.0586C288.345 46.5326 287.907 46.9701 287.451 47.3711C286.996 47.7539 286.54 48.0638 286.084 48.3008C285.647 48.556 285.227 48.6836 284.826 48.6836ZM296.652 51.9102C296.725 51.8555 296.843 51.7643 297.007 51.6367C297.153 51.5091 297.336 51.2721 297.554 50.9258C297.755 50.5794 297.983 50.0781 298.238 49.4219C298.493 48.7656 298.757 47.8724 299.031 46.7422C299.177 46.1406 299.368 45.375 299.605 44.4453C299.842 43.5156 300.097 42.5221 300.371 41.4648C300.662 40.4076 300.954 39.3229 301.246 38.2109C301.537 37.0807 301.82 36.0143 302.093 35.0117C302.367 33.9909 302.613 33.0703 302.832 32.25C303.05 31.4297 303.224 30.7917 303.351 30.3359C303.005 30.5547 302.668 30.8008 302.34 31.0742C302.048 31.3112 301.738 31.5846 301.41 31.8945C301.082 32.1862 300.763 32.4961 300.453 32.8242C300.216 32.6237 300.034 32.4049 299.906 32.168C299.833 32.0586 299.769 31.9401 299.715 31.8125C299.605 31.5391 299.55 31.2565 299.55 30.9648C299.55 30.6732 299.778 30.3724 300.234 30.0625C300.471 29.8984 300.827 29.6615 301.3 29.3516C301.793 29.0417 302.394 28.7409 303.105 28.4492C303.816 28.1393 304.646 27.875 305.593 27.6562C306.541 27.4375 307.59 27.3281 308.738 27.3281C309.886 27.3281 310.807 27.556 311.5 28.0117C312.211 28.4674 312.748 29.0234 313.113 29.6797C313.496 30.3359 313.742 31.0286 313.851 31.7578C313.961 32.487 313.988 33.125 313.933 33.6719C313.824 34.6927 313.496 35.7591 312.949 36.8711C312.402 37.9831 311.646 39.013 310.679 39.9609C309.713 40.8906 308.537 41.6836 307.152 42.3398C305.767 42.9961 304.181 43.3698 302.394 43.4609C302.248 44.1536 302.103 44.8646 301.957 45.5938C301.811 46.3229 301.656 47.043 301.492 47.7539C301.328 48.4466 301.155 49.0938 300.972 49.6953C300.808 50.3151 300.635 50.8438 300.453 51.2812C300.271 51.7552 300.034 52.1289 299.742 52.4023C299.45 52.694 298.985 52.8398 298.347 52.8398C298.019 52.8398 297.718 52.7578 297.445 52.5938C297.153 52.4297 296.889 52.2018 296.652 51.9102ZM303.132 39.4414C303.078 39.7331 303.005 40.1159 302.914 40.5898C302.841 41.0456 302.75 41.5651 302.64 42.1484C303.132 42.0755 303.679 41.9479 304.281 41.7656C304.882 41.5651 305.484 41.3008 306.086 40.9727C306.687 40.6445 307.271 40.2526 307.836 39.7969C308.419 39.3229 308.948 38.7852 309.422 38.1836C309.896 37.5638 310.287 36.8711 310.597 36.1055C310.925 35.3216 311.135 34.4557 311.226 33.5078C311.317 32.5964 311.263 31.8398 311.062 31.2383C310.88 30.6185 310.606 30.1263 310.242 29.7617C309.877 29.3789 309.458 29.1146 308.984 28.9688C308.51 28.8047 308.036 28.7227 307.562 28.7227C307.106 28.7227 306.66 28.7865 306.222 28.9141C305.785 29.0417 305.347 29.2057 304.91 29.4062C304.965 29.4245 305.028 29.4701 305.101 29.543C305.211 29.6523 305.293 29.8073 305.347 30.0078C304.91 31.776 304.545 33.2526 304.254 34.4375C303.98 35.6224 303.761 36.5885 303.597 37.3359C303.397 38.2109 303.242 38.9128 303.132 39.4414ZM313.393 47.5625C314.195 44.1901 314.833 41.4831 315.307 39.4414C315.799 37.3997 316.173 35.8411 316.428 34.7656C316.72 33.4896 316.92 32.6055 317.03 32.1133C317.084 31.7669 317.13 31.4297 317.166 31.1016C317.203 30.8099 317.221 30.5091 317.221 30.1992C317.221 29.8893 317.194 29.6068 317.139 29.3516C317.285 29.2604 317.44 29.1875 317.604 29.1328C317.786 29.0781 317.959 29.0326 318.123 28.9961C318.324 28.9414 318.524 28.8958 318.725 28.8594C318.926 28.8229 319.108 28.8047 319.272 28.8047C319.418 28.8047 319.554 28.8229 319.682 28.8594C319.81 28.8776 319.892 28.9323 319.928 29.0234C320.037 29.1146 320.083 29.2969 320.065 29.5703C320.065 29.8438 320.047 30.1263 320.01 30.418C319.937 30.7643 319.855 31.138 319.764 31.5391C319.545 32.3229 319.245 33.4531 318.862 34.9297C318.534 36.1875 318.087 37.901 317.522 40.0703C316.975 42.2396 316.282 44.974 315.444 48.2734C315.353 48.3646 315.243 48.4284 315.116 48.4648C314.988 48.5013 314.87 48.5195 314.76 48.5195C314.633 48.5195 314.496 48.5104 314.35 48.4922C314.222 48.4557 314.095 48.401 313.967 48.3281C313.858 48.2552 313.748 48.1549 313.639 48.0273C313.53 47.918 313.448 47.763 313.393 47.5625ZM334.235 42.5586C333.98 42.9232 333.652 43.3789 333.251 43.9258C332.85 44.4544 332.431 44.9922 331.993 45.5391C331.574 46.0677 331.155 46.5599 330.735 47.0156C330.334 47.4531 329.997 47.763 329.724 47.9453C329.541 48.0547 329.332 48.1458 329.095 48.2188C328.858 48.2917 328.612 48.3372 328.357 48.3555C328.12 48.3737 327.892 48.3555 327.673 48.3008C327.454 48.2643 327.263 48.1914 327.099 48.082C326.935 47.9544 326.798 47.7721 326.689 47.5352C326.597 47.3346 326.506 47.0703 326.415 46.7422C326.342 46.4141 326.315 46.0039 326.333 45.5117C325.896 46.2409 325.413 46.806 324.884 47.207C324.355 47.5898 323.854 47.8724 323.38 48.0547C322.833 48.2552 322.286 48.3737 321.739 48.4102C321.484 48.4102 321.211 48.319 320.919 48.1367C320.627 47.9727 320.381 47.7083 320.181 47.3438C319.98 46.9609 319.853 46.4779 319.798 45.8945C319.743 45.293 319.816 44.582 320.017 43.7617C320.272 42.6497 320.673 41.638 321.22 40.7266C321.785 39.8151 322.396 39.0404 323.052 38.4023C323.708 37.7461 324.355 37.2539 324.993 36.9258C325.631 36.5977 326.16 36.4518 326.579 36.4883C327.071 36.5794 327.472 36.7253 327.782 36.9258C328.038 37.1081 328.202 37.3815 328.275 37.7461C328.366 38.0924 328.22 38.5573 327.837 39.1406C328.092 39.0859 328.302 39.0495 328.466 39.0312C328.648 39.013 328.785 39.0039 328.876 39.0039C328.985 39.0039 329.058 39.013 329.095 39.0312C329.113 39.0677 329.122 39.1497 329.122 39.2773C329.122 39.3867 329.095 39.5964 329.04 39.9062C328.985 40.2161 328.903 40.6354 328.794 41.1641C328.685 41.6927 328.539 42.3763 328.357 43.2148C328.32 43.3789 328.284 43.5339 328.247 43.6797C328.229 43.8073 328.202 43.944 328.165 44.0898C328.147 44.2174 328.12 44.3724 328.083 44.5547C328.047 44.737 328.001 44.9648 327.946 45.2383C327.928 45.4023 327.919 45.5846 327.919 45.7852C327.937 45.9674 327.974 46.1406 328.028 46.3047C328.083 46.4688 328.165 46.6055 328.275 46.7148C328.402 46.806 328.575 46.8516 328.794 46.8516C328.976 46.8516 329.213 46.7422 329.505 46.5234C329.797 46.2865 330.107 45.9948 330.435 45.6484C330.763 45.2839 331.1 44.8919 331.446 44.4727C331.811 44.0352 332.148 43.6159 332.458 43.2148C332.768 42.8138 333.041 42.4583 333.278 42.1484C333.534 41.8385 333.716 41.6107 333.825 41.4648C333.971 41.3008 334.117 41.2096 334.263 41.1914C334.409 41.1549 334.518 41.1914 334.591 41.3008C334.664 41.4102 334.673 41.5742 334.618 41.793C334.582 42.0117 334.454 42.2669 334.235 42.5586ZM326.224 43.7617C326.315 43.3971 326.424 42.9688 326.552 42.4766C326.679 41.9844 326.789 41.5104 326.88 41.0547C326.971 40.599 327.035 40.2253 327.071 39.9336C327.126 39.6237 327.117 39.4779 327.044 39.4961C326.953 39.5143 326.853 39.5417 326.743 39.5781C326.652 39.6146 326.534 39.6419 326.388 39.6602C326.242 39.6784 326.096 39.7057 325.95 39.7422C326.096 39.4505 326.178 39.2135 326.196 39.0312C326.233 38.8307 326.242 38.6758 326.224 38.5664C326.206 38.4388 326.169 38.3385 326.114 38.2656C325.914 38.1016 325.558 38.2383 325.048 38.6758C324.556 39.0951 323.982 39.8789 323.325 41.0273C323.052 41.5013 322.833 42.0117 322.669 42.5586C322.505 43.0872 322.387 43.5885 322.314 44.0625C322.259 44.5365 322.25 44.9557 322.286 45.3203C322.323 45.6667 322.396 45.8945 322.505 46.0039C322.706 46.2044 322.933 46.3047 323.189 46.3047C323.444 46.2865 323.699 46.2135 323.954 46.0859C324.228 45.9401 324.492 45.7578 324.747 45.5391C325.021 45.3203 325.258 45.0924 325.458 44.8555C325.677 44.6185 325.85 44.3997 325.978 44.1992C326.123 43.9987 326.206 43.8529 326.224 43.7617ZM342.773 41.082C342.846 40.9727 342.937 40.9089 343.047 40.8906C343.174 40.8542 343.275 40.8633 343.348 40.918C343.42 40.9727 343.457 41.0638 343.457 41.1914C343.475 41.319 343.43 41.4922 343.32 41.7109C342.956 42.4036 342.473 43.151 341.871 43.9531C341.288 44.7552 340.668 45.5117 340.012 46.2227C339.355 46.9154 338.717 47.4896 338.098 47.9453C337.478 48.401 336.958 48.6289 336.539 48.6289C335.937 48.6289 335.436 48.5104 335.035 48.2734C334.634 48.0365 334.315 47.7448 334.078 47.3984C333.859 47.0521 333.704 46.6784 333.613 46.2773C333.522 45.8581 333.495 45.4753 333.531 45.1289C333.549 44.8372 333.613 44.3177 333.723 43.5703C333.832 42.8047 333.978 41.9297 334.16 40.9453C334.342 39.9427 334.543 38.8763 334.762 37.7461C334.999 36.5977 335.245 35.4948 335.5 34.4375C335.19 34.474 334.88 34.5104 334.57 34.5469C334.26 34.5833 333.978 34.6016 333.723 34.6016C333.139 34.6016 332.592 34.5378 332.082 34.4102C331.553 34.2643 331.161 34.1276 330.906 34C330.76 33.9271 330.696 33.8268 330.715 33.6992C330.733 33.5534 330.788 33.4167 330.879 33.2891C330.97 33.1432 331.088 33.0247 331.234 32.9336C331.362 32.8242 331.48 32.7695 331.59 32.7695C331.936 32.806 332.31 32.8424 332.711 32.8789C333.112 32.8971 333.549 32.8971 334.023 32.8789C334.37 32.8607 334.698 32.8333 335.008 32.7969C335.336 32.7604 335.655 32.7148 335.965 32.6602C336.202 31.7852 336.43 31.0286 336.648 30.3906C336.885 29.7344 337.095 29.2786 337.277 29.0234C337.332 28.9323 337.45 28.8594 337.633 28.8047C337.833 28.7318 338.043 28.6862 338.262 28.668C338.48 28.6315 338.69 28.6315 338.89 28.668C339.091 28.6862 339.237 28.75 339.328 28.8594C339.419 29.0052 339.456 29.3789 339.437 29.9805C339.419 30.582 339.319 31.3477 339.137 32.2773C339.902 32.2773 340.577 32.3229 341.16 32.4141C341.762 32.487 342.272 32.5781 342.691 32.6875C343.111 32.7786 343.448 32.8789 343.703 32.9883C343.958 33.0794 344.15 33.1432 344.277 33.1797C344.405 33.2161 344.469 33.3073 344.469 33.4531C344.487 33.599 344.459 33.7539 344.387 33.918C344.332 34.0638 344.232 34.1914 344.086 34.3008C343.94 34.4102 343.776 34.4466 343.594 34.4102C343.411 34.3919 343.202 34.3555 342.965 34.3008C342.746 34.2461 342.473 34.2005 342.144 34.1641C341.834 34.1276 341.461 34.0911 341.023 34.0547C340.586 34.0182 340.075 34 339.492 34C339.383 34 339.255 34.0091 339.109 34.0273C338.982 34.0273 338.845 34.0273 338.699 34.0273C338.626 34.319 338.553 34.6107 338.48 34.9023C338.426 35.1758 338.344 35.4674 338.234 35.7773C337.997 36.5065 337.724 37.2995 337.414 38.1562C337.14 38.9036 336.812 39.7604 336.43 40.7266C336.047 41.6927 335.618 42.7227 335.144 43.8164C335.035 44.6003 335.044 45.2018 335.172 45.6211C335.318 46.0221 335.491 46.3138 335.691 46.4961C335.928 46.6966 336.22 46.806 336.566 46.8242C336.84 46.8607 337.168 46.7695 337.551 46.5508C337.952 46.3138 338.362 46.0039 338.781 45.6211C339.2 45.2383 339.62 44.819 340.039 44.3633C340.476 43.9076 340.877 43.4609 341.242 43.0234C341.607 42.5859 341.926 42.194 342.199 41.8477C342.473 41.4831 342.664 41.2279 342.773 41.082ZM353.799 42.3125C353.253 43.1146 352.633 43.8984 351.94 44.6641C351.247 45.4115 350.509 46.0859 349.725 46.6875C348.96 47.2708 348.167 47.7448 347.346 48.1094C346.544 48.474 345.76 48.6562 344.995 48.6562C344.594 48.6562 344.156 48.556 343.682 48.3555C343.226 48.1732 342.807 47.8815 342.424 47.4805C342.042 47.0794 341.732 46.5599 341.495 45.9219C341.276 45.2839 341.212 44.5091 341.303 43.5977C341.376 42.8503 341.604 42.0664 341.987 41.2461C342.388 40.4076 342.871 39.6419 343.436 38.9492C344.019 38.2565 344.667 37.6823 345.378 37.2266C346.107 36.7708 346.836 36.543 347.565 36.543C348.258 36.543 348.759 36.7161 349.069 37.0625C349.379 37.4089 349.516 37.8372 349.479 38.3477C349.424 38.9128 349.26 39.4323 348.987 39.9062C348.732 40.3802 348.422 40.8086 348.057 41.1914C347.693 41.5742 347.301 41.9206 346.881 42.2305C346.48 42.5404 346.098 42.8229 345.733 43.0781C345.332 43.3516 344.949 43.6159 344.585 43.8711C344.22 44.1081 343.901 44.3268 343.628 44.5273C343.646 44.9831 343.728 45.3659 343.874 45.6758C344.019 45.9857 344.202 46.2409 344.42 46.4414C344.639 46.6237 344.885 46.7604 345.159 46.8516C345.45 46.9245 345.742 46.9609 346.034 46.9609C346.654 46.9609 347.301 46.7695 347.975 46.3867C348.65 45.9857 349.306 45.5117 349.944 44.9648C350.6 44.3997 351.202 43.8164 351.749 43.2148C352.314 42.6133 352.779 42.0938 353.143 41.6562C353.271 41.5104 353.398 41.4284 353.526 41.4102C353.672 41.3737 353.781 41.3919 353.854 41.4648C353.945 41.5195 353.991 41.6289 353.991 41.793C353.991 41.9388 353.927 42.112 353.799 42.3125ZM346.799 38.1016C346.581 38.1016 346.316 38.2109 346.006 38.4297C345.715 38.6484 345.423 38.9674 345.131 39.3867C344.84 39.7878 344.566 40.2891 344.311 40.8906C344.056 41.474 343.864 42.1484 343.737 42.9141C343.956 42.75 344.193 42.5859 344.448 42.4219C344.703 42.2396 344.958 42.0482 345.213 41.8477C345.997 41.2461 346.544 40.7174 346.854 40.2617C347.164 39.806 347.337 39.4141 347.374 39.0859C347.41 38.7396 347.374 38.4935 347.264 38.3477C347.155 38.1836 347 38.1016 346.799 38.1016Z" fill="#F85A11"/>
<g filter="url(#filter0_i_47_5)">
<ellipse cx="40" cy="40.5" rx="40" ry="40.5" fill="#F85A11"/>
</g>
<g filter="url(#filter1_d_47_5)">
<ellipse cx="23.0588" cy="23.3468" rx="10.8235" ry="11.9118" fill="white"/>
</g>
<g filter="url(#filter2_dd_47_5)">
<path d="M69.6471 23.3468C69.6471 29.9255 64.8012 35.2586 58.8235 35.2586C52.8459 35.2586 48 29.9255 48 23.3468C48 16.7681 52.8459 11.4351 58.8235 11.4351C64.8012 11.4351 69.6471 16.7681 69.6471 23.3468Z" fill="white"/>
</g>
<g filter="url(#filter3_i_47_5)">
<path d="M51.7647 46.2176C51.7647 52.27 47.3402 57.1764 41.8824 57.1764C36.4245 57.1764 32 52.27 32 46.2176C32 40.1652 36.4245 35.2588 41.8824 35.2588C47.3402 35.2588 51.7647 40.1652 51.7647 46.2176Z" fill="#D6761D"/>
<path d="M51.7647 46.2176C51.7647 52.27 47.3402 57.1764 41.8824 57.1764C36.4245 57.1764 32 52.27 32 46.2176C32 40.1652 36.4245 35.2588 41.8824 35.2588C47.3402 35.2588 51.7647 40.1652 51.7647 46.2176Z" stroke="#CC740C"/>
<path d="M45.6834 46.2181C45.6834 48.3796 43.9816 50.1319 41.8824 50.1319C39.7833 50.1319 38.0815 48.3796 38.0815 46.2181C38.0815 44.0565 39.7833 42.3042 41.8824 42.3042C43.9816 42.3042 45.6834 44.0565 45.6834 46.2181Z" fill="#EA661B"/>
<path d="M45.6834 46.2181C45.6834 48.3796 43.9816 50.1319 41.8824 50.1319C39.7833 50.1319 38.0815 48.3796 38.0815 46.2181C38.0815 44.0565 39.7833 42.3042 41.8824 42.3042C43.9816 42.3042 45.6834 44.0565 45.6834 46.2181Z" stroke="#CC740C"/>
</g>
<path d="M65.1471 59.0824C60.1915 66.2131 46.0103 76.0421 25.6206 65.5594C20.4903 67.648 14.8099 74.2424 11.8562 78.4828C3.43383 70.3531 13.9662 65.7273 22.6201 63.894C20.8432 62.8354 19.0228 61.6232 17.1608 60.2434C19.3854 61.2623 22.4885 62.3715 26.1761 63.274C36.687 65.8466 51.9467 66.7405 65.1471 59.0824Z" fill="#820707"/>
<ellipse cx="23.4785" cy="29.0206" rx="4.655" ry="6.15" fill="#321203"/>
<ellipse cx="59.2431" cy="29.0206" rx="4.655" ry="6.15" fill="#321203"/>
<path d="M342 63.0049C342.662 68.9606 356.258 69.8904 356.258 63.653C356.258 61.7635 355.545 64.4666 354.998 65.5613C354.214 67.1297 352.503 67.6981 351.073 68.3337C347.039 70.1269 345.678 67.1123 342.648 65.5973" stroke="#FEEFE7" stroke-linecap="round"/>
<path d="M345.5 57H345" stroke="#FEEFE7" stroke-width="3" stroke-linecap="round"/>
<path d="M353 57H354" stroke="#FEEFE7" stroke-width="3" stroke-linecap="round"/>
<defs>
<filter id="filter0_i_47_5" x="0" y="0" width="80" height="82" filterUnits="userSpaceOnUse" color-interpolation-filters="sRGB">
<feFlood flood-opacity="0" result="BackgroundImageFix"/>
<feBlend mode="normal" in="SourceGraphic" in2="BackgroundImageFix" result="shape"/>
<feColorMatrix in="SourceAlpha" type="matrix" values="0 0 0 0 0 0 0 0 0 0 0 0 0 0 0 0 0 0 127 0" result="hardAlpha"/>
<feOffset dy="1"/>
<feGaussianBlur stdDeviation="2"/>
<feComposite in2="hardAlpha" operator="arithmetic" k2="-1" k3="1"/>
<feColorMatrix type="matrix" values="0 0 0 0 0.0470588 0 0 0 0 0.0470588 0 0 0 0 0.0509804 0 0 0 0.05 0"/>
<feBlend mode="normal" in2="shape" result="effect1_innerShadow_47_5"/>
</filter>
<filter id="filter1_d_47_5" x="8.23523" y="11.4351" width="29.6471" height="31.8235" filterUnits="userSpaceOnUse" color-interpolation-filters="sRGB">
<feFlood flood-opacity="0" result="BackgroundImageFix"/>
<feColorMatrix in="SourceAlpha" type="matrix" values="0 0 0 0 0 0 0 0 0 0 0 0 0 0 0 0 0 0 127 0" result="hardAlpha"/>
<feOffset dy="4"/>
<feGaussianBlur stdDeviation="2"/>
<feComposite in2="hardAlpha" operator="out"/>
<feColorMatrix type="matrix" values="0 0 0 0 0 0 0 0 0 0 0 0 0 0 0 0 0 0 0.25 0"/>
<feBlend mode="normal" in2="BackgroundImageFix" result="effect1_dropShadow_47_5"/>
<feBlend mode="normal" in="SourceGraphic" in2="effect1_dropShadow_47_5" result="shape"/>
</filter>
<filter id="filter2_dd_47_5" x="30" y="1.43506" width="57.6471" height="59.8235" filterUnits="userSpaceOnUse" color-interpolation-filters="sRGB">
<feFlood flood-opacity="0" result="BackgroundImageFix"/>
<feColorMatrix in="SourceAlpha" type="matrix" values="0 0 0 0 0 0 0 0 0 0 0 0 0 0 0 0 0 0 127 0" result="hardAlpha"/>
<feOffset dy="4"/>
<feGaussianBlur stdDeviation="2"/>
<feColorMatrix type="matrix" values="0 0 0 0 0 0 0 0 0 0 0 0 0 0 0 0 0 0 0.3 0"/>
<feBlend mode="normal" in2="BackgroundImageFix" result="effect1_dropShadow_47_5"/>
<feColorMatrix in="SourceAlpha" type="matrix" values="0 0 0 0 0 0 0 0 0 0 0 0 0 0 0 0 0 0 127 0" result="hardAlpha"/>
<feMorphology radius="6" operator="dilate" in="SourceAlpha" result="effect2_dropShadow_47_5"/>
<feOffset dy="8"/>
<feGaussianBlur stdDeviation="6"/>
<feColorMatrix type="matrix" values="0 0 0 0 0 0 0 0 0 0 0 0 0 0 0 0 0 0 0.15 0"/>
<feBlend mode="normal" in2="effect1_dropShadow_47_5" result="effect2_dropShadow_47_5"/>
<feBlend mode="normal" in="SourceGraphic" in2="effect2_dropShadow_47_5" result="shape"/>
</filter>
<filter id="filter3_i_47_5" x="32" y="35.2588" width="19.7646" height="25.9177" filterUnits="userSpaceOnUse" color-interpolation-filters="sRGB">
<feFlood flood-opacity="0" result="BackgroundImageFix"/>
<feBlend mode="normal" in="SourceGraphic" in2="BackgroundImageFix" result="shape"/>
<feColorMatrix in="SourceAlpha" type="matrix" values="0 0 0 0 0 0 0 0 0 0 0 0 0 0 0 0 0 0 127 0" result="hardAlpha"/>
<feOffset dy="4"/>
<feGaussianBlur stdDeviation="2"/>
<feComposite in2="hardAlpha" operator="arithmetic" k2="-1" k3="1"/>
<feColorMatrix type="matrix" values="0 0 0 0 0 0 0 0 0 0 0 0 0 0 0 0 0 0 0.25 0"/>
<feBlend mode="normal" in2="shape" result="effect1_innerShadow_47_5"/>
</filter>
</defs>
</svg>
