<svg width="342" height="81" viewBox="0 0 342 81" fill="none" xmlns="http://www.w3.org/2000/svg">
<path d="M88.8373 30.8828C88.6186 30.9557 88.4545 30.9648 88.3452 30.9102C88.2358 30.8555 88.1537 30.7643 88.0991 30.6367C88.0444 30.5091 88.017 30.3724 88.017 30.2266C88.017 30.0625 88.0261 29.9076 88.0444 29.7617C88.0626 29.6341 88.0899 29.4883 88.1264 29.3242C88.1811 29.1602 88.2449 29.0052 88.3178 28.8594C88.3907 28.7135 88.4728 28.5951 88.5639 28.5039C88.6733 28.3945 88.81 28.3216 88.9741 28.2852C89.8126 28.1393 90.6238 28.0299 91.4077 27.957C92.2097 27.8841 92.9298 27.8294 93.5678 27.793C94.297 27.7383 94.9988 27.7109 95.6733 27.7109C95.8191 27.7109 95.9649 27.7201 96.1108 27.7383C96.2566 27.7383 96.4024 27.7383 96.5483 27.7383C96.7123 27.7018 96.8399 27.6927 96.9311 27.7109C97.0405 27.7109 97.1316 27.7201 97.2045 27.7383C97.7332 27.7565 98.28 27.7839 98.8452 27.8203C99.3191 27.8568 99.8478 27.9023 100.431 27.957C101.033 27.9935 101.625 28.0482 102.208 28.1211C102.263 28.2669 102.272 28.4492 102.236 28.668C102.218 28.7773 102.199 28.8867 102.181 28.9961C102.163 29.1055 102.117 29.2057 102.044 29.2969C101.99 29.388 101.917 29.4792 101.826 29.5703C101.753 29.6432 101.662 29.707 101.552 29.7617C100.932 29.7435 100.331 29.7344 99.7475 29.7344C99.1824 29.7161 98.6811 29.707 98.2436 29.707H96.767C96.53 30.5456 96.2384 31.5846 95.892 32.8242C95.5457 34.0456 95.1902 35.3398 94.8256 36.707C94.4793 38.056 94.142 39.4049 93.8139 40.7539C93.504 42.0846 93.2579 43.2878 93.0756 44.3633C92.8933 45.4023 92.711 46.4232 92.5287 47.4258C92.4558 47.8451 92.3738 48.2826 92.2827 48.7383C92.2097 49.194 92.1368 49.6406 92.0639 50.0781C92.0092 50.5156 91.9545 50.9349 91.8998 51.3359C91.8452 51.737 91.7996 52.1016 91.7631 52.4297C91.4715 52.5755 91.198 52.6849 90.9428 52.7578C90.6876 52.849 90.4597 52.9128 90.2592 52.9492C90.0222 53.0039 89.8035 53.0312 89.603 53.0312C89.1655 53.0312 88.892 52.9766 88.7827 52.8672C88.6915 52.776 88.6824 52.5846 88.7553 52.293C88.81 52.0378 88.9741 51.3451 89.2475 50.2148C89.3569 49.7409 89.4936 49.1393 89.6577 48.4102C89.8399 47.6992 90.0496 46.8333 90.2866 45.8125C90.5235 44.7734 90.8061 43.5703 91.1342 42.2031C91.4623 40.8177 91.836 39.2318 92.2553 37.4453L94.0873 29.8438C93.5405 29.9167 93.0027 29.9987 92.4741 30.0898C91.9454 30.181 91.4441 30.2812 90.9702 30.3906C90.5144 30.4818 90.0952 30.5729 89.7123 30.6641C89.3478 30.7552 89.0561 30.8281 88.8373 30.8828ZM113.426 41.9844C113.554 41.8385 113.681 41.7656 113.809 41.7656C113.955 41.7474 114.064 41.7839 114.137 41.875C114.228 41.9479 114.264 42.0664 114.246 42.2305C114.246 42.3945 114.173 42.5768 114.027 42.7773C113.681 43.2513 113.28 43.7435 112.824 44.2539C112.369 44.7461 111.876 45.2292 111.348 45.7031C110.837 46.1771 110.318 46.6237 109.789 47.043C109.261 47.4622 108.75 47.8086 108.258 48.082C107.711 48.3919 107.246 48.5469 106.863 48.5469C106.499 48.5469 106.134 48.3099 105.77 47.8359C105.442 47.4167 105.277 46.9701 105.277 46.4961C105.296 46.0039 105.405 45.3932 105.606 44.6641C105.733 44.2083 105.906 43.6706 106.125 43.0508C106.362 42.4128 106.544 41.8021 106.672 41.2188C106.818 40.6354 106.863 40.1432 106.809 39.7422C106.754 39.3229 106.517 39.1133 106.098 39.1133C105.806 39.1133 105.487 39.2135 105.141 39.4141C104.813 39.6146 104.475 39.8789 104.129 40.207C103.801 40.5169 103.482 40.8724 103.172 41.2734C102.862 41.6745 102.589 42.0664 102.352 42.4492C102.206 43.1602 102.06 43.862 101.914 44.5547C101.787 45.138 101.65 45.776 101.504 46.4688C101.376 47.1432 101.249 47.7448 101.121 48.2734C101.012 48.3646 100.893 48.4284 100.766 48.4648C100.638 48.5013 100.52 48.5195 100.41 48.5195C100.283 48.5195 100.155 48.5104 100.027 48.4922C99.8817 48.4557 99.7449 48.401 99.6173 48.3281C99.508 48.2552 99.3986 48.1549 99.2892 48.0273C99.1798 47.918 99.0978 47.763 99.0431 47.5625C99.8634 44.1901 100.511 41.4831 100.985 39.4414C101.458 37.3997 101.823 35.8411 102.078 34.7656C102.37 33.4896 102.57 32.6055 102.68 32.1133C102.735 31.7669 102.78 31.4297 102.817 31.1016C102.853 30.8099 102.871 30.5091 102.871 30.1992C102.871 29.8893 102.844 29.6068 102.789 29.3516C102.935 29.2604 103.09 29.1875 103.254 29.1328C103.436 29.0781 103.61 29.0326 103.774 28.9961C103.974 28.9414 104.175 28.8958 104.375 28.8594C104.576 28.8229 104.758 28.8047 104.922 28.8047C105.068 28.8047 105.205 28.8229 105.332 28.8594C105.46 28.8776 105.542 28.9323 105.578 29.0234C105.688 29.1146 105.733 29.2969 105.715 29.5703C105.715 29.8438 105.697 30.1263 105.66 30.418C105.587 30.7643 105.505 31.138 105.414 31.5391C105.031 33.0156 104.603 34.4557 104.129 35.8594C103.655 37.2448 103.218 38.7305 102.817 40.3164C103.054 39.9518 103.336 39.5781 103.664 39.1953C103.992 38.8125 104.348 38.4661 104.731 38.1562C105.132 37.8281 105.551 37.5638 105.988 37.3633C106.426 37.1445 106.891 37.0352 107.383 37.0352C107.638 37.0352 107.875 37.0807 108.094 37.1719C108.331 37.2448 108.531 37.3815 108.695 37.582C108.878 37.7643 109.014 38.0195 109.106 38.3477C109.197 38.6576 109.233 39.0495 109.215 39.5234C109.215 39.8151 109.179 40.1159 109.106 40.4258C109.051 40.7357 108.969 41.082 108.86 41.4648C108.75 41.8294 108.604 42.2396 108.422 42.6953C108.258 43.151 108.057 43.6797 107.82 44.2812C107.656 44.7005 107.529 45.056 107.438 45.3477C107.347 45.6393 107.365 45.8945 107.492 46.1133C107.656 46.4049 107.975 46.4779 108.449 46.332C108.942 46.168 109.671 45.694 110.637 44.9102C110.856 44.7279 111.102 44.5 111.375 44.2266C111.649 43.9531 111.913 43.6797 112.168 43.4062C112.423 43.1146 112.66 42.8411 112.879 42.5859C113.098 42.3307 113.28 42.1302 113.426 41.9844ZM125.026 42.3125C124.479 43.1146 123.86 43.8984 123.167 44.6641C122.474 45.4115 121.736 46.0859 120.952 46.6875C120.186 47.2708 119.393 47.7448 118.573 48.1094C117.771 48.474 116.987 48.6562 116.222 48.6562C115.821 48.6562 115.383 48.556 114.909 48.3555C114.453 48.1732 114.034 47.8815 113.651 47.4805C113.268 47.0794 112.959 46.5599 112.722 45.9219C112.503 45.2839 112.439 44.5091 112.53 43.5977C112.603 42.8503 112.831 42.0664 113.214 41.2461C113.615 40.4076 114.098 39.6419 114.663 38.9492C115.246 38.2565 115.893 37.6823 116.604 37.2266C117.334 36.7708 118.063 36.543 118.792 36.543C119.485 36.543 119.986 36.7161 120.296 37.0625C120.606 37.4089 120.742 37.8372 120.706 38.3477C120.651 38.9128 120.487 39.4323 120.214 39.9062C119.959 40.3802 119.649 40.8086 119.284 41.1914C118.919 41.5742 118.528 41.9206 118.108 42.2305C117.707 42.5404 117.324 42.8229 116.96 43.0781C116.559 43.3516 116.176 43.6159 115.811 43.8711C115.447 44.1081 115.128 44.3268 114.854 44.5273C114.873 44.9831 114.955 45.3659 115.1 45.6758C115.246 45.9857 115.429 46.2409 115.647 46.4414C115.866 46.6237 116.112 46.7604 116.386 46.8516C116.677 46.9245 116.969 46.9609 117.261 46.9609C117.88 46.9609 118.528 46.7695 119.202 46.3867C119.877 45.9857 120.533 45.5117 121.171 44.9648C121.827 44.3997 122.429 43.8164 122.975 43.2148C123.541 42.6133 124.005 42.0938 124.37 41.6562C124.498 41.5104 124.625 41.4284 124.753 41.4102C124.899 41.3737 125.008 41.3919 125.081 41.4648C125.172 41.5195 125.218 41.6289 125.218 41.793C125.218 41.9388 125.154 42.112 125.026 42.3125ZM118.026 38.1016C117.807 38.1016 117.543 38.2109 117.233 38.4297C116.942 38.6484 116.65 38.9674 116.358 39.3867C116.067 39.7878 115.793 40.2891 115.538 40.8906C115.283 41.474 115.091 42.1484 114.964 42.9141C115.182 42.75 115.419 42.5859 115.675 42.4219C115.93 42.2396 116.185 42.0482 116.44 41.8477C117.224 41.2461 117.771 40.7174 118.081 40.2617C118.391 39.806 118.564 39.4141 118.6 39.0859C118.637 38.7396 118.6 38.4935 118.491 38.3477C118.382 38.1836 118.227 38.1016 118.026 38.1016ZM141.5 35.4492C141.482 35.3945 141.537 35.2578 141.664 35.0391C141.792 34.8021 141.929 34.5195 142.075 34.1914C142.239 33.8451 142.394 33.4622 142.539 33.043C142.703 32.6055 142.813 32.1589 142.867 31.7031C142.94 31.2474 142.94 30.7917 142.867 30.3359C142.795 29.8802 142.603 29.4427 142.293 29.0234C142.111 28.8047 141.838 28.6862 141.473 28.668C141.127 28.6315 140.726 28.6862 140.27 28.832C139.832 28.9596 139.367 29.1693 138.875 29.4609C138.401 29.7344 137.964 30.0625 137.563 30.4453C137.162 30.8099 136.815 31.2201 136.524 31.6758C136.25 32.1315 136.095 32.5964 136.059 33.0703C136.022 33.4531 136.032 33.8086 136.086 34.1367C136.159 34.4648 136.25 34.7656 136.36 35.0391C136.469 35.3125 136.588 35.5677 136.715 35.8047C136.843 36.0417 136.961 36.2513 137.071 36.4336C137.216 36.6888 137.444 36.9714 137.754 37.2812C138.064 37.5911 138.401 37.9466 138.766 38.3477C139.131 38.7305 139.495 39.168 139.86 39.6602C140.224 40.1523 140.543 40.7083 140.817 41.3281C141.09 41.9479 141.282 42.6406 141.391 43.4062C141.5 44.1719 141.491 45.0195 141.364 45.9492C141.163 47.2982 140.844 48.4193 140.407 49.3125C139.969 50.224 139.486 50.9531 138.957 51.5C138.447 52.0469 137.927 52.4388 137.399 52.6758C136.87 52.931 136.433 53.0951 136.086 53.168C135.813 53.2227 135.485 53.2682 135.102 53.3047C134.737 53.3594 134.345 53.3503 133.926 53.2773C133.525 53.2227 133.115 53.0951 132.696 52.8945C132.276 52.7122 131.903 52.4206 131.575 52.0195C131.192 51.5638 130.891 51.0716 130.672 50.543C130.472 50.0872 130.326 49.5586 130.235 48.957C130.125 48.3737 130.171 47.763 130.371 47.125C130.517 46.9609 130.672 46.8151 130.836 46.6875C131 46.5599 131.164 46.4505 131.328 46.3594C131.511 46.25 131.702 46.1497 131.903 46.0586C132.14 45.9857 132.377 45.9219 132.614 45.8672C132.814 45.8307 133.024 45.8125 133.242 45.8125C133.479 45.7943 133.698 45.8216 133.899 45.8945C133.625 46.2044 133.434 46.4961 133.325 46.7695C133.252 46.9154 133.197 47.043 133.16 47.1523C133.088 47.4987 133.06 47.9089 133.078 48.3828C133.115 48.875 133.215 49.3398 133.379 49.7773C133.562 50.2331 133.817 50.6159 134.145 50.9258C134.473 51.2539 134.91 51.4271 135.457 51.4453C136.788 51.4818 137.918 50.4427 138.848 48.3281C139.158 47.6719 139.313 47.0065 139.313 46.332C139.331 45.6576 139.249 45.0104 139.067 44.3906C138.903 43.7708 138.675 43.1966 138.383 42.668C138.11 42.1211 137.827 41.6562 137.535 41.2734C137.244 40.8906 136.888 40.4805 136.469 40.043C136.068 39.5872 135.667 39.0951 135.266 38.5664C134.865 38.0378 134.5 37.4635 134.172 36.8438C133.862 36.224 133.653 35.5495 133.543 34.8203C133.397 33.7995 133.489 32.8698 133.817 32.0312C134.163 31.1745 134.619 30.4271 135.184 29.7891C135.767 29.151 136.396 28.6315 137.071 28.2305C137.763 27.8294 138.374 27.5742 138.903 27.4648C141.838 26.8815 143.761 27.3737 144.672 28.9414C145.055 29.543 145.265 30.181 145.301 30.8555C145.338 31.5299 145.292 32.1589 145.164 32.7422C145.055 33.3073 144.909 33.7904 144.727 34.1914C144.563 34.5742 144.453 34.7839 144.399 34.8203C144.289 34.9297 144.116 35.0482 143.879 35.1758C143.642 35.3034 143.259 35.4219 142.731 35.5312C142.585 35.5677 142.439 35.5859 142.293 35.5859C142.166 35.5859 142.029 35.5768 141.883 35.5586C141.737 35.5404 141.61 35.5039 141.5 35.4492ZM153.128 43.6523C152.946 44.3451 152.7 44.9922 152.39 45.5938C152.08 46.1953 151.706 46.7148 151.269 47.1523C150.849 47.5898 150.366 47.9271 149.819 48.1641C149.291 48.4193 148.707 48.5469 148.069 48.5469C147.322 48.5469 146.73 48.3828 146.292 48.0547C145.873 47.7448 145.554 47.3529 145.335 46.8789C145.134 46.4049 145.016 45.8854 144.98 45.3203C144.925 44.7552 144.897 44.2266 144.897 43.7344C144.897 43.388 144.943 43.0052 145.034 42.5859C145.107 42.1667 145.217 41.7383 145.362 41.3008C145.508 40.8633 145.69 40.4258 145.909 39.9883C146.146 39.5508 146.42 39.1497 146.73 38.7852C146.839 38.4753 147.003 38.2018 147.222 37.9648C147.459 37.7279 147.723 37.5365 148.015 37.3906C148.325 37.2266 148.653 37.1081 148.999 37.0352C149.345 36.944 149.683 36.8984 150.011 36.8984C150.065 36.8984 150.111 36.9076 150.147 36.9258C150.202 36.944 150.257 36.9622 150.312 36.9805C150.549 36.9987 150.84 37.0898 151.187 37.2539C151.551 37.418 151.897 37.6641 152.226 37.9922C152.572 38.3203 152.864 38.7396 153.101 39.25C153.338 39.7422 153.456 40.3438 153.456 41.0547C153.456 41.2005 153.447 41.3828 153.429 41.6016C153.411 41.8021 153.392 41.9753 153.374 42.1211C153.793 41.957 154.231 41.7565 154.687 41.5195C155.142 41.2826 155.58 41.0365 155.999 40.7812C156.437 40.5078 156.838 40.2344 157.202 39.9609C157.567 39.6875 157.858 39.4414 158.077 39.2227C158.259 39.0586 158.414 38.9674 158.542 38.9492C158.67 38.931 158.761 38.9674 158.815 39.0586C158.87 39.1497 158.879 39.2773 158.843 39.4414C158.806 39.6055 158.706 39.7878 158.542 39.9883C158.451 40.0977 158.214 40.3164 157.831 40.6445C157.467 40.9727 157.029 41.3281 156.519 41.7109C156.008 42.0938 155.452 42.4674 154.851 42.832C154.249 43.1966 153.675 43.4701 153.128 43.6523ZM148.507 39.4961C148.452 39.6602 148.425 39.8333 148.425 40.0156C148.425 40.3073 148.443 40.6172 148.48 40.9453C148.516 41.2552 148.607 41.5378 148.753 41.793C148.899 42.0482 149.127 42.2669 149.437 42.4492C149.765 42.6133 150.211 42.6953 150.776 42.6953C150.868 42.6953 150.959 42.6953 151.05 42.6953C151.141 42.6771 151.232 42.6589 151.323 42.6406C151.378 42.4036 151.424 42.194 151.46 42.0117C151.515 41.8112 151.542 41.638 151.542 41.4922C151.578 41.1458 151.578 40.7904 151.542 40.4258C151.506 40.0612 151.433 39.7331 151.323 39.4414C151.232 39.1315 151.105 38.8854 150.94 38.7031C150.795 38.5026 150.612 38.4023 150.394 38.4023C150.047 38.4023 149.71 38.5026 149.382 38.7031C149.072 38.8854 148.78 39.1497 148.507 39.4961ZM146.757 44.3086C146.757 44.6367 146.775 44.9648 146.812 45.293C146.848 45.6029 146.921 45.8854 147.03 46.1406C147.14 46.3776 147.286 46.5781 147.468 46.7422C147.65 46.888 147.887 46.9609 148.179 46.9609C148.507 46.9609 148.808 46.888 149.081 46.7422C149.355 46.5781 149.601 46.3776 149.819 46.1406C150.038 45.8854 150.23 45.6029 150.394 45.293C150.576 44.9648 150.731 44.6276 150.858 44.2812C150.731 44.2995 150.603 44.3177 150.476 44.3359C150.366 44.3359 150.239 44.3359 150.093 44.3359C149.4 44.3359 148.799 44.1354 148.288 43.7344C147.796 43.3151 147.413 42.7865 147.14 42.1484C147.03 42.5312 146.939 42.9049 146.866 43.2695C146.793 43.6341 146.757 43.9805 146.757 44.3086ZM159.724 48.4375C159.032 48.4375 158.467 48.3281 158.029 48.1094C157.592 47.8906 157.245 47.6263 156.99 47.3164C156.753 46.9883 156.58 46.6419 156.47 46.2773C156.379 45.8945 156.334 45.5482 156.334 45.2383C156.334 44.6914 156.379 44.1172 156.47 43.5156C156.562 42.8958 156.671 42.3307 156.799 41.8203C156.926 41.2917 157.036 40.8451 157.127 40.4805C157.236 40.1159 157.309 39.888 157.345 39.7969C157.51 39.2682 157.719 38.8125 157.974 38.4297C158.248 38.0286 158.622 37.7552 159.095 37.6094C159.278 37.5729 159.469 37.5365 159.67 37.5C159.834 37.4818 159.998 37.4727 160.162 37.4727C160.344 37.4727 160.508 37.5 160.654 37.5547C160.162 38.8125 159.77 39.8607 159.478 40.6992C159.205 41.5378 158.995 42.2214 158.849 42.75C158.685 43.3516 158.585 43.8346 158.549 44.1992C158.457 45.0195 158.53 45.6393 158.767 46.0586C159.004 46.4779 159.487 46.6875 160.217 46.6875C160.691 46.6875 161.146 46.5143 161.584 46.168C162.021 45.8034 162.422 45.3385 162.787 44.7734C162.732 44.4818 162.705 44.181 162.705 43.8711C162.705 43.2878 162.75 42.7227 162.842 42.1758C162.951 41.6107 163.069 41.0911 163.197 40.6172C163.343 40.125 163.489 39.6875 163.635 39.3047C163.799 38.9219 163.935 38.6211 164.045 38.4023C164.245 37.9648 164.427 37.7005 164.592 37.6094C164.756 37.5 165.02 37.4362 165.385 37.418C165.53 37.3997 165.649 37.3997 165.74 37.418C165.849 37.418 165.941 37.4271 166.013 37.4453C166.232 37.5 166.342 37.6094 166.342 37.7734C166.342 38.0651 166.323 38.5026 166.287 39.0859C166.25 39.6693 166.141 40.2708 165.959 40.8906C165.831 41.401 165.704 41.8385 165.576 42.2031C165.467 42.5495 165.357 42.8503 165.248 43.1055C165.138 43.3424 165.029 43.543 164.92 43.707C164.81 43.8529 164.71 43.9896 164.619 44.1172C164.655 44.6641 164.701 45.1016 164.756 45.4297C164.81 45.7578 164.874 46.013 164.947 46.1953C165.038 46.3594 165.138 46.4779 165.248 46.5508C165.375 46.6055 165.512 46.6328 165.658 46.6328C165.913 46.6328 166.214 46.5143 166.56 46.2773C166.907 46.0221 167.262 45.7122 167.627 45.3477C168.01 44.9648 168.383 44.5547 168.748 44.1172C169.131 43.6615 169.477 43.2331 169.787 42.832C170.097 42.431 170.361 42.0846 170.58 41.793C170.799 41.4831 170.935 41.2917 170.99 41.2188C171.118 41.0547 171.236 40.9544 171.345 40.918C171.473 40.8815 171.573 40.8997 171.646 40.9727C171.719 41.0273 171.756 41.1276 171.756 41.2734C171.774 41.401 171.737 41.5469 171.646 41.7109C171.282 42.4036 170.826 43.1419 170.279 43.9258C169.75 44.6914 169.176 45.4023 168.556 46.0586C167.955 46.7148 167.344 47.2617 166.724 47.6992C166.105 48.1367 165.521 48.3555 164.974 48.3555C164.482 48.3555 164.09 48.1914 163.799 47.8633C163.525 47.5169 163.288 47.0247 163.088 46.3867C162.668 47.043 162.176 47.5534 161.611 47.918C161.046 48.2643 160.417 48.4375 159.724 48.4375ZM179.829 41.082C179.902 40.9727 179.993 40.9089 180.102 40.8906C180.23 40.8542 180.33 40.8633 180.403 40.918C180.476 40.9727 180.512 41.0638 180.512 41.1914C180.53 41.319 180.485 41.4922 180.375 41.7109C180.011 42.4036 179.528 43.151 178.926 43.9531C178.343 44.7552 177.723 45.5117 177.067 46.2227C176.411 46.9154 175.773 47.4896 175.153 47.9453C174.533 48.401 174.013 48.6289 173.594 48.6289C172.993 48.6289 172.491 48.5104 172.09 48.2734C171.689 48.0365 171.37 47.7448 171.133 47.3984C170.915 47.0521 170.76 46.6784 170.668 46.2773C170.577 45.8581 170.55 45.4753 170.586 45.1289C170.605 44.8372 170.668 44.3177 170.778 43.5703C170.887 42.8047 171.033 41.9297 171.215 40.9453C171.398 39.9427 171.598 38.8763 171.817 37.7461C172.054 36.5977 172.3 35.4948 172.555 34.4375C172.245 34.474 171.935 34.5104 171.625 34.5469C171.316 34.5833 171.033 34.6016 170.778 34.6016C170.194 34.6016 169.648 34.5378 169.137 34.4102C168.609 34.2643 168.217 34.1276 167.961 34C167.816 33.9271 167.752 33.8268 167.77 33.6992C167.788 33.5534 167.843 33.4167 167.934 33.2891C168.025 33.1432 168.144 33.0247 168.29 32.9336C168.417 32.8242 168.536 32.7695 168.645 32.7695C168.991 32.806 169.365 32.8424 169.766 32.8789C170.167 32.8971 170.605 32.8971 171.079 32.8789C171.425 32.8607 171.753 32.8333 172.063 32.7969C172.391 32.7604 172.71 32.7148 173.02 32.6602C173.257 31.7852 173.485 31.0286 173.704 30.3906C173.941 29.7344 174.15 29.2786 174.332 29.0234C174.387 28.9323 174.506 28.8594 174.688 28.8047C174.888 28.7318 175.098 28.6862 175.317 28.668C175.536 28.6315 175.745 28.6315 175.946 28.668C176.146 28.6862 176.292 28.75 176.383 28.8594C176.474 29.0052 176.511 29.3789 176.493 29.9805C176.474 30.582 176.374 31.3477 176.192 32.2773C176.957 32.2773 177.632 32.3229 178.215 32.4141C178.817 32.487 179.327 32.5781 179.747 32.6875C180.166 32.7786 180.503 32.8789 180.758 32.9883C181.013 33.0794 181.205 33.1432 181.332 33.1797C181.46 33.2161 181.524 33.3073 181.524 33.4531C181.542 33.599 181.515 33.7539 181.442 33.918C181.387 34.0638 181.287 34.1914 181.141 34.3008C180.995 34.4102 180.831 34.4466 180.649 34.4102C180.467 34.3919 180.257 34.3555 180.02 34.3008C179.801 34.2461 179.528 34.2005 179.2 34.1641C178.89 34.1276 178.516 34.0911 178.079 34.0547C177.641 34.0182 177.131 34 176.547 34C176.438 34 176.31 34.0091 176.165 34.0273C176.037 34.0273 175.9 34.0273 175.754 34.0273C175.681 34.319 175.609 34.6107 175.536 34.9023C175.481 35.1758 175.399 35.4674 175.29 35.7773C175.053 36.5065 174.779 37.2995 174.469 38.1562C174.196 38.9036 173.868 39.7604 173.485 40.7266C173.102 41.6927 172.674 42.7227 172.2 43.8164C172.09 44.6003 172.099 45.2018 172.227 45.6211C172.373 46.0221 172.546 46.3138 172.747 46.4961C172.984 46.6966 173.275 46.806 173.622 46.8242C173.895 46.8607 174.223 46.7695 174.606 46.5508C175.007 46.3138 175.417 46.0039 175.836 45.6211C176.256 45.2383 176.675 44.819 177.094 44.3633C177.532 43.9076 177.933 43.4609 178.297 43.0234C178.662 42.5859 178.981 42.194 179.254 41.8477C179.528 41.4831 179.719 41.2279 179.829 41.082ZM192.577 41.9844C192.705 41.8385 192.833 41.7656 192.96 41.7656C193.106 41.7474 193.215 41.7839 193.288 41.875C193.379 41.9479 193.416 42.0664 193.398 42.2305C193.398 42.3945 193.325 42.5768 193.179 42.7773C192.833 43.2513 192.432 43.7435 191.976 44.2539C191.52 44.7461 191.028 45.2292 190.499 45.7031C189.989 46.1771 189.469 46.6237 188.941 47.043C188.412 47.4622 187.902 47.8086 187.409 48.082C186.862 48.3919 186.398 48.5469 186.015 48.5469C185.65 48.5469 185.286 48.3099 184.921 47.8359C184.593 47.4167 184.429 46.9701 184.429 46.4961C184.447 46.0039 184.557 45.3932 184.757 44.6641C184.885 44.2083 185.058 43.6706 185.277 43.0508C185.514 42.4128 185.696 41.8021 185.823 41.2188C185.969 40.6354 186.015 40.1432 185.96 39.7422C185.905 39.3229 185.668 39.1133 185.249 39.1133C184.958 39.1133 184.639 39.2135 184.292 39.4141C183.964 39.6146 183.627 39.8789 183.28 40.207C182.952 40.5169 182.633 40.8724 182.323 41.2734C182.014 41.6745 181.74 42.0664 181.503 42.4492C181.357 43.1602 181.211 43.862 181.066 44.5547C180.938 45.138 180.801 45.776 180.655 46.4688C180.528 47.1432 180.4 47.7448 180.273 48.2734C180.163 48.3646 180.045 48.4284 179.917 48.4648C179.79 48.5013 179.671 48.5195 179.562 48.5195C179.434 48.5195 179.307 48.5104 179.179 48.4922C179.033 48.4557 178.896 48.401 178.769 48.3281C178.659 48.2552 178.55 48.1549 178.441 48.0273C178.331 47.918 178.249 47.763 178.195 47.5625C179.015 44.1901 179.662 41.4831 180.136 39.4414C180.61 37.3997 180.974 35.8411 181.23 34.7656C181.521 33.4896 181.722 32.6055 181.831 32.1133C181.886 31.7669 181.932 31.4297 181.968 31.1016C182.004 30.8099 182.023 30.5091 182.023 30.1992C182.023 29.8893 181.995 29.6068 181.941 29.3516C182.086 29.2604 182.241 29.1875 182.405 29.1328C182.588 29.0781 182.761 29.0326 182.925 28.9961C183.126 28.9414 183.326 28.8958 183.527 28.8594C183.727 28.8229 183.909 28.8047 184.073 28.8047C184.219 28.8047 184.356 28.8229 184.484 28.8594C184.611 28.8776 184.693 28.9323 184.73 29.0234C184.839 29.1146 184.885 29.2969 184.866 29.5703C184.866 29.8438 184.848 30.1263 184.812 30.418C184.739 30.7643 184.657 31.138 184.566 31.5391C184.183 33.0156 183.754 34.4557 183.28 35.8594C182.807 37.2448 182.369 38.7305 181.968 40.3164C182.205 39.9518 182.487 39.5781 182.816 39.1953C183.144 38.8125 183.499 38.4661 183.882 38.1562C184.283 37.8281 184.702 37.5638 185.14 37.3633C185.577 37.1445 186.042 37.0352 186.534 37.0352C186.79 37.0352 187.027 37.0807 187.245 37.1719C187.482 37.2448 187.683 37.3815 187.847 37.582C188.029 37.7643 188.166 38.0195 188.257 38.3477C188.348 38.6576 188.385 39.0495 188.366 39.5234C188.366 39.8151 188.33 40.1159 188.257 40.4258C188.202 40.7357 188.12 41.082 188.011 41.4648C187.902 41.8294 187.756 42.2396 187.573 42.6953C187.409 43.151 187.209 43.6797 186.972 44.2812C186.808 44.7005 186.68 45.056 186.589 45.3477C186.498 45.6393 186.516 45.8945 186.644 46.1133C186.808 46.4049 187.127 46.4779 187.601 46.332C188.093 46.168 188.822 45.694 189.788 44.9102C190.007 44.7279 190.253 44.5 190.527 44.2266C190.8 43.9531 191.064 43.6797 191.32 43.4062C191.575 43.1146 191.812 42.8411 192.03 42.5859C192.249 42.3307 192.432 42.1302 192.577 41.9844ZM207.028 41.082C206.682 40.7174 206.399 40.2708 206.18 39.7422C205.98 39.1953 205.825 38.6576 205.715 38.1289C205.588 37.5273 205.497 36.8893 205.442 36.2148C205.351 34.9023 205.497 33.7083 205.88 32.6328C206.262 31.5573 206.782 30.6367 207.438 29.8711C208.094 29.1055 208.824 28.513 209.626 28.0938C210.446 27.6745 211.239 27.4648 212.005 27.4648C212.351 27.4648 212.624 27.5469 212.825 27.7109C213.044 27.875 213.208 28.0755 213.317 28.3125C213.426 28.5495 213.49 28.7956 213.508 29.0508C213.545 29.306 213.563 29.5156 213.563 29.6797C213.563 30.263 213.545 30.8372 213.508 31.4023C213.49 31.9674 213.445 32.569 213.372 33.207C213.317 33.8451 213.226 34.5286 213.098 35.2578C212.971 35.987 212.807 36.7982 212.606 37.6914C212.497 38.1836 212.342 38.8125 212.141 39.5781C211.941 40.3438 211.704 41.1914 211.43 42.1211C212.251 42.1393 212.907 42.1758 213.399 42.2305C213.909 42.2669 214.238 42.2943 214.383 42.3125C214.511 42.3307 214.602 42.3945 214.657 42.5039C214.73 42.6133 214.693 42.7865 214.548 43.0234C214.402 43.2422 214.192 43.3698 213.919 43.4062C213.663 43.4427 213.408 43.4609 213.153 43.4609C213.007 43.4609 212.734 43.4609 212.333 43.4609C211.95 43.4609 211.494 43.4792 210.965 43.5156C210.583 44.6458 210.145 45.7852 209.653 46.9336C209.179 48.0638 208.65 49.0846 208.067 49.9961C207.484 50.9258 206.846 51.6732 206.153 52.2383C205.46 52.8216 204.722 53.1133 203.938 53.1133C202.808 53.1133 201.851 52.8945 201.067 52.457C200.301 52.0378 199.682 51.5365 199.208 50.9531C198.715 50.388 198.36 49.8138 198.141 49.2305C197.923 48.6654 197.813 48.2279 197.813 47.918C197.813 47.3711 197.959 46.8151 198.251 46.25C198.542 45.6849 199.007 45.1562 199.645 44.6641C200.265 44.1536 201.076 43.707 202.079 43.3242C203.081 42.9414 204.284 42.6497 205.688 42.4492C206.271 42.3763 206.827 42.3216 207.356 42.2852C207.885 42.2305 208.386 42.1849 208.86 42.1484C209.225 40.7812 209.589 39.3867 209.954 37.9648C210.337 36.543 210.665 35.2305 210.938 34.0273C211.048 33.5352 211.157 33.0065 211.266 32.4414C211.376 31.8581 211.458 31.3112 211.512 30.8008C211.585 30.2904 211.622 29.862 211.622 29.5156C211.64 29.1693 211.603 28.9779 211.512 28.9414C211.458 28.9232 211.321 28.9961 211.102 29.1602C210.883 29.306 210.628 29.5247 210.337 29.8164C210.045 30.1081 209.753 30.4635 209.462 30.8828C209.188 31.2839 208.96 31.7214 208.778 32.1953C208.45 33.125 208.195 34.0365 208.012 34.9297C207.867 35.6953 207.775 36.5065 207.739 37.3633C207.702 38.2201 207.839 38.9948 208.149 39.6875C208.113 39.9427 208.058 40.1523 207.985 40.3164C207.93 40.4076 207.885 40.4896 207.848 40.5625C207.794 40.6172 207.73 40.681 207.657 40.7539C207.584 40.8086 207.493 40.8724 207.383 40.9453C207.292 41 207.174 41.0456 207.028 41.082ZM206.7 48.7109C206.9 48.2917 207.146 47.6445 207.438 46.7695C207.73 45.8945 208.04 44.8828 208.368 43.7344C207.475 43.8438 206.572 43.9987 205.661 44.1992C204.749 44.3815 203.92 44.6367 203.173 44.9648C202.443 45.2747 201.842 45.6576 201.368 46.1133C200.912 46.569 200.684 47.1068 200.684 47.7266C200.684 48.3828 200.812 48.957 201.067 49.4492C201.34 49.9414 201.659 50.3516 202.024 50.6797C202.407 51.0078 202.79 51.2539 203.173 51.418C203.574 51.6003 203.911 51.6914 204.184 51.6914C204.458 51.6914 204.713 51.582 204.95 51.3633C205.205 51.1628 205.433 50.9076 205.633 50.5977C205.852 50.306 206.044 49.987 206.208 49.6406C206.39 49.2943 206.554 48.9844 206.7 48.7109ZM223.359 48.6836C222.939 48.6836 222.575 48.6016 222.265 48.4375C221.973 48.2917 221.736 48.0911 221.554 47.8359C221.372 47.5807 221.253 47.2891 221.199 46.9609C221.144 46.6146 221.162 46.25 221.253 45.8672C221.308 45.612 221.399 45.2747 221.527 44.8555C221.654 44.418 221.782 43.9531 221.91 43.4609C222.055 42.9505 222.183 42.4492 222.292 41.957C222.42 41.4466 222.502 40.9909 222.538 40.5898C222.575 40.1706 222.557 39.8333 222.484 39.5781C222.411 39.3047 222.256 39.168 222.019 39.168C221.727 39.168 221.426 39.2682 221.117 39.4688C220.807 39.651 220.488 39.9062 220.16 40.2344C219.85 40.5625 219.531 40.9453 219.202 41.3828C218.893 41.8021 218.583 42.2396 218.273 42.6953C218.109 43.3151 217.972 43.862 217.863 44.3359C217.753 44.7917 217.653 45.2109 217.562 45.5938C217.489 45.9583 217.416 46.2865 217.343 46.5781C217.27 46.8516 217.206 47.1159 217.152 47.3711C217.097 47.5534 216.933 47.7357 216.66 47.918C216.386 48.082 216.094 48.2188 215.785 48.3281C215.475 48.4375 215.21 48.4922 214.992 48.4922C214.755 48.4922 214.654 48.4102 214.691 48.2461C214.709 48.1367 214.773 47.8906 214.882 47.5078C214.973 47.125 215.092 46.6784 215.238 46.168C215.365 45.6393 215.502 45.0833 215.648 44.5C215.794 43.9167 215.93 43.3607 216.058 42.832C216.149 42.4128 216.249 41.9479 216.359 41.4375C216.45 41 216.559 40.4896 216.687 39.9062C216.833 39.3229 216.997 38.6849 217.179 37.9922C217.307 37.8828 217.434 37.8008 217.562 37.7461C217.708 37.6732 217.854 37.6185 217.999 37.582C218.145 37.5273 218.3 37.4909 218.464 37.4727C218.61 37.4727 218.756 37.4818 218.902 37.5C219.029 37.5182 219.157 37.5547 219.285 37.6094C219.43 37.6458 219.558 37.7096 219.667 37.8008C219.613 37.9284 219.549 38.1107 219.476 38.3477C219.403 38.5664 219.33 38.8034 219.257 39.0586C219.184 39.3503 219.093 39.651 218.984 39.9609C219.221 39.6328 219.485 39.3047 219.777 38.9766C220.087 38.6302 220.415 38.3203 220.761 38.0469C221.126 37.7734 221.508 37.5547 221.91 37.3906C222.311 37.2083 222.721 37.1172 223.14 37.1172C223.486 37.1172 223.796 37.2174 224.07 37.418C224.343 37.6185 224.553 37.901 224.699 38.2656C224.863 38.612 224.954 39.0312 224.972 39.5234C225.008 40.0156 224.945 40.5534 224.781 41.1367L224.48 42.3398C224.389 42.7227 224.27 43.1784 224.124 43.707C223.997 44.2174 223.833 44.7826 223.632 45.4023C223.523 45.8034 223.477 46.1497 223.495 46.4414C223.532 46.7331 223.714 46.8789 224.042 46.8789C224.37 46.8789 224.781 46.6784 225.273 46.2773C225.783 45.8763 226.294 45.3932 226.804 44.8281C227.314 44.263 227.798 43.6888 228.253 43.1055C228.709 42.5039 229.055 42.0208 229.292 41.6562C229.456 41.4193 229.611 41.2643 229.757 41.1914C229.903 41.1185 230.012 41.1094 230.085 41.1641C230.176 41.2188 230.222 41.3464 230.222 41.5469C230.222 41.7292 230.149 41.9661 230.003 42.2578C229.876 42.513 229.675 42.8503 229.402 43.2695C229.147 43.6888 228.837 44.1354 228.472 44.6094C228.107 45.0833 227.716 45.5664 227.296 46.0586C226.877 46.5326 226.439 46.9701 225.984 47.3711C225.528 47.7539 225.072 48.0638 224.617 48.3008C224.179 48.556 223.76 48.6836 223.359 48.6836ZM237.147 42.7773C237.055 43.3424 236.964 43.8802 236.873 44.3906C236.8 44.901 236.755 45.3112 236.736 45.6211C236.718 46.0768 236.8 46.4049 236.982 46.6055C237.165 46.806 237.365 46.9062 237.584 46.9062C237.839 46.9062 238.149 46.7786 238.514 46.5234C238.897 46.2682 239.298 45.9492 239.717 45.5664C240.136 45.1836 240.555 44.7643 240.975 44.3086C241.394 43.8529 241.777 43.4245 242.123 43.0234C242.488 42.6042 242.788 42.2396 243.025 41.9297C243.281 41.6198 243.454 41.4193 243.545 41.3281C243.654 41.2188 243.764 41.1549 243.873 41.1367C244.001 41.1185 244.101 41.1367 244.174 41.1914C244.247 41.2461 244.283 41.3464 244.283 41.4922C244.283 41.638 244.21 41.8203 244.065 42.0391C243.846 42.3854 243.563 42.7956 243.217 43.2695C242.871 43.7253 242.488 44.1992 242.068 44.6914C241.649 45.1836 241.203 45.6667 240.729 46.1406C240.273 46.6146 239.808 47.0339 239.334 47.3984C238.878 47.763 238.432 48.0547 237.994 48.2734C237.575 48.5104 237.192 48.6289 236.846 48.6289C236.591 48.6289 236.344 48.556 236.107 48.4102C235.889 48.2643 235.688 48.0729 235.506 47.8359C235.324 47.599 235.178 47.3346 235.068 47.043C234.977 46.7513 234.941 46.4596 234.959 46.168C234.977 46.0404 235.005 45.8216 235.041 45.5117C234.275 46.3685 233.501 47.0521 232.717 47.5625C231.951 48.0547 231.213 48.3008 230.502 48.3008C230.247 48.3008 229.973 48.237 229.682 48.1094C229.39 47.9818 229.126 47.7721 228.889 47.4805C228.67 47.1888 228.488 46.806 228.342 46.332C228.196 45.8581 228.141 45.2839 228.178 44.6094C228.232 43.5521 228.442 42.5495 228.807 41.6016C229.171 40.6536 229.627 39.8333 230.174 39.1406C230.739 38.4297 231.368 37.8737 232.061 37.4727C232.772 37.0534 233.482 36.8438 234.193 36.8438C234.503 36.8438 234.786 36.9258 235.041 37.0898C235.296 37.2357 235.515 37.4362 235.697 37.6914C235.88 37.9284 236.025 38.1927 236.135 38.4844C236.262 38.776 236.354 39.0495 236.408 39.3047C236.536 38.776 236.654 38.2565 236.764 37.7461C236.873 37.2357 236.982 36.7526 237.092 36.2969C237.274 35.6224 237.466 34.8932 237.666 34.1094C237.848 33.4349 238.058 32.6602 238.295 31.7852C238.532 30.9102 238.796 29.9896 239.088 29.0234C239.27 28.8776 239.443 28.7682 239.607 28.6953C239.772 28.6224 239.927 28.5677 240.072 28.5312C240.236 28.4766 240.391 28.4492 240.537 28.4492C240.719 28.4492 240.884 28.4766 241.029 28.5312C241.175 28.5677 241.294 28.6862 241.385 28.8867C241.494 29.069 241.567 29.3516 241.604 29.7344C241.64 30.1172 241.64 30.6367 241.604 31.293C241.567 32.0951 241.421 32.9701 241.166 33.918C240.929 34.8659 240.61 35.8503 240.209 36.8711C239.808 37.8737 239.343 38.8854 238.815 39.9062C238.304 40.9089 237.748 41.8659 237.147 42.7773ZM235.533 43.1328C235.606 42.7865 235.67 42.4401 235.725 42.0938C235.798 41.7474 235.88 41.3919 235.971 41.0273C235.934 41.0456 235.898 41.0638 235.861 41.082C235.843 41.1003 235.816 41.1185 235.779 41.1367C235.579 41.2279 235.442 41.2279 235.369 41.1367C235.296 41.0273 235.26 40.8633 235.26 40.6445C235.26 40.5352 235.251 40.3438 235.232 40.0703C235.214 39.7786 235.16 39.487 235.068 39.1953C234.996 38.8854 234.877 38.6211 234.713 38.4023C234.549 38.1654 234.321 38.0469 234.029 38.0469C233.61 38.0469 233.182 38.2656 232.744 38.7031C232.307 39.1224 231.897 39.6419 231.514 40.2617C231.131 40.8633 230.812 41.5104 230.557 42.2031C230.302 42.8958 230.156 43.5156 230.119 44.0625C230.083 44.9375 230.192 45.5664 230.447 45.9492C230.703 46.332 231.049 46.5234 231.486 46.5234C231.815 46.5234 232.17 46.3958 232.553 46.1406C232.954 45.8854 233.337 45.5755 233.701 45.2109C234.084 44.8464 234.43 44.4727 234.74 44.0898C235.068 43.707 235.333 43.388 235.533 43.1328ZM248.282 31.8945C248.227 32.0951 248.118 32.2956 247.954 32.4961C247.808 32.6784 247.635 32.8333 247.434 32.9609C247.252 33.0703 247.061 33.1432 246.86 33.1797C246.66 33.2161 246.496 33.1797 246.368 33.0703C245.985 32.7786 245.785 32.4688 245.766 32.1406C245.748 31.7943 245.83 31.4753 246.012 31.1836C246.195 30.8737 246.423 30.6185 246.696 30.418C246.97 30.1992 247.207 30.0716 247.407 30.0352C247.608 29.9987 247.772 30.0443 247.899 30.1719C248.045 30.2812 248.154 30.4362 248.227 30.6367C248.3 30.819 248.337 31.0286 248.337 31.2656C248.355 31.5026 248.337 31.7122 248.282 31.8945ZM244.509 37.7188C244.6 37.6094 244.773 37.5182 245.028 37.4453C245.283 37.3724 245.548 37.3177 245.821 37.2812C246.095 37.2266 246.341 37.1992 246.559 37.1992C246.796 37.181 246.933 37.181 246.97 37.1992C246.988 37.2174 246.942 37.4089 246.833 37.7734C246.723 38.138 246.587 38.5664 246.423 39.0586C246.259 39.5508 246.085 40.0612 245.903 40.5898C245.721 41.1003 245.584 41.5195 245.493 41.8477C245.402 42.1758 245.292 42.5495 245.165 42.9688C245.037 43.3698 244.919 43.7708 244.809 44.1719C244.718 44.5547 244.654 44.9193 244.618 45.2656C244.582 45.612 244.609 45.8763 244.7 46.0586C244.791 46.2773 244.891 46.4323 245.001 46.5234C245.11 46.5964 245.229 46.6328 245.356 46.6328C245.721 46.6328 246.177 46.4323 246.723 46.0312C247.289 45.6302 247.854 45.1562 248.419 44.6094C249.002 44.0443 249.54 43.4792 250.032 42.9141C250.524 42.3307 250.889 41.8659 251.126 41.5195C251.272 41.3372 251.417 41.2188 251.563 41.1641C251.727 41.1094 251.855 41.1185 251.946 41.1914C252.055 41.2643 252.11 41.3828 252.11 41.5469C252.128 41.7109 252.074 41.9023 251.946 42.1211C251.654 42.6315 251.226 43.2422 250.661 43.9531C250.096 44.6458 249.494 45.3203 248.856 45.9766C248.218 46.6146 247.589 47.1615 246.97 47.6172C246.368 48.0729 245.876 48.3099 245.493 48.3281C245.183 48.3464 244.873 48.2917 244.563 48.1641C244.272 48.0547 243.998 47.8997 243.743 47.6992C243.506 47.4805 243.305 47.2344 243.141 46.9609C242.977 46.6693 242.886 46.3685 242.868 46.0586C242.813 45.6029 242.813 44.9831 242.868 44.1992C242.923 43.3971 243.023 42.5859 243.169 41.7656C243.315 40.9271 243.497 40.1341 243.716 39.3867C243.953 38.6393 244.217 38.0833 244.509 37.7188ZM264.257 42.5586C264.002 42.9232 263.674 43.3789 263.273 43.9258C262.872 44.4544 262.453 44.9922 262.015 45.5391C261.596 46.0677 261.177 46.5599 260.757 47.0156C260.356 47.4531 260.019 47.763 259.746 47.9453C259.563 48.0547 259.354 48.1458 259.117 48.2188C258.88 48.2917 258.634 48.3372 258.378 48.3555C258.141 48.3737 257.914 48.3555 257.695 48.3008C257.476 48.2643 257.285 48.1914 257.121 48.082C256.957 47.9544 256.82 47.7721 256.71 47.5352C256.619 47.3346 256.528 47.0703 256.437 46.7422C256.364 46.4141 256.337 46.0039 256.355 45.5117C255.917 46.2409 255.434 46.806 254.906 47.207C254.377 47.5898 253.876 47.8724 253.402 48.0547C252.855 48.2552 252.308 48.3737 251.761 48.4102C251.506 48.4102 251.233 48.319 250.941 48.1367C250.649 47.9727 250.403 47.7083 250.203 47.3438C250.002 46.9609 249.875 46.4779 249.82 45.8945C249.765 45.293 249.838 44.582 250.039 43.7617C250.294 42.6497 250.695 41.638 251.242 40.7266C251.807 39.8151 252.417 39.0404 253.074 38.4023C253.73 37.7461 254.377 37.2539 255.015 36.9258C255.653 36.5977 256.182 36.4518 256.601 36.4883C257.093 36.5794 257.494 36.7253 257.804 36.9258C258.059 37.1081 258.223 37.3815 258.296 37.7461C258.388 38.0924 258.242 38.5573 257.859 39.1406C258.114 39.0859 258.324 39.0495 258.488 39.0312C258.67 39.013 258.807 39.0039 258.898 39.0039C259.007 39.0039 259.08 39.013 259.117 39.0312C259.135 39.0677 259.144 39.1497 259.144 39.2773C259.144 39.3867 259.117 39.5964 259.062 39.9062C259.007 40.2161 258.925 40.6354 258.816 41.1641C258.707 41.6927 258.561 42.3763 258.378 43.2148C258.342 43.3789 258.306 43.5339 258.269 43.6797C258.251 43.8073 258.223 43.944 258.187 44.0898C258.169 44.2174 258.141 44.3724 258.105 44.5547C258.069 44.737 258.023 44.9648 257.968 45.2383C257.95 45.4023 257.941 45.5846 257.941 45.7852C257.959 45.9674 257.996 46.1406 258.05 46.3047C258.105 46.4688 258.187 46.6055 258.296 46.7148C258.424 46.806 258.597 46.8516 258.816 46.8516C258.998 46.8516 259.235 46.7422 259.527 46.5234C259.819 46.2865 260.128 45.9948 260.457 45.6484C260.785 45.2839 261.122 44.8919 261.468 44.4727C261.833 44.0352 262.17 43.6159 262.48 43.2148C262.79 42.8138 263.063 42.4583 263.3 42.1484C263.556 41.8385 263.738 41.6107 263.847 41.4648C263.993 41.3008 264.139 41.2096 264.285 41.1914C264.431 41.1549 264.54 41.1914 264.613 41.3008C264.686 41.4102 264.695 41.5742 264.64 41.793C264.604 42.0117 264.476 42.2669 264.257 42.5586ZM256.246 43.7617C256.337 43.3971 256.446 42.9688 256.574 42.4766C256.701 41.9844 256.811 41.5104 256.902 41.0547C256.993 40.599 257.057 40.2253 257.093 39.9336C257.148 39.6237 257.139 39.4779 257.066 39.4961C256.975 39.5143 256.875 39.5417 256.765 39.5781C256.674 39.6146 256.556 39.6419 256.41 39.6602C256.264 39.6784 256.118 39.7057 255.972 39.7422C256.118 39.4505 256.2 39.2135 256.218 39.0312C256.255 38.8307 256.264 38.6758 256.246 38.5664C256.227 38.4388 256.191 38.3385 256.136 38.2656C255.936 38.1016 255.58 38.2383 255.07 38.6758C254.578 39.0951 254.003 39.8789 253.347 41.0273C253.074 41.5013 252.855 42.0117 252.691 42.5586C252.527 43.0872 252.408 43.5885 252.335 44.0625C252.281 44.5365 252.272 44.9557 252.308 45.3203C252.345 45.6667 252.417 45.8945 252.527 46.0039C252.727 46.2044 252.955 46.3047 253.21 46.3047C253.466 46.2865 253.721 46.2135 253.976 46.0859C254.25 45.9401 254.514 45.7578 254.769 45.5391C255.042 45.3203 255.279 45.0924 255.48 44.8555C255.699 44.6185 255.872 44.3997 256 44.1992C256.145 43.9987 256.227 43.8529 256.246 43.7617ZM270.826 48.6836C270.407 48.6836 270.043 48.6016 269.733 48.4375C269.441 48.2917 269.204 48.0911 269.022 47.8359C268.839 47.5807 268.721 47.2891 268.666 46.9609C268.612 46.6146 268.63 46.25 268.721 45.8672C268.776 45.612 268.867 45.2747 268.994 44.8555C269.122 44.418 269.25 43.9531 269.377 43.4609C269.523 42.9505 269.651 42.4492 269.76 41.957C269.888 41.4466 269.97 40.9909 270.006 40.5898C270.043 40.1706 270.024 39.8333 269.951 39.5781C269.878 39.3047 269.724 39.168 269.487 39.168C269.195 39.168 268.894 39.2682 268.584 39.4688C268.274 39.651 267.955 39.9062 267.627 40.2344C267.317 40.5625 266.998 40.9453 266.67 41.3828C266.36 41.8021 266.05 42.2396 265.74 42.6953C265.576 43.3151 265.44 43.862 265.33 44.3359C265.221 44.7917 265.121 45.2109 265.03 45.5938C264.957 45.9583 264.884 46.2865 264.811 46.5781C264.738 46.8516 264.674 47.1159 264.619 47.3711C264.565 47.5534 264.401 47.7357 264.127 47.918C263.854 48.082 263.562 48.2188 263.252 48.3281C262.942 48.4375 262.678 48.4922 262.459 48.4922C262.222 48.4922 262.122 48.4102 262.158 48.2461C262.177 48.1367 262.24 47.8906 262.35 47.5078C262.441 47.125 262.559 46.6784 262.705 46.168C262.833 45.6393 262.97 45.0833 263.115 44.5C263.261 43.9167 263.398 43.3607 263.526 42.832C263.617 42.4128 263.717 41.9479 263.826 41.4375C263.918 41 264.027 40.4896 264.155 39.9062C264.3 39.3229 264.464 38.6849 264.647 37.9922C264.774 37.8828 264.902 37.8008 265.03 37.7461C265.175 37.6732 265.321 37.6185 265.467 37.582C265.613 37.5273 265.768 37.4909 265.932 37.4727C266.078 37.4727 266.224 37.4818 266.369 37.5C266.497 37.5182 266.625 37.5547 266.752 37.6094C266.898 37.6458 267.026 37.7096 267.135 37.8008C267.08 37.9284 267.017 38.1107 266.944 38.3477C266.871 38.5664 266.798 38.8034 266.725 39.0586C266.652 39.3503 266.561 39.651 266.451 39.9609C266.688 39.6328 266.953 39.3047 267.244 38.9766C267.554 38.6302 267.882 38.3203 268.229 38.0469C268.593 37.7734 268.976 37.5547 269.377 37.3906C269.778 37.2083 270.188 37.1172 270.608 37.1172C270.954 37.1172 271.264 37.2174 271.537 37.418C271.811 37.6185 272.02 37.901 272.166 38.2656C272.33 38.612 272.421 39.0312 272.44 39.5234C272.476 40.0156 272.412 40.5534 272.248 41.1367L271.947 42.3398C271.856 42.7227 271.738 43.1784 271.592 43.707C271.464 44.2174 271.3 44.7826 271.1 45.4023C270.99 45.8034 270.945 46.1497 270.963 46.4414C271 46.7331 271.182 46.8789 271.51 46.8789C271.838 46.8789 272.248 46.6784 272.74 46.2773C273.251 45.8763 273.761 45.3932 274.272 44.8281C274.782 44.263 275.265 43.6888 275.721 43.1055C276.177 42.5039 276.523 42.0208 276.76 41.6562C276.924 41.4193 277.079 41.2643 277.225 41.1914C277.371 41.1185 277.48 41.1094 277.553 41.1641C277.644 41.2188 277.69 41.3464 277.69 41.5469C277.69 41.7292 277.617 41.9661 277.471 42.2578C277.343 42.513 277.143 42.8503 276.869 43.2695C276.614 43.6888 276.304 44.1354 275.94 44.6094C275.575 45.0833 275.183 45.5664 274.764 46.0586C274.345 46.5326 273.907 46.9701 273.451 47.3711C272.996 47.7539 272.54 48.0638 272.084 48.3008C271.647 48.556 271.227 48.6836 270.826 48.6836ZM282.652 51.9102C282.725 51.8555 282.843 51.7643 283.007 51.6367C283.153 51.5091 283.336 51.2721 283.554 50.9258C283.755 50.5794 283.983 50.0781 284.238 49.4219C284.493 48.7656 284.757 47.8724 285.031 46.7422C285.177 46.1406 285.368 45.375 285.605 44.4453C285.842 43.5156 286.097 42.5221 286.371 41.4648C286.662 40.4076 286.954 39.3229 287.246 38.2109C287.537 37.0807 287.82 36.0143 288.093 35.0117C288.367 33.9909 288.613 33.0703 288.832 32.25C289.05 31.4297 289.224 30.7917 289.351 30.3359C289.005 30.5547 288.668 30.8008 288.34 31.0742C288.048 31.3112 287.738 31.5846 287.41 31.8945C287.082 32.1862 286.763 32.4961 286.453 32.8242C286.216 32.6237 286.034 32.4049 285.906 32.168C285.833 32.0586 285.769 31.9401 285.715 31.8125C285.605 31.5391 285.55 31.2565 285.55 30.9648C285.55 30.6732 285.778 30.3724 286.234 30.0625C286.471 29.8984 286.827 29.6615 287.3 29.3516C287.793 29.0417 288.394 28.7409 289.105 28.4492C289.816 28.1393 290.646 27.875 291.593 27.6562C292.541 27.4375 293.59 27.3281 294.738 27.3281C295.886 27.3281 296.807 27.556 297.5 28.0117C298.211 28.4674 298.748 29.0234 299.113 29.6797C299.496 30.3359 299.742 31.0286 299.851 31.7578C299.961 32.487 299.988 33.125 299.933 33.6719C299.824 34.6927 299.496 35.7591 298.949 36.8711C298.402 37.9831 297.646 39.013 296.679 39.9609C295.713 40.8906 294.537 41.6836 293.152 42.3398C291.767 42.9961 290.181 43.3698 288.394 43.4609C288.248 44.1536 288.103 44.8646 287.957 45.5938C287.811 46.3229 287.656 47.043 287.492 47.7539C287.328 48.4466 287.155 49.0938 286.972 49.6953C286.808 50.3151 286.635 50.8438 286.453 51.2812C286.271 51.7552 286.034 52.1289 285.742 52.4023C285.45 52.694 284.985 52.8398 284.347 52.8398C284.019 52.8398 283.718 52.7578 283.445 52.5938C283.153 52.4297 282.889 52.2018 282.652 51.9102ZM289.132 39.4414C289.078 39.7331 289.005 40.1159 288.914 40.5898C288.841 41.0456 288.75 41.5651 288.64 42.1484C289.132 42.0755 289.679 41.9479 290.281 41.7656C290.882 41.5651 291.484 41.3008 292.086 40.9727C292.687 40.6445 293.271 40.2526 293.836 39.7969C294.419 39.3229 294.948 38.7852 295.422 38.1836C295.896 37.5638 296.287 36.8711 296.597 36.1055C296.925 35.3216 297.135 34.4557 297.226 33.5078C297.317 32.5964 297.263 31.8398 297.062 31.2383C296.88 30.6185 296.606 30.1263 296.242 29.7617C295.877 29.3789 295.458 29.1146 294.984 28.9688C294.51 28.8047 294.036 28.7227 293.562 28.7227C293.106 28.7227 292.66 28.7865 292.222 28.9141C291.785 29.0417 291.347 29.2057 290.91 29.4062C290.965 29.4245 291.028 29.4701 291.101 29.543C291.211 29.6523 291.293 29.8073 291.347 30.0078C290.91 31.776 290.545 33.2526 290.254 34.4375C289.98 35.6224 289.761 36.5885 289.597 37.3359C289.397 38.2109 289.242 38.9128 289.132 39.4414ZM299.393 47.5625C300.195 44.1901 300.833 41.4831 301.307 39.4414C301.799 37.3997 302.173 35.8411 302.428 34.7656C302.72 33.4896 302.92 32.6055 303.03 32.1133C303.084 31.7669 303.13 31.4297 303.166 31.1016C303.203 30.8099 303.221 30.5091 303.221 30.1992C303.221 29.8893 303.194 29.6068 303.139 29.3516C303.285 29.2604 303.44 29.1875 303.604 29.1328C303.786 29.0781 303.959 29.0326 304.123 28.9961C304.324 28.9414 304.524 28.8958 304.725 28.8594C304.926 28.8229 305.108 28.8047 305.272 28.8047C305.418 28.8047 305.554 28.8229 305.682 28.8594C305.81 28.8776 305.892 28.9323 305.928 29.0234C306.037 29.1146 306.083 29.2969 306.065 29.5703C306.065 29.8438 306.047 30.1263 306.01 30.418C305.937 30.7643 305.855 31.138 305.764 31.5391C305.545 32.3229 305.245 33.4531 304.862 34.9297C304.534 36.1875 304.087 37.901 303.522 40.0703C302.975 42.2396 302.282 44.974 301.444 48.2734C301.353 48.3646 301.243 48.4284 301.116 48.4648C300.988 48.5013 300.87 48.5195 300.76 48.5195C300.633 48.5195 300.496 48.5104 300.35 48.4922C300.222 48.4557 300.095 48.401 299.967 48.3281C299.858 48.2552 299.748 48.1549 299.639 48.0273C299.53 47.918 299.448 47.763 299.393 47.5625ZM320.235 42.5586C319.98 42.9232 319.652 43.3789 319.251 43.9258C318.85 44.4544 318.431 44.9922 317.993 45.5391C317.574 46.0677 317.155 46.5599 316.735 47.0156C316.334 47.4531 315.997 47.763 315.724 47.9453C315.541 48.0547 315.332 48.1458 315.095 48.2188C314.858 48.2917 314.612 48.3372 314.357 48.3555C314.12 48.3737 313.892 48.3555 313.673 48.3008C313.454 48.2643 313.263 48.1914 313.099 48.082C312.935 47.9544 312.798 47.7721 312.689 47.5352C312.597 47.3346 312.506 47.0703 312.415 46.7422C312.342 46.4141 312.315 46.0039 312.333 45.5117C311.896 46.2409 311.413 46.806 310.884 47.207C310.355 47.5898 309.854 47.8724 309.38 48.0547C308.833 48.2552 308.286 48.3737 307.739 48.4102C307.484 48.4102 307.211 48.319 306.919 48.1367C306.627 47.9727 306.381 47.7083 306.181 47.3438C305.98 46.9609 305.853 46.4779 305.798 45.8945C305.743 45.293 305.816 44.582 306.017 43.7617C306.272 42.6497 306.673 41.638 307.22 40.7266C307.785 39.8151 308.396 39.0404 309.052 38.4023C309.708 37.7461 310.355 37.2539 310.993 36.9258C311.631 36.5977 312.16 36.4518 312.579 36.4883C313.071 36.5794 313.472 36.7253 313.782 36.9258C314.038 37.1081 314.202 37.3815 314.275 37.7461C314.366 38.0924 314.22 38.5573 313.837 39.1406C314.092 39.0859 314.302 39.0495 314.466 39.0312C314.648 39.013 314.785 39.0039 314.876 39.0039C314.985 39.0039 315.058 39.013 315.095 39.0312C315.113 39.0677 315.122 39.1497 315.122 39.2773C315.122 39.3867 315.095 39.5964 315.04 39.9062C314.985 40.2161 314.903 40.6354 314.794 41.1641C314.685 41.6927 314.539 42.3763 314.357 43.2148C314.32 43.3789 314.284 43.5339 314.247 43.6797C314.229 43.8073 314.202 43.944 314.165 44.0898C314.147 44.2174 314.12 44.3724 314.083 44.5547C314.047 44.737 314.001 44.9648 313.946 45.2383C313.928 45.4023 313.919 45.5846 313.919 45.7852C313.937 45.9674 313.974 46.1406 314.028 46.3047C314.083 46.4688 314.165 46.6055 314.275 46.7148C314.402 46.806 314.575 46.8516 314.794 46.8516C314.976 46.8516 315.213 46.7422 315.505 46.5234C315.797 46.2865 316.107 45.9948 316.435 45.6484C316.763 45.2839 317.1 44.8919 317.446 44.4727C317.811 44.0352 318.148 43.6159 318.458 43.2148C318.768 42.8138 319.041 42.4583 319.278 42.1484C319.534 41.8385 319.716 41.6107 319.825 41.4648C319.971 41.3008 320.117 41.2096 320.263 41.1914C320.409 41.1549 320.518 41.1914 320.591 41.3008C320.664 41.4102 320.673 41.5742 320.618 41.793C320.582 42.0117 320.454 42.2669 320.235 42.5586ZM312.224 43.7617C312.315 43.3971 312.424 42.9688 312.552 42.4766C312.679 41.9844 312.789 41.5104 312.88 41.0547C312.971 40.599 313.035 40.2253 313.071 39.9336C313.126 39.6237 313.117 39.4779 313.044 39.4961C312.953 39.5143 312.853 39.5417 312.743 39.5781C312.652 39.6146 312.534 39.6419 312.388 39.6602C312.242 39.6784 312.096 39.7057 311.95 39.7422C312.096 39.4505 312.178 39.2135 312.196 39.0312C312.233 38.8307 312.242 38.6758 312.224 38.5664C312.206 38.4388 312.169 38.3385 312.114 38.2656C311.914 38.1016 311.558 38.2383 311.048 38.6758C310.556 39.0951 309.982 39.8789 309.325 41.0273C309.052 41.5013 308.833 42.0117 308.669 42.5586C308.505 43.0872 308.387 43.5885 308.314 44.0625C308.259 44.5365 308.25 44.9557 308.286 45.3203C308.323 45.6667 308.396 45.8945 308.505 46.0039C308.706 46.2044 308.933 46.3047 309.189 46.3047C309.444 46.2865 309.699 46.2135 309.954 46.0859C310.228 45.9401 310.492 45.7578 310.747 45.5391C311.021 45.3203 311.258 45.0924 311.458 44.8555C311.677 44.6185 311.85 44.3997 311.978 44.1992C312.123 43.9987 312.206 43.8529 312.224 43.7617ZM328.773 41.082C328.846 40.9727 328.937 40.9089 329.047 40.8906C329.174 40.8542 329.275 40.8633 329.348 40.918C329.42 40.9727 329.457 41.0638 329.457 41.1914C329.475 41.319 329.43 41.4922 329.32 41.7109C328.956 42.4036 328.473 43.151 327.871 43.9531C327.288 44.7552 326.668 45.5117 326.012 46.2227C325.355 46.9154 324.717 47.4896 324.098 47.9453C323.478 48.401 322.958 48.6289 322.539 48.6289C321.937 48.6289 321.436 48.5104 321.035 48.2734C320.634 48.0365 320.315 47.7448 320.078 47.3984C319.859 47.0521 319.704 46.6784 319.613 46.2773C319.522 45.8581 319.495 45.4753 319.531 45.1289C319.549 44.8372 319.613 44.3177 319.723 43.5703C319.832 42.8047 319.978 41.9297 320.16 40.9453C320.342 39.9427 320.543 38.8763 320.762 37.7461C320.999 36.5977 321.245 35.4948 321.5 34.4375C321.19 34.474 320.88 34.5104 320.57 34.5469C320.26 34.5833 319.978 34.6016 319.723 34.6016C319.139 34.6016 318.592 34.5378 318.082 34.4102C317.553 34.2643 317.161 34.1276 316.906 34C316.76 33.9271 316.696 33.8268 316.715 33.6992C316.733 33.5534 316.788 33.4167 316.879 33.2891C316.97 33.1432 317.088 33.0247 317.234 32.9336C317.362 32.8242 317.48 32.7695 317.59 32.7695C317.936 32.806 318.31 32.8424 318.711 32.8789C319.112 32.8971 319.549 32.8971 320.023 32.8789C320.37 32.8607 320.698 32.8333 321.008 32.7969C321.336 32.7604 321.655 32.7148 321.965 32.6602C322.202 31.7852 322.43 31.0286 322.648 30.3906C322.885 29.7344 323.095 29.2786 323.277 29.0234C323.332 28.9323 323.45 28.8594 323.633 28.8047C323.833 28.7318 324.043 28.6862 324.262 28.668C324.48 28.6315 324.69 28.6315 324.89 28.668C325.091 28.6862 325.237 28.75 325.328 28.8594C325.419 29.0052 325.456 29.3789 325.437 29.9805C325.419 30.582 325.319 31.3477 325.137 32.2773C325.902 32.2773 326.577 32.3229 327.16 32.4141C327.762 32.487 328.272 32.5781 328.691 32.6875C329.111 32.7786 329.448 32.8789 329.703 32.9883C329.958 33.0794 330.15 33.1432 330.277 33.1797C330.405 33.2161 330.469 33.3073 330.469 33.4531C330.487 33.599 330.459 33.7539 330.387 33.918C330.332 34.0638 330.232 34.1914 330.086 34.3008C329.94 34.4102 329.776 34.4466 329.594 34.4102C329.411 34.3919 329.202 34.3555 328.965 34.3008C328.746 34.2461 328.473 34.2005 328.144 34.1641C327.834 34.1276 327.461 34.0911 327.023 34.0547C326.586 34.0182 326.075 34 325.492 34C325.383 34 325.255 34.0091 325.109 34.0273C324.982 34.0273 324.845 34.0273 324.699 34.0273C324.626 34.319 324.553 34.6107 324.48 34.9023C324.426 35.1758 324.344 35.4674 324.234 35.7773C323.997 36.5065 323.724 37.2995 323.414 38.1562C323.14 38.9036 322.812 39.7604 322.43 40.7266C322.047 41.6927 321.618 42.7227 321.144 43.8164C321.035 44.6003 321.044 45.2018 321.172 45.6211C321.318 46.0221 321.491 46.3138 321.691 46.4961C321.928 46.6966 322.22 46.806 322.566 46.8242C322.84 46.8607 323.168 46.7695 323.551 46.5508C323.952 46.3138 324.362 46.0039 324.781 45.6211C325.2 45.2383 325.62 44.819 326.039 44.3633C326.476 43.9076 326.877 43.4609 327.242 43.0234C327.607 42.5859 327.926 42.194 328.199 41.8477C328.473 41.4831 328.664 41.2279 328.773 41.082ZM339.799 42.3125C339.253 43.1146 338.633 43.8984 337.94 44.6641C337.247 45.4115 336.509 46.0859 335.725 46.6875C334.96 47.2708 334.167 47.7448 333.346 48.1094C332.544 48.474 331.76 48.6562 330.995 48.6562C330.594 48.6562 330.156 48.556 329.682 48.3555C329.226 48.1732 328.807 47.8815 328.424 47.4805C328.042 47.0794 327.732 46.5599 327.495 45.9219C327.276 45.2839 327.212 44.5091 327.303 43.5977C327.376 42.8503 327.604 42.0664 327.987 41.2461C328.388 40.4076 328.871 39.6419 329.436 38.9492C330.019 38.2565 330.667 37.6823 331.378 37.2266C332.107 36.7708 332.836 36.543 333.565 36.543C334.258 36.543 334.759 36.7161 335.069 37.0625C335.379 37.4089 335.516 37.8372 335.479 38.3477C335.424 38.9128 335.26 39.4323 334.987 39.9062C334.732 40.3802 334.422 40.8086 334.057 41.1914C333.693 41.5742 333.301 41.9206 332.881 42.2305C332.48 42.5404 332.098 42.8229 331.733 43.0781C331.332 43.3516 330.949 43.6159 330.585 43.8711C330.22 44.1081 329.901 44.3268 329.628 44.5273C329.646 44.9831 329.728 45.3659 329.874 45.6758C330.019 45.9857 330.202 46.2409 330.42 46.4414C330.639 46.6237 330.885 46.7604 331.159 46.8516C331.45 46.9245 331.742 46.9609 332.034 46.9609C332.654 46.9609 333.301 46.7695 333.975 46.3867C334.65 45.9857 335.306 45.5117 335.944 44.9648C336.6 44.3997 337.202 43.8164 337.749 43.2148C338.314 42.6133 338.779 42.0938 339.143 41.6562C339.271 41.5104 339.398 41.4284 339.526 41.4102C339.672 41.3737 339.781 41.3919 339.854 41.4648C339.945 41.5195 339.991 41.6289 339.991 41.793C339.991 41.9388 339.927 42.112 339.799 42.3125ZM332.799 38.1016C332.581 38.1016 332.316 38.2109 332.006 38.4297C331.715 38.6484 331.423 38.9674 331.131 39.3867C330.84 39.7878 330.566 40.2891 330.311 40.8906C330.056 41.474 329.864 42.1484 329.737 42.9141C329.956 42.75 330.193 42.5859 330.448 42.4219C330.703 42.2396 330.958 42.0482 331.213 41.8477C331.997 41.2461 332.544 40.7174 332.854 40.2617C333.164 39.806 333.337 39.4141 333.374 39.0859C333.41 38.7396 333.374 38.4935 333.264 38.3477C333.155 38.1836 333 38.1016 332.799 38.1016Z" fill="#F85A11"/>
<g filter="url(#filter0_i_105_3)">
<ellipse cx="40" cy="40.5" rx="40" ry="40.5" fill="#F85A11"/>
</g>
<g filter="url(#filter1_d_105_3)">
<ellipse cx="23.0588" cy="23.3468" rx="10.8235" ry="11.9118" fill="white"/>
</g>
<g filter="url(#filter2_dd_105_3)">
<path d="M69.6471 23.3468C69.6471 29.9255 64.8012 35.2586 58.8235 35.2586C52.8459 35.2586 48 29.9255 48 23.3468C48 16.7681 52.8459 11.4351 58.8235 11.4351C64.8012 11.4351 69.6471 16.7681 69.6471 23.3468Z" fill="white"/>
</g>
<g filter="url(#filter3_i_105_3)">
<path d="M51.7647 46.2176C51.7647 52.27 47.3402 57.1764 41.8824 57.1764C36.4245 57.1764 32 52.27 32 46.2176C32 40.1652 36.4245 35.2588 41.8824 35.2588C47.3402 35.2588 51.7647 40.1652 51.7647 46.2176Z" fill="#D6761D"/>
<path d="M51.7647 46.2176C51.7647 52.27 47.3402 57.1764 41.8824 57.1764C36.4245 57.1764 32 52.27 32 46.2176C32 40.1652 36.4245 35.2588 41.8824 35.2588C47.3402 35.2588 51.7647 40.1652 51.7647 46.2176Z" stroke="#CC740C"/>
<path d="M45.6834 46.2181C45.6834 48.3796 43.9816 50.1319 41.8824 50.1319C39.7833 50.1319 38.0815 48.3796 38.0815 46.2181C38.0815 44.0565 39.7833 42.3042 41.8824 42.3042C43.9816 42.3042 45.6834 44.0565 45.6834 46.2181Z" fill="#EA661B"/>
<path d="M45.6834 46.2181C45.6834 48.3796 43.9816 50.1319 41.8824 50.1319C39.7833 50.1319 38.0815 48.3796 38.0815 46.2181C38.0815 44.0565 39.7833 42.3042 41.8824 42.3042C43.9816 42.3042 45.6834 44.0565 45.6834 46.2181Z" stroke="#CC740C"/>
</g>
<path d="M65.1471 59.0824C60.1915 66.2131 46.0103 76.0421 25.6206 65.5594C20.4903 67.648 14.8099 74.2424 11.8562 78.4828C3.43383 70.3531 13.9662 65.7273 22.6201 63.894C20.8432 62.8354 19.0228 61.6232 17.1608 60.2434C19.3854 61.2623 22.4885 62.3715 26.1761 63.274C36.687 65.8466 51.9467 66.7405 65.1471 59.0824Z" fill="#820707"/>
<path d="M65.1471 59.0824C60.1915 66.2131 46.0103 76.0421 25.6206 65.5594C20.4903 67.648 14.8099 74.2424 11.8562 78.4828C3.43383 70.3531 13.9662 65.7273 22.6201 63.894C20.8432 62.8354 19.0228 61.6232 17.1608 60.2434C19.3854 61.2623 22.4885 62.3715 26.1761 63.274C36.687 65.8466 51.9467 66.7405 65.1471 59.0824Z" stroke="#622605"/>
<ellipse cx="23.4785" cy="29.0206" rx="4.655" ry="6.15" fill="#321203"/>
<ellipse cx="59.2431" cy="29.0206" rx="4.655" ry="6.15" fill="#321203"/>
<path d="M324 58.0049C324.662 63.9606 338.258 64.8904 338.258 58.653C338.258 56.7635 337.545 59.4666 336.998 60.5613C336.214 62.1297 334.503 62.6981 333.073 63.3337C329.039 65.1269 327.678 62.1123 324.648 60.5973" stroke="#FEEFE7" stroke-linecap="round"/>
<path d="M327.5 52H327" stroke="#FEEFE7" stroke-width="3" stroke-linecap="round"/>
<path d="M335 52H336" stroke="#FEEFE7" stroke-width="3" stroke-linecap="round"/>
<defs>
<filter id="filter0_i_105_3" x="0" y="0" width="80" height="82" filterUnits="userSpaceOnUse" color-interpolation-filters="sRGB">
<feFlood flood-opacity="0" result="BackgroundImageFix"/>
<feBlend mode="normal" in="SourceGraphic" in2="BackgroundImageFix" result="shape"/>
<feColorMatrix in="SourceAlpha" type="matrix" values="0 0 0 0 0 0 0 0 0 0 0 0 0 0 0 0 0 0 127 0" result="hardAlpha"/>
<feOffset dy="1"/>
<feGaussianBlur stdDeviation="2"/>
<feComposite in2="hardAlpha" operator="arithmetic" k2="-1" k3="1"/>
<feColorMatrix type="matrix" values="0 0 0 0 0.0470588 0 0 0 0 0.0470588 0 0 0 0 0.0509804 0 0 0 0.05 0"/>
<feBlend mode="normal" in2="shape" result="effect1_innerShadow_105_3"/>
</filter>
<filter id="filter1_d_105_3" x="8.23523" y="11.4351" width="29.6471" height="31.8235" filterUnits="userSpaceOnUse" color-interpolation-filters="sRGB">
<feFlood flood-opacity="0" result="BackgroundImageFix"/>
<feColorMatrix in="SourceAlpha" type="matrix" values="0 0 0 0 0 0 0 0 0 0 0 0 0 0 0 0 0 0 127 0" result="hardAlpha"/>
<feOffset dy="4"/>
<feGaussianBlur stdDeviation="2"/>
<feComposite in2="hardAlpha" operator="out"/>
<feColorMatrix type="matrix" values="0 0 0 0 0 0 0 0 0 0 0 0 0 0 0 0 0 0 0.25 0"/>
<feBlend mode="normal" in2="BackgroundImageFix" result="effect1_dropShadow_105_3"/>
<feBlend mode="normal" in="SourceGraphic" in2="effect1_dropShadow_105_3" result="shape"/>
</filter>
<filter id="filter2_dd_105_3" x="30" y="1.43506" width="57.6471" height="59.8235" filterUnits="userSpaceOnUse" color-interpolation-filters="sRGB">
<feFlood flood-opacity="0" result="BackgroundImageFix"/>
<feColorMatrix in="SourceAlpha" type="matrix" values="0 0 0 0 0 0 0 0 0 0 0 0 0 0 0 0 0 0 127 0" result="hardAlpha"/>
<feOffset dy="4"/>
<feGaussianBlur stdDeviation="2"/>
<feColorMatrix type="matrix" values="0 0 0 0 0 0 0 0 0 0 0 0 0 0 0 0 0 0 0.3 0"/>
<feBlend mode="normal" in2="BackgroundImageFix" result="effect1_dropShadow_105_3"/>
<feColorMatrix in="SourceAlpha" type="matrix" values="0 0 0 0 0 0 0 0 0 0 0 0 0 0 0 0 0 0 127 0" result="hardAlpha"/>
<feMorphology radius="6" operator="dilate" in="SourceAlpha" result="effect2_dropShadow_105_3"/>
<feOffset dy="8"/>
<feGaussianBlur stdDeviation="6"/>
<feColorMatrix type="matrix" values="0 0 0 0 0 0 0 0 0 0 0 0 0 0 0 0 0 0 0.15 0"/>
<feBlend mode="normal" in2="effect1_dropShadow_105_3" result="effect2_dropShadow_105_3"/>
<feBlend mode="normal" in="SourceGraphic" in2="effect2_dropShadow_105_3" result="shape"/>
</filter>
<filter id="filter3_i_105_3" x="32" y="35.2588" width="19.7646" height="25.9177" filterUnits="userSpaceOnUse" color-interpolation-filters="sRGB">
<feFlood flood-opacity="0" result="BackgroundImageFix"/>
<feBlend mode="normal" in="SourceGraphic" in2="BackgroundImageFix" result="shape"/>
<feColorMatrix in="SourceAlpha" type="matrix" values="0 0 0 0 0 0 0 0 0 0 0 0 0 0 0 0 0 0 127 0" result="hardAlpha"/>
<feOffset dy="4"/>
<feGaussianBlur stdDeviation="2"/>
<feComposite in2="hardAlpha" operator="arithmetic" k2="-1" k3="1"/>
<feColorMatrix type="matrix" values="0 0 0 0 0 0 0 0 0 0 0 0 0 0 0 0 0 0 0.25 0"/>
<feBlend mode="normal" in2="shape" result="effect1_innerShadow_105_3"/>
</filter>
</defs>
</svg>
