<svg width="16" height="18" viewBox="0 0 16 18" fill="none" xmlns="http://www.w3.org/2000/svg">
<path d="M12.7047 4.20515H9.71298L11.6297 2.25905C11.7073 2.17981 11.769 2.08574 11.811 1.98222C11.8531 1.87869 11.8747 1.76773 11.8747 1.65567C11.8747 1.54361 11.8531 1.43265 11.811 1.32913C11.769 1.2256 11.7073 1.13153 11.6297 1.05229C11.552 0.973058 11.4597 0.910204 11.3582 0.867322C11.2567 0.824439 11.1479 0.802368 11.038 0.802368C10.8161 0.802368 10.6032 0.892269 10.4463 1.05229L7.70465 3.85672L4.96298 1.05229C4.88529 0.973058 4.79304 0.910204 4.69153 0.867322C4.59001 0.824439 4.4812 0.802368 4.37132 0.802368C4.26143 0.802368 4.15263 0.824439 4.05111 0.867322C3.94959 0.910204 3.85735 0.973058 3.77965 1.05229C3.62273 1.21232 3.53457 1.42936 3.53457 1.65567C3.53457 1.76773 3.55622 1.87869 3.59827 1.98222C3.64032 2.08574 3.70195 2.17981 3.77965 2.25905L5.69632 4.20515H2.70465C2.04161 4.20515 1.40572 4.47376 0.936884 4.95188C0.468043 5.43 0.204651 6.07846 0.204651 6.75463V15.2529C0.204651 15.9291 0.468043 16.5775 0.936884 17.0556C1.40572 17.5338 2.04161 17.8024 2.70465 17.8024H12.7047C13.3677 17.8024 14.0036 17.5338 14.4724 17.0556C14.9413 16.5775 15.2047 15.9291 15.2047 15.2529V6.75463C15.2047 6.07846 14.9413 5.43 14.4724 4.95188C14.0036 4.47376 13.3677 4.20515 12.7047 4.20515ZM13.538 15.2529C13.538 15.4783 13.4502 15.6944 13.2939 15.8538C13.1376 16.0132 12.9257 16.1027 12.7047 16.1027H2.70465C2.48364 16.1027 2.27168 16.0132 2.1154 15.8538C1.95912 15.6944 1.87132 15.4783 1.87132 15.2529V9.30411C1.87132 9.07872 1.95912 8.86256 2.1154 8.70319C2.27168 8.54382 2.48364 8.45428 2.70465 8.45428H12.7047C12.9257 8.45428 13.1376 8.54382 13.2939 8.70319C13.4502 8.86256 13.538 9.07872 13.538 9.30411V15.2529Z" fill="#F4904D"/>
</svg>
