<svg width="19" height="19" viewBox="0 0 19 19" fill="none" xmlns="http://www.w3.org/2000/svg">
<path fill-rule="evenodd" clip-rule="evenodd" d="M6.75155 8.12586C6.69552 8.16017 6.64679 8.2052 6.60817 8.25835C6.56954 8.31151 6.54177 8.37176 6.52645 8.43566C6.51112 8.49955 6.50854 8.56585 6.51886 8.63074C6.52917 8.69564 6.55217 8.75786 6.58655 8.81386C7.04605 9.56286 7.43655 10.3064 7.69655 10.9819C7.74416 11.1057 7.83899 11.2055 7.96019 11.2593C8.08138 11.3132 8.21901 11.3167 8.3428 11.2691C8.46659 11.2215 8.5664 11.1267 8.62027 11.0055C8.67414 10.8843 8.67766 10.7467 8.63006 10.6229C8.34105 9.87086 7.91705 9.07036 7.43905 8.29086C7.36975 8.17782 7.2584 8.09694 7.12947 8.06599C7.00054 8.03505 6.86461 8.05659 6.75155 8.12586ZM11.9586 7.64886C12.0655 7.72712 12.1371 7.84467 12.1574 7.97565C12.1778 8.10663 12.1453 8.24033 12.0671 8.34736C11.4886 9.13886 10.9791 10.1974 10.6206 11.0054C10.5939 11.0654 10.5557 11.1196 10.5081 11.1648C10.4605 11.21 10.4044 11.2455 10.3432 11.2691C10.2819 11.2926 10.2165 11.3039 10.1509 11.3023C10.0852 11.3006 10.0206 11.286 9.96056 11.2594C9.90054 11.2327 9.84637 11.1945 9.80112 11.1469C9.75588 11.0993 9.72045 11.0433 9.69687 10.982C9.67328 10.9207 9.662 10.8553 9.66366 10.7897C9.66532 10.7241 9.6799 10.6594 9.70656 10.5994C10.0686 9.78436 10.6136 8.64136 11.2601 7.75736C11.3383 7.65038 11.4559 7.57885 11.5868 7.55851C11.7178 7.53816 11.8515 7.57066 11.9586 7.64886Z" fill="#F4904D"/>
<path fill-rule="evenodd" clip-rule="evenodd" d="M10.7836 3.32084C11.9536 1.98184 18.2161 0.302338 18.2161 0.302338C18.2161 0.302338 17.1516 6.99985 16.2151 8.07085C15.5176 8.86885 13.2951 8.37035 12.2061 8.06385C13.0201 6.81535 13.9636 5.59584 14.7931 4.62784C14.8777 4.52698 14.9191 4.3968 14.9084 4.26557C14.8976 4.13435 14.8355 4.01266 14.7355 3.92694C14.6356 3.84122 14.5059 3.79838 14.3746 3.80773C14.2432 3.81707 14.1209 3.87784 14.0341 3.97684C13.1976 4.95284 12.2281 6.20185 11.3791 7.50035C10.9021 6.61235 9.85756 4.37934 10.7836 3.32034V3.32084ZM2.66355 12.3024H0.163547V18.3024H2.66355V17.2809C3.17355 17.2599 3.92655 17.2329 4.18705 17.2434C5.08055 17.2799 5.74705 17.4929 6.42205 17.7084C7.05106 17.9089 7.68656 18.1119 8.51806 18.1754C8.72706 18.1914 8.93056 18.2119 9.12806 18.2314C9.83956 18.3034 10.4711 18.3674 10.9931 18.1754C11.6591 17.9304 15.4661 16.0669 15.9421 15.5764C16.4181 15.0864 16.1801 13.7624 14.7046 14.0074C13.9766 14.1284 13.1331 14.4764 12.3676 14.7919C11.5821 15.1154 10.8791 15.4054 10.4691 15.3804C9.66006 15.3314 7.51906 14.9394 7.51906 14.9394L9.97756 14.9694C9.97756 14.9694 10.3251 14.9874 10.8026 14.6449C11.2801 14.3024 11.7066 13.3209 10.9926 13.3209C10.2791 13.3209 9.51756 13.0759 9.51756 13.0759L6.47155 12.3894C6.47155 12.3894 5.42455 12.1934 4.99655 12.3894C4.64355 12.5509 3.17255 13.0779 2.66355 13.2594V12.3024ZM1.60255 2.13734C1.60255 2.13734 6.77006 3.52334 7.73606 4.62784C8.48256 5.48134 7.67806 7.25885 7.27306 8.02385C6.74215 7.19034 6.16907 6.38446 5.55605 5.60934C5.51538 5.5578 5.46495 5.51477 5.40764 5.48272C5.35033 5.45067 5.28728 5.43021 5.22207 5.42253C5.15686 5.41484 5.09077 5.42008 5.02758 5.43794C4.9644 5.45579 4.90535 5.48592 4.8538 5.52659C4.80226 5.56727 4.75923 5.6177 4.72718 5.67501C4.69512 5.73231 4.67467 5.79537 4.66699 5.86058C4.6593 5.92579 4.66454 5.99188 4.68239 6.05506C4.70025 6.11825 4.73038 6.1773 4.77105 6.22885C5.36691 6.98225 5.92365 7.76578 6.43905 8.57635C5.50505 8.82935 3.80405 9.17785 3.25405 8.54835C2.48105 7.66435 1.60255 2.13684 1.60255 2.13684V2.13734Z" fill="#F4904D"/>
</svg>
