<svg width="12" height="14" viewBox="0 0 12 14" fill="none" xmlns="http://www.w3.org/2000/svg">
<path d="M2.95465 13.8721C2.1984 13.8721 1.55101 13.6175 1.01246 13.1084C0.473922 12.5992 0.204651 11.9871 0.204651 11.2721V4.77213C0.204651 4.05713 0.473922 3.44505 1.01246 2.93588C1.55101 2.42671 2.1984 2.17213 2.95465 2.17213H3.64215V0.872131H5.01715V2.17213H6.39215V0.872131H7.76715V2.17213H8.45465C9.2109 2.17213 9.8583 2.42671 10.3968 2.93588C10.9354 3.44505 11.2047 4.05713 11.2047 4.77213V11.2721C11.2047 11.9871 10.9354 12.5992 10.3968 13.1084C9.8583 13.6175 9.2109 13.8721 8.45465 13.8721H2.95465ZM2.95465 6.07213H8.45465V4.77213H2.95465V6.07213ZM5.70465 11.2721C6.1859 11.2721 6.59267 11.1179 6.92496 10.8093C7.25725 10.5004 7.4234 10.1238 7.4234 9.67963C7.4234 9.32213 7.31455 9.01598 7.09684 8.76118C6.87913 8.50681 6.41507 7.98963 5.70465 7.20963C4.98278 7.98963 4.51596 8.50963 4.30421 8.76963C4.09201 9.02963 3.9859 9.33296 3.9859 9.67963C3.9859 10.1238 4.15205 10.5004 4.48434 10.8093C4.81663 11.1179 5.2234 11.2721 5.70465 11.2721Z" fill="#F4904D"/>
</svg>
