<svg width="20" height="18" viewBox="0 0 20 18" fill="none" xmlns="http://www.w3.org/2000/svg">
<path d="M14.54 0.337316C14.1345 0.334793 13.7389 0.465889 13.4113 0.711362C13.0837 0.956835 12.8413 1.30376 12.7196 1.70121L11.9611 4.18545C11.6119 4.19868 11.268 4.27794 10.9467 4.41926L9.21164 2.50006L7.95066 1.05823C7.76669 1.23138 7.61778 1.44013 7.51247 1.67252C7.40715 1.9049 7.3475 2.15636 7.33693 2.41248C7.32636 2.66859 7.36508 2.92434 7.45088 3.16505C7.53667 3.40576 7.66784 3.62672 7.83689 3.81525L9.55295 5.73444C9.46862 5.89307 9.3988 6.0594 9.34437 6.23129C9.29454 6.39982 9.25963 6.57263 9.24008 6.74762L6.76553 7.31266L4.90725 7.74131C4.96108 7.9916 5.06246 8.22852 5.20556 8.43848C5.34866 8.64844 5.53067 8.82733 5.74117 8.96489C5.95167 9.10245 6.18651 9.19598 6.43225 9.24012C6.67799 9.28426 6.92978 9.27814 7.17321 9.22211L9.64776 8.64733C9.83243 8.95244 10.0703 9.21995 10.3494 9.43644L9.59088 11.9207L9.02202 13.7814C9.50104 13.934 10.0194 13.8854 10.4636 13.6462C10.9078 13.407 11.2417 12.9968 11.3923 12.5052L12.1602 10.0307C12.5095 10.0175 12.8534 9.93821 13.1747 9.7969L14.9003 11.7161L16.1612 13.1482C16.5313 12.8001 16.752 12.3156 16.7751 11.8007C16.7982 11.2858 16.6218 10.7825 16.2845 10.4009L14.5684 8.48171C14.6495 8.32273 14.7161 8.15641 14.7675 7.98486C14.8276 7.81412 14.872 7.638 14.9003 7.45879L17.3558 6.89375L19.2047 6.47484C19.0958 5.97142 18.7972 5.53288 18.3742 5.25531C17.9512 4.97774 17.4384 4.88378 16.9482 4.99404L14.4736 5.55908C14.288 5.25746 14.0502 4.99331 13.772 4.77971L14.5305 2.28574L15.0994 0.434737C14.9187 0.373622 14.7301 0.34078 14.54 0.337316ZM12.1128 5.64676C12.2385 5.65259 12.3628 5.67552 12.4826 5.71495C12.842 5.83142 13.1418 6.08973 13.316 6.43314C13.4902 6.77656 13.5247 7.17699 13.4117 7.54647C13.2984 7.91582 13.047 8.22383 12.7128 8.40284C12.3786 8.58186 11.9889 8.61723 11.6293 8.5012C11.2699 8.38473 10.9701 8.12642 10.7959 7.78301C10.6217 7.43959 10.5872 7.03916 10.7002 6.66968C10.7932 6.36509 10.9808 6.10019 11.2341 5.91546C11.4875 5.73074 11.7928 5.63637 12.1034 5.64676M5.89327 10.1963C4.73659 11.0341 3.41872 11.492 2.10086 11.492H0.204651V13.4404H2.10086C3.39976 13.4404 4.69866 13.0995 5.89327 12.4662C6.62331 12.8559 7.39128 13.1092 8.1782 13.2553L8.6807 11.6284L8.76603 11.3751C7.76104 11.229 6.77501 10.8296 5.89327 10.1963ZM17.6972 11.492C17.7446 12.174 17.5834 12.8657 17.1852 13.4404H19.1667V11.492H17.6972ZM5.89327 14.0932C4.73659 14.931 3.41872 15.3889 2.10086 15.3889H0.204651V17.3373H2.10086C3.39976 17.3373 4.69866 16.9963 5.89327 16.3631C8.26353 17.6295 11.1078 17.6295 13.4781 16.3631C14.6727 16.9963 15.9621 17.3373 17.2705 17.3373H19.1667V15.3889H17.2705C15.9527 15.3889 14.6348 14.931 13.4781 14.0932C11.1647 15.7591 8.20665 15.7591 5.89327 14.0932Z" fill="#F4904D"/>
</svg>
