<svg width="21" height="17" viewBox="0 0 21 17" fill="none" xmlns="http://www.w3.org/2000/svg">
<path d="M10.9324 0.767441L0.932388 8.23411L2.03239 9.64744L3.65966 8.42966V16.7674H18.2051V8.42966L19.8324 9.63855L20.9324 8.23411L10.9324 0.767441ZM7.29602 11.4341C6.79602 11.4341 6.38693 11.0341 6.38693 10.5452C6.38693 10.0563 6.79602 9.65633 7.29602 9.65633C7.79602 9.65633 8.20512 10.0563 8.20512 10.5452C8.20512 11.0341 7.79602 11.4341 7.29602 11.4341ZM10.9324 11.4341C10.4324 11.4341 10.0233 11.0341 10.0233 10.5452C10.0233 10.0563 10.4324 9.65633 10.9324 9.65633C11.4324 9.65633 11.8415 10.0563 11.8415 10.5452C11.8415 11.0341 11.4324 11.4341 10.9324 11.4341ZM14.5688 11.4341C14.0688 11.4341 13.6597 11.0341 13.6597 10.5452C13.6597 10.0563 14.0688 9.65633 14.5688 9.65633C15.0688 9.65633 15.4778 10.0563 15.4778 10.5452C15.4778 11.0341 15.0688 11.4341 14.5688 11.4341Z" fill="#F4904D"/>
</svg>
