<svg width="17" height="14" viewBox="0 0 17 14" fill="none" xmlns="http://www.w3.org/2000/svg">
<path d="M16.2362 3.41322L16.4248 4.25321C16.4534 4.38064 16.4534 4.50692 16.4294 4.62577C16.451 4.71017 16.453 4.7984 16.4353 4.8837C16.4176 4.969 16.3806 5.04912 16.3272 5.11793C16.2737 5.18674 16.2053 5.24243 16.127 5.28073C16.0488 5.31903 15.9628 5.33893 15.8757 5.33891H14.5871L13.7397 4.20921V4.20807C13.6041 4.02664 13.428 3.87941 13.2254 3.77812C13.0228 3.67682 12.7994 3.62427 12.5729 3.62465H12.4472V2.65895C12.4472 2.24639 12.1112 1.91039 11.6986 1.91039H10.9101C10.4975 1.91039 10.1615 2.24639 10.1615 2.65895V3.61894H6.73298V2.65895C6.73298 2.24639 6.39699 1.91039 5.98442 1.91039H5.19586C4.7833 1.91039 4.4473 2.24639 4.4473 2.65895V3.62465H4.32159C3.85989 3.62465 3.42846 3.84236 3.15018 4.21321L2.30677 5.33891H1.01879C0.931671 5.33893 0.845699 5.31903 0.767448 5.28073C0.689198 5.24243 0.620741 5.18674 0.567311 5.11793C0.513882 5.04912 0.476894 4.969 0.459177 4.8837C0.441459 4.7984 0.44348 4.71017 0.465086 4.62577C0.440071 4.50268 0.441629 4.37566 0.469658 4.25321L0.652512 3.41322C0.856213 2.50105 1.36447 1.68544 2.09359 1.10069C2.82272 0.515935 3.72923 0.196908 4.66387 0.196136H12.2306C13.1648 0.196227 14.071 0.515119 14.7993 1.10009C15.5277 1.68506 16.0346 2.50107 16.2362 3.41322Z" fill="#F4904D"/>
<path d="M13.2814 4.55035L15.3728 7.33887C16.0702 8.26641 16.4473 9.39549 16.4471 10.556V12.4474C16.4471 12.9388 16.0471 13.3388 15.5557 13.3388H1.33879C0.847366 13.3388 0.447372 12.9388 0.447372 12.4474V10.556C0.447372 9.39598 0.824509 8.26457 1.52164 7.33887L3.60732 4.55606C3.77874 4.32749 4.0416 4.19607 4.32159 4.19607H4.84158C4.93872 4.19607 5.01872 4.11607 5.01872 4.01893V2.65895C5.01872 2.56181 5.09872 2.48181 5.19586 2.48181H5.98442C6.08156 2.48181 6.16156 2.56181 6.16156 2.65895V4.01893C6.16156 4.11607 6.24156 4.19607 6.3387 4.19607H10.5558C10.6529 4.19607 10.7329 4.11607 10.7329 4.01893V2.65895C10.7329 2.56181 10.8129 2.48181 10.9101 2.48181H11.6986C11.7958 2.48181 11.8757 2.56181 11.8757 2.65895V4.01893C11.8757 4.11607 11.9557 4.19607 12.0529 4.19607H12.5729C12.8529 4.19607 13.1157 4.32749 13.2814 4.55035ZM7.13183 7.05316C7.22897 7.05316 7.30954 6.97316 7.30383 6.87488V6.08861C7.30368 6.04147 7.28492 5.99629 7.25165 5.96291C7.21837 5.92952 7.17325 5.91063 7.12612 5.91032H6.33927C6.24213 5.91032 6.16156 5.99032 6.16156 6.08861V6.87488C6.16156 6.97259 6.24156 7.05316 6.34556 7.05316H7.13183ZM8.84609 7.05316C8.86928 7.05334 8.89227 7.0488 8.91367 7.03983C8.93506 7.03086 8.95441 7.01763 8.97054 7.00097C8.98667 6.9843 8.99926 6.96453 9.00753 6.94286C9.0158 6.92118 9.01958 6.89806 9.01865 6.87488V6.08861C9.01836 6.04142 8.99948 5.99624 8.96611 5.96287C8.93274 5.9295 8.88756 5.91062 8.84037 5.91032H8.0541C8.00686 5.91048 7.9616 5.92931 7.9282 5.96271C7.8948 5.99611 7.87597 6.04137 7.87582 6.08861V6.87488C7.87582 6.97259 7.95582 7.05316 8.05981 7.05316H8.84609ZM9.7735 7.05316H10.5603C10.5835 7.05334 10.6065 7.0488 10.6279 7.03983C10.6493 7.03086 10.6687 7.01763 10.6848 7.00097C10.7009 6.9843 10.7135 6.96453 10.7218 6.94286C10.7301 6.92118 10.7338 6.89806 10.7329 6.87488V6.08861C10.7326 6.04142 10.7137 5.99624 10.6804 5.96287C10.647 5.9295 10.6018 5.91062 10.5546 5.91032H9.76779C9.67064 5.91032 9.59007 5.99032 9.59007 6.08861V6.87488C9.59007 6.97259 9.67007 7.05316 9.77407 7.05316H9.7735ZM7.13183 8.76742C7.22897 8.76742 7.30954 8.68742 7.30383 8.58914V7.80286C7.30368 7.75572 7.28492 7.71055 7.25165 7.67717C7.21837 7.64378 7.17325 7.62488 7.12612 7.62458H6.33927C6.24213 7.62458 6.16156 7.70458 6.16156 7.80286V8.58914C6.16156 8.68685 6.24156 8.76742 6.34556 8.76742H7.13183ZM8.05924 8.76742H8.84609C8.86928 8.76759 8.89227 8.76306 8.91367 8.75408C8.93506 8.74511 8.95441 8.73189 8.97054 8.71522C8.98667 8.69856 8.99926 8.67879 9.00753 8.65711C9.0158 8.63544 9.01958 8.61231 9.01865 8.58914V7.80286C9.01836 7.75567 8.99948 7.7105 8.96611 7.67713C8.93274 7.64376 8.88756 7.62488 8.84037 7.62458H8.0541C8.00686 7.62473 7.9616 7.64356 7.9282 7.67697C7.8948 7.71037 7.87597 7.75563 7.87582 7.80286V8.58914C7.87582 8.68685 7.95582 8.76742 8.05981 8.76742H8.05924ZM10.5603 8.76742C10.5835 8.76759 10.6065 8.76306 10.6279 8.75408C10.6493 8.74511 10.6687 8.73189 10.6848 8.71522C10.7009 8.69856 10.7135 8.67879 10.7218 8.65711C10.7301 8.63544 10.7338 8.61231 10.7329 8.58914V7.80286C10.7326 7.75567 10.7137 7.7105 10.6804 7.67713C10.647 7.64376 10.6018 7.62488 10.5546 7.62458H9.76779C9.67064 7.62458 9.59007 7.70458 9.59007 7.80286V8.58914C9.59007 8.68685 9.67007 8.76742 9.77407 8.76742H10.5603ZM6.34499 10.4817H7.13183C7.22897 10.4817 7.30954 10.4017 7.30383 10.3034V9.51712C7.30368 9.46998 7.28492 9.42481 7.25165 9.39142C7.21837 9.35804 7.17325 9.33914 7.12612 9.33884H6.33927C6.24213 9.33884 6.16156 9.41884 6.16156 9.51712V10.3034C6.16156 10.4011 6.24156 10.4817 6.34556 10.4817H6.34499ZM8.84609 10.4817C8.86928 10.4818 8.89227 10.4773 8.91367 10.4683C8.93506 10.4594 8.95441 10.4461 8.97054 10.4295C8.98667 10.4128 8.99926 10.393 9.00753 10.3714C9.0158 10.3497 9.01958 10.3266 9.01865 10.3034V9.51712C9.01836 9.46993 8.99948 9.42476 8.96611 9.39139C8.93274 9.35802 8.88756 9.33914 8.84037 9.33884H8.0541C8.00686 9.33899 7.9616 9.35782 7.9282 9.39122C7.8948 9.42462 7.87597 9.46988 7.87582 9.51712V10.3034C7.87582 10.4011 7.95582 10.4817 8.05981 10.4817H8.84609ZM9.7735 10.4817H10.5603C10.5835 10.4818 10.6065 10.4773 10.6279 10.4683C10.6493 10.4594 10.6687 10.4461 10.6848 10.4295C10.7009 10.4128 10.7135 10.393 10.7218 10.3714C10.7301 10.3497 10.7338 10.3266 10.7329 10.3034V9.51712C10.7326 9.46993 10.7137 9.42476 10.6804 9.39139C10.647 9.35802 10.6018 9.33914 10.5546 9.33884H9.76779C9.67064 9.33884 9.59007 9.41884 9.59007 9.51712V10.3034C9.59007 10.4011 9.67007 10.4817 9.77407 10.4817H9.7735Z" fill="#F4904D"/>
</svg>
