<svg width="16" height="23" viewBox="0 0 16 23" fill="none" xmlns="http://www.w3.org/2000/svg">
<path d="M7.08991 5.32222C7.74633 5.32222 8.37587 5.06146 8.84003 4.5973C9.30419 4.13314 9.56496 3.5036 9.56496 2.84718C9.56496 2.19075 9.30419 1.56122 8.84003 1.09706C8.37587 0.632894 7.74633 0.372131 7.08991 0.372131C6.43349 0.372131 5.80395 0.632894 5.33979 1.09706C4.87563 1.56122 4.61487 2.19075 4.61487 2.84718C4.61487 3.5036 4.87563 4.13314 5.33979 4.5973C5.80395 5.06146 6.43349 5.32222 7.08991 5.32222ZM14.24 11.9223C13.8024 11.9223 13.3827 12.0962 13.0733 12.4056C12.7639 12.7151 12.59 13.1348 12.59 13.5724V13.761C12.59 13.9069 12.648 14.0468 12.7511 14.1499C12.8543 14.2531 12.9942 14.311 13.14 14.311C13.2859 14.311 13.4258 14.2531 13.5289 14.1499C13.6321 14.0468 13.69 13.9069 13.69 13.761V13.5724C13.69 13.4265 13.748 13.2866 13.8511 13.1835C13.9543 13.0803 14.0942 13.0224 14.24 13.0224C14.3859 13.0224 14.5258 13.0803 14.629 13.1835C14.7321 13.2866 14.7901 13.4265 14.7901 13.5724V21.7928C14.7901 21.9387 14.848 22.0786 14.9511 22.1817C15.0543 22.2849 15.1942 22.3428 15.3401 22.3428C15.4859 22.3428 15.6258 22.2849 15.729 22.1817C15.8321 22.0786 15.8901 21.9387 15.8901 21.7928V13.5724C15.8901 13.1348 15.7162 12.7151 15.4068 12.4056C15.0974 12.0962 14.6777 11.9223 14.24 11.9223ZM11.3299 9.27075L10.39 8.86044L11.2672 9.2328L11.3299 9.27075ZM12.0043 9.85486C11.813 9.62451 11.5852 9.42718 11.3299 9.27075L14.7901 10.7827V10.7299V10.731C14.8423 11.336 14.3748 11.8679 13.7456 11.919C13.1219 11.9685 12.573 11.5263 12.513 10.9285V10.9274C12.4965 10.8303 12.4726 10.7347 12.4415 10.6414C12.3451 10.3546 12.1969 10.0881 12.0043 9.85486Z" fill="#F4904D"/>
<path fill-rule="evenodd" clip-rule="evenodd" d="M14.7901 10.7294L11.2672 9.23334C10.9915 9.07286 10.6968 8.9474 10.39 8.85989V21.2725C10.3899 21.5547 10.2813 21.8261 10.0868 22.0305C9.89224 22.2349 9.62659 22.3567 9.34475 22.3708C9.06291 22.3848 8.78645 22.29 8.57254 22.106C8.35863 21.922 8.22362 21.6627 8.19543 21.382L7.64542 15.8819C7.64178 15.8455 7.63995 15.809 7.63992 15.7724H6.5399C6.5399 15.8087 6.53825 15.8456 6.5344 15.8819L5.98439 21.382C5.95621 21.6627 5.8212 21.922 5.60729 22.106C5.39337 22.29 5.11691 22.3848 4.83508 22.3708C4.55324 22.3567 4.28759 22.2349 4.09304 22.0305C3.8985 21.8261 3.78996 21.5547 3.78985 21.2725V13.5278C2.86638 13.4052 2.09032 13.0339 1.51501 12.4691C1.18537 12.146 0.924583 11.7595 0.748381 11.3329C0.57218 10.9063 0.484215 10.4484 0.48979 9.98686C0.494356 9.52667 0.590025 9.07194 0.771277 8.64893C0.952528 8.22592 1.21577 7.84299 1.54581 7.52226C2.25532 6.8298 3.26679 6.42224 4.48011 6.42224H8.50619C11.2414 6.42224 12.8755 7.36936 13.7973 8.48973C14.1598 8.92923 14.4383 9.43169 14.619 9.97201C14.6993 10.214 14.762 10.4632 14.789 10.7162V10.7244L14.7901 10.7277V10.7294ZM3.14689 10.9285C3.28824 11.0671 3.49395 11.2013 3.78985 11.2849V8.71578C3.51485 8.79939 3.31464 8.92974 3.17219 9.06834C3.04752 9.19109 2.94835 9.33729 2.88039 9.49851C2.81243 9.65973 2.77701 9.8328 2.77618 10.0078C2.77288 10.3598 2.90379 10.6898 3.14689 10.9285Z" fill="#F4904D"/>
</svg>
