<svg width="15" height="15" viewBox="0 0 15 15" fill="none" xmlns="http://www.w3.org/2000/svg">
<path d="M10.4862 7.38589L11.7071 6.1647L8.79086 3.24786L7.56992 4.46904L4.35035 1.25662C3.74377 0.64992 2.75613 0.64992 2.14954 1.25662L0.671965 2.73449C0.0653803 3.3412 0.0653803 4.32904 0.671965 4.93574L3.88375 8.14816L0.189808 11.8506V14.7675H3.10608L6.8078 11.065L10.0196 14.2774C10.7584 15.0164 11.7538 14.7441 12.2204 14.2774L13.698 12.7996C14.3046 12.1929 14.3046 11.205 13.698 10.5983L10.4862 7.38589ZM4.99582 7.04365L1.77626 3.83123L3.24606 2.35336L4.2337 3.3412L3.31605 4.26681L4.41257 5.36354L5.338 4.43793L6.46562 5.56578L4.99582 7.04365ZM11.1239 13.1807L7.91209 9.96827L9.38967 8.4904L10.5173 9.61825L9.59187 10.5439L10.6884 11.6406L11.6138 10.715L12.6015 11.7028L11.1239 13.1807ZM13.9624 3.90901C14.0345 3.83705 14.0917 3.75158 14.1307 3.65748C14.1697 3.56338 14.1898 3.46251 14.1898 3.36064C14.1898 3.25877 14.1697 3.1579 14.1307 3.06381C14.0917 2.96971 14.0345 2.88423 13.9624 2.81228L12.1426 0.992163C11.7771 0.626585 11.2716 0.766594 11.0461 0.992163L9.62297 2.41558L12.5392 5.33243L13.9624 3.90901Z" fill="#F4904D"/>
</svg>
