<svg width="17" height="15" viewBox="0 0 17 15" fill="none" xmlns="http://www.w3.org/2000/svg">
<path d="M0.917823 5.66487H0.447235V1.32004H1.38841V5.66487H0.917823ZM13.4148 11.738C13.571 11.5193 13.7282 11.33 13.859 11.1818C13.9898 11.33 14.147 11.5198 14.3032 11.738C14.6995 12.2931 15.0355 12.9555 15.0355 13.5647C15.0355 14.285 14.4919 14.8373 13.859 14.8373C13.2261 14.8373 12.6825 14.285 12.6825 13.5647C12.6825 12.9555 13.0185 12.2927 13.4148 11.738ZM15.9766 7.11314H16.4472V9.04418H10.8002V7.11314H11.7414V6.14762C11.7414 5.76352 11.5926 5.39514 11.3279 5.12354C11.0631 4.85193 10.704 4.69935 10.3296 4.69935V0.83728H11.2708C12.394 0.83728 13.4713 1.29504 14.2656 2.10985C15.0598 2.92466 15.5061 4.02979 15.5061 5.18211V7.11314H15.9766ZM6.09429 0.83728H8.44724V6.14762H3.27076V0.83728H6.09429Z" fill="#F4904D"/>
</svg>
