<svg width="19" height="19" viewBox="0 0 19 19" fill="none" xmlns="http://www.w3.org/2000/svg">
<path d="M18.4472 0.302368H9.44721C9.182 0.302368 8.92764 0.407737 8.74011 0.595294C8.55257 0.782851 8.44721 1.03723 8.44721 1.30248V3.3027H18.4472V0.302368ZM6.29972 11.8982C6.76572 11.6856 7.90472 11.8982 7.90472 11.8982L11.2177 12.6412C11.2177 12.6412 12.0462 12.9068 12.8227 12.9068C13.5992 12.9068 13.1347 13.9699 12.6152 14.3409C12.0962 14.712 11.7182 14.692 11.7182 14.692L9.04321 14.6595C9.04321 14.6595 11.3732 15.0845 12.2532 15.1375C12.6987 15.1645 13.4632 14.8505 14.3182 14.4999C15.1507 14.1579 16.0682 13.7814 16.8602 13.6504C18.4652 13.3853 18.7242 14.819 18.2062 15.35C17.6887 15.8811 13.5472 17.8988 12.8227 18.1644C12.2547 18.3724 11.5682 18.3034 10.7937 18.2254C10.5792 18.2039 10.3577 18.1814 10.1307 18.1644C9.22571 18.0958 8.53471 17.8758 7.85072 17.6583C7.11672 17.4253 6.39122 17.1947 5.41972 17.1552C5.09372 17.1422 4.33072 17.1827 3.94723 17.2052V12.7738C4.61022 12.5377 5.95272 12.0557 6.29972 11.8977V11.8982ZM0.947234 11.8036C0.814626 11.8036 0.687449 11.8563 0.593681 11.9501C0.499913 12.0439 0.447235 12.1711 0.447235 12.3037V17.8023C0.447235 17.9349 0.499913 18.0621 0.593681 18.1559C0.687449 18.2497 0.814626 18.3024 0.947234 18.3024H2.44723C2.57984 18.3024 2.70701 18.2497 2.80078 18.1559C2.89455 18.0621 2.94723 17.9349 2.94723 17.8023V12.3042C2.94723 12.1716 2.89455 12.0444 2.80078 11.9506C2.70701 11.8568 2.57984 11.8041 2.44723 11.8041H0.947234V11.8036ZM8.94721 4.30281C8.8146 4.30281 8.68743 4.3555 8.59366 4.44928C8.49989 4.54305 8.44721 4.67025 8.44721 4.80287C8.44721 4.93549 8.49989 5.06268 8.59366 5.15646C8.68743 5.25024 8.8146 5.30292 8.94721 5.30292H11.9472C12.0798 5.30292 12.207 5.25024 12.3008 5.15646C12.3945 5.06268 12.4472 4.93549 12.4472 4.80287C12.4472 4.67025 12.3945 4.54305 12.3008 4.44928C12.207 4.3555 12.0798 4.30281 11.9472 4.30281H8.94721ZM10.4472 6.38905C10.5798 6.38905 10.707 6.44173 10.8008 6.53551C10.8945 6.62929 10.9472 6.75648 10.9472 6.8891V7.88921C10.9472 8.02184 10.8945 8.14903 10.8008 8.2428C10.707 8.33658 10.5798 8.38927 10.4472 8.38927C10.3146 8.38927 10.1874 8.33658 10.0937 8.2428C9.99989 8.14903 9.94721 8.02184 9.94721 7.88921V6.8891C9.94721 6.75648 9.99989 6.62929 10.0937 6.53551C10.1874 6.44173 10.3146 6.38905 10.4472 6.38905ZM12.5077 6.44955C12.4134 6.35846 12.2871 6.30806 12.156 6.3092C12.0249 6.31034 11.8995 6.36293 11.8068 6.45564C11.7141 6.54836 11.6615 6.67378 11.6604 6.80489C11.6592 6.936 11.7096 7.06232 11.8007 7.15663L12.5077 7.86371C12.5541 7.91017 12.6092 7.94703 12.6699 7.97219C12.7306 7.99734 12.7956 8.0103 12.8613 8.01033C12.9269 8.01035 12.992 7.99744 13.0527 7.97232C13.1134 7.94721 13.1685 7.91039 13.215 7.86396C13.2614 7.81753 13.2983 7.76241 13.3234 7.70173C13.3486 7.64106 13.3615 7.57603 13.3616 7.51035C13.3616 7.44467 13.3487 7.37962 13.3236 7.31893C13.2984 7.25824 13.2616 7.20309 13.2152 7.15663L12.5077 6.44955ZM7.59372 7.94972C7.49998 7.85594 7.44732 7.72878 7.44732 7.59618C7.44732 7.46358 7.49998 7.33641 7.59372 7.24264L8.30071 6.53506C8.39454 6.4413 8.52176 6.38865 8.65439 6.38869C8.78703 6.38874 8.91421 6.44148 9.00796 6.53531C9.10172 6.62914 9.15436 6.75638 9.15431 6.88903C9.15427 7.02168 9.10153 7.14888 9.00771 7.24264L8.30071 7.94972C8.20695 8.04346 8.0798 8.09613 7.94722 8.09613C7.81463 8.09613 7.68748 8.04346 7.59372 7.94972ZM10.9472 9.38938C10.9472 9.25676 10.8945 9.12956 10.8008 9.03579C10.707 8.94201 10.5798 8.88932 10.4472 8.88932C10.3146 8.88932 10.1874 8.94201 10.0937 9.03579C9.99989 9.12956 9.94721 9.25676 9.94721 9.38938V10.3895C9.94721 10.5221 9.99989 10.6493 10.0937 10.7431C10.1874 10.8369 10.3146 10.8895 10.4472 10.8895C10.5798 10.8895 10.707 10.8369 10.8008 10.7431C10.8945 10.6493 10.9472 10.5221 10.9472 10.3895V9.38938ZM13.5507 8.19975C13.6445 8.106 13.7716 8.05334 13.9042 8.05334C14.0368 8.05334 14.1639 8.106 14.2577 8.19975L14.9647 8.90683C15.0558 9.00114 15.1062 9.12745 15.105 9.25856C15.1039 9.38968 15.0513 9.5151 14.9586 9.60781C14.8659 9.70053 14.7405 9.75312 14.6094 9.75426C14.4783 9.7554 14.352 9.70499 14.2577 9.6139L13.5507 8.90683C13.457 8.81305 13.4043 8.68588 13.4043 8.55329C13.4043 8.42069 13.457 8.29352 13.5507 8.19975ZM5.84372 8.86782C5.75264 8.96213 5.70224 9.08845 5.70338 9.21956C5.70452 9.35067 5.75711 9.47609 5.84981 9.56881C5.94252 9.66152 6.06792 9.71411 6.19902 9.71525C6.33012 9.71639 6.45642 9.66599 6.55072 9.5749L7.25772 8.86782C7.30417 8.82139 7.34103 8.76627 7.36618 8.7056C7.39134 8.64492 7.40429 8.57989 7.40432 8.51421C7.40434 8.44853 7.39143 8.38348 7.36632 8.32279C7.34121 8.2621 7.30439 8.20695 7.25797 8.16049C7.21154 8.11403 7.15643 8.07717 7.09576 8.05201C7.0351 8.02686 6.97007 8.0139 6.9044 8.01387C6.83872 8.01385 6.77369 8.02676 6.713 8.05188C6.65232 8.07699 6.59717 8.11381 6.55072 8.16024L5.84372 8.86782Z" fill="#F4904D"/>
</svg>
