<svg width="17" height="19" viewBox="0 0 17 19" fill="none" xmlns="http://www.w3.org/2000/svg">
<path d="M15.905 13.3248L14.5053 12.5162L15.7229 12.1892C16.0229 12.1084 16.2014 11.799 16.1193 11.5002L15.9729 10.9552C15.8943 10.6564 15.5837 10.4771 15.2837 10.558L12.4377 11.3209L9.87386 9.83728L12.4413 8.35369L15.2873 9.11658C15.5872 9.19744 15.8943 9.01814 15.9765 8.71931L16.1229 8.17439C16.2014 7.87556 16.0264 7.56619 15.7265 7.48533L14.5088 7.15837L15.9086 6.34978C16.1764 6.19509 16.2693 5.85056 16.1157 5.57986L15.8336 5.09119C15.6801 4.82048 15.3337 4.72908 15.0659 4.88376L13.6661 5.69236L13.9911 4.47244C14.0696 4.17361 13.8946 3.86423 13.5947 3.78337L13.0519 3.63923C12.752 3.55837 12.4449 3.73767 12.3627 4.0365L11.6022 6.88416L9.0347 8.36775V5.39705L11.1165 3.31228C11.3343 3.09431 11.3343 2.73572 11.1165 2.51775L10.7201 2.12048C10.5023 1.90251 10.1452 1.90251 9.92742 2.12048L9.03827 3.01345V1.39978C9.03827 1.09041 8.78831 0.83728 8.47765 0.83728H7.91702C7.60636 0.83728 7.3564 1.09041 7.3564 1.39978V3.02048L6.46726 2.12751C6.24943 1.90955 5.89235 1.90955 5.67453 2.12751L5.26388 2.52478C5.04605 2.74275 5.04605 3.10134 5.26388 3.31931L7.34569 5.40408V8.37478L4.77824 6.89119L4.01765 4.04353C3.93909 3.7447 3.62842 3.56541 3.32847 3.64626L2.7857 3.79041C2.48575 3.87126 2.3072 4.18064 2.38933 4.47947L2.71428 5.69939L1.3145 4.8908C1.04669 4.73611 0.703888 4.82751 0.54677 5.09822L0.264672 5.58689C0.111125 5.85759 0.200397 6.19861 0.471782 6.35681L1.87156 7.16541L0.653896 7.48533C0.353944 7.56619 0.175401 7.87556 0.25753 8.17439L0.403936 8.71931C0.482495 9.01814 0.793159 9.19744 1.09311 9.11658L3.93909 8.35369L6.50654 9.83728L3.93909 11.3209L1.09311 10.558C0.793159 10.4771 0.486065 10.6564 0.403936 10.9552L0.25753 11.5002C0.178972 11.799 0.353944 12.1084 0.653896 12.1892L1.87156 12.5162L0.471782 13.3248C0.203968 13.4795 0.111125 13.824 0.264672 14.0947L0.54677 14.5834C0.700317 14.8541 1.04669 14.9455 1.3145 14.7908L2.71428 13.9822L2.38933 15.2021C2.31077 15.501 2.48575 15.8103 2.7857 15.8912L3.32847 16.0353C3.62842 16.1162 3.93552 15.9369 4.01765 15.6381L4.77824 12.7904L7.34569 11.3068V14.2775L5.26388 16.3623C5.04605 16.5802 5.04605 16.9388 5.26388 17.1568L5.66024 17.5541C5.87806 17.772 6.23515 17.772 6.45297 17.5541L7.34212 16.6611V18.2748C7.34212 18.5842 7.59208 18.8373 7.90274 18.8373H8.46337C8.77403 18.8373 9.02399 18.5842 9.02399 18.2748V16.6541L9.91313 17.547C10.131 17.765 10.488 17.765 10.7059 17.547L11.1022 17.1498C11.3201 16.9318 11.3201 16.5732 11.1022 16.3552L9.02042 14.2705V11.2998L11.5879 12.7834L12.3485 15.631C12.427 15.9299 12.7377 16.1092 13.0376 16.0283L13.5804 15.8842C13.8804 15.8033 14.0589 15.4939 13.9768 15.1951L13.6518 13.9752L15.0516 14.7838C15.3194 14.9385 15.6622 14.847 15.8193 14.5763L16.1014 14.0877C16.2657 13.824 16.1764 13.4795 15.905 13.3248Z" fill="#F4904D"/>
</svg>
