<svg width="605" height="115" viewBox="0 0 605 115" fill="none" xmlns="http://www.w3.org/2000/svg">
<path d="M436.039 60.8879C435.734 61.7339 435.592 62.6345 435.62 63.5382C435.648 64.4419 435.845 65.331 436.202 66.1547C436.558 66.9784 437.066 67.7206 437.696 68.339C438.326 68.9574 439.067 69.4398 439.875 69.7586C440.684 70.0775 441.544 70.2266 442.408 70.1974C443.271 70.1683 444.121 69.9614 444.908 69.5886C445.695 69.2159 446.404 68.6845 446.995 68.0249C447.586 67.3652 448.047 66.5903 448.352 65.7442C448.656 64.8982 448.799 63.9976 448.771 63.0939C448.743 62.1903 448.545 61.3012 448.189 60.4774C447.833 59.6537 447.325 58.9115 446.695 58.2931C446.065 57.6747 445.324 57.1924 444.516 56.8735C443.707 56.5546 442.847 56.4055 441.983 56.4347C441.12 56.4638 440.27 56.6707 439.483 57.0435C438.696 57.4163 437.987 57.9476 437.396 58.6073C436.805 59.2669 436.344 60.0418 436.039 60.8879Z" fill="#EDF7EE"/>
<path d="M398.69 46.1564C398.385 47.0025 398.243 47.9031 398.271 48.8067C398.299 49.7104 398.496 50.5995 398.852 51.4232C399.209 52.247 399.716 52.9892 400.347 53.6076C400.977 54.2259 401.718 54.7083 402.526 55.0272C403.334 55.3461 404.195 55.4952 405.059 55.466C405.922 55.4368 406.772 55.23 407.559 54.8572C408.346 54.4844 409.055 53.953 409.646 53.2934C410.237 52.6338 410.698 51.8588 411.002 51.0128C411.618 49.3041 411.559 47.4096 410.84 45.746C410.121 44.0824 408.799 42.786 407.166 42.142C405.534 41.498 403.723 41.5592 402.134 42.3121C400.544 43.0649 399.305 44.4478 398.69 46.1564Z" fill="#EDF7EE"/>
<path d="M404.087 46.1717C402.024 51.901 402.22 58.2535 404.632 63.8316C407.044 69.4097 411.475 73.7566 416.95 75.9159C422.424 78.0752 428.494 77.8702 433.825 75.3458C439.155 72.8215 443.308 68.1846 445.372 62.4553C447.435 56.726 447.239 50.3736 444.827 44.7955C442.415 39.2174 437.984 34.8705 432.509 32.7111C427.035 30.5518 420.965 30.7569 415.634 33.2812C410.304 35.8056 406.151 40.4424 404.087 46.1717Z" fill="#EDF7EE"/>
<path d="M415.39 60.6347L429.314 65.7913C429.314 65.7913 426.623 73.2705 420.075 70.6906C413.289 68.0164 415.39 60.6347 415.39 60.6347Z" fill="#4CAF50"/>
<path d="M415.391 60.6324C415.391 60.6324 415.232 61.2579 415.156 61.934L428.612 67.2411C429.013 66.5774 429.314 65.7913 429.314 65.7913L415.391 60.6324ZM420.077 70.6991C422.494 71.6525 424.262 71.141 425.321 70.6001L415.697 66.554C416.271 67.9891 417.513 69.6879 420.077 70.6991Z" fill="white"/>
<g filter="url(#filter0_d_1424_5)">
<path d="M463.005 36.6396C464.802 31.6502 461.903 25.8861 456.532 23.7676C454.005 22.7708 451.385 22.7685 449.128 23.5532C447.918 21.8801 446.207 20.4967 444.111 19.67C441.677 18.7098 439.157 18.6696 436.957 19.3688C435.746 17.3241 433.828 15.614 431.393 14.6538C429.599 13.9462 427.761 13.7443 426.035 13.9628C424.817 12.0933 422.991 10.5381 420.716 9.64079C415.344 7.5222 409.532 9.85027 407.735 14.8396C406.162 19.2061 408.184 24.1631 412.314 26.7557L407.487 40.1576L446.805 55.6656L451.611 42.3201C456.499 43.4621 461.385 41.1392 463.005 36.6396Z" fill="#4CAF50"/>
</g>
<ellipse cx="3.02777" cy="3.13293" rx="3.02777" ry="3.13293" transform="matrix(0.930255 0.366915 -0.338839 0.940844 415.343 47.9419)" fill="white"/>
<ellipse cx="3.02777" cy="3.13293" rx="3.02777" ry="3.13293" transform="matrix(0.930255 0.366915 -0.338839 0.940844 431.616 54.3608)" fill="white"/>
<ellipse cx="1.34567" cy="1.39241" rx="1.34567" ry="1.39241" transform="matrix(0.930255 0.366915 -0.338839 0.940844 416.041 51.9575)" fill="black" fill-opacity="0.8"/>
<ellipse cx="1.34567" cy="1.39241" rx="1.34567" ry="1.39241" transform="matrix(0.930255 0.366915 -0.338839 0.940844 432.315 58.3765)" fill="black" fill-opacity="0.8"/>
<g filter="url(#filter1_ddd_1424_5)">
<path d="M59.1125 45.2344L58.6144 53.3276C57.2033 52.8296 55.557 52.4422 53.6755 52.1655C51.8216 51.8612 49.9125 51.626 47.9479 51.46C45.9834 51.2939 44.0604 51.1833 42.1789 51.1279C40.2974 51.0726 38.6096 51.0449 37.1154 51.0449H35.9948L38.402 105.166H25.6603L27.1545 51.46C25.107 51.626 23.0041 51.8612 20.8459 52.1655C18.7154 52.4422 16.654 52.8019 14.6618 53.2446C12.6973 53.6597 10.8711 54.1577 9.18329 54.7388C7.49546 55.3198 6.09816 55.9839 4.99139 56.731L4.20282 45.5664L59.1125 45.2344ZM72.7591 69.3555L71.929 86.1035C72.3359 85.3223 72.816 84.6143 73.3694 83.9795C73.9228 83.3285 74.5413 82.7751 75.2249 82.3193C75.9248 81.8473 76.6897 81.4893 77.5198 81.2451C78.3499 80.9847 79.2532 80.8545 80.2298 80.8545C81.304 80.8545 82.2561 81.0579 83.0862 81.4648C83.9326 81.8555 84.665 82.3844 85.2835 83.0518C85.9183 83.7191 86.4472 84.4922 86.8704 85.3711C87.3099 86.2337 87.6598 87.137 87.9202 88.0811C88.1969 89.0251 88.3922 89.9772 88.5061 90.9375C88.6201 91.8978 88.677 92.8011 88.677 93.6475C88.677 94.6077 88.6201 95.6169 88.5061 96.6748C88.3922 97.7327 88.2294 98.7907 88.0179 99.8486C87.8063 100.89 87.5459 101.916 87.2366 102.925C86.9436 103.934 86.6181 104.878 86.26 105.757L80.2298 105.146C80.6855 104.333 81.0843 103.356 81.4261 102.217C81.7841 101.061 82.0771 99.8568 82.305 98.6035C82.5328 97.3503 82.7037 96.1133 82.8177 94.8926C82.9479 93.6556 83.013 92.557 83.013 91.5967C83.013 90.7992 82.9316 89.9528 82.7688 89.0576C82.6224 88.1624 82.3538 87.3405 81.9632 86.5918C81.5888 85.8268 81.0761 85.2002 80.4251 84.7119C79.774 84.2074 78.9521 83.9551 77.9593 83.9551C77.3571 83.9551 76.8037 84.0771 76.2991 84.3213C75.8108 84.5492 75.3551 84.8503 74.9319 85.2246C74.525 85.599 74.1588 86.0303 73.8333 86.5186C73.5078 87.0068 73.2229 87.5033 72.9788 88.0078C72.3929 89.196 71.9371 90.5469 71.6116 92.0605L71.0745 103.853L66.5091 104.243L65.5569 69.8926L72.7591 69.3555ZM108.109 98.1396C106.823 98.1396 105.545 97.9769 104.276 97.6514C103.022 97.3096 101.883 96.7725 100.858 96.04C100.874 96.6748 100.915 97.3258 100.98 97.9932C101.045 98.6605 101.151 99.3115 101.297 99.9463C101.46 100.565 101.663 101.151 101.908 101.704C102.168 102.257 102.493 102.746 102.884 103.169C103.291 103.576 103.771 103.901 104.325 104.146C104.894 104.39 105.57 104.512 106.351 104.512C107.083 104.512 107.767 104.382 108.402 104.121C109.036 103.844 109.59 103.478 110.062 103.022C110.55 102.567 110.949 102.03 111.258 101.411C111.567 100.793 111.779 100.125 111.893 99.4092L117.899 100.752C117.427 101.761 116.759 102.616 115.897 103.315C115.05 104.015 114.106 104.577 113.065 105C112.023 105.439 110.933 105.757 109.793 105.952C108.67 106.147 107.588 106.245 106.546 106.245C104.674 106.245 103.006 105.968 101.541 105.415C100.076 104.862 98.8395 104.064 97.8304 103.022C96.8375 101.981 96.0725 100.719 95.5354 99.2383C95.0146 97.7409 94.7542 96.0645 94.7542 94.209C94.7542 92.4023 95.0634 90.7015 95.6819 89.1064C96.3004 87.4951 97.163 86.0954 98.2698 84.9072C99.3766 83.7191 100.703 82.7832 102.249 82.0996C103.812 81.3997 105.529 81.0498 107.401 81.0498C108.768 81.0498 110.127 81.2207 111.478 81.5625C112.829 81.888 114.041 82.4089 115.116 83.125C116.19 83.8249 117.052 84.7282 117.703 85.835C118.371 86.9417 118.704 88.2764 118.704 89.8389C118.704 91.3688 118.395 92.6628 117.777 93.7207C117.174 94.7624 116.377 95.6169 115.384 96.2842C114.391 96.9352 113.26 97.4072 111.991 97.7002C110.721 97.9932 109.427 98.1396 108.109 98.1396ZM107.059 82.8564C106.31 82.8564 105.643 83.0111 105.057 83.3203C104.487 83.6133 103.975 84.0202 103.519 84.541C103.079 85.0618 102.705 85.6559 102.396 86.3232C102.087 86.9906 101.826 87.6904 101.615 88.4229C101.403 89.1553 101.24 89.8958 101.126 90.6445C101.012 91.3932 100.939 92.0931 100.907 92.7441C101.525 93.8021 102.347 94.6729 103.372 95.3564C104.398 96.0238 105.586 96.3574 106.937 96.3574C107.799 96.3574 108.573 96.1621 109.256 95.7715C109.94 95.3646 110.518 94.8438 110.99 94.209C111.462 93.5742 111.82 92.8662 112.064 92.085C112.324 91.3037 112.454 90.5225 112.454 89.7412C112.454 88.96 112.34 88.1624 112.113 87.3486C111.885 86.5186 111.543 85.778 111.087 85.127C110.648 84.4596 110.086 83.9144 109.403 83.4912C108.735 83.068 107.954 82.8564 107.059 82.8564ZM157.031 106.709C155.126 106.709 153.344 106.473 151.684 106.001C150.024 105.529 148.51 104.821 147.143 103.877C145.776 102.933 144.563 101.753 143.505 100.337C142.463 98.9209 141.609 97.277 140.942 95.4053L149.389 94.9414C149.519 97.9362 150.374 100.223 151.952 101.802C153.531 103.364 155.761 104.146 158.642 104.146C159.765 104.146 160.888 104.032 162.011 103.804C163.134 103.576 164.135 103.193 165.014 102.656C165.909 102.103 166.633 101.379 167.187 100.483C167.756 99.5882 168.041 98.4733 168.041 97.1387C168.041 96.2109 167.862 95.4215 167.504 94.7705C167.146 94.1032 166.666 93.5498 166.064 93.1104C165.478 92.6709 164.794 92.321 164.013 92.0605C163.248 91.7839 162.45 91.5723 161.62 91.4258C160.807 91.263 159.993 91.141 159.179 91.0596C158.365 90.9782 157.616 90.9049 156.933 90.8398C155.826 90.7585 154.671 90.6283 153.466 90.4492C152.262 90.2702 151.074 90.0179 149.902 89.6924C148.746 89.3669 147.639 88.9518 146.581 88.4473C145.523 87.9427 144.596 87.3079 143.798 86.543C143.001 85.7617 142.366 84.8421 141.894 83.7842C141.422 82.7262 141.186 81.4811 141.186 80.0488C141.186 78.6816 141.414 77.4447 141.869 76.3379C142.325 75.2311 142.944 74.2546 143.725 73.4082C144.522 72.5456 145.434 71.805 146.459 71.1865C147.501 70.5518 148.6 70.0391 149.755 69.6484C150.927 69.2415 152.123 68.9404 153.344 68.7451C154.565 68.5498 155.745 68.4521 156.884 68.4521C158.04 68.4521 159.252 68.5254 160.522 68.6719C161.808 68.8184 163.085 69.0625 164.355 69.4043C165.624 69.7461 166.845 70.1937 168.017 70.7471C169.205 71.2842 170.271 71.9515 171.215 72.749C172.175 73.5465 172.973 74.4824 173.608 75.5566C174.242 76.6146 174.658 77.8271 174.853 79.1943L166.699 80.8545C166.796 80.2523 166.845 79.6338 166.845 78.999C166.845 77.5179 166.544 76.2646 165.942 75.2393C165.339 74.2139 164.542 73.3919 163.549 72.7734C162.556 72.1387 161.433 71.6829 160.18 71.4062C158.927 71.1296 157.649 70.9912 156.347 70.9912C155.191 70.9912 154.044 71.1458 152.905 71.4551C151.782 71.748 150.764 72.1956 149.853 72.7979C148.958 73.4001 148.233 74.1569 147.68 75.0684C147.127 75.9798 146.85 77.054 146.85 78.291C146.85 79.1374 147.078 79.8698 147.533 80.4883C147.989 81.1068 148.583 81.6439 149.316 82.0996C150.064 82.5391 150.903 82.9053 151.83 83.1982C152.758 83.4912 153.686 83.7354 154.614 83.9307C155.558 84.1097 156.453 84.2562 157.299 84.3701C158.145 84.4678 158.862 84.541 159.448 84.5898C160.489 84.7038 161.58 84.8665 162.719 85.0781C163.858 85.2734 164.981 85.5501 166.088 85.9082C167.195 86.2663 168.253 86.7139 169.262 87.251C170.271 87.7881 171.15 88.4391 171.899 89.2041C172.664 89.9691 173.266 90.8643 173.705 91.8896C174.161 92.915 174.389 94.0869 174.389 95.4053C174.389 96.805 174.112 98.0583 173.559 99.165C173.005 100.256 172.265 101.224 171.337 102.07C170.426 102.9 169.376 103.617 168.188 104.219C167 104.805 165.763 105.277 164.477 105.635C163.191 106.009 161.905 106.278 160.619 106.44C159.334 106.619 158.137 106.709 157.031 106.709ZM206.638 93.5986C206.638 95.568 206.247 97.3177 205.466 98.8477C204.701 100.361 203.676 101.647 202.39 102.705C201.12 103.747 199.647 104.536 197.971 105.073C196.295 105.627 194.553 105.903 192.746 105.903C190.956 105.903 189.304 105.594 187.79 104.976C186.293 104.357 184.999 103.503 183.908 102.412C182.818 101.305 181.963 100.003 181.345 98.5059C180.743 96.9922 180.442 95.3402 180.442 93.5498C180.442 91.792 180.8 90.1481 181.516 88.6182C182.248 87.0882 183.217 85.7536 184.421 84.6143C185.642 83.4587 187.042 82.5553 188.62 81.9043C190.199 81.237 191.851 80.9033 193.576 80.9033C195.448 80.9033 197.182 81.2126 198.777 81.8311C200.372 82.4495 201.747 83.3203 202.903 84.4434C204.074 85.5664 204.986 86.9092 205.637 88.4717C206.304 90.0179 206.638 91.7269 206.638 93.5986ZM200.486 93.3545C200.486 92.6221 200.437 91.8652 200.339 91.084C200.241 90.2865 200.079 89.5133 199.851 88.7646C199.639 87.9997 199.354 87.2835 198.996 86.6162C198.655 85.9326 198.223 85.3385 197.702 84.834C197.182 84.3132 196.571 83.9062 195.871 83.6133C195.171 83.304 194.374 83.1494 193.479 83.1494C192.112 83.1494 190.98 83.4831 190.085 84.1504C189.19 84.8014 188.482 85.6396 187.961 86.665C187.457 87.6742 187.099 88.7891 186.887 90.0098C186.692 91.2305 186.594 92.3942 186.594 93.501C186.594 94.2334 186.635 94.9984 186.716 95.7959C186.814 96.5771 186.968 97.3503 187.18 98.1152C187.392 98.8802 187.668 99.6126 188.01 100.312C188.352 100.996 188.775 101.606 189.28 102.144C189.8 102.664 190.403 103.079 191.086 103.389C191.786 103.698 192.584 103.853 193.479 103.853C194.39 103.853 195.196 103.698 195.896 103.389C196.596 103.063 197.198 102.64 197.702 102.119C198.223 101.582 198.663 100.964 199.021 100.264C199.379 99.5475 199.664 98.807 199.875 98.042C200.087 97.2607 200.241 96.4714 200.339 95.6738C200.437 94.86 200.486 94.0869 200.486 93.3545ZM237.129 82.4414L235.664 105.049L231.367 105.439L231.123 99.9463C230.749 100.858 230.285 101.696 229.732 102.461C229.178 103.226 228.535 103.885 227.803 104.438C227.087 104.992 226.281 105.423 225.386 105.732C224.491 106.042 223.522 106.196 222.481 106.196C220.853 106.196 219.413 105.871 218.159 105.22C216.922 104.585 215.881 103.698 215.034 102.559C214.204 101.419 213.578 100.068 213.155 98.5059C212.731 96.9271 212.52 95.21 212.52 93.3545C212.52 91.3525 212.666 89.611 212.959 88.1299C213.252 86.6325 213.586 85.3711 213.96 84.3457C214.383 83.1576 214.872 82.1403 215.425 81.2939L222.408 81.9043C221.61 82.8646 220.902 84.012 220.283 85.3467C219.746 86.486 219.258 87.902 218.819 89.5947C218.379 91.2874 218.159 93.2406 218.159 95.4541C218.159 96.7887 218.314 97.9362 218.623 98.8965C218.933 99.8568 219.372 100.654 219.942 101.289C220.511 101.908 221.195 102.363 221.992 102.656C222.806 102.949 223.718 103.096 224.727 103.096C225.589 103.096 226.354 102.86 227.022 102.388C227.689 101.916 228.275 101.305 228.78 100.557C229.284 99.8079 229.707 98.9616 230.049 98.0176C230.407 97.0736 230.7 96.1377 230.928 95.21L230.415 82.0508L237.129 82.4414ZM252.874 70.9424L252.581 80.9521H258.367V83.0029H252.533L251.873 105.146L247.381 105.562L246.917 83.0029H240.911V80.9521H246.868L246.722 72.5049L252.874 70.9424ZM269.62 69.3555L268.79 86.1035C269.197 85.3223 269.677 84.6143 270.231 83.9795C270.784 83.3285 271.403 82.7751 272.086 82.3193C272.786 81.8473 273.551 81.4893 274.381 81.2451C275.211 80.9847 276.115 80.8545 277.091 80.8545C278.165 80.8545 279.117 81.0579 279.948 81.4648C280.794 81.8555 281.526 82.3844 282.145 83.0518C282.78 83.7191 283.309 84.4922 283.732 85.3711C284.171 86.2337 284.521 87.137 284.782 88.0811C285.058 89.0251 285.254 89.9772 285.367 90.9375C285.481 91.8978 285.538 92.8011 285.538 93.6475C285.538 94.6077 285.481 95.6169 285.367 96.6748C285.254 97.7327 285.091 98.7907 284.879 99.8486C284.668 100.89 284.407 101.916 284.098 102.925C283.805 103.934 283.479 104.878 283.121 105.757L277.091 105.146C277.547 104.333 277.946 103.356 278.287 102.217C278.645 101.061 278.938 99.8568 279.166 98.6035C279.394 97.3503 279.565 96.1133 279.679 94.8926C279.809 93.6556 279.874 92.557 279.874 91.5967C279.874 90.7992 279.793 89.9528 279.63 89.0576C279.484 88.1624 279.215 87.3405 278.824 86.5918C278.45 85.8268 277.937 85.2002 277.286 84.7119C276.635 84.2074 275.813 83.9551 274.821 83.9551C274.218 83.9551 273.665 84.0771 273.16 84.3213C272.672 84.5492 272.216 84.8503 271.793 85.2246C271.386 85.599 271.02 86.0303 270.695 86.5186C270.369 87.0068 270.084 87.5033 269.84 88.0078C269.254 89.196 268.798 90.5469 268.473 92.0605L267.936 103.853L263.37 104.243L262.418 69.8926L269.62 69.3555ZM317.151 69.5996L315.906 104.951L310.974 105.049L309.973 70.0391L317.151 69.5996ZM331.919 81.6113L331.675 86.0547C332.115 85.2572 332.627 84.5166 333.213 83.833C333.815 83.1331 334.483 82.5472 335.215 82.0752C335.964 81.5869 336.769 81.2288 337.632 81.001C338.511 80.7731 339.439 80.7243 340.415 80.8545C341.962 81.0824 343.272 81.5544 344.346 82.2705C345.42 82.9867 346.283 83.8981 346.934 85.0049C347.601 86.1117 348.081 87.3975 348.374 88.8623C348.667 90.3271 348.814 91.9222 348.814 93.6475C348.814 94.6077 348.732 95.6169 348.57 96.6748C348.407 97.7327 348.187 98.7907 347.91 99.8486C347.634 100.89 347.316 101.916 346.958 102.925C346.616 103.934 346.267 104.878 345.908 105.757L339.878 105.146C339.911 105.13 340.017 104.935 340.196 104.561C340.375 104.186 340.586 103.682 340.83 103.047C341.074 102.412 341.327 101.672 341.587 100.825C341.864 99.9626 342.116 99.0348 342.344 98.042C342.588 97.0492 342.783 96.0075 342.93 94.917C343.093 93.8102 343.174 92.7035 343.174 91.5967C343.174 90.376 343.068 89.2936 342.857 88.3496C342.645 87.4056 342.311 86.6081 341.856 85.957C341.416 85.306 340.847 84.8096 340.147 84.4678C339.447 84.126 338.601 83.9551 337.608 83.9551C336.745 83.9551 335.98 84.1911 335.313 84.6631C334.645 85.1188 334.06 85.7129 333.555 86.4453C333.05 87.1777 332.619 88.0078 332.261 88.9355C331.903 89.847 331.602 90.7666 331.358 91.6943L330.723 104.854L326.182 105.244L325.23 82.1484L331.919 81.6113ZM374.178 89.3994C374.178 88.7809 373.991 88.1868 373.616 87.6172C373.258 87.0312 372.795 86.5186 372.225 86.0791C371.655 85.6396 371.02 85.2897 370.321 85.0293C369.621 84.7689 368.945 84.6387 368.294 84.6387C366.96 84.6387 365.812 84.9316 364.852 85.5176C363.892 86.1035 363.102 86.8685 362.484 87.8125C361.881 88.7402 361.434 89.79 361.141 90.9619C360.848 92.1175 360.701 93.2812 360.701 94.4531C360.701 95.5111 360.807 96.6016 361.019 97.7246C361.247 98.8314 361.613 99.8486 362.117 100.776C362.638 101.704 363.322 102.469 364.168 103.071C365.015 103.657 366.073 103.95 367.342 103.95C368.335 103.95 369.198 103.73 369.93 103.291C370.679 102.852 371.313 102.29 371.834 101.606C372.371 100.907 372.811 100.125 373.153 99.2627C373.494 98.3838 373.755 97.513 373.934 96.6504C373.983 95.446 374.032 94.2334 374.08 93.0127C374.145 91.7757 374.178 90.5713 374.178 89.3994ZM379.94 70.6006L378.988 106.001L374.495 105.854L374.3 101.509C373.975 102.29 373.543 102.99 373.006 103.608C372.485 104.211 371.875 104.715 371.175 105.122C370.491 105.545 369.735 105.863 368.905 106.074C368.091 106.286 367.236 106.392 366.341 106.392C364.6 106.392 363.013 106.099 361.58 105.513C360.148 104.927 358.919 104.113 357.894 103.071C356.885 102.03 356.095 100.785 355.526 99.3359C354.972 97.8874 354.696 96.3086 354.696 94.5996C354.696 92.7441 354.997 91.0433 355.599 89.4971C356.217 87.9346 357.072 86.5999 358.162 85.4932C359.269 84.3701 360.596 83.5156 362.142 82.9297C363.688 82.3275 365.389 82.0508 367.244 82.0996C367.798 82.1159 368.359 82.1729 368.929 82.2705C369.515 82.3519 370.085 82.4821 370.638 82.6611C371.191 82.8402 371.72 83.068 372.225 83.3447C372.746 83.6214 373.218 83.9551 373.641 84.3457L373.128 70.2588L379.94 70.6006ZM395.221 76.1914C395.221 76.7773 395.107 77.3307 394.879 77.8516C394.668 78.3724 394.366 78.8281 393.976 79.2188C393.585 79.6094 393.13 79.9186 392.609 80.1465C392.088 80.3743 391.526 80.4883 390.924 80.4883C390.322 80.4883 389.752 80.3743 389.215 80.1465C388.694 79.9186 388.239 79.6094 387.848 79.2188C387.457 78.8281 387.148 78.3724 386.92 77.8516C386.692 77.3307 386.578 76.7773 386.578 76.1914C386.578 75.5892 386.692 75.0277 386.92 74.5068C387.148 73.9697 387.457 73.5059 387.848 73.1152C388.239 72.7246 388.694 72.4154 389.215 72.1875C389.752 71.9596 390.322 71.8457 390.924 71.8457C391.526 71.8457 392.088 71.9596 392.609 72.1875C393.13 72.4154 393.585 72.7246 393.976 73.1152C394.366 73.5059 394.668 73.9697 394.879 74.5068C395.107 75.0277 395.221 75.5892 395.221 76.1914ZM394.391 82.9541L392.535 106.44L387.824 105.952L387.531 82.5879L394.391 82.9541ZM417.485 104.707L418.095 102.144C417.525 102.648 416.891 103.104 416.191 103.511C415.507 103.918 414.799 104.268 414.067 104.561C413.334 104.837 412.602 105.049 411.869 105.195C411.153 105.358 410.494 105.439 409.892 105.439C408.834 105.439 407.743 105.285 406.62 104.976C405.497 104.666 404.48 104.202 403.569 103.584C402.657 102.965 401.908 102.192 401.323 101.265C400.737 100.337 400.444 99.2627 400.444 98.042C400.444 96.4469 400.72 95.0635 401.274 93.8916C401.827 92.7197 402.576 91.7513 403.52 90.9863C404.48 90.2214 405.603 89.6598 406.889 89.3018C408.175 88.9274 409.558 88.7402 411.039 88.7402C411.739 88.7402 412.455 88.7972 413.188 88.9111C413.92 89.0251 414.636 89.196 415.336 89.4238C416.036 89.6517 416.703 89.9528 417.338 90.3271C417.973 90.7015 418.543 91.141 419.047 91.6455C418.998 90.7666 418.876 89.8389 418.681 88.8623C418.502 87.8857 418.209 86.9987 417.802 86.2012C417.411 85.3874 416.882 84.7201 416.215 84.1992C415.548 83.6621 414.701 83.3936 413.676 83.3936C412.179 83.3936 410.909 83.7842 409.867 84.5654C408.842 85.3304 408.134 86.4453 407.743 87.9102L401.396 87.251C401.786 86.2419 402.34 85.3548 403.056 84.5898C403.772 83.8086 404.578 83.1576 405.473 82.6367C406.384 82.1159 407.353 81.7253 408.378 81.4648C409.404 81.1882 410.437 81.0498 411.479 81.0498C413.074 81.0498 414.498 81.2777 415.751 81.7334C417.021 82.1891 418.136 82.8158 419.096 83.6133C420.056 84.4108 420.87 85.3548 421.537 86.4453C422.205 87.5195 422.75 88.6833 423.173 89.9365C423.596 91.1735 423.906 92.4756 424.101 93.8428C424.296 95.1937 424.394 96.5446 424.394 97.8955C424.394 99.0999 424.329 100.296 424.199 101.484C424.068 102.656 423.881 103.828 423.637 105L417.485 104.707ZM418.779 97.7979C418.827 97.4235 418.86 97.0573 418.876 96.6992C418.909 96.3411 418.941 95.9749 418.974 95.6006C418.893 94.8356 418.624 94.1602 418.168 93.5742C417.713 92.972 417.159 92.4674 416.508 92.0605C415.857 91.6374 415.149 91.32 414.384 91.1084C413.619 90.8968 412.87 90.791 412.138 90.791C411.292 90.791 410.502 90.9375 409.77 91.2305C409.037 91.5072 408.403 91.9059 407.866 92.4268C407.328 92.9476 406.905 93.5661 406.596 94.2822C406.287 94.9984 406.132 95.7878 406.132 96.6504C406.132 97.5293 406.262 98.335 406.523 99.0674C406.799 99.7835 407.182 100.41 407.67 100.947C408.158 101.468 408.753 101.875 409.452 102.168C410.169 102.461 410.966 102.607 411.845 102.607C412.626 102.607 413.391 102.493 414.14 102.266C414.889 102.038 415.572 101.72 416.191 101.313C416.825 100.89 417.363 100.386 417.802 99.7998C418.258 99.1976 418.583 98.5303 418.779 97.7979ZM437.917 81.6113L437.673 86.0547C438.113 85.2572 438.625 84.5166 439.211 83.833C439.813 83.1331 440.481 82.5472 441.213 82.0752C441.962 81.5869 442.768 81.2288 443.63 81.001C444.509 80.7731 445.437 80.7243 446.413 80.8545C447.96 81.0824 449.27 81.5544 450.344 82.2705C451.418 82.9867 452.281 83.8981 452.932 85.0049C453.599 86.1117 454.079 87.3975 454.372 88.8623C454.665 90.3271 454.812 91.9222 454.812 93.6475C454.812 94.6077 454.73 95.6169 454.568 96.6748C454.405 97.7327 454.185 98.7907 453.908 99.8486C453.632 100.89 453.314 101.916 452.956 102.925C452.615 103.934 452.265 104.878 451.907 105.757L445.876 105.146C445.909 105.13 446.015 104.935 446.194 104.561C446.373 104.186 446.584 103.682 446.828 103.047C447.073 102.412 447.325 101.672 447.585 100.825C447.862 99.9626 448.114 99.0348 448.342 98.042C448.586 97.0492 448.782 96.0075 448.928 94.917C449.091 93.8102 449.172 92.7035 449.172 91.5967C449.172 90.376 449.066 89.2936 448.855 88.3496C448.643 87.4056 448.31 86.6081 447.854 85.957C447.414 85.306 446.845 84.8096 446.145 84.4678C445.445 84.126 444.599 83.9551 443.606 83.9551C442.743 83.9551 441.978 84.1911 441.311 84.6631C440.644 85.1188 440.058 85.7129 439.553 86.4453C439.048 87.1777 438.617 88.0078 438.259 88.9355C437.901 89.847 437.6 90.7666 437.356 91.6943L436.721 104.854L432.18 105.244L431.228 82.1484L437.917 81.6113ZM510.936 82.6611C510.936 84.2399 510.635 85.6315 510.033 86.8359C509.447 88.0404 508.649 89.0902 507.64 89.9854C506.647 90.8643 505.5 91.6048 504.198 92.207C502.895 92.793 501.536 93.265 500.12 93.623C498.704 93.9811 497.28 94.2334 495.848 94.3799C494.432 94.5264 493.097 94.5996 491.844 94.5996C490.884 94.5996 489.932 94.5833 488.988 94.5508C488.044 94.5182 487.091 94.4368 486.131 94.3066L486.033 105.244L479.735 105.293C479.767 99.5638 479.727 93.8672 479.613 88.2031C479.499 82.5228 479.393 76.818 479.295 71.0889C480.451 70.861 481.671 70.6738 482.957 70.5273C484.243 70.3809 485.545 70.2669 486.864 70.1855C488.182 70.0879 489.492 70.0228 490.794 69.9902C492.096 69.9577 493.341 69.9414 494.53 69.9414C495.832 69.9414 497.142 70.0472 498.46 70.2588C499.779 70.4704 501.04 70.7959 502.244 71.2354C503.465 71.6748 504.604 72.2363 505.662 72.9199C506.72 73.6035 507.64 74.4173 508.421 75.3613C509.202 76.3053 509.813 77.3877 510.252 78.6084C510.708 79.8128 510.936 81.1637 510.936 82.6611ZM490.794 72.4072C489.964 72.4072 489.126 72.4235 488.28 72.4561C487.449 72.4886 486.619 72.5537 485.789 72.6514L486.18 91.8896C486.945 92.0036 487.718 92.0687 488.499 92.085C489.281 92.1012 490.078 92.1094 490.892 92.1094C491.982 92.1094 493.065 92.0443 494.139 91.9141C495.229 91.7839 496.263 91.5723 497.24 91.2793C498.216 90.9701 499.119 90.5713 499.949 90.083C500.78 89.5785 501.496 88.96 502.098 88.2275C502.716 87.4788 503.197 86.6162 503.538 85.6396C503.88 84.6468 504.051 83.4993 504.051 82.1973C504.051 80.9928 503.864 79.9186 503.49 78.9746C503.115 78.0143 502.602 77.1761 501.951 76.46C501.317 75.7275 500.568 75.109 499.705 74.6045C498.843 74.0837 497.923 73.6605 496.947 73.335C495.97 73.0094 494.953 72.7734 493.895 72.627C492.853 72.4805 491.82 72.4072 490.794 72.4072ZM523.507 65.8887L522.311 105.098L517.648 105.488L516.451 66.5479L523.507 65.8887ZM546.674 104.707L547.284 102.144C546.715 102.648 546.08 103.104 545.38 103.511C544.697 103.918 543.989 104.268 543.256 104.561C542.524 104.837 541.791 105.049 541.059 105.195C540.343 105.358 539.684 105.439 539.081 105.439C538.023 105.439 536.933 105.285 535.81 104.976C534.687 104.666 533.67 104.202 532.758 103.584C531.847 102.965 531.098 102.192 530.512 101.265C529.926 100.337 529.633 99.2627 529.633 98.042C529.633 96.4469 529.91 95.0635 530.463 93.8916C531.017 92.7197 531.765 91.7513 532.709 90.9863C533.67 90.2214 534.793 89.6598 536.078 89.3018C537.364 88.9274 538.748 88.7402 540.229 88.7402C540.929 88.7402 541.645 88.7972 542.377 88.9111C543.11 89.0251 543.826 89.196 544.526 89.4238C545.226 89.6517 545.893 89.9528 546.528 90.3271C547.162 90.7015 547.732 91.141 548.237 91.6455C548.188 90.7666 548.066 89.8389 547.87 88.8623C547.691 87.8857 547.398 86.9987 546.992 86.2012C546.601 85.3874 546.072 84.7201 545.405 84.1992C544.737 83.6621 543.891 83.3936 542.866 83.3936C541.368 83.3936 540.099 83.7842 539.057 84.5654C538.032 85.3304 537.324 86.4453 536.933 87.9102L530.585 87.251C530.976 86.2419 531.529 85.3548 532.245 84.5898C532.962 83.8086 533.767 83.1576 534.662 82.6367C535.574 82.1159 536.542 81.7253 537.568 81.4648C538.593 81.1882 539.627 81.0498 540.668 81.0498C542.263 81.0498 543.687 81.2777 544.941 81.7334C546.21 82.1891 547.325 82.8158 548.285 83.6133C549.246 84.4108 550.06 85.3548 550.727 86.4453C551.394 87.5195 551.939 88.6833 552.363 89.9365C552.786 91.1735 553.095 92.4756 553.29 93.8428C553.486 95.1937 553.583 96.5446 553.583 97.8955C553.583 99.0999 553.518 100.296 553.388 101.484C553.258 102.656 553.071 103.828 552.826 105L546.674 104.707ZM547.968 97.7979C548.017 97.4235 548.049 97.0573 548.066 96.6992C548.098 96.3411 548.131 95.9749 548.163 95.6006C548.082 94.8356 547.813 94.1602 547.358 93.5742C546.902 92.972 546.349 92.4674 545.698 92.0605C545.047 91.6374 544.339 91.32 543.574 91.1084C542.809 90.8968 542.06 90.791 541.327 90.791C540.481 90.791 539.692 90.9375 538.959 91.2305C538.227 91.5072 537.592 91.9059 537.055 92.4268C536.518 92.9476 536.095 93.5661 535.785 94.2822C535.476 94.9984 535.322 95.7878 535.322 96.6504C535.322 97.5293 535.452 98.335 535.712 99.0674C535.989 99.7835 536.371 100.41 536.86 100.947C537.348 101.468 537.942 101.875 538.642 102.168C539.358 102.461 540.156 102.607 541.034 102.607C541.816 102.607 542.581 102.493 543.329 102.266C544.078 102.038 544.762 101.72 545.38 101.313C546.015 100.89 546.552 100.386 546.992 99.7998C547.447 99.1976 547.773 98.5303 547.968 97.7979ZM568.62 70.9424L568.327 80.9521H574.114V83.0029H568.279L567.619 105.146L563.127 105.562L562.663 83.0029H556.658V80.9521H562.615L562.468 72.5049L568.62 70.9424ZM590.347 98.1396C589.061 98.1396 587.784 97.9769 586.514 97.6514C585.261 97.3096 584.121 96.7725 583.096 96.04C583.112 96.6748 583.153 97.3258 583.218 97.9932C583.283 98.6605 583.389 99.3115 583.535 99.9463C583.698 100.565 583.902 101.151 584.146 101.704C584.406 102.257 584.732 102.746 585.122 103.169C585.529 103.576 586.009 103.901 586.563 104.146C587.132 104.39 587.808 104.512 588.589 104.512C589.322 104.512 590.005 104.382 590.64 104.121C591.275 103.844 591.828 103.478 592.3 103.022C592.788 102.567 593.187 102.03 593.496 101.411C593.806 100.793 594.017 100.125 594.131 99.4092L600.137 100.752C599.665 101.761 598.998 102.616 598.135 103.315C597.289 104.015 596.345 104.577 595.303 105C594.261 105.439 593.171 105.757 592.032 105.952C590.909 106.147 589.826 106.245 588.784 106.245C586.913 106.245 585.244 105.968 583.78 105.415C582.315 104.862 581.078 104.064 580.069 103.022C579.076 101.981 578.311 100.719 577.774 99.2383C577.253 97.7409 576.992 96.0645 576.992 94.209C576.992 92.4023 577.302 90.7015 577.92 89.1064C578.539 87.4951 579.401 86.0954 580.508 84.9072C581.615 83.7191 582.941 82.7832 584.488 82.0996C586.05 81.3997 587.767 81.0498 589.639 81.0498C591.006 81.0498 592.365 81.2207 593.716 81.5625C595.067 81.888 596.28 82.4089 597.354 83.125C598.428 83.8249 599.291 84.7282 599.942 85.835C600.609 86.9417 600.943 88.2764 600.943 89.8389C600.943 91.3688 600.633 92.6628 600.015 93.7207C599.413 94.7624 598.615 95.6169 597.622 96.2842C596.63 96.9352 595.498 97.4072 594.229 97.7002C592.959 97.9932 591.665 98.1396 590.347 98.1396ZM589.297 82.8564C588.548 82.8564 587.881 83.0111 587.295 83.3203C586.726 83.6133 586.213 84.0202 585.757 84.541C585.318 85.0618 584.943 85.6559 584.634 86.3232C584.325 86.9906 584.064 87.6904 583.853 88.4229C583.641 89.1553 583.478 89.8958 583.365 90.6445C583.251 91.3932 583.177 92.0931 583.145 92.7441C583.763 93.8021 584.585 94.6729 585.611 95.3564C586.636 96.0238 587.824 96.3574 589.175 96.3574C590.038 96.3574 590.811 96.1621 591.494 95.7715C592.178 95.3646 592.756 94.8438 593.228 94.209C593.7 93.5742 594.058 92.8662 594.302 92.085C594.562 91.3037 594.693 90.5225 594.693 89.7412C594.693 88.96 594.579 88.1624 594.351 87.3486C594.123 86.5186 593.781 85.778 593.326 85.127C592.886 84.4596 592.325 83.9144 591.641 83.4912C590.974 83.068 590.192 82.8564 589.297 82.8564Z" fill="#EDF7EE"/>
</g>
<g filter="url(#filter2_ddd_1424_5)">
<rect x="62" y="47" width="17" height="5" rx="1" fill="#EDF7EE"/>
</g>
<g filter="url(#filter3_ddd_1424_5)">
<path d="M79.9769 36.2969C77.6901 34.8609 75.058 34.0688 72.3585 34.0043C69.659 33.9397 66.9921 34.6051 64.6393 35.9302C62.2865 37.2553 60.335 39.1909 58.9907 41.5328C57.6465 43.8747 56.9594 46.5361 57.0019 49.236C57.0443 51.936 57.8149 54.5744 59.2321 56.8728C60.6494 59.1713 62.6608 61.0446 65.0542 62.2949C67.4475 63.5453 70.134 64.1265 72.8302 63.977C75.5263 63.8276 78.1321 62.9531 80.3726 61.4458L77.4427 57.0905C75.9862 58.0702 74.2923 58.6387 72.5397 58.7359C70.787 58.833 69.0407 58.4552 67.4848 57.6424C65.929 56.8296 64.6215 55.6119 63.7002 54.1178C62.7789 52.6237 62.278 50.9085 62.2504 49.1534C62.2228 47.3983 62.6695 45.6683 63.5433 44.1459C64.4171 42.6235 65.6857 41.3653 67.2152 40.5039C68.7446 39.6426 70.4782 39.21 72.2331 39.252C73.9879 39.2939 75.6988 39.8088 77.1854 40.7423L79.9769 36.2969Z" fill="#EDF7EE"/>
</g>
<defs>
<filter id="filter0_d_1424_5" x="404.202" y="8.85791" width="62.3357" height="53.8076" filterUnits="userSpaceOnUse" color-interpolation-filters="sRGB">
<feFlood flood-opacity="0" result="BackgroundImageFix"/>
<feColorMatrix in="SourceAlpha" type="matrix" values="0 0 0 0 0 0 0 0 0 0 0 0 0 0 0 0 0 0 127 0" result="hardAlpha"/>
<feOffset dy="4"/>
<feGaussianBlur stdDeviation="1.5"/>
<feComposite in2="hardAlpha" operator="out"/>
<feColorMatrix type="matrix" values="0 0 0 0 0.996078 0 0 0 0 0.937255 0 0 0 0 0.905882 0 0 0 0.5 0"/>
<feBlend mode="normal" in2="BackgroundImageFix" result="effect1_dropShadow_1424_5"/>
<feBlend mode="normal" in="SourceGraphic" in2="effect1_dropShadow_1424_5" result="shape"/>
</filter>
<filter id="filter1_ddd_1424_5" x="0.202881" y="45.2344" width="604.74" height="69.4746" filterUnits="userSpaceOnUse" color-interpolation-filters="sRGB">
<feFlood flood-opacity="0" result="BackgroundImageFix"/>
<feColorMatrix in="SourceAlpha" type="matrix" values="0 0 0 0 0 0 0 0 0 0 0 0 0 0 0 0 0 0 127 0" result="hardAlpha"/>
<feOffset dy="4"/>
<feGaussianBlur stdDeviation="2"/>
<feComposite in2="hardAlpha" operator="out"/>
<feColorMatrix type="matrix" values="0 0 0 0 0 0 0 0 0 0 0 0 0 0 0 0 0 0 0.25 0"/>
<feBlend mode="normal" in2="BackgroundImageFix" result="effect1_dropShadow_1424_5"/>
<feColorMatrix in="SourceAlpha" type="matrix" values="0 0 0 0 0 0 0 0 0 0 0 0 0 0 0 0 0 0 127 0" result="hardAlpha"/>
<feOffset dy="4"/>
<feGaussianBlur stdDeviation="2"/>
<feComposite in2="hardAlpha" operator="out"/>
<feColorMatrix type="matrix" values="0 0 0 0 0 0 0 0 0 0 0 0 0 0 0 0 0 0 0.25 0"/>
<feBlend mode="normal" in2="effect1_dropShadow_1424_5" result="effect2_dropShadow_1424_5"/>
<feColorMatrix in="SourceAlpha" type="matrix" values="0 0 0 0 0 0 0 0 0 0 0 0 0 0 0 0 0 0 127 0" result="hardAlpha"/>
<feOffset dy="4"/>
<feGaussianBlur stdDeviation="2"/>
<feComposite in2="hardAlpha" operator="out"/>
<feColorMatrix type="matrix" values="0 0 0 0 0 0 0 0 0 0 0 0 0 0 0 0 0 0 0.25 0"/>
<feBlend mode="normal" in2="effect2_dropShadow_1424_5" result="effect3_dropShadow_1424_5"/>
<feBlend mode="normal" in="SourceGraphic" in2="effect3_dropShadow_1424_5" result="shape"/>
</filter>
<filter id="filter2_ddd_1424_5" x="58" y="47" width="25" height="13" filterUnits="userSpaceOnUse" color-interpolation-filters="sRGB">
<feFlood flood-opacity="0" result="BackgroundImageFix"/>
<feColorMatrix in="SourceAlpha" type="matrix" values="0 0 0 0 0 0 0 0 0 0 0 0 0 0 0 0 0 0 127 0" result="hardAlpha"/>
<feOffset dy="4"/>
<feGaussianBlur stdDeviation="2"/>
<feComposite in2="hardAlpha" operator="out"/>
<feColorMatrix type="matrix" values="0 0 0 0 0 0 0 0 0 0 0 0 0 0 0 0 0 0 0.25 0"/>
<feBlend mode="normal" in2="BackgroundImageFix" result="effect1_dropShadow_1424_5"/>
<feColorMatrix in="SourceAlpha" type="matrix" values="0 0 0 0 0 0 0 0 0 0 0 0 0 0 0 0 0 0 127 0" result="hardAlpha"/>
<feOffset dy="4"/>
<feGaussianBlur stdDeviation="2"/>
<feComposite in2="hardAlpha" operator="out"/>
<feColorMatrix type="matrix" values="0 0 0 0 0 0 0 0 0 0 0 0 0 0 0 0 0 0 0.25 0"/>
<feBlend mode="normal" in2="effect1_dropShadow_1424_5" result="effect2_dropShadow_1424_5"/>
<feColorMatrix in="SourceAlpha" type="matrix" values="0 0 0 0 0 0 0 0 0 0 0 0 0 0 0 0 0 0 127 0" result="hardAlpha"/>
<feOffset dy="4"/>
<feGaussianBlur stdDeviation="2"/>
<feComposite in2="hardAlpha" operator="out"/>
<feColorMatrix type="matrix" values="0 0 0 0 0 0 0 0 0 0 0 0 0 0 0 0 0 0 0.25 0"/>
<feBlend mode="normal" in2="effect2_dropShadow_1424_5" result="effect3_dropShadow_1424_5"/>
<feBlend mode="normal" in="SourceGraphic" in2="effect3_dropShadow_1424_5" result="shape"/>
</filter>
<filter id="filter3_ddd_1424_5" x="53" y="34" width="31.3726" height="38" filterUnits="userSpaceOnUse" color-interpolation-filters="sRGB">
<feFlood flood-opacity="0" result="BackgroundImageFix"/>
<feColorMatrix in="SourceAlpha" type="matrix" values="0 0 0 0 0 0 0 0 0 0 0 0 0 0 0 0 0 0 127 0" result="hardAlpha"/>
<feOffset dy="4"/>
<feGaussianBlur stdDeviation="2"/>
<feComposite in2="hardAlpha" operator="out"/>
<feColorMatrix type="matrix" values="0 0 0 0 0 0 0 0 0 0 0 0 0 0 0 0 0 0 0.25 0"/>
<feBlend mode="normal" in2="BackgroundImageFix" result="effect1_dropShadow_1424_5"/>
<feColorMatrix in="SourceAlpha" type="matrix" values="0 0 0 0 0 0 0 0 0 0 0 0 0 0 0 0 0 0 127 0" result="hardAlpha"/>
<feOffset dy="4"/>
<feGaussianBlur stdDeviation="2"/>
<feComposite in2="hardAlpha" operator="out"/>
<feColorMatrix type="matrix" values="0 0 0 0 0 0 0 0 0 0 0 0 0 0 0 0 0 0 0.25 0"/>
<feBlend mode="normal" in2="effect1_dropShadow_1424_5" result="effect2_dropShadow_1424_5"/>
<feColorMatrix in="SourceAlpha" type="matrix" values="0 0 0 0 0 0 0 0 0 0 0 0 0 0 0 0 0 0 127 0" result="hardAlpha"/>
<feOffset dy="4"/>
<feGaussianBlur stdDeviation="2"/>
<feComposite in2="hardAlpha" operator="out"/>
<feColorMatrix type="matrix" values="0 0 0 0 0 0 0 0 0 0 0 0 0 0 0 0 0 0 0.25 0"/>
<feBlend mode="normal" in2="effect2_dropShadow_1424_5" result="effect3_dropShadow_1424_5"/>
<feBlend mode="normal" in="SourceGraphic" in2="effect3_dropShadow_1424_5" result="shape"/>
</filter>
</defs>
</svg>
