<svg width="500" height="500" viewBox="0 0 500 500" fill="none" xmlns="http://www.w3.org/2000/svg">
<g filter="url(#filter0_i_439_324)">
<circle cx="250" cy="250" r="250" fill="#080708"/>
</g>
<circle cx="250" cy="250" r="246.5" stroke="#F85A11" stroke-width="7"/>
<g filter="url(#filter1_d_439_324)">
<circle cx="285.833" cy="85.833" r="52.5" fill="white"/>
<circle cx="285.833" cy="85.833" r="54" stroke="#FEEFE7" stroke-width="3"/>
</g>
<g filter="url(#filter2_d_439_324)">
<circle cx="244.445" cy="255.555" r="77.7778" fill="#BD0808"/>
<circle cx="244.445" cy="255.555" r="80.7778" stroke="#999999" stroke-width="6"/>
</g>
<rect x="208.724" y="223.079" width="5.55556" height="33.3333" rx="2.77778" transform="rotate(30.1149 208.724 223.079)" fill="#F85A11"/>
<rect x="233.333" y="281.706" width="5.55556" height="33.3333" rx="2.77778" transform="rotate(-44.9988 233.333 281.706)" fill="#F0B51E"/>
<rect x="266.667" y="226.15" width="5.55556" height="33.3333" rx="2.77778" transform="rotate(-44.9988 266.667 226.15)" fill="#E4592D"/>
<circle cx="205.556" cy="405.556" r="47" fill="#C0D735" stroke="#A95F37" stroke-width="6"/>
<circle cx="191.666" cy="402.778" r="2.77778" fill="#080708"/>
<circle cx="202.778" cy="391.666" r="2.77778" fill="#080708"/>
<circle cx="213.889" cy="402.778" r="2.77778" fill="#080708"/>
<circle cx="243.778" cy="219.778" r="2.77778" fill="#080708"/>
<circle cx="216.778" cy="265.778" r="2.77778" fill="#080708"/>
<circle cx="263.778" cy="265.778" r="2.77778" fill="#080708"/>
<circle cx="205.778" cy="411.778" r="2.77778" fill="#080708"/>
<circle cx="196.778" cy="417.778" r="2.77778" fill="#080708"/>
<circle cx="219.778" cy="423.778" r="2.77778" fill="#080708"/>
<g filter="url(#filter3_d_439_324)">
<circle cx="196.944" cy="85.833" r="52.5" fill="white"/>
<circle cx="196.944" cy="85.833" r="54" stroke="#FEEFE7" stroke-width="3"/>
</g>
<g filter="url(#filter4_d_439_324)">
<circle cx="130.277" cy="119.167" r="52.5" fill="white"/>
<circle cx="130.277" cy="119.167" r="54" stroke="#FEEFE7" stroke-width="3"/>
</g>
<g filter="url(#filter5_d_439_324)">
<circle cx="96.9443" cy="174.723" r="52.5" fill="white"/>
<circle cx="96.9443" cy="174.723" r="54" stroke="#FEEFE7" stroke-width="3"/>
</g>
<g filter="url(#filter6_d_439_324)">
<circle cx="74.7227" cy="241.389" r="52.5" fill="white"/>
<circle cx="74.7227" cy="241.389" r="54" stroke="#FEEFE7" stroke-width="3"/>
</g>
<g filter="url(#filter7_d_439_324)">
<circle cx="85.833" cy="308.056" r="52.5" fill="white"/>
<circle cx="85.833" cy="308.056" r="54" stroke="#FEEFE7" stroke-width="3"/>
</g>
<g filter="url(#filter8_d_439_324)">
<mask id="path-30-outside-1_439_324" maskUnits="userSpaceOnUse" x="348" y="112" width="112" height="112" fill="black">
<rect fill="white" x="348" y="112" width="112" height="112"/>
<path d="M458 168C458 197.823 433.823 222 404 222C374.177 222 350 197.823 350 168C350 138.177 374.177 114 404 114C433.823 114 458 138.177 458 168ZM382.135 168C382.135 180.076 391.924 189.865 404 189.865C416.076 189.865 425.865 180.076 425.865 168C425.865 155.924 416.076 146.135 404 146.135C391.924 146.135 382.135 155.924 382.135 168Z"/>
</mask>
<path d="M458 168C458 197.823 433.823 222 404 222C374.177 222 350 197.823 350 168C350 138.177 374.177 114 404 114C433.823 114 458 138.177 458 168ZM382.135 168C382.135 180.076 391.924 189.865 404 189.865C416.076 189.865 425.865 180.076 425.865 168C425.865 155.924 416.076 146.135 404 146.135C391.924 146.135 382.135 155.924 382.135 168Z" fill="#DE6127"/>
<path d="M458 168C458 197.823 433.823 222 404 222C374.177 222 350 197.823 350 168C350 138.177 374.177 114 404 114C433.823 114 458 138.177 458 168ZM382.135 168C382.135 180.076 391.924 189.865 404 189.865C416.076 189.865 425.865 180.076 425.865 168C425.865 155.924 416.076 146.135 404 146.135C391.924 146.135 382.135 155.924 382.135 168Z" stroke="#F85A11" stroke-width="4" mask="url(#path-30-outside-1_439_324)"/>
</g>
<g filter="url(#filter9_d_439_324)">
<mask id="path-31-outside-2_439_324" maskUnits="userSpaceOnUse" x="374" y="184" width="112" height="112" fill="black">
<rect fill="white" x="374" y="184" width="112" height="112"/>
<path d="M484 240C484 269.823 459.823 294 430 294C400.177 294 376 269.823 376 240C376 210.177 400.177 186 430 186C459.823 186 484 210.177 484 240ZM408.135 240C408.135 252.076 417.924 261.865 430 261.865C442.076 261.865 451.865 252.076 451.865 240C451.865 227.924 442.076 218.135 430 218.135C417.924 218.135 408.135 227.924 408.135 240Z"/>
</mask>
<path d="M484 240C484 269.823 459.823 294 430 294C400.177 294 376 269.823 376 240C376 210.177 400.177 186 430 186C459.823 186 484 210.177 484 240ZM408.135 240C408.135 252.076 417.924 261.865 430 261.865C442.076 261.865 451.865 252.076 451.865 240C451.865 227.924 442.076 218.135 430 218.135C417.924 218.135 408.135 227.924 408.135 240Z" fill="#DE6127"/>
<path d="M484 240C484 269.823 459.823 294 430 294C400.177 294 376 269.823 376 240C376 210.177 400.177 186 430 186C459.823 186 484 210.177 484 240ZM408.135 240C408.135 252.076 417.924 261.865 430 261.865C442.076 261.865 451.865 252.076 451.865 240C451.865 227.924 442.076 218.135 430 218.135C417.924 218.135 408.135 227.924 408.135 240Z" stroke="#F85A11" stroke-width="4" mask="url(#path-31-outside-2_439_324)"/>
</g>
<g filter="url(#filter10_d_439_324)">
<mask id="path-32-outside-3_439_324" maskUnits="userSpaceOnUse" x="360" y="264" width="112" height="112" fill="black">
<rect fill="white" x="360" y="264" width="112" height="112"/>
<path d="M470 320C470 349.823 445.823 374 416 374C386.177 374 362 349.823 362 320C362 290.177 386.177 266 416 266C445.823 266 470 290.177 470 320ZM394.135 320C394.135 332.076 403.924 341.865 416 341.865C428.076 341.865 437.865 332.076 437.865 320C437.865 307.924 428.076 298.135 416 298.135C403.924 298.135 394.135 307.924 394.135 320Z"/>
</mask>
<path d="M470 320C470 349.823 445.823 374 416 374C386.177 374 362 349.823 362 320C362 290.177 386.177 266 416 266C445.823 266 470 290.177 470 320ZM394.135 320C394.135 332.076 403.924 341.865 416 341.865C428.076 341.865 437.865 332.076 437.865 320C437.865 307.924 428.076 298.135 416 298.135C403.924 298.135 394.135 307.924 394.135 320Z" fill="#DE6127"/>
<path d="M470 320C470 349.823 445.823 374 416 374C386.177 374 362 349.823 362 320C362 290.177 386.177 266 416 266C445.823 266 470 290.177 470 320ZM394.135 320C394.135 332.076 403.924 341.865 416 341.865C428.076 341.865 437.865 332.076 437.865 320C437.865 307.924 428.076 298.135 416 298.135C403.924 298.135 394.135 307.924 394.135 320Z" stroke="#F85A11" stroke-width="4" mask="url(#path-32-outside-3_439_324)"/>
</g>
<g filter="url(#filter11_d_439_324)">
<mask id="path-33-outside-4_439_324" maskUnits="userSpaceOnUse" x="306" y="326" width="112" height="112" fill="black">
<rect fill="white" x="306" y="326" width="112" height="112"/>
<path d="M416 382C416 411.823 391.823 436 362 436C332.177 436 308 411.823 308 382C308 352.177 332.177 328 362 328C391.823 328 416 352.177 416 382ZM340.135 382C340.135 394.076 349.924 403.865 362 403.865C374.076 403.865 383.865 394.076 383.865 382C383.865 369.924 374.076 360.135 362 360.135C349.924 360.135 340.135 369.924 340.135 382Z"/>
</mask>
<path d="M416 382C416 411.823 391.823 436 362 436C332.177 436 308 411.823 308 382C308 352.177 332.177 328 362 328C391.823 328 416 352.177 416 382ZM340.135 382C340.135 394.076 349.924 403.865 362 403.865C374.076 403.865 383.865 394.076 383.865 382C383.865 369.924 374.076 360.135 362 360.135C349.924 360.135 340.135 369.924 340.135 382Z" fill="#DE6127"/>
<path d="M416 382C416 411.823 391.823 436 362 436C332.177 436 308 411.823 308 382C308 352.177 332.177 328 362 328C391.823 328 416 352.177 416 382ZM340.135 382C340.135 394.076 349.924 403.865 362 403.865C374.076 403.865 383.865 394.076 383.865 382C383.865 369.924 374.076 360.135 362 360.135C349.924 360.135 340.135 369.924 340.135 382Z" stroke="#F85A11" stroke-width="4" mask="url(#path-33-outside-4_439_324)"/>
</g>
<defs>
<filter id="filter0_i_439_324" x="0" y="0" width="500" height="505" filterUnits="userSpaceOnUse" color-interpolation-filters="sRGB">
<feFlood flood-opacity="0" result="BackgroundImageFix"/>
<feBlend mode="normal" in="SourceGraphic" in2="BackgroundImageFix" result="shape"/>
<feColorMatrix in="SourceAlpha" type="matrix" values="0 0 0 0 0 0 0 0 0 0 0 0 0 0 0 0 0 0 127 0" result="hardAlpha"/>
<feOffset dy="5"/>
<feGaussianBlur stdDeviation="5"/>
<feComposite in2="hardAlpha" operator="arithmetic" k2="-1" k3="1"/>
<feColorMatrix type="matrix" values="0 0 0 0 0 0 0 0 0 0 0 0 0 0 0 0 0 0 0.3 0"/>
<feBlend mode="normal" in2="shape" result="effect1_innerShadow_439_324"/>
</filter>
<filter id="filter1_d_439_324" x="224.333" y="29.333" width="123" height="123" filterUnits="userSpaceOnUse" color-interpolation-filters="sRGB">
<feFlood flood-opacity="0" result="BackgroundImageFix"/>
<feColorMatrix in="SourceAlpha" type="matrix" values="0 0 0 0 0 0 0 0 0 0 0 0 0 0 0 0 0 0 127 0" result="hardAlpha"/>
<feOffset dy="5"/>
<feGaussianBlur stdDeviation="3"/>
<feComposite in2="hardAlpha" operator="out"/>
<feColorMatrix type="matrix" values="0 0 0 0 0 0 0 0 0 0 0 0 0 0 0 0 0 0 0.25 0"/>
<feBlend mode="normal" in2="BackgroundImageFix" result="effect1_dropShadow_439_324"/>
<feBlend mode="normal" in="SourceGraphic" in2="effect1_dropShadow_439_324" result="shape"/>
</filter>
<filter id="filter2_d_439_324" x="150.667" y="166.777" width="187.556" height="187.556" filterUnits="userSpaceOnUse" color-interpolation-filters="sRGB">
<feFlood flood-opacity="0" result="BackgroundImageFix"/>
<feColorMatrix in="SourceAlpha" type="matrix" values="0 0 0 0 0 0 0 0 0 0 0 0 0 0 0 0 0 0 127 0" result="hardAlpha"/>
<feOffset dy="5"/>
<feGaussianBlur stdDeviation="5"/>
<feComposite in2="hardAlpha" operator="out"/>
<feColorMatrix type="matrix" values="0 0 0 0 0 0 0 0 0 0 0 0 0 0 0 0 0 0 0.3 0"/>
<feBlend mode="normal" in2="BackgroundImageFix" result="effect1_dropShadow_439_324"/>
<feBlend mode="normal" in="SourceGraphic" in2="effect1_dropShadow_439_324" result="shape"/>
</filter>
<filter id="filter3_d_439_324" x="135.444" y="29.333" width="123" height="123" filterUnits="userSpaceOnUse" color-interpolation-filters="sRGB">
<feFlood flood-opacity="0" result="BackgroundImageFix"/>
<feColorMatrix in="SourceAlpha" type="matrix" values="0 0 0 0 0 0 0 0 0 0 0 0 0 0 0 0 0 0 127 0" result="hardAlpha"/>
<feOffset dy="5"/>
<feGaussianBlur stdDeviation="3"/>
<feComposite in2="hardAlpha" operator="out"/>
<feColorMatrix type="matrix" values="0 0 0 0 0 0 0 0 0 0 0 0 0 0 0 0 0 0 0.25 0"/>
<feBlend mode="normal" in2="BackgroundImageFix" result="effect1_dropShadow_439_324"/>
<feBlend mode="normal" in="SourceGraphic" in2="effect1_dropShadow_439_324" result="shape"/>
</filter>
<filter id="filter4_d_439_324" x="68.7773" y="62.667" width="123" height="123" filterUnits="userSpaceOnUse" color-interpolation-filters="sRGB">
<feFlood flood-opacity="0" result="BackgroundImageFix"/>
<feColorMatrix in="SourceAlpha" type="matrix" values="0 0 0 0 0 0 0 0 0 0 0 0 0 0 0 0 0 0 127 0" result="hardAlpha"/>
<feOffset dy="5"/>
<feGaussianBlur stdDeviation="3"/>
<feComposite in2="hardAlpha" operator="out"/>
<feColorMatrix type="matrix" values="0 0 0 0 0 0 0 0 0 0 0 0 0 0 0 0 0 0 0.25 0"/>
<feBlend mode="normal" in2="BackgroundImageFix" result="effect1_dropShadow_439_324"/>
<feBlend mode="normal" in="SourceGraphic" in2="effect1_dropShadow_439_324" result="shape"/>
</filter>
<filter id="filter5_d_439_324" x="35.4443" y="118.223" width="123" height="123" filterUnits="userSpaceOnUse" color-interpolation-filters="sRGB">
<feFlood flood-opacity="0" result="BackgroundImageFix"/>
<feColorMatrix in="SourceAlpha" type="matrix" values="0 0 0 0 0 0 0 0 0 0 0 0 0 0 0 0 0 0 127 0" result="hardAlpha"/>
<feOffset dy="5"/>
<feGaussianBlur stdDeviation="3"/>
<feComposite in2="hardAlpha" operator="out"/>
<feColorMatrix type="matrix" values="0 0 0 0 0 0 0 0 0 0 0 0 0 0 0 0 0 0 0.25 0"/>
<feBlend mode="normal" in2="BackgroundImageFix" result="effect1_dropShadow_439_324"/>
<feBlend mode="normal" in="SourceGraphic" in2="effect1_dropShadow_439_324" result="shape"/>
</filter>
<filter id="filter6_d_439_324" x="13.2227" y="184.889" width="123" height="123" filterUnits="userSpaceOnUse" color-interpolation-filters="sRGB">
<feFlood flood-opacity="0" result="BackgroundImageFix"/>
<feColorMatrix in="SourceAlpha" type="matrix" values="0 0 0 0 0 0 0 0 0 0 0 0 0 0 0 0 0 0 127 0" result="hardAlpha"/>
<feOffset dy="5"/>
<feGaussianBlur stdDeviation="3"/>
<feComposite in2="hardAlpha" operator="out"/>
<feColorMatrix type="matrix" values="0 0 0 0 0 0 0 0 0 0 0 0 0 0 0 0 0 0 0.25 0"/>
<feBlend mode="normal" in2="BackgroundImageFix" result="effect1_dropShadow_439_324"/>
<feBlend mode="normal" in="SourceGraphic" in2="effect1_dropShadow_439_324" result="shape"/>
</filter>
<filter id="filter7_d_439_324" x="24.333" y="251.556" width="123" height="123" filterUnits="userSpaceOnUse" color-interpolation-filters="sRGB">
<feFlood flood-opacity="0" result="BackgroundImageFix"/>
<feColorMatrix in="SourceAlpha" type="matrix" values="0 0 0 0 0 0 0 0 0 0 0 0 0 0 0 0 0 0 127 0" result="hardAlpha"/>
<feOffset dy="5"/>
<feGaussianBlur stdDeviation="3"/>
<feComposite in2="hardAlpha" operator="out"/>
<feColorMatrix type="matrix" values="0 0 0 0 0 0 0 0 0 0 0 0 0 0 0 0 0 0 0.25 0"/>
<feBlend mode="normal" in2="BackgroundImageFix" result="effect1_dropShadow_439_324"/>
<feBlend mode="normal" in="SourceGraphic" in2="effect1_dropShadow_439_324" result="shape"/>
</filter>
<filter id="filter8_d_439_324" x="338" y="108" width="132" height="132" filterUnits="userSpaceOnUse" color-interpolation-filters="sRGB">
<feFlood flood-opacity="0" result="BackgroundImageFix"/>
<feColorMatrix in="SourceAlpha" type="matrix" values="0 0 0 0 0 0 0 0 0 0 0 0 0 0 0 0 0 0 127 0" result="hardAlpha"/>
<feOffset dy="6"/>
<feGaussianBlur stdDeviation="5"/>
<feComposite in2="hardAlpha" operator="out"/>
<feColorMatrix type="matrix" values="0 0 0 0 0 0 0 0 0 0 0 0 0 0 0 0 0 0 0.3 0"/>
<feBlend mode="normal" in2="BackgroundImageFix" result="effect1_dropShadow_439_324"/>
<feBlend mode="normal" in="SourceGraphic" in2="effect1_dropShadow_439_324" result="shape"/>
</filter>
<filter id="filter9_d_439_324" x="364" y="180" width="132" height="132" filterUnits="userSpaceOnUse" color-interpolation-filters="sRGB">
<feFlood flood-opacity="0" result="BackgroundImageFix"/>
<feColorMatrix in="SourceAlpha" type="matrix" values="0 0 0 0 0 0 0 0 0 0 0 0 0 0 0 0 0 0 127 0" result="hardAlpha"/>
<feOffset dy="6"/>
<feGaussianBlur stdDeviation="5"/>
<feComposite in2="hardAlpha" operator="out"/>
<feColorMatrix type="matrix" values="0 0 0 0 0 0 0 0 0 0 0 0 0 0 0 0 0 0 0.3 0"/>
<feBlend mode="normal" in2="BackgroundImageFix" result="effect1_dropShadow_439_324"/>
<feBlend mode="normal" in="SourceGraphic" in2="effect1_dropShadow_439_324" result="shape"/>
</filter>
<filter id="filter10_d_439_324" x="350" y="260" width="132" height="132" filterUnits="userSpaceOnUse" color-interpolation-filters="sRGB">
<feFlood flood-opacity="0" result="BackgroundImageFix"/>
<feColorMatrix in="SourceAlpha" type="matrix" values="0 0 0 0 0 0 0 0 0 0 0 0 0 0 0 0 0 0 127 0" result="hardAlpha"/>
<feOffset dy="6"/>
<feGaussianBlur stdDeviation="5"/>
<feComposite in2="hardAlpha" operator="out"/>
<feColorMatrix type="matrix" values="0 0 0 0 0 0 0 0 0 0 0 0 0 0 0 0 0 0 0.3 0"/>
<feBlend mode="normal" in2="BackgroundImageFix" result="effect1_dropShadow_439_324"/>
<feBlend mode="normal" in="SourceGraphic" in2="effect1_dropShadow_439_324" result="shape"/>
</filter>
<filter id="filter11_d_439_324" x="296" y="322" width="132" height="132" filterUnits="userSpaceOnUse" color-interpolation-filters="sRGB">
<feFlood flood-opacity="0" result="BackgroundImageFix"/>
<feColorMatrix in="SourceAlpha" type="matrix" values="0 0 0 0 0 0 0 0 0 0 0 0 0 0 0 0 0 0 127 0" result="hardAlpha"/>
<feOffset dy="6"/>
<feGaussianBlur stdDeviation="5"/>
<feComposite in2="hardAlpha" operator="out"/>
<feColorMatrix type="matrix" values="0 0 0 0 0 0 0 0 0 0 0 0 0 0 0 0 0 0 0.3 0"/>
<feBlend mode="normal" in2="BackgroundImageFix" result="effect1_dropShadow_439_324"/>
<feBlend mode="normal" in="SourceGraphic" in2="effect1_dropShadow_439_324" result="shape"/>
</filter>
</defs>
</svg>
