<svg width="780" height="159" viewBox="0 0 780 159" fill="none" xmlns="http://www.w3.org/2000/svg">
<g filter="url(#filter0_i_482_3)">
<circle cx="78" cy="78" r="75" fill="#080708"/>
</g>
<circle cx="78" cy="78" r="76.5" stroke="#F85A11" stroke-width="3"/>
<g filter="url(#filter1_d_482_3)">
<circle cx="80.5" cy="25.5" r="14.5" fill="white"/>
<circle cx="80.5" cy="25.5" r="16" stroke="#FEEFE7" stroke-width="3"/>
</g>
<g filter="url(#filter2_d_482_3)">
<circle cx="79" cy="78" r="24" fill="#BD0808"/>
<circle cx="79" cy="78" r="25.75" stroke="#999999" stroke-width="3.5"/>
</g>
<rect x="67.6172" y="67.5908" width="1.66667" height="10" rx="0.833333" transform="rotate(30.1149 67.6172 67.5908)" fill="#F85A11"/>
<rect x="75" y="85.1787" width="1.66667" height="10" rx="0.833333" transform="rotate(-44.9988 75 85.1787)" fill="#F0B51E"/>
<rect x="85" y="68.5122" width="1.66667" height="10" rx="0.833333" transform="rotate(-44.9988 85 68.5122)" fill="#E4592D"/>
<circle cx="78.1331" cy="66.6004" r="0.833333" fill="#080708"/>
<circle cx="70.0335" cy="80.4002" r="0.833333" fill="#080708"/>
<circle cx="84.1331" cy="80.4002" r="0.833333" fill="#080708"/>
<circle cx="59" cy="126" r="18" fill="#C0D735" stroke="#A95F37" stroke-width="2"/>
<circle cx="54.2777" cy="125.056" r="0.944444" fill="#080708"/>
<circle cx="58.0558" cy="121.278" r="0.944444" fill="#080708"/>
<circle cx="61.8336" cy="125.056" r="0.944444" fill="#080708"/>
<circle cx="59.0755" cy="128.116" r="0.944444" fill="#080708"/>
<circle cx="56.016" cy="130.156" r="0.944444" fill="#080708"/>
<circle cx="63.8358" cy="132.195" r="0.944444" fill="#080708"/>
<g filter="url(#filter3_d_482_3)">
<circle cx="60.8335" cy="27.5" r="14.5" fill="white"/>
<circle cx="60.8335" cy="27.5" r="16" stroke="#FEEFE7" stroke-width="3"/>
</g>
<g filter="url(#filter4_d_482_3)">
<circle cx="40.833" cy="37.5" r="14.5" fill="white"/>
<circle cx="40.833" cy="37.5" r="16" stroke="#FEEFE7" stroke-width="3"/>
</g>
<g filter="url(#filter5_d_482_3)">
<circle cx="30.8335" cy="54.167" r="14.5" fill="white"/>
<circle cx="30.8335" cy="54.167" r="16" stroke="#FEEFE7" stroke-width="3"/>
</g>
<g filter="url(#filter6_d_482_3)">
<circle cx="24.167" cy="74.1665" r="14.5" fill="white"/>
<circle cx="24.167" cy="74.1665" r="16" stroke="#FEEFE7" stroke-width="3"/>
</g>
<g filter="url(#filter7_d_482_3)">
<circle cx="27.5" cy="94.1665" r="14.5" fill="white"/>
<circle cx="27.5" cy="94.1665" r="16" stroke="#FEEFE7" stroke-width="3"/>
</g>
<g filter="url(#filter8_d_482_3)">
<mask id="path-30-outside-1_482_3" maskUnits="userSpaceOnUse" x="105" y="30" width="34" height="34" fill="black">
<rect fill="white" x="105" y="30" width="34" height="34"/>
<path d="M137 47C137 55.2843 130.284 62 122 62C113.716 62 107 55.2843 107 47C107 38.7157 113.716 32 122 32C130.284 32 137 38.7157 137 47ZM115.926 47C115.926 50.3544 118.646 53.0737 122 53.0737C125.354 53.0737 128.074 50.3544 128.074 47C128.074 43.6456 125.354 40.9263 122 40.9263C118.646 40.9263 115.926 43.6456 115.926 47Z"/>
</mask>
<path d="M137 47C137 55.2843 130.284 62 122 62C113.716 62 107 55.2843 107 47C107 38.7157 113.716 32 122 32C130.284 32 137 38.7157 137 47ZM115.926 47C115.926 50.3544 118.646 53.0737 122 53.0737C125.354 53.0737 128.074 50.3544 128.074 47C128.074 43.6456 125.354 40.9263 122 40.9263C118.646 40.9263 115.926 43.6456 115.926 47Z" fill="#DE6127"/>
<path d="M137 47C137 55.2843 130.284 62 122 62C113.716 62 107 55.2843 107 47C107 38.7157 113.716 32 122 32C130.284 32 137 38.7157 137 47ZM115.926 47C115.926 50.3544 118.646 53.0737 122 53.0737C125.354 53.0737 128.074 50.3544 128.074 47C128.074 43.6456 125.354 40.9263 122 40.9263C118.646 40.9263 115.926 43.6456 115.926 47Z" stroke="#F85A11" stroke-width="4" mask="url(#path-30-outside-1_482_3)"/>
</g>
<g filter="url(#filter9_d_482_3)">
<mask id="path-31-outside-2_482_3" maskUnits="userSpaceOnUse" x="115" y="48" width="34" height="34" fill="black">
<rect fill="white" x="115" y="48" width="34" height="34"/>
<path d="M147 65C147 73.2843 140.284 80 132 80C123.716 80 117 73.2843 117 65C117 56.7157 123.716 50 132 50C140.284 50 147 56.7157 147 65ZM125.926 65C125.926 68.3544 128.646 71.0737 132 71.0737C135.354 71.0737 138.074 68.3544 138.074 65C138.074 61.6456 135.354 58.9263 132 58.9263C128.646 58.9263 125.926 61.6456 125.926 65Z"/>
</mask>
<path d="M147 65C147 73.2843 140.284 80 132 80C123.716 80 117 73.2843 117 65C117 56.7157 123.716 50 132 50C140.284 50 147 56.7157 147 65ZM125.926 65C125.926 68.3544 128.646 71.0737 132 71.0737C135.354 71.0737 138.074 68.3544 138.074 65C138.074 61.6456 135.354 58.9263 132 58.9263C128.646 58.9263 125.926 61.6456 125.926 65Z" fill="#DE6127"/>
<path d="M147 65C147 73.2843 140.284 80 132 80C123.716 80 117 73.2843 117 65C117 56.7157 123.716 50 132 50C140.284 50 147 56.7157 147 65ZM125.926 65C125.926 68.3544 128.646 71.0737 132 71.0737C135.354 71.0737 138.074 68.3544 138.074 65C138.074 61.6456 135.354 58.9263 132 58.9263C128.646 58.9263 125.926 61.6456 125.926 65Z" stroke="#F85A11" stroke-width="4" mask="url(#path-31-outside-2_482_3)"/>
</g>
<g filter="url(#filter10_d_482_3)">
<mask id="path-32-outside-3_482_3" maskUnits="userSpaceOnUse" x="114" y="71" width="34" height="34" fill="black">
<rect fill="white" x="114" y="71" width="34" height="34"/>
<path d="M146 88C146 96.2843 139.284 103 131 103C122.716 103 116 96.2843 116 88C116 79.7157 122.716 73 131 73C139.284 73 146 79.7157 146 88ZM124.926 88C124.926 91.3544 127.646 94.0737 131 94.0737C134.354 94.0737 137.074 91.3544 137.074 88C137.074 84.6456 134.354 81.9263 131 81.9263C127.646 81.9263 124.926 84.6456 124.926 88Z"/>
</mask>
<path d="M146 88C146 96.2843 139.284 103 131 103C122.716 103 116 96.2843 116 88C116 79.7157 122.716 73 131 73C139.284 73 146 79.7157 146 88ZM124.926 88C124.926 91.3544 127.646 94.0737 131 94.0737C134.354 94.0737 137.074 91.3544 137.074 88C137.074 84.6456 134.354 81.9263 131 81.9263C127.646 81.9263 124.926 84.6456 124.926 88Z" fill="#DE6127"/>
<path d="M146 88C146 96.2843 139.284 103 131 103C122.716 103 116 96.2843 116 88C116 79.7157 122.716 73 131 73C139.284 73 146 79.7157 146 88ZM124.926 88C124.926 91.3544 127.646 94.0737 131 94.0737C134.354 94.0737 137.074 91.3544 137.074 88C137.074 84.6456 134.354 81.9263 131 81.9263C127.646 81.9263 124.926 84.6456 124.926 88Z" stroke="#F85A11" stroke-width="4" mask="url(#path-32-outside-3_482_3)"/>
</g>
<g filter="url(#filter11_d_482_3)">
<mask id="path-33-outside-4_482_3" maskUnits="userSpaceOnUse" x="102" y="94" width="34" height="34" fill="black">
<rect fill="white" x="102" y="94" width="34" height="34"/>
<path d="M134 111C134 119.284 127.284 126 119 126C110.716 126 104 119.284 104 111C104 102.716 110.716 96 119 96C127.284 96 134 102.716 134 111ZM112.926 111C112.926 114.354 115.646 117.074 119 117.074C122.354 117.074 125.074 114.354 125.074 111C125.074 107.646 122.354 104.926 119 104.926C115.646 104.926 112.926 107.646 112.926 111Z"/>
</mask>
<path d="M134 111C134 119.284 127.284 126 119 126C110.716 126 104 119.284 104 111C104 102.716 110.716 96 119 96C127.284 96 134 102.716 134 111ZM112.926 111C112.926 114.354 115.646 117.074 119 117.074C122.354 117.074 125.074 114.354 125.074 111C125.074 107.646 122.354 104.926 119 104.926C115.646 104.926 112.926 107.646 112.926 111Z" fill="#DE6127"/>
<path d="M134 111C134 119.284 127.284 126 119 126C110.716 126 104 119.284 104 111C104 102.716 110.716 96 119 96C127.284 96 134 102.716 134 111ZM112.926 111C112.926 114.354 115.646 117.074 119 117.074C122.354 117.074 125.074 114.354 125.074 111C125.074 107.646 122.354 104.926 119 104.926C115.646 104.926 112.926 107.646 112.926 111Z" stroke="#F85A11" stroke-width="4" mask="url(#path-33-outside-4_482_3)"/>
</g>
<g filter="url(#filter12_d_482_3)">
<mask id="path-34-outside-5_482_3" maskUnits="userSpaceOnUse" x="83" y="109" width="34" height="34" fill="black">
<rect fill="white" x="83" y="109" width="34" height="34"/>
<path d="M115 126C115 134.284 108.284 141 100 141C91.7157 141 85 134.284 85 126C85 117.716 91.7157 111 100 111C108.284 111 115 117.716 115 126ZM93.9263 126C93.9263 129.354 96.6456 132.074 100 132.074C103.354 132.074 106.074 129.354 106.074 126C106.074 122.646 103.354 119.926 100 119.926C96.6456 119.926 93.9263 122.646 93.9263 126Z"/>
</mask>
<path d="M115 126C115 134.284 108.284 141 100 141C91.7157 141 85 134.284 85 126C85 117.716 91.7157 111 100 111C108.284 111 115 117.716 115 126ZM93.9263 126C93.9263 129.354 96.6456 132.074 100 132.074C103.354 132.074 106.074 129.354 106.074 126C106.074 122.646 103.354 119.926 100 119.926C96.6456 119.926 93.9263 122.646 93.9263 126Z" fill="#DE6127"/>
<path d="M115 126C115 134.284 108.284 141 100 141C91.7157 141 85 134.284 85 126C85 117.716 91.7157 111 100 111C108.284 111 115 117.716 115 126ZM93.9263 126C93.9263 129.354 96.6456 132.074 100 132.074C103.354 132.074 106.074 129.354 106.074 126C106.074 122.646 103.354 119.926 100 119.926C96.6456 119.926 93.9263 122.646 93.9263 126Z" stroke="#F85A11" stroke-width="4" mask="url(#path-34-outside-5_482_3)"/>
</g>
<path d="M602.46 66.8879C602.141 67.7339 601.992 68.6345 602.021 69.5382C602.05 70.4419 602.257 71.331 602.63 72.1547C603.003 72.9784 603.534 73.7206 604.194 74.339C604.853 74.9574 605.628 75.4398 606.474 75.7586C607.32 76.0775 608.221 76.2266 609.124 76.1974C610.028 76.1683 610.917 75.9614 611.741 75.5886C612.565 75.2159 613.307 74.6845 613.925 74.0249C614.544 73.3652 615.026 72.5903 615.345 71.7442C615.664 70.8982 615.813 69.9976 615.784 69.0939C615.755 68.1903 615.548 67.3012 615.175 66.4774C614.802 65.6537 614.271 64.9115 613.611 64.2931C612.952 63.6747 612.177 63.1924 611.331 62.8735C610.484 62.5546 609.584 62.4055 608.68 62.4347C607.777 62.4638 606.887 62.6707 606.064 63.0435C605.24 63.4163 604.498 63.9476 603.879 64.6073C603.261 65.2669 602.779 66.0418 602.46 66.8879Z" fill="#FEEFE7"/>
<path d="M563.373 52.1564C563.054 53.0025 562.905 53.9031 562.935 54.8067C562.964 55.7104 563.171 56.5995 563.543 57.4232C563.916 58.247 564.447 58.9892 565.107 59.6076C565.767 60.2259 566.542 60.7083 567.388 61.0272C568.234 61.3461 569.134 61.4952 570.038 61.466C570.942 61.4368 571.831 61.23 572.655 60.8572C573.478 60.4844 574.22 59.953 574.839 59.2934C575.457 58.6338 575.94 57.8588 576.258 57.0128C576.902 55.3041 576.841 53.4096 576.088 51.746C575.336 50.0824 573.953 48.786 572.244 48.142C570.535 47.498 568.641 47.5592 566.977 48.3121C565.314 49.0649 564.017 50.4478 563.373 52.1564Z" fill="#FEEFE7"/>
<path d="M569.022 52.1717C566.862 57.901 567.067 64.2535 569.592 69.8316C572.116 75.4097 576.753 79.7566 582.482 81.9159C588.212 84.0752 594.564 83.8702 600.142 81.3458C605.72 78.8215 610.067 74.1846 612.227 68.4553C614.386 62.726 614.181 56.3736 611.656 50.7955C609.132 45.2174 604.495 40.8705 598.766 38.7111C593.037 36.5518 586.684 36.7569 581.106 39.2812C575.528 41.8056 571.181 46.4424 569.022 52.1717Z" fill="#FEEFE7"/>
<path d="M580.851 66.6347L595.421 71.7913C595.421 71.7913 592.605 79.2705 585.753 76.6906C578.651 74.0164 580.851 66.6347 580.851 66.6347Z" fill="#F85A11"/>
<path d="M580.851 66.6324C580.851 66.6324 580.685 67.2579 580.606 67.934L594.687 73.2411C595.107 72.5774 595.421 71.7913 595.421 71.7913L580.851 66.6324ZM585.755 76.6991C588.285 77.6525 590.135 77.141 591.243 76.6001L581.171 72.554C581.772 73.9891 583.072 75.6879 585.755 76.6991Z" fill="white"/>
<g filter="url(#filter13_d_482_3)">
<path d="M630.68 42.6396C632.56 37.6502 629.527 31.8861 623.906 29.7676C621.261 28.7708 618.52 28.7685 616.157 29.5532C614.891 27.8801 613.101 26.4967 610.907 25.67C608.36 24.7098 605.723 24.6696 603.421 25.3688C602.153 23.3241 600.146 21.614 597.598 20.6538C595.721 19.9462 593.797 19.7443 591.99 19.9628C590.716 18.0933 588.805 16.5381 586.424 15.6408C580.803 13.5222 574.719 15.8503 572.839 20.8396C571.193 25.2061 573.309 30.1631 577.631 32.7557L572.58 46.1576L613.726 61.6656L618.756 48.3201C623.872 49.4621 628.984 47.1392 630.68 42.6396Z" fill="#F85A11"/>
</g>
<circle cx="582.637" cy="58.0004" r="3.15" transform="rotate(20.6511 582.637 58.0004)" fill="white"/>
<circle cx="599.668" cy="64.4194" r="3.15" transform="rotate(20.6511 599.668 64.4194)" fill="white"/>
<ellipse cx="582.348" cy="59.7613" rx="1.4" ry="1.4" transform="rotate(20.6511 582.348 59.7613)" fill="#080708" fill-opacity="0.8"/>
<ellipse cx="599.378" cy="66.1803" rx="1.4" ry="1.4" transform="rotate(20.6511 599.378 66.1803)" fill="#080708" fill-opacity="0.8"/>
<path d="M221.112 49.2344L220.614 57.3276C219.203 56.8296 217.557 56.4422 215.675 56.1655C213.822 55.8612 211.912 55.626 209.948 55.46C207.983 55.2939 206.06 55.1833 204.179 55.1279C202.297 55.0726 200.61 55.0449 199.115 55.0449H197.995L200.402 109.166H187.66L189.154 55.46C187.107 55.626 185.004 55.8612 182.846 56.1655C180.715 56.4422 178.654 56.8019 176.662 57.2446C174.697 57.6597 172.871 58.1577 171.183 58.7388C169.495 59.3198 168.098 59.9839 166.991 60.731L166.203 49.5664L221.112 49.2344ZM234.759 73.3555L233.929 90.1035C234.336 89.3223 234.816 88.6143 235.369 87.9795C235.923 87.3285 236.541 86.7751 237.225 86.3193C237.925 85.8473 238.69 85.4893 239.52 85.2451C240.35 84.9847 241.253 84.8545 242.23 84.8545C243.304 84.8545 244.256 85.0579 245.086 85.4648C245.933 85.8555 246.665 86.3844 247.283 87.0518C247.918 87.7191 248.447 88.4922 248.87 89.3711C249.31 90.2337 249.66 91.137 249.92 92.0811C250.197 93.0251 250.392 93.9772 250.506 94.9375C250.62 95.8978 250.677 96.8011 250.677 97.6475C250.677 98.6077 250.62 99.6169 250.506 100.675C250.392 101.733 250.229 102.791 250.018 103.849C249.806 104.89 249.546 105.916 249.237 106.925C248.944 107.934 248.618 108.878 248.26 109.757L242.23 109.146C242.686 108.333 243.084 107.356 243.426 106.217C243.784 105.061 244.077 103.857 244.305 102.604C244.533 101.35 244.704 100.113 244.818 98.8926C244.948 97.6556 245.013 96.557 245.013 95.5967C245.013 94.7992 244.932 93.9528 244.769 93.0576C244.622 92.1624 244.354 91.3405 243.963 90.5918C243.589 89.8268 243.076 89.2002 242.425 88.7119C241.774 88.2074 240.952 87.9551 239.959 87.9551C239.357 87.9551 238.804 88.0771 238.299 88.3213C237.811 88.5492 237.355 88.8503 236.932 89.2246C236.525 89.599 236.159 90.0303 235.833 90.5186C235.508 91.0068 235.223 91.5033 234.979 92.0078C234.393 93.196 233.937 94.5469 233.612 96.0605L233.075 107.853L228.509 108.243L227.557 73.8926L234.759 73.3555ZM270.109 102.14C268.823 102.14 267.545 101.977 266.276 101.651C265.022 101.31 263.883 100.772 262.858 100.04C262.874 100.675 262.915 101.326 262.98 101.993C263.045 102.66 263.151 103.312 263.297 103.946C263.46 104.565 263.663 105.151 263.908 105.704C264.168 106.257 264.493 106.746 264.884 107.169C265.291 107.576 265.771 107.901 266.325 108.146C266.894 108.39 267.57 108.512 268.351 108.512C269.083 108.512 269.767 108.382 270.402 108.121C271.036 107.844 271.59 107.478 272.062 107.022C272.55 106.567 272.949 106.03 273.258 105.411C273.567 104.793 273.779 104.125 273.893 103.409L279.899 104.752C279.427 105.761 278.759 106.616 277.897 107.315C277.05 108.015 276.106 108.577 275.065 109C274.023 109.439 272.933 109.757 271.793 109.952C270.67 110.147 269.588 110.245 268.546 110.245C266.674 110.245 265.006 109.968 263.541 109.415C262.076 108.862 260.839 108.064 259.83 107.022C258.838 105.981 258.073 104.719 257.535 103.238C257.015 101.741 256.754 100.064 256.754 98.209C256.754 96.4023 257.063 94.7015 257.682 93.1064C258.3 91.4951 259.163 90.0954 260.27 88.9072C261.377 87.7191 262.703 86.7832 264.249 86.0996C265.812 85.3997 267.529 85.0498 269.401 85.0498C270.768 85.0498 272.127 85.2207 273.478 85.5625C274.829 85.888 276.041 86.4089 277.116 87.125C278.19 87.8249 279.052 88.7282 279.703 89.835C280.371 90.9417 280.704 92.2764 280.704 93.8389C280.704 95.3688 280.395 96.6628 279.777 97.7207C279.174 98.7624 278.377 99.6169 277.384 100.284C276.391 100.935 275.26 101.407 273.991 101.7C272.721 101.993 271.427 102.14 270.109 102.14ZM269.059 86.8564C268.31 86.8564 267.643 87.0111 267.057 87.3203C266.487 87.6133 265.975 88.0202 265.519 88.541C265.079 89.0618 264.705 89.6559 264.396 90.3232C264.087 90.9906 263.826 91.6904 263.615 92.4229C263.403 93.1553 263.24 93.8958 263.126 94.6445C263.012 95.3932 262.939 96.0931 262.907 96.7441C263.525 97.8021 264.347 98.6729 265.372 99.3564C266.398 100.024 267.586 100.357 268.937 100.357C269.799 100.357 270.573 100.162 271.256 99.7715C271.94 99.3646 272.518 98.8438 272.99 98.209C273.462 97.5742 273.82 96.8662 274.064 96.085C274.324 95.3037 274.454 94.5225 274.454 93.7412C274.454 92.96 274.34 92.1624 274.113 91.3486C273.885 90.5186 273.543 89.778 273.087 89.127C272.648 88.4596 272.086 87.9144 271.403 87.4912C270.735 87.068 269.954 86.8564 269.059 86.8564ZM319.031 110.709C317.126 110.709 315.344 110.473 313.684 110.001C312.024 109.529 310.51 108.821 309.143 107.877C307.776 106.933 306.563 105.753 305.505 104.337C304.463 102.921 303.609 101.277 302.942 99.4053L311.389 98.9414C311.519 101.936 312.374 104.223 313.952 105.802C315.531 107.364 317.761 108.146 320.642 108.146C321.765 108.146 322.888 108.032 324.011 107.804C325.134 107.576 326.135 107.193 327.014 106.656C327.909 106.103 328.633 105.379 329.187 104.483C329.756 103.588 330.041 102.473 330.041 101.139C330.041 100.211 329.862 99.4215 329.504 98.7705C329.146 98.1032 328.666 97.5498 328.064 97.1104C327.478 96.6709 326.794 96.321 326.013 96.0605C325.248 95.7839 324.45 95.5723 323.62 95.4258C322.807 95.263 321.993 95.141 321.179 95.0596C320.365 94.9782 319.616 94.9049 318.933 94.8398C317.826 94.7585 316.671 94.6283 315.466 94.4492C314.262 94.2702 313.074 94.0179 311.902 93.6924C310.746 93.3669 309.639 92.9518 308.581 92.4473C307.523 91.9427 306.596 91.3079 305.798 90.543C305.001 89.7617 304.366 88.8421 303.894 87.7842C303.422 86.7262 303.186 85.4811 303.186 84.0488C303.186 82.6816 303.414 81.4447 303.869 80.3379C304.325 79.2311 304.944 78.2546 305.725 77.4082C306.522 76.5456 307.434 75.805 308.459 75.1865C309.501 74.5518 310.6 74.0391 311.755 73.6484C312.927 73.2415 314.123 72.9404 315.344 72.7451C316.565 72.5498 317.745 72.4521 318.884 72.4521C320.04 72.4521 321.252 72.5254 322.522 72.6719C323.808 72.8184 325.085 73.0625 326.355 73.4043C327.624 73.7461 328.845 74.1937 330.017 74.7471C331.205 75.2842 332.271 75.9515 333.215 76.749C334.175 77.5465 334.973 78.4824 335.608 79.5566C336.242 80.6146 336.658 81.8271 336.853 83.1943L328.699 84.8545C328.796 84.2523 328.845 83.6338 328.845 82.999C328.845 81.5179 328.544 80.2646 327.942 79.2393C327.339 78.2139 326.542 77.3919 325.549 76.7734C324.556 76.1387 323.433 75.6829 322.18 75.4062C320.927 75.1296 319.649 74.9912 318.347 74.9912C317.191 74.9912 316.044 75.1458 314.905 75.4551C313.782 75.748 312.764 76.1956 311.853 76.7979C310.958 77.4001 310.233 78.1569 309.68 79.0684C309.127 79.9798 308.85 81.054 308.85 82.291C308.85 83.1374 309.078 83.8698 309.533 84.4883C309.989 85.1068 310.583 85.6439 311.316 86.0996C312.064 86.5391 312.903 86.9053 313.83 87.1982C314.758 87.4912 315.686 87.7354 316.614 87.9307C317.558 88.1097 318.453 88.2562 319.299 88.3701C320.145 88.4678 320.862 88.541 321.448 88.5898C322.489 88.7038 323.58 88.8665 324.719 89.0781C325.858 89.2734 326.981 89.5501 328.088 89.9082C329.195 90.2663 330.253 90.7139 331.262 91.251C332.271 91.7881 333.15 92.4391 333.899 93.2041C334.664 93.9691 335.266 94.8643 335.705 95.8896C336.161 96.915 336.389 98.0869 336.389 99.4053C336.389 100.805 336.112 102.058 335.559 103.165C335.005 104.256 334.265 105.224 333.337 106.07C332.426 106.9 331.376 107.617 330.188 108.219C329 108.805 327.763 109.277 326.477 109.635C325.191 110.009 323.905 110.278 322.619 110.44C321.334 110.619 320.137 110.709 319.031 110.709ZM368.638 97.5986C368.638 99.568 368.247 101.318 367.466 102.848C366.701 104.361 365.676 105.647 364.39 106.705C363.12 107.747 361.647 108.536 359.971 109.073C358.295 109.627 356.553 109.903 354.746 109.903C352.956 109.903 351.304 109.594 349.79 108.976C348.293 108.357 346.999 107.503 345.908 106.412C344.818 105.305 343.963 104.003 343.345 102.506C342.743 100.992 342.442 99.3402 342.442 97.5498C342.442 95.792 342.8 94.1481 343.516 92.6182C344.248 91.0882 345.217 89.7536 346.421 88.6143C347.642 87.4587 349.042 86.5553 350.62 85.9043C352.199 85.237 353.851 84.9033 355.576 84.9033C357.448 84.9033 359.182 85.2126 360.777 85.8311C362.372 86.4495 363.747 87.3203 364.903 88.4434C366.074 89.5664 366.986 90.9092 367.637 92.4717C368.304 94.0179 368.638 95.7269 368.638 97.5986ZM362.486 97.3545C362.486 96.6221 362.437 95.8652 362.339 95.084C362.241 94.2865 362.079 93.5133 361.851 92.7646C361.639 91.9997 361.354 91.2835 360.996 90.6162C360.655 89.9326 360.223 89.3385 359.702 88.834C359.182 88.3132 358.571 87.9062 357.871 87.6133C357.171 87.304 356.374 87.1494 355.479 87.1494C354.112 87.1494 352.98 87.4831 352.085 88.1504C351.19 88.8014 350.482 89.6396 349.961 90.665C349.457 91.6742 349.099 92.7891 348.887 94.0098C348.692 95.2305 348.594 96.3942 348.594 97.501C348.594 98.2334 348.635 98.9984 348.716 99.7959C348.814 100.577 348.968 101.35 349.18 102.115C349.392 102.88 349.668 103.613 350.01 104.312C350.352 104.996 350.775 105.606 351.28 106.144C351.8 106.664 352.403 107.079 353.086 107.389C353.786 107.698 354.584 107.853 355.479 107.853C356.39 107.853 357.196 107.698 357.896 107.389C358.596 107.063 359.198 106.64 359.702 106.119C360.223 105.582 360.663 104.964 361.021 104.264C361.379 103.548 361.664 102.807 361.875 102.042C362.087 101.261 362.241 100.471 362.339 99.6738C362.437 98.86 362.486 98.0869 362.486 97.3545ZM399.129 86.4414L397.664 109.049L393.367 109.439L393.123 103.946C392.749 104.858 392.285 105.696 391.732 106.461C391.178 107.226 390.535 107.885 389.803 108.438C389.087 108.992 388.281 109.423 387.386 109.732C386.491 110.042 385.522 110.196 384.481 110.196C382.853 110.196 381.413 109.871 380.159 109.22C378.922 108.585 377.881 107.698 377.034 106.559C376.204 105.419 375.578 104.068 375.155 102.506C374.731 100.927 374.52 99.21 374.52 97.3545C374.52 95.3525 374.666 93.611 374.959 92.1299C375.252 90.6325 375.586 89.3711 375.96 88.3457C376.383 87.1576 376.872 86.1403 377.425 85.2939L384.408 85.9043C383.61 86.8646 382.902 88.012 382.283 89.3467C381.746 90.486 381.258 91.902 380.819 93.5947C380.379 95.2874 380.159 97.2406 380.159 99.4541C380.159 100.789 380.314 101.936 380.623 102.896C380.933 103.857 381.372 104.654 381.942 105.289C382.511 105.908 383.195 106.363 383.992 106.656C384.806 106.949 385.718 107.096 386.727 107.096C387.589 107.096 388.354 106.86 389.022 106.388C389.689 105.916 390.275 105.305 390.78 104.557C391.284 103.808 391.707 102.962 392.049 102.018C392.407 101.074 392.7 100.138 392.928 99.21L392.415 86.0508L399.129 86.4414ZM414.874 74.9424L414.581 84.9521H420.367V87.0029H414.533L413.873 109.146L409.381 109.562L408.917 87.0029H402.911V84.9521H408.868L408.722 76.5049L414.874 74.9424ZM431.62 73.3555L430.79 90.1035C431.197 89.3223 431.677 88.6143 432.231 87.9795C432.784 87.3285 433.403 86.7751 434.086 86.3193C434.786 85.8473 435.551 85.4893 436.381 85.2451C437.211 84.9847 438.115 84.8545 439.091 84.8545C440.165 84.8545 441.117 85.0579 441.948 85.4648C442.794 85.8555 443.526 86.3844 444.145 87.0518C444.78 87.7191 445.309 88.4922 445.732 89.3711C446.171 90.2337 446.521 91.137 446.782 92.0811C447.058 93.0251 447.254 93.9772 447.367 94.9375C447.481 95.8978 447.538 96.8011 447.538 97.6475C447.538 98.6077 447.481 99.6169 447.367 100.675C447.254 101.733 447.091 102.791 446.879 103.849C446.668 104.89 446.407 105.916 446.098 106.925C445.805 107.934 445.479 108.878 445.121 109.757L439.091 109.146C439.547 108.333 439.946 107.356 440.287 106.217C440.645 105.061 440.938 103.857 441.166 102.604C441.394 101.35 441.565 100.113 441.679 98.8926C441.809 97.6556 441.874 96.557 441.874 95.5967C441.874 94.7992 441.793 93.9528 441.63 93.0576C441.484 92.1624 441.215 91.3405 440.824 90.5918C440.45 89.8268 439.937 89.2002 439.286 88.7119C438.635 88.2074 437.813 87.9551 436.821 87.9551C436.218 87.9551 435.665 88.0771 435.16 88.3213C434.672 88.5492 434.216 88.8503 433.793 89.2246C433.386 89.599 433.02 90.0303 432.695 90.5186C432.369 91.0068 432.084 91.5033 431.84 92.0078C431.254 93.196 430.798 94.5469 430.473 96.0605L429.936 107.853L425.37 108.243L424.418 73.8926L431.62 73.3555ZM479.151 73.5996L477.906 108.951L472.974 109.049L471.973 74.0391L479.151 73.5996ZM493.919 85.6113L493.675 90.0547C494.115 89.2572 494.627 88.5166 495.213 87.833C495.815 87.1331 496.483 86.5472 497.215 86.0752C497.964 85.5869 498.769 85.2288 499.632 85.001C500.511 84.7731 501.439 84.7243 502.415 84.8545C503.962 85.0824 505.272 85.5544 506.346 86.2705C507.42 86.9867 508.283 87.8981 508.934 89.0049C509.601 90.1117 510.081 91.3975 510.374 92.8623C510.667 94.3271 510.814 95.9222 510.814 97.6475C510.814 98.6077 510.732 99.6169 510.57 100.675C510.407 101.733 510.187 102.791 509.91 103.849C509.634 104.89 509.316 105.916 508.958 106.925C508.616 107.934 508.267 108.878 507.908 109.757L501.878 109.146C501.911 109.13 502.017 108.935 502.196 108.561C502.375 108.186 502.586 107.682 502.83 107.047C503.074 106.412 503.327 105.672 503.587 104.825C503.864 103.963 504.116 103.035 504.344 102.042C504.588 101.049 504.783 100.007 504.93 98.917C505.093 97.8102 505.174 96.7035 505.174 95.5967C505.174 94.376 505.068 93.2936 504.857 92.3496C504.645 91.4056 504.311 90.6081 503.856 89.957C503.416 89.306 502.847 88.8096 502.147 88.4678C501.447 88.126 500.601 87.9551 499.608 87.9551C498.745 87.9551 497.98 88.1911 497.313 88.6631C496.645 89.1188 496.06 89.7129 495.555 90.4453C495.05 91.1777 494.619 92.0078 494.261 92.9355C493.903 93.847 493.602 94.7666 493.358 95.6943L492.723 108.854L488.182 109.244L487.23 86.1484L493.919 85.6113ZM536.178 93.3994C536.178 92.7809 535.991 92.1868 535.616 91.6172C535.258 91.0312 534.795 90.5186 534.225 90.0791C533.655 89.6396 533.02 89.2897 532.321 89.0293C531.621 88.7689 530.945 88.6387 530.294 88.6387C528.96 88.6387 527.812 88.9316 526.852 89.5176C525.892 90.1035 525.102 90.8685 524.484 91.8125C523.881 92.7402 523.434 93.79 523.141 94.9619C522.848 96.1175 522.701 97.2812 522.701 98.4531C522.701 99.5111 522.807 100.602 523.019 101.725C523.247 102.831 523.613 103.849 524.117 104.776C524.638 105.704 525.322 106.469 526.168 107.071C527.015 107.657 528.073 107.95 529.342 107.95C530.335 107.95 531.198 107.73 531.93 107.291C532.679 106.852 533.313 106.29 533.834 105.606C534.371 104.907 534.811 104.125 535.153 103.263C535.494 102.384 535.755 101.513 535.934 100.65C535.983 99.446 536.032 98.2334 536.08 97.0127C536.145 95.7757 536.178 94.5713 536.178 93.3994ZM541.94 74.6006L540.988 110.001L536.495 109.854L536.3 105.509C535.975 106.29 535.543 106.99 535.006 107.608C534.485 108.211 533.875 108.715 533.175 109.122C532.491 109.545 531.735 109.863 530.905 110.074C530.091 110.286 529.236 110.392 528.341 110.392C526.6 110.392 525.013 110.099 523.58 109.513C522.148 108.927 520.919 108.113 519.894 107.071C518.885 106.03 518.095 104.785 517.526 103.336C516.972 101.887 516.696 100.309 516.696 98.5996C516.696 96.7441 516.997 95.0433 517.599 93.4971C518.217 91.9346 519.072 90.5999 520.162 89.4932C521.269 88.3701 522.596 87.5156 524.142 86.9297C525.688 86.3275 527.389 86.0508 529.244 86.0996C529.798 86.1159 530.359 86.1729 530.929 86.2705C531.515 86.3519 532.085 86.4821 532.638 86.6611C533.191 86.8402 533.72 87.068 534.225 87.3447C534.746 87.6214 535.218 87.9551 535.641 88.3457L535.128 74.2588L541.94 74.6006ZM557.221 80.1914C557.221 80.7773 557.107 81.3307 556.879 81.8516C556.668 82.3724 556.366 82.8281 555.976 83.2188C555.585 83.6094 555.13 83.9186 554.609 84.1465C554.088 84.3743 553.526 84.4883 552.924 84.4883C552.322 84.4883 551.752 84.3743 551.215 84.1465C550.694 83.9186 550.239 83.6094 549.848 83.2188C549.457 82.8281 549.148 82.3724 548.92 81.8516C548.692 81.3307 548.578 80.7773 548.578 80.1914C548.578 79.5892 548.692 79.0277 548.92 78.5068C549.148 77.9697 549.457 77.5059 549.848 77.1152C550.239 76.7246 550.694 76.4154 551.215 76.1875C551.752 75.9596 552.322 75.8457 552.924 75.8457C553.526 75.8457 554.088 75.9596 554.609 76.1875C555.13 76.4154 555.585 76.7246 555.976 77.1152C556.366 77.5059 556.668 77.9697 556.879 78.5068C557.107 79.0277 557.221 79.5892 557.221 80.1914ZM556.391 86.9541L554.535 110.44L549.824 109.952L549.531 86.5879L556.391 86.9541ZM579.485 108.707L580.095 106.144C579.525 106.648 578.891 107.104 578.191 107.511C577.507 107.918 576.799 108.268 576.067 108.561C575.334 108.837 574.602 109.049 573.869 109.195C573.153 109.358 572.494 109.439 571.892 109.439C570.834 109.439 569.743 109.285 568.62 108.976C567.497 108.666 566.48 108.202 565.569 107.584C564.657 106.965 563.908 106.192 563.323 105.265C562.737 104.337 562.444 103.263 562.444 102.042C562.444 100.447 562.72 99.0635 563.274 97.8916C563.827 96.7197 564.576 95.7513 565.52 94.9863C566.48 94.2214 567.603 93.6598 568.889 93.3018C570.175 92.9274 571.558 92.7402 573.039 92.7402C573.739 92.7402 574.455 92.7972 575.188 92.9111C575.92 93.0251 576.636 93.196 577.336 93.4238C578.036 93.6517 578.703 93.9528 579.338 94.3271C579.973 94.7015 580.543 95.141 581.047 95.6455C580.998 94.7666 580.876 93.8389 580.681 92.8623C580.502 91.8857 580.209 90.9987 579.802 90.2012C579.411 89.3874 578.882 88.7201 578.215 88.1992C577.548 87.6621 576.701 87.3936 575.676 87.3936C574.179 87.3936 572.909 87.7842 571.867 88.5654C570.842 89.3304 570.134 90.4453 569.743 91.9102L563.396 91.251C563.786 90.2419 564.34 89.3548 565.056 88.5898C565.772 87.8086 566.578 87.1576 567.473 86.6367C568.384 86.1159 569.353 85.7253 570.378 85.4648C571.404 85.1882 572.437 85.0498 573.479 85.0498C575.074 85.0498 576.498 85.2777 577.751 85.7334C579.021 86.1891 580.136 86.8158 581.096 87.6133C582.056 88.4108 582.87 89.3548 583.537 90.4453C584.205 91.5195 584.75 92.6833 585.173 93.9365C585.596 95.1735 585.906 96.4756 586.101 97.8428C586.296 99.1937 586.394 100.545 586.394 101.896C586.394 103.1 586.329 104.296 586.199 105.484C586.068 106.656 585.881 107.828 585.637 109L579.485 108.707ZM580.779 101.798C580.827 101.424 580.86 101.057 580.876 100.699C580.909 100.341 580.941 99.9749 580.974 99.6006C580.893 98.8356 580.624 98.1602 580.168 97.5742C579.713 96.972 579.159 96.4674 578.508 96.0605C577.857 95.6374 577.149 95.32 576.384 95.1084C575.619 94.8968 574.87 94.791 574.138 94.791C573.292 94.791 572.502 94.9375 571.77 95.2305C571.037 95.5072 570.403 95.9059 569.866 96.4268C569.328 96.9476 568.905 97.5661 568.596 98.2822C568.287 98.9984 568.132 99.7878 568.132 100.65C568.132 101.529 568.262 102.335 568.523 103.067C568.799 103.784 569.182 104.41 569.67 104.947C570.158 105.468 570.753 105.875 571.452 106.168C572.169 106.461 572.966 106.607 573.845 106.607C574.626 106.607 575.391 106.493 576.14 106.266C576.889 106.038 577.572 105.72 578.191 105.313C578.825 104.89 579.363 104.386 579.802 103.8C580.258 103.198 580.583 102.53 580.779 101.798ZM599.917 85.6113L599.673 90.0547C600.113 89.2572 600.625 88.5166 601.211 87.833C601.813 87.1331 602.481 86.5472 603.213 86.0752C603.962 85.5869 604.768 85.2288 605.63 85.001C606.509 84.7731 607.437 84.7243 608.413 84.8545C609.96 85.0824 611.27 85.5544 612.344 86.2705C613.418 86.9867 614.281 87.8981 614.932 89.0049C615.599 90.1117 616.079 91.3975 616.372 92.8623C616.665 94.3271 616.812 95.9222 616.812 97.6475C616.812 98.6077 616.73 99.6169 616.568 100.675C616.405 101.733 616.185 102.791 615.908 103.849C615.632 104.89 615.314 105.916 614.956 106.925C614.615 107.934 614.265 108.878 613.907 109.757L607.876 109.146C607.909 109.13 608.015 108.935 608.194 108.561C608.373 108.186 608.584 107.682 608.828 107.047C609.073 106.412 609.325 105.672 609.585 104.825C609.862 103.963 610.114 103.035 610.342 102.042C610.586 101.049 610.782 100.007 610.928 98.917C611.091 97.8102 611.172 96.7035 611.172 95.5967C611.172 94.376 611.066 93.2936 610.855 92.3496C610.643 91.4056 610.31 90.6081 609.854 89.957C609.414 89.306 608.845 88.8096 608.145 88.4678C607.445 88.126 606.599 87.9551 605.606 87.9551C604.743 87.9551 603.978 88.1911 603.311 88.6631C602.644 89.1188 602.058 89.7129 601.553 90.4453C601.048 91.1777 600.617 92.0078 600.259 92.9355C599.901 93.847 599.6 94.7666 599.356 95.6943L598.721 108.854L594.18 109.244L593.228 86.1484L599.917 85.6113ZM672.936 86.6611C672.936 88.2399 672.635 89.6315 672.033 90.8359C671.447 92.0404 670.649 93.0902 669.64 93.9854C668.647 94.8643 667.5 95.6048 666.198 96.207C664.895 96.793 663.536 97.265 662.12 97.623C660.704 97.9811 659.28 98.2334 657.848 98.3799C656.432 98.5264 655.097 98.5996 653.844 98.5996C652.884 98.5996 651.932 98.5833 650.988 98.5508C650.044 98.5182 649.091 98.4368 648.131 98.3066L648.033 109.244L641.735 109.293C641.767 103.564 641.727 97.8672 641.613 92.2031C641.499 86.5228 641.393 80.818 641.295 75.0889C642.451 74.861 643.671 74.6738 644.957 74.5273C646.243 74.3809 647.545 74.2669 648.864 74.1855C650.182 74.0879 651.492 74.0228 652.794 73.9902C654.096 73.9577 655.341 73.9414 656.53 73.9414C657.832 73.9414 659.142 74.0472 660.46 74.2588C661.779 74.4704 663.04 74.7959 664.244 75.2354C665.465 75.6748 666.604 76.2363 667.662 76.9199C668.72 77.6035 669.64 78.4173 670.421 79.3613C671.202 80.3053 671.813 81.3877 672.252 82.6084C672.708 83.8128 672.936 85.1637 672.936 86.6611ZM652.794 76.4072C651.964 76.4072 651.126 76.4235 650.28 76.4561C649.449 76.4886 648.619 76.5537 647.789 76.6514L648.18 95.8896C648.945 96.0036 649.718 96.0687 650.499 96.085C651.281 96.1012 652.078 96.1094 652.892 96.1094C653.982 96.1094 655.065 96.0443 656.139 95.9141C657.229 95.7839 658.263 95.5723 659.24 95.2793C660.216 94.9701 661.119 94.5713 661.949 94.083C662.78 93.5785 663.496 92.96 664.098 92.2275C664.716 91.4788 665.197 90.6162 665.538 89.6396C665.88 88.6468 666.051 87.4993 666.051 86.1973C666.051 84.9928 665.864 83.9186 665.49 82.9746C665.115 82.0143 664.602 81.1761 663.951 80.46C663.317 79.7275 662.568 79.109 661.705 78.6045C660.843 78.0837 659.923 77.6605 658.947 77.335C657.97 77.0094 656.953 76.7734 655.895 76.627C654.853 76.4805 653.82 76.4072 652.794 76.4072ZM685.507 69.8887L684.311 109.098L679.648 109.488L678.451 70.5479L685.507 69.8887ZM708.674 108.707L709.284 106.144C708.715 106.648 708.08 107.104 707.38 107.511C706.697 107.918 705.989 108.268 705.256 108.561C704.524 108.837 703.791 109.049 703.059 109.195C702.343 109.358 701.684 109.439 701.081 109.439C700.023 109.439 698.933 109.285 697.81 108.976C696.687 108.666 695.67 108.202 694.758 107.584C693.847 106.965 693.098 106.192 692.512 105.265C691.926 104.337 691.633 103.263 691.633 102.042C691.633 100.447 691.91 99.0635 692.463 97.8916C693.017 96.7197 693.765 95.7513 694.709 94.9863C695.67 94.2214 696.793 93.6598 698.078 93.3018C699.364 92.9274 700.748 92.7402 702.229 92.7402C702.929 92.7402 703.645 92.7972 704.377 92.9111C705.11 93.0251 705.826 93.196 706.526 93.4238C707.226 93.6517 707.893 93.9528 708.528 94.3271C709.162 94.7015 709.732 95.141 710.237 95.6455C710.188 94.7666 710.066 93.8389 709.87 92.8623C709.691 91.8857 709.398 90.9987 708.992 90.2012C708.601 89.3874 708.072 88.7201 707.405 88.1992C706.737 87.6621 705.891 87.3936 704.866 87.3936C703.368 87.3936 702.099 87.7842 701.057 88.5654C700.032 89.3304 699.324 90.4453 698.933 91.9102L692.585 91.251C692.976 90.2419 693.529 89.3548 694.245 88.5898C694.962 87.8086 695.767 87.1576 696.662 86.6367C697.574 86.1159 698.542 85.7253 699.568 85.4648C700.593 85.1882 701.627 85.0498 702.668 85.0498C704.263 85.0498 705.687 85.2777 706.941 85.7334C708.21 86.1891 709.325 86.8158 710.285 87.6133C711.246 88.4108 712.06 89.3548 712.727 90.4453C713.394 91.5195 713.939 92.6833 714.363 93.9365C714.786 95.1735 715.095 96.4756 715.29 97.8428C715.486 99.1937 715.583 100.545 715.583 101.896C715.583 103.1 715.518 104.296 715.388 105.484C715.258 106.656 715.071 107.828 714.826 109L708.674 108.707ZM709.968 101.798C710.017 101.424 710.049 101.057 710.066 100.699C710.098 100.341 710.131 99.9749 710.163 99.6006C710.082 98.8356 709.813 98.1602 709.358 97.5742C708.902 96.972 708.349 96.4674 707.698 96.0605C707.047 95.6374 706.339 95.32 705.574 95.1084C704.809 94.8968 704.06 94.791 703.327 94.791C702.481 94.791 701.692 94.9375 700.959 95.2305C700.227 95.5072 699.592 95.9059 699.055 96.4268C698.518 96.9476 698.095 97.5661 697.785 98.2822C697.476 98.9984 697.322 99.7878 697.322 100.65C697.322 101.529 697.452 102.335 697.712 103.067C697.989 103.784 698.371 104.41 698.86 104.947C699.348 105.468 699.942 105.875 700.642 106.168C701.358 106.461 702.156 106.607 703.034 106.607C703.816 106.607 704.581 106.493 705.329 106.266C706.078 106.038 706.762 105.72 707.38 105.313C708.015 104.89 708.552 104.386 708.992 103.8C709.447 103.198 709.773 102.53 709.968 101.798ZM730.62 74.9424L730.327 84.9521H736.114V87.0029H730.279L729.619 109.146L725.127 109.562L724.663 87.0029H718.658V84.9521H724.615L724.468 76.5049L730.62 74.9424ZM752.347 102.14C751.061 102.14 749.784 101.977 748.514 101.651C747.261 101.31 746.121 100.772 745.096 100.04C745.112 100.675 745.153 101.326 745.218 101.993C745.283 102.66 745.389 103.312 745.535 103.946C745.698 104.565 745.902 105.151 746.146 105.704C746.406 106.257 746.732 106.746 747.122 107.169C747.529 107.576 748.009 107.901 748.563 108.146C749.132 108.39 749.808 108.512 750.589 108.512C751.322 108.512 752.005 108.382 752.64 108.121C753.275 107.844 753.828 107.478 754.3 107.022C754.788 106.567 755.187 106.03 755.496 105.411C755.806 104.793 756.017 104.125 756.131 103.409L762.137 104.752C761.665 105.761 760.998 106.616 760.135 107.315C759.289 108.015 758.345 108.577 757.303 109C756.261 109.439 755.171 109.757 754.032 109.952C752.909 110.147 751.826 110.245 750.784 110.245C748.913 110.245 747.244 109.968 745.78 109.415C744.315 108.862 743.078 108.064 742.069 107.022C741.076 105.981 740.311 104.719 739.774 103.238C739.253 101.741 738.992 100.064 738.992 98.209C738.992 96.4023 739.302 94.7015 739.92 93.1064C740.539 91.4951 741.401 90.0954 742.508 88.9072C743.615 87.7191 744.941 86.7832 746.488 86.0996C748.05 85.3997 749.767 85.0498 751.639 85.0498C753.006 85.0498 754.365 85.2207 755.716 85.5625C757.067 85.888 758.28 86.4089 759.354 87.125C760.428 87.8249 761.291 88.7282 761.942 89.835C762.609 90.9417 762.943 92.2764 762.943 93.8389C762.943 95.3688 762.633 96.6628 762.015 97.7207C761.413 98.7624 760.615 99.6169 759.622 100.284C758.63 100.935 757.498 101.407 756.229 101.7C754.959 101.993 753.665 102.14 752.347 102.14ZM751.297 86.8564C750.548 86.8564 749.881 87.0111 749.295 87.3203C748.726 87.6133 748.213 88.0202 747.757 88.541C747.318 89.0618 746.943 89.6559 746.634 90.3232C746.325 90.9906 746.064 91.6904 745.853 92.4229C745.641 93.1553 745.478 93.8958 745.365 94.6445C745.251 95.3932 745.177 96.0931 745.145 96.7441C745.763 97.8021 746.585 98.6729 747.611 99.3564C748.636 100.024 749.824 100.357 751.175 100.357C752.038 100.357 752.811 100.162 753.494 99.7715C754.178 99.3646 754.756 98.8438 755.228 98.209C755.7 97.5742 756.058 96.8662 756.302 96.085C756.562 95.3037 756.693 94.5225 756.693 93.7412C756.693 92.96 756.579 92.1624 756.351 91.3486C756.123 90.5186 755.781 89.778 755.326 89.127C754.886 88.4596 754.325 87.9144 753.641 87.4912C752.974 87.068 752.192 86.8564 751.297 86.8564Z" fill="#F85A11"/>
<path d="M245 53.5L222 53.5" stroke="#F85A11" stroke-width="5" stroke-linecap="round" stroke-linejoin="round"/>
<path d="M245 65L230.846 65C225.961 65 222 59.8512 222 53.5C222 47.1488 225.961 42 230.846 42L245 42" stroke="#F85A11" stroke-width="5" stroke-linecap="round" stroke-linejoin="round"/>
<defs>
<filter id="filter0_i_482_3" x="0" y="0" width="156" height="161" filterUnits="userSpaceOnUse" color-interpolation-filters="sRGB">
<feFlood flood-opacity="0" result="BackgroundImageFix"/>
<feBlend mode="normal" in="SourceGraphic" in2="BackgroundImageFix" result="shape"/>
<feColorMatrix in="SourceAlpha" type="matrix" values="0 0 0 0 0 0 0 0 0 0 0 0 0 0 0 0 0 0 127 0" result="hardAlpha"/>
<feOffset dy="5"/>
<feGaussianBlur stdDeviation="5"/>
<feComposite in2="hardAlpha" operator="arithmetic" k2="-1" k3="1"/>
<feColorMatrix type="matrix" values="0 0 0 0 0 0 0 0 0 0 0 0 0 0 0 0 0 0 0.3 0"/>
<feBlend mode="normal" in2="shape" result="effect1_innerShadow_482_3"/>
</filter>
<filter id="filter1_d_482_3" x="57" y="7" width="47" height="47" filterUnits="userSpaceOnUse" color-interpolation-filters="sRGB">
<feFlood flood-opacity="0" result="BackgroundImageFix"/>
<feColorMatrix in="SourceAlpha" type="matrix" values="0 0 0 0 0 0 0 0 0 0 0 0 0 0 0 0 0 0 127 0" result="hardAlpha"/>
<feOffset dy="5"/>
<feGaussianBlur stdDeviation="3"/>
<feComposite in2="hardAlpha" operator="out"/>
<feColorMatrix type="matrix" values="0 0 0 0 0 0 0 0 0 0 0 0 0 0 0 0 0 0 0.25 0"/>
<feBlend mode="normal" in2="BackgroundImageFix" result="effect1_dropShadow_482_3"/>
<feBlend mode="normal" in="SourceGraphic" in2="effect1_dropShadow_482_3" result="shape"/>
</filter>
<filter id="filter2_d_482_3" x="41.5" y="45.5" width="75" height="75" filterUnits="userSpaceOnUse" color-interpolation-filters="sRGB">
<feFlood flood-opacity="0" result="BackgroundImageFix"/>
<feColorMatrix in="SourceAlpha" type="matrix" values="0 0 0 0 0 0 0 0 0 0 0 0 0 0 0 0 0 0 127 0" result="hardAlpha"/>
<feOffset dy="5"/>
<feGaussianBlur stdDeviation="5"/>
<feComposite in2="hardAlpha" operator="out"/>
<feColorMatrix type="matrix" values="0 0 0 0 0 0 0 0 0 0 0 0 0 0 0 0 0 0 0.3 0"/>
<feBlend mode="normal" in2="BackgroundImageFix" result="effect1_dropShadow_482_3"/>
<feBlend mode="normal" in="SourceGraphic" in2="effect1_dropShadow_482_3" result="shape"/>
</filter>
<filter id="filter3_d_482_3" x="37.3335" y="9" width="47" height="47" filterUnits="userSpaceOnUse" color-interpolation-filters="sRGB">
<feFlood flood-opacity="0" result="BackgroundImageFix"/>
<feColorMatrix in="SourceAlpha" type="matrix" values="0 0 0 0 0 0 0 0 0 0 0 0 0 0 0 0 0 0 127 0" result="hardAlpha"/>
<feOffset dy="5"/>
<feGaussianBlur stdDeviation="3"/>
<feComposite in2="hardAlpha" operator="out"/>
<feColorMatrix type="matrix" values="0 0 0 0 0 0 0 0 0 0 0 0 0 0 0 0 0 0 0.25 0"/>
<feBlend mode="normal" in2="BackgroundImageFix" result="effect1_dropShadow_482_3"/>
<feBlend mode="normal" in="SourceGraphic" in2="effect1_dropShadow_482_3" result="shape"/>
</filter>
<filter id="filter4_d_482_3" x="17.333" y="19" width="47" height="47" filterUnits="userSpaceOnUse" color-interpolation-filters="sRGB">
<feFlood flood-opacity="0" result="BackgroundImageFix"/>
<feColorMatrix in="SourceAlpha" type="matrix" values="0 0 0 0 0 0 0 0 0 0 0 0 0 0 0 0 0 0 127 0" result="hardAlpha"/>
<feOffset dy="5"/>
<feGaussianBlur stdDeviation="3"/>
<feComposite in2="hardAlpha" operator="out"/>
<feColorMatrix type="matrix" values="0 0 0 0 0 0 0 0 0 0 0 0 0 0 0 0 0 0 0.25 0"/>
<feBlend mode="normal" in2="BackgroundImageFix" result="effect1_dropShadow_482_3"/>
<feBlend mode="normal" in="SourceGraphic" in2="effect1_dropShadow_482_3" result="shape"/>
</filter>
<filter id="filter5_d_482_3" x="7.3335" y="35.667" width="47" height="47" filterUnits="userSpaceOnUse" color-interpolation-filters="sRGB">
<feFlood flood-opacity="0" result="BackgroundImageFix"/>
<feColorMatrix in="SourceAlpha" type="matrix" values="0 0 0 0 0 0 0 0 0 0 0 0 0 0 0 0 0 0 127 0" result="hardAlpha"/>
<feOffset dy="5"/>
<feGaussianBlur stdDeviation="3"/>
<feComposite in2="hardAlpha" operator="out"/>
<feColorMatrix type="matrix" values="0 0 0 0 0 0 0 0 0 0 0 0 0 0 0 0 0 0 0.25 0"/>
<feBlend mode="normal" in2="BackgroundImageFix" result="effect1_dropShadow_482_3"/>
<feBlend mode="normal" in="SourceGraphic" in2="effect1_dropShadow_482_3" result="shape"/>
</filter>
<filter id="filter6_d_482_3" x="0.666992" y="55.6665" width="47" height="47" filterUnits="userSpaceOnUse" color-interpolation-filters="sRGB">
<feFlood flood-opacity="0" result="BackgroundImageFix"/>
<feColorMatrix in="SourceAlpha" type="matrix" values="0 0 0 0 0 0 0 0 0 0 0 0 0 0 0 0 0 0 127 0" result="hardAlpha"/>
<feOffset dy="5"/>
<feGaussianBlur stdDeviation="3"/>
<feComposite in2="hardAlpha" operator="out"/>
<feColorMatrix type="matrix" values="0 0 0 0 0 0 0 0 0 0 0 0 0 0 0 0 0 0 0.25 0"/>
<feBlend mode="normal" in2="BackgroundImageFix" result="effect1_dropShadow_482_3"/>
<feBlend mode="normal" in="SourceGraphic" in2="effect1_dropShadow_482_3" result="shape"/>
</filter>
<filter id="filter7_d_482_3" x="4" y="75.6665" width="47" height="47" filterUnits="userSpaceOnUse" color-interpolation-filters="sRGB">
<feFlood flood-opacity="0" result="BackgroundImageFix"/>
<feColorMatrix in="SourceAlpha" type="matrix" values="0 0 0 0 0 0 0 0 0 0 0 0 0 0 0 0 0 0 127 0" result="hardAlpha"/>
<feOffset dy="5"/>
<feGaussianBlur stdDeviation="3"/>
<feComposite in2="hardAlpha" operator="out"/>
<feColorMatrix type="matrix" values="0 0 0 0 0 0 0 0 0 0 0 0 0 0 0 0 0 0 0.25 0"/>
<feBlend mode="normal" in2="BackgroundImageFix" result="effect1_dropShadow_482_3"/>
<feBlend mode="normal" in="SourceGraphic" in2="effect1_dropShadow_482_3" result="shape"/>
</filter>
<filter id="filter8_d_482_3" x="95" y="26" width="54" height="54" filterUnits="userSpaceOnUse" color-interpolation-filters="sRGB">
<feFlood flood-opacity="0" result="BackgroundImageFix"/>
<feColorMatrix in="SourceAlpha" type="matrix" values="0 0 0 0 0 0 0 0 0 0 0 0 0 0 0 0 0 0 127 0" result="hardAlpha"/>
<feOffset dy="6"/>
<feGaussianBlur stdDeviation="5"/>
<feComposite in2="hardAlpha" operator="out"/>
<feColorMatrix type="matrix" values="0 0 0 0 0 0 0 0 0 0 0 0 0 0 0 0 0 0 0.3 0"/>
<feBlend mode="normal" in2="BackgroundImageFix" result="effect1_dropShadow_482_3"/>
<feBlend mode="normal" in="SourceGraphic" in2="effect1_dropShadow_482_3" result="shape"/>
</filter>
<filter id="filter9_d_482_3" x="105" y="44" width="54" height="54" filterUnits="userSpaceOnUse" color-interpolation-filters="sRGB">
<feFlood flood-opacity="0" result="BackgroundImageFix"/>
<feColorMatrix in="SourceAlpha" type="matrix" values="0 0 0 0 0 0 0 0 0 0 0 0 0 0 0 0 0 0 127 0" result="hardAlpha"/>
<feOffset dy="6"/>
<feGaussianBlur stdDeviation="5"/>
<feComposite in2="hardAlpha" operator="out"/>
<feColorMatrix type="matrix" values="0 0 0 0 0 0 0 0 0 0 0 0 0 0 0 0 0 0 0.3 0"/>
<feBlend mode="normal" in2="BackgroundImageFix" result="effect1_dropShadow_482_3"/>
<feBlend mode="normal" in="SourceGraphic" in2="effect1_dropShadow_482_3" result="shape"/>
</filter>
<filter id="filter10_d_482_3" x="104" y="67" width="54" height="54" filterUnits="userSpaceOnUse" color-interpolation-filters="sRGB">
<feFlood flood-opacity="0" result="BackgroundImageFix"/>
<feColorMatrix in="SourceAlpha" type="matrix" values="0 0 0 0 0 0 0 0 0 0 0 0 0 0 0 0 0 0 127 0" result="hardAlpha"/>
<feOffset dy="6"/>
<feGaussianBlur stdDeviation="5"/>
<feComposite in2="hardAlpha" operator="out"/>
<feColorMatrix type="matrix" values="0 0 0 0 0 0 0 0 0 0 0 0 0 0 0 0 0 0 0.3 0"/>
<feBlend mode="normal" in2="BackgroundImageFix" result="effect1_dropShadow_482_3"/>
<feBlend mode="normal" in="SourceGraphic" in2="effect1_dropShadow_482_3" result="shape"/>
</filter>
<filter id="filter11_d_482_3" x="92" y="90" width="54" height="54" filterUnits="userSpaceOnUse" color-interpolation-filters="sRGB">
<feFlood flood-opacity="0" result="BackgroundImageFix"/>
<feColorMatrix in="SourceAlpha" type="matrix" values="0 0 0 0 0 0 0 0 0 0 0 0 0 0 0 0 0 0 127 0" result="hardAlpha"/>
<feOffset dy="6"/>
<feGaussianBlur stdDeviation="5"/>
<feComposite in2="hardAlpha" operator="out"/>
<feColorMatrix type="matrix" values="0 0 0 0 0 0 0 0 0 0 0 0 0 0 0 0 0 0 0.3 0"/>
<feBlend mode="normal" in2="BackgroundImageFix" result="effect1_dropShadow_482_3"/>
<feBlend mode="normal" in="SourceGraphic" in2="effect1_dropShadow_482_3" result="shape"/>
</filter>
<filter id="filter12_d_482_3" x="73" y="105" width="54" height="54" filterUnits="userSpaceOnUse" color-interpolation-filters="sRGB">
<feFlood flood-opacity="0" result="BackgroundImageFix"/>
<feColorMatrix in="SourceAlpha" type="matrix" values="0 0 0 0 0 0 0 0 0 0 0 0 0 0 0 0 0 0 127 0" result="hardAlpha"/>
<feOffset dy="6"/>
<feGaussianBlur stdDeviation="5"/>
<feComposite in2="hardAlpha" operator="out"/>
<feColorMatrix type="matrix" values="0 0 0 0 0 0 0 0 0 0 0 0 0 0 0 0 0 0 0.3 0"/>
<feBlend mode="normal" in2="BackgroundImageFix" result="effect1_dropShadow_482_3"/>
<feBlend mode="normal" in="SourceGraphic" in2="effect1_dropShadow_482_3" result="shape"/>
</filter>
<filter id="filter13_d_482_3" x="569.281" y="14.8579" width="64.9558" height="53.8076" filterUnits="userSpaceOnUse" color-interpolation-filters="sRGB">
<feFlood flood-opacity="0" result="BackgroundImageFix"/>
<feColorMatrix in="SourceAlpha" type="matrix" values="0 0 0 0 0 0 0 0 0 0 0 0 0 0 0 0 0 0 127 0" result="hardAlpha"/>
<feOffset dy="4"/>
<feGaussianBlur stdDeviation="1.5"/>
<feComposite in2="hardAlpha" operator="out"/>
<feColorMatrix type="matrix" values="0 0 0 0 0.996078 0 0 0 0 0.937255 0 0 0 0 0.905882 0 0 0 0.5 0"/>
<feBlend mode="normal" in2="BackgroundImageFix" result="effect1_dropShadow_482_3"/>
<feBlend mode="normal" in="SourceGraphic" in2="effect1_dropShadow_482_3" result="shape"/>
</filter>
</defs>
</svg>
