<svg width="787" height="164" viewBox="0 0 787 164" fill="none" xmlns="http://www.w3.org/2000/svg">
<g filter="url(#filter0_i_482_3)">
<circle cx="82" cy="82" r="75" fill="#080708"/>
</g>
<circle cx="82" cy="82" r="78.5" stroke="#F85A11" stroke-width="7"/>
<g filter="url(#filter1_d_482_3)">
<circle cx="92.75" cy="32.75" r="15.75" fill="white"/>
<circle cx="92.75" cy="32.75" r="17.25" stroke="#FEEFE7" stroke-width="3"/>
</g>
<g filter="url(#filter2_d_482_3)">
<circle cx="80.3333" cy="83.6663" r="23.3333" fill="#BD0808"/>
<circle cx="80.3333" cy="83.6663" r="26.3333" stroke="#999999" stroke-width="6"/>
</g>
<rect x="69.6172" y="73.9238" width="1.66667" height="10" rx="0.833333" transform="rotate(30.1149 69.6172 73.9238)" fill="#F85A11"/>
<rect x="77" y="91.5117" width="1.66667" height="10" rx="0.833333" transform="rotate(-44.9988 77 91.5117)" fill="#F0B51E"/>
<rect x="87" y="74.8452" width="1.66667" height="10" rx="0.833333" transform="rotate(-44.9988 87 74.8452)" fill="#E4592D"/>
<circle cx="68.6665" cy="128.667" r="12" fill="#C0D735" stroke="#A95F37" stroke-width="6"/>
<circle cx="64.4998" cy="127.833" r="0.833333" fill="#080708"/>
<circle cx="67.8333" cy="124.5" r="0.833333" fill="#080708"/>
<circle cx="71.1668" cy="127.833" r="0.833333" fill="#080708"/>
<circle cx="80.1331" cy="72.9334" r="0.833333" fill="#080708"/>
<circle cx="72.0335" cy="86.7332" r="0.833333" fill="#080708"/>
<circle cx="86.1331" cy="86.7332" r="0.833333" fill="#080708"/>
<circle cx="68.7332" cy="130.534" r="0.833333" fill="#080708"/>
<circle cx="66.0335" cy="132.333" r="0.833333" fill="#080708"/>
<circle cx="72.9334" cy="134.133" r="0.833333" fill="#080708"/>
<g filter="url(#filter3_d_482_3)">
<circle cx="66.0835" cy="32.75" r="15.75" fill="white"/>
<circle cx="66.0835" cy="32.75" r="17.25" stroke="#FEEFE7" stroke-width="3"/>
</g>
<g filter="url(#filter4_d_482_3)">
<circle cx="46.083" cy="42.75" r="15.75" fill="white"/>
<circle cx="46.083" cy="42.75" r="17.25" stroke="#FEEFE7" stroke-width="3"/>
</g>
<g filter="url(#filter5_d_482_3)">
<circle cx="36.0835" cy="59.417" r="15.75" fill="white"/>
<circle cx="36.0835" cy="59.417" r="17.25" stroke="#FEEFE7" stroke-width="3"/>
</g>
<g filter="url(#filter6_d_482_3)">
<circle cx="29.417" cy="79.4165" r="15.75" fill="white"/>
<circle cx="29.417" cy="79.4165" r="17.25" stroke="#FEEFE7" stroke-width="3"/>
</g>
<g filter="url(#filter7_d_482_3)">
<circle cx="32.75" cy="99.4165" r="15.75" fill="white"/>
<circle cx="32.75" cy="99.4165" r="17.25" stroke="#FEEFE7" stroke-width="3"/>
</g>
<g filter="url(#filter8_d_482_3)">
<mask id="path-30-outside-1_482_3" maskUnits="userSpaceOnUse" x="110" y="39.2002" width="37" height="37" fill="black">
<rect fill="white" x="110" y="39.2002" width="37" height="37"/>
<path d="M144.4 57.4002C144.4 66.3472 137.147 73.6002 128.2 73.6002C119.253 73.6002 112 66.3472 112 57.4002C112 48.4532 119.253 41.2002 128.2 41.2002C137.147 41.2002 144.4 48.4532 144.4 57.4002ZM121.64 57.4002C121.64 61.023 124.577 63.9598 128.2 63.9598C131.823 63.9598 134.76 61.023 134.76 57.4002C134.76 53.7774 131.823 50.8405 128.2 50.8405C124.577 50.8405 121.64 53.7774 121.64 57.4002Z"/>
</mask>
<path d="M144.4 57.4002C144.4 66.3472 137.147 73.6002 128.2 73.6002C119.253 73.6002 112 66.3472 112 57.4002C112 48.4532 119.253 41.2002 128.2 41.2002C137.147 41.2002 144.4 48.4532 144.4 57.4002ZM121.64 57.4002C121.64 61.023 124.577 63.9598 128.2 63.9598C131.823 63.9598 134.76 61.023 134.76 57.4002C134.76 53.7774 131.823 50.8405 128.2 50.8405C124.577 50.8405 121.64 53.7774 121.64 57.4002Z" fill="#DE6127"/>
<path d="M144.4 57.4002C144.4 66.3472 137.147 73.6002 128.2 73.6002C119.253 73.6002 112 66.3472 112 57.4002C112 48.4532 119.253 41.2002 128.2 41.2002C137.147 41.2002 144.4 48.4532 144.4 57.4002ZM121.64 57.4002C121.64 61.023 124.577 63.9598 128.2 63.9598C131.823 63.9598 134.76 61.023 134.76 57.4002C134.76 53.7774 131.823 50.8405 128.2 50.8405C124.577 50.8405 121.64 53.7774 121.64 57.4002Z" stroke="#F85A11" stroke-width="4" mask="url(#path-30-outside-1_482_3)"/>
</g>
<g filter="url(#filter9_d_482_3)">
<mask id="path-31-outside-2_482_3" maskUnits="userSpaceOnUse" x="117.8" y="60.7998" width="37" height="37" fill="black">
<rect fill="white" x="117.8" y="60.7998" width="37" height="37"/>
<path d="M152.2 78.9998C152.2 87.9468 144.947 95.1998 136 95.1998C127.053 95.1998 119.8 87.9468 119.8 78.9998C119.8 70.0528 127.053 62.7998 136 62.7998C144.947 62.7998 152.2 70.0528 152.2 78.9998ZM129.44 78.9998C129.44 82.6226 132.377 85.5595 136 85.5595C139.623 85.5595 142.559 82.6226 142.559 78.9998C142.559 75.377 139.623 72.4402 136 72.4402C132.377 72.4402 129.44 75.377 129.44 78.9998Z"/>
</mask>
<path d="M152.2 78.9998C152.2 87.9468 144.947 95.1998 136 95.1998C127.053 95.1998 119.8 87.9468 119.8 78.9998C119.8 70.0528 127.053 62.7998 136 62.7998C144.947 62.7998 152.2 70.0528 152.2 78.9998ZM129.44 78.9998C129.44 82.6226 132.377 85.5595 136 85.5595C139.623 85.5595 142.559 82.6226 142.559 78.9998C142.559 75.377 139.623 72.4402 136 72.4402C132.377 72.4402 129.44 75.377 129.44 78.9998Z" fill="#DE6127"/>
<path d="M152.2 78.9998C152.2 87.9468 144.947 95.1998 136 95.1998C127.053 95.1998 119.8 87.9468 119.8 78.9998C119.8 70.0528 127.053 62.7998 136 62.7998C144.947 62.7998 152.2 70.0528 152.2 78.9998ZM129.44 78.9998C129.44 82.6226 132.377 85.5595 136 85.5595C139.623 85.5595 142.559 82.6226 142.559 78.9998C142.559 75.377 139.623 72.4402 136 72.4402C132.377 72.4402 129.44 75.377 129.44 78.9998Z" stroke="#F85A11" stroke-width="4" mask="url(#path-31-outside-2_482_3)"/>
</g>
<g filter="url(#filter10_d_482_3)">
<mask id="path-32-outside-3_482_3" maskUnits="userSpaceOnUse" x="113.6" y="84.7998" width="37" height="37" fill="black">
<rect fill="white" x="113.6" y="84.7998" width="37" height="37"/>
<path d="M148 103C148 111.947 140.747 119.2 131.8 119.2C122.853 119.2 115.6 111.947 115.6 103C115.6 94.0528 122.853 86.7998 131.8 86.7998C140.747 86.7998 148 94.0528 148 103ZM125.24 103C125.24 106.623 128.177 109.559 131.8 109.559C135.423 109.559 138.36 106.623 138.36 103C138.36 99.377 135.423 96.4402 131.8 96.4402C128.177 96.4402 125.24 99.377 125.24 103Z"/>
</mask>
<path d="M148 103C148 111.947 140.747 119.2 131.8 119.2C122.853 119.2 115.6 111.947 115.6 103C115.6 94.0528 122.853 86.7998 131.8 86.7998C140.747 86.7998 148 94.0528 148 103ZM125.24 103C125.24 106.623 128.177 109.559 131.8 109.559C135.423 109.559 138.36 106.623 138.36 103C138.36 99.377 135.423 96.4402 131.8 96.4402C128.177 96.4402 125.24 99.377 125.24 103Z" fill="#DE6127"/>
<path d="M148 103C148 111.947 140.747 119.2 131.8 119.2C122.853 119.2 115.6 111.947 115.6 103C115.6 94.0528 122.853 86.7998 131.8 86.7998C140.747 86.7998 148 94.0528 148 103ZM125.24 103C125.24 106.623 128.177 109.559 131.8 109.559C135.423 109.559 138.36 106.623 138.36 103C138.36 99.377 135.423 96.4402 131.8 96.4402C128.177 96.4402 125.24 99.377 125.24 103Z" stroke="#F85A11" stroke-width="4" mask="url(#path-32-outside-3_482_3)"/>
</g>
<g filter="url(#filter11_d_482_3)">
<mask id="path-33-outside-4_482_3" maskUnits="userSpaceOnUse" x="97.3999" y="103.4" width="37" height="37" fill="black">
<rect fill="white" x="97.3999" y="103.4" width="37" height="37"/>
<path d="M131.8 121.6C131.8 130.547 124.547 137.8 115.6 137.8C106.653 137.8 99.3999 130.547 99.3999 121.6C99.3999 112.653 106.653 105.4 115.6 105.4C124.547 105.4 131.8 112.653 131.8 121.6ZM109.04 121.6C109.04 125.223 111.977 128.16 115.6 128.16C119.223 128.16 122.16 125.223 122.16 121.6C122.16 117.977 119.223 115.04 115.6 115.04C111.977 115.04 109.04 117.977 109.04 121.6Z"/>
</mask>
<path d="M131.8 121.6C131.8 130.547 124.547 137.8 115.6 137.8C106.653 137.8 99.3999 130.547 99.3999 121.6C99.3999 112.653 106.653 105.4 115.6 105.4C124.547 105.4 131.8 112.653 131.8 121.6ZM109.04 121.6C109.04 125.223 111.977 128.16 115.6 128.16C119.223 128.16 122.16 125.223 122.16 121.6C122.16 117.977 119.223 115.04 115.6 115.04C111.977 115.04 109.04 117.977 109.04 121.6Z" fill="#DE6127"/>
<path d="M131.8 121.6C131.8 130.547 124.547 137.8 115.6 137.8C106.653 137.8 99.3999 130.547 99.3999 121.6C99.3999 112.653 106.653 105.4 115.6 105.4C124.547 105.4 131.8 112.653 131.8 121.6ZM109.04 121.6C109.04 125.223 111.977 128.16 115.6 128.16C119.223 128.16 122.16 125.223 122.16 121.6C122.16 117.977 119.223 115.04 115.6 115.04C111.977 115.04 109.04 117.977 109.04 121.6Z" stroke="#F85A11" stroke-width="4" mask="url(#path-33-outside-4_482_3)"/>
</g>
<path d="M252 56.5L229 56.5" stroke="#F85A11" stroke-width="5" stroke-linecap="round" stroke-linejoin="round"/>
<path d="M252 68L237.846 68C232.961 68 229 62.8512 229 56.5C229 50.1488 232.961 45 237.846 45L252 45" stroke="#F85A11" stroke-width="5" stroke-linecap="round" stroke-linejoin="round"/>
<path d="M612.46 61.8879C612.141 62.7339 611.992 63.6345 612.021 64.5382C612.05 65.4419 612.257 66.331 612.63 67.1547C613.003 67.9784 613.534 68.7206 614.194 69.339C614.853 69.9574 615.628 70.4398 616.474 70.7586C617.32 71.0775 618.221 71.2266 619.125 71.1974C620.028 71.1683 620.917 70.9614 621.741 70.5886C622.565 70.2159 623.307 69.6845 623.926 69.0249C624.544 68.3652 625.026 67.5903 625.345 66.7442C625.664 65.8982 625.813 64.9976 625.784 64.0939C625.755 63.1903 625.548 62.3012 625.175 61.4774C624.802 60.6537 624.271 59.9115 623.611 59.2931C622.952 58.6747 622.177 58.1924 621.331 57.8735C620.485 57.5546 619.584 57.4055 618.68 57.4347C617.777 57.4638 616.888 57.6707 616.064 58.0435C615.24 58.4163 614.498 58.9476 613.88 59.6073C613.261 60.2669 612.779 61.0418 612.46 61.8879Z" fill="#FEEFE7"/>
<path d="M573.374 47.1564C573.055 48.0025 572.906 48.9031 572.935 49.8067C572.964 50.7104 573.171 51.5995 573.544 52.4232C573.916 53.247 574.448 53.9892 575.107 54.6076C575.767 55.2259 576.542 55.7083 577.388 56.0272C578.234 56.3461 579.135 56.4952 580.038 56.466C580.942 56.4368 581.831 56.23 582.655 55.8572C583.479 55.4844 584.221 54.953 584.839 54.2934C585.457 53.6338 585.94 52.8588 586.259 52.0128C586.903 50.3041 586.842 48.4096 586.089 46.746C585.336 45.0824 583.953 43.786 582.244 43.142C580.536 42.498 578.641 42.5592 576.978 43.3121C575.314 44.0649 574.018 45.4478 573.374 47.1564Z" fill="#FEEFE7"/>
<path d="M579.022 47.1717C576.862 52.901 577.067 59.2535 579.592 64.8316C582.116 70.4097 586.753 74.7566 592.482 76.9159C598.212 79.0752 604.564 78.8702 610.142 76.3458C615.72 73.8215 620.067 69.1846 622.227 63.4553C624.386 57.726 624.181 51.3736 621.656 45.7955C619.132 40.2174 614.495 35.8705 608.766 33.7111C603.037 31.5518 596.684 31.7569 591.106 34.2812C585.528 36.8056 581.181 41.4424 579.022 47.1717Z" fill="#FEEFE7"/>
<path d="M590.85 61.6347L605.421 66.7913C605.421 66.7913 602.605 74.2705 595.753 71.6906C588.651 69.0164 590.85 61.6347 590.85 61.6347Z" fill="#F85A11"/>
<path d="M590.851 61.6324C590.851 61.6324 590.685 62.2579 590.605 62.934L604.687 68.2411C605.107 67.5774 605.421 66.7913 605.421 66.7913L590.851 61.6324ZM595.755 71.6991C598.285 72.6525 600.135 72.141 601.243 71.6001L591.171 67.554C591.772 68.9891 593.072 70.6879 595.755 71.6991Z" fill="white"/>
<g filter="url(#filter12_d_482_3)">
<path d="M640.68 37.6396C642.561 32.6502 639.527 26.8861 633.906 24.7676C631.261 23.7708 628.52 23.7685 626.158 24.5532C624.891 22.8801 623.101 21.4967 620.908 20.67C618.36 19.7098 615.723 19.6696 613.421 20.3688C612.153 18.3241 610.146 16.614 607.598 15.6538C605.721 14.9462 603.797 14.7443 601.991 14.9628C600.716 13.0933 598.805 11.5381 596.424 10.6408C590.803 8.5222 584.72 10.8503 582.839 15.8396C581.194 20.2061 583.31 25.1631 587.631 27.7557L582.58 41.1576L623.727 56.6656L628.756 43.3201C633.872 44.4621 638.984 42.1392 640.68 37.6396Z" fill="#F85A11"/>
</g>
<circle cx="592.637" cy="53.0004" r="3.15" transform="rotate(20.6511 592.637 53.0004)" fill="white"/>
<circle cx="609.668" cy="59.4194" r="3.15" transform="rotate(20.6511 609.668 59.4194)" fill="white"/>
<ellipse cx="592.348" cy="54.7613" rx="1.4" ry="1.4" transform="rotate(20.6511 592.348 54.7613)" fill="#080708" fill-opacity="0.8"/>
<ellipse cx="609.378" cy="61.1803" rx="1.4" ry="1.4" transform="rotate(20.6511 609.378 61.1803)" fill="#080708" fill-opacity="0.8"/>
<path d="M228.112 53.2344L227.614 61.3276C226.203 60.8296 224.557 60.4422 222.675 60.1655C220.822 59.8612 218.912 59.626 216.948 59.46C214.983 59.2939 213.06 59.1833 211.179 59.1279C209.297 59.0726 207.61 59.0449 206.115 59.0449H204.995L207.402 113.166H194.66L196.154 59.46C194.107 59.626 192.004 59.8612 189.846 60.1655C187.715 60.4422 185.654 60.8019 183.662 61.2446C181.697 61.6597 179.871 62.1577 178.183 62.7388C176.495 63.3198 175.098 63.9839 173.991 64.731L173.203 53.5664L228.112 53.2344ZM241.759 77.3555L240.929 94.1035C241.336 93.3223 241.816 92.6143 242.369 91.9795C242.923 91.3285 243.541 90.7751 244.225 90.3193C244.925 89.8473 245.69 89.4893 246.52 89.2451C247.35 88.9847 248.253 88.8545 249.23 88.8545C250.304 88.8545 251.256 89.0579 252.086 89.4648C252.933 89.8555 253.665 90.3844 254.283 91.0518C254.918 91.7191 255.447 92.4922 255.87 93.3711C256.31 94.2337 256.66 95.137 256.92 96.0811C257.197 97.0251 257.392 97.9772 257.506 98.9375C257.62 99.8978 257.677 100.801 257.677 101.647C257.677 102.608 257.62 103.617 257.506 104.675C257.392 105.733 257.229 106.791 257.018 107.849C256.806 108.89 256.546 109.916 256.237 110.925C255.944 111.934 255.618 112.878 255.26 113.757L249.23 113.146C249.686 112.333 250.084 111.356 250.426 110.217C250.784 109.061 251.077 107.857 251.305 106.604C251.533 105.35 251.704 104.113 251.818 102.893C251.948 101.656 252.013 100.557 252.013 99.5967C252.013 98.7992 251.932 97.9528 251.769 97.0576C251.622 96.1624 251.354 95.3405 250.963 94.5918C250.589 93.8268 250.076 93.2002 249.425 92.7119C248.774 92.2074 247.952 91.9551 246.959 91.9551C246.357 91.9551 245.804 92.0771 245.299 92.3213C244.811 92.5492 244.355 92.8503 243.932 93.2246C243.525 93.599 243.159 94.0303 242.833 94.5186C242.508 95.0068 242.223 95.5033 241.979 96.0078C241.393 97.196 240.937 98.5469 240.612 100.061L240.075 111.853L235.509 112.243L234.557 77.8926L241.759 77.3555ZM277.109 106.14C275.823 106.14 274.545 105.977 273.276 105.651C272.022 105.31 270.883 104.772 269.858 104.04C269.874 104.675 269.915 105.326 269.98 105.993C270.045 106.66 270.151 107.312 270.297 107.946C270.46 108.565 270.663 109.151 270.908 109.704C271.168 110.257 271.493 110.746 271.884 111.169C272.291 111.576 272.771 111.901 273.325 112.146C273.894 112.39 274.57 112.512 275.351 112.512C276.083 112.512 276.767 112.382 277.402 112.121C278.036 111.844 278.59 111.478 279.062 111.022C279.55 110.567 279.949 110.03 280.258 109.411C280.567 108.793 280.779 108.125 280.893 107.409L286.899 108.752C286.427 109.761 285.759 110.616 284.897 111.315C284.05 112.015 283.106 112.577 282.065 113C281.023 113.439 279.933 113.757 278.793 113.952C277.67 114.147 276.588 114.245 275.546 114.245C273.674 114.245 272.006 113.968 270.541 113.415C269.076 112.862 267.839 112.064 266.83 111.022C265.838 109.981 265.073 108.719 264.535 107.238C264.015 105.741 263.754 104.064 263.754 102.209C263.754 100.402 264.063 98.7015 264.682 97.1064C265.3 95.4951 266.163 94.0954 267.27 92.9072C268.377 91.7191 269.703 90.7832 271.249 90.0996C272.812 89.3997 274.529 89.0498 276.401 89.0498C277.768 89.0498 279.127 89.2207 280.478 89.5625C281.829 89.888 283.041 90.4089 284.116 91.125C285.19 91.8249 286.052 92.7282 286.703 93.835C287.371 94.9417 287.704 96.2764 287.704 97.8389C287.704 99.3688 287.395 100.663 286.777 101.721C286.174 102.762 285.377 103.617 284.384 104.284C283.391 104.935 282.26 105.407 280.991 105.7C279.721 105.993 278.427 106.14 277.109 106.14ZM276.059 90.8564C275.31 90.8564 274.643 91.0111 274.057 91.3203C273.487 91.6133 272.975 92.0202 272.519 92.541C272.079 93.0618 271.705 93.6559 271.396 94.3232C271.087 94.9906 270.826 95.6904 270.615 96.4229C270.403 97.1553 270.24 97.8958 270.126 98.6445C270.012 99.3932 269.939 100.093 269.907 100.744C270.525 101.802 271.347 102.673 272.372 103.356C273.398 104.024 274.586 104.357 275.937 104.357C276.799 104.357 277.573 104.162 278.256 103.771C278.94 103.365 279.518 102.844 279.99 102.209C280.462 101.574 280.82 100.866 281.064 100.085C281.324 99.3037 281.454 98.5225 281.454 97.7412C281.454 96.96 281.34 96.1624 281.113 95.3486C280.885 94.5186 280.543 93.778 280.087 93.127C279.648 92.4596 279.086 91.9144 278.403 91.4912C277.735 91.068 276.954 90.8564 276.059 90.8564ZM326.031 114.709C324.126 114.709 322.344 114.473 320.684 114.001C319.024 113.529 317.51 112.821 316.143 111.877C314.776 110.933 313.563 109.753 312.505 108.337C311.463 106.921 310.609 105.277 309.942 103.405L318.389 102.941C318.519 105.936 319.374 108.223 320.952 109.802C322.531 111.364 324.761 112.146 327.642 112.146C328.765 112.146 329.888 112.032 331.011 111.804C332.134 111.576 333.135 111.193 334.014 110.656C334.909 110.103 335.633 109.379 336.187 108.483C336.756 107.588 337.041 106.473 337.041 105.139C337.041 104.211 336.862 103.422 336.504 102.771C336.146 102.103 335.666 101.55 335.064 101.11C334.478 100.671 333.794 100.321 333.013 100.061C332.248 99.7839 331.45 99.5723 330.62 99.4258C329.807 99.263 328.993 99.141 328.179 99.0596C327.365 98.9782 326.616 98.9049 325.933 98.8398C324.826 98.7585 323.671 98.6283 322.466 98.4492C321.262 98.2702 320.074 98.0179 318.902 97.6924C317.746 97.3669 316.639 96.9518 315.581 96.4473C314.523 95.9427 313.596 95.3079 312.798 94.543C312.001 93.7617 311.366 92.8421 310.894 91.7842C310.422 90.7262 310.186 89.4811 310.186 88.0488C310.186 86.6816 310.414 85.4447 310.869 84.3379C311.325 83.2311 311.944 82.2546 312.725 81.4082C313.522 80.5456 314.434 79.805 315.459 79.1865C316.501 78.5518 317.6 78.0391 318.755 77.6484C319.927 77.2415 321.123 76.9404 322.344 76.7451C323.565 76.5498 324.745 76.4521 325.884 76.4521C327.04 76.4521 328.252 76.5254 329.522 76.6719C330.808 76.8184 332.085 77.0625 333.355 77.4043C334.624 77.7461 335.845 78.1937 337.017 78.7471C338.205 79.2842 339.271 79.9515 340.215 80.749C341.175 81.5465 341.973 82.4824 342.608 83.5566C343.242 84.6146 343.658 85.8271 343.853 87.1943L335.699 88.8545C335.796 88.2523 335.845 87.6338 335.845 86.999C335.845 85.5179 335.544 84.2646 334.942 83.2393C334.339 82.2139 333.542 81.3919 332.549 80.7734C331.556 80.1387 330.433 79.6829 329.18 79.4062C327.927 79.1296 326.649 78.9912 325.347 78.9912C324.191 78.9912 323.044 79.1458 321.905 79.4551C320.782 79.748 319.764 80.1956 318.853 80.7979C317.958 81.4001 317.233 82.1569 316.68 83.0684C316.127 83.9798 315.85 85.054 315.85 86.291C315.85 87.1374 316.078 87.8698 316.533 88.4883C316.989 89.1068 317.583 89.6439 318.316 90.0996C319.064 90.5391 319.903 90.9053 320.83 91.1982C321.758 91.4912 322.686 91.7354 323.614 91.9307C324.558 92.1097 325.453 92.2562 326.299 92.3701C327.145 92.4678 327.862 92.541 328.448 92.5898C329.489 92.7038 330.58 92.8665 331.719 93.0781C332.858 93.2734 333.981 93.5501 335.088 93.9082C336.195 94.2663 337.253 94.7139 338.262 95.251C339.271 95.7881 340.15 96.4391 340.899 97.2041C341.664 97.9691 342.266 98.8643 342.705 99.8896C343.161 100.915 343.389 102.087 343.389 103.405C343.389 104.805 343.112 106.058 342.559 107.165C342.005 108.256 341.265 109.224 340.337 110.07C339.426 110.9 338.376 111.617 337.188 112.219C336 112.805 334.763 113.277 333.477 113.635C332.191 114.009 330.905 114.278 329.619 114.44C328.334 114.619 327.137 114.709 326.031 114.709ZM375.638 101.599C375.638 103.568 375.247 105.318 374.466 106.848C373.701 108.361 372.676 109.647 371.39 110.705C370.12 111.747 368.647 112.536 366.971 113.073C365.295 113.627 363.553 113.903 361.746 113.903C359.956 113.903 358.304 113.594 356.79 112.976C355.293 112.357 353.999 111.503 352.908 110.412C351.818 109.305 350.963 108.003 350.345 106.506C349.743 104.992 349.442 103.34 349.442 101.55C349.442 99.792 349.8 98.1481 350.516 96.6182C351.248 95.0882 352.217 93.7536 353.421 92.6143C354.642 91.4587 356.042 90.5553 357.62 89.9043C359.199 89.237 360.851 88.9033 362.576 88.9033C364.448 88.9033 366.182 89.2126 367.777 89.8311C369.372 90.4495 370.747 91.3203 371.903 92.4434C373.074 93.5664 373.986 94.9092 374.637 96.4717C375.304 98.0179 375.638 99.7269 375.638 101.599ZM369.486 101.354C369.486 100.622 369.437 99.8652 369.339 99.084C369.241 98.2865 369.079 97.5133 368.851 96.7646C368.639 95.9997 368.354 95.2835 367.996 94.6162C367.655 93.9326 367.223 93.3385 366.702 92.834C366.182 92.3132 365.571 91.9062 364.871 91.6133C364.171 91.304 363.374 91.1494 362.479 91.1494C361.112 91.1494 359.98 91.4831 359.085 92.1504C358.19 92.8014 357.482 93.6396 356.961 94.665C356.457 95.6742 356.099 96.7891 355.887 98.0098C355.692 99.2305 355.594 100.394 355.594 101.501C355.594 102.233 355.635 102.998 355.716 103.796C355.814 104.577 355.968 105.35 356.18 106.115C356.392 106.88 356.668 107.613 357.01 108.312C357.352 108.996 357.775 109.606 358.28 110.144C358.8 110.664 359.403 111.079 360.086 111.389C360.786 111.698 361.584 111.853 362.479 111.853C363.39 111.853 364.196 111.698 364.896 111.389C365.596 111.063 366.198 110.64 366.702 110.119C367.223 109.582 367.663 108.964 368.021 108.264C368.379 107.548 368.664 106.807 368.875 106.042C369.087 105.261 369.241 104.471 369.339 103.674C369.437 102.86 369.486 102.087 369.486 101.354ZM406.129 90.4414L404.664 113.049L400.367 113.439L400.123 107.946C399.749 108.858 399.285 109.696 398.732 110.461C398.178 111.226 397.535 111.885 396.803 112.438C396.087 112.992 395.281 113.423 394.386 113.732C393.491 114.042 392.522 114.196 391.481 114.196C389.853 114.196 388.413 113.871 387.159 113.22C385.922 112.585 384.881 111.698 384.034 110.559C383.204 109.419 382.578 108.068 382.155 106.506C381.731 104.927 381.52 103.21 381.52 101.354C381.52 99.3525 381.666 97.611 381.959 96.1299C382.252 94.6325 382.586 93.3711 382.96 92.3457C383.383 91.1576 383.872 90.1403 384.425 89.2939L391.408 89.9043C390.61 90.8646 389.902 92.012 389.283 93.3467C388.746 94.486 388.258 95.902 387.819 97.5947C387.379 99.2874 387.159 101.241 387.159 103.454C387.159 104.789 387.314 105.936 387.623 106.896C387.933 107.857 388.372 108.654 388.942 109.289C389.511 109.908 390.195 110.363 390.992 110.656C391.806 110.949 392.718 111.096 393.727 111.096C394.589 111.096 395.354 110.86 396.022 110.388C396.689 109.916 397.275 109.305 397.78 108.557C398.284 107.808 398.707 106.962 399.049 106.018C399.407 105.074 399.7 104.138 399.928 103.21L399.415 90.0508L406.129 90.4414ZM421.874 78.9424L421.581 88.9521H427.367V91.0029H421.533L420.873 113.146L416.381 113.562L415.917 91.0029H409.911V88.9521H415.868L415.722 80.5049L421.874 78.9424ZM438.62 77.3555L437.79 94.1035C438.197 93.3223 438.677 92.6143 439.231 91.9795C439.784 91.3285 440.403 90.7751 441.086 90.3193C441.786 89.8473 442.551 89.4893 443.381 89.2451C444.211 88.9847 445.115 88.8545 446.091 88.8545C447.165 88.8545 448.117 89.0579 448.948 89.4648C449.794 89.8555 450.526 90.3844 451.145 91.0518C451.78 91.7191 452.309 92.4922 452.732 93.3711C453.171 94.2337 453.521 95.137 453.782 96.0811C454.058 97.0251 454.254 97.9772 454.367 98.9375C454.481 99.8978 454.538 100.801 454.538 101.647C454.538 102.608 454.481 103.617 454.367 104.675C454.254 105.733 454.091 106.791 453.879 107.849C453.668 108.89 453.407 109.916 453.098 110.925C452.805 111.934 452.479 112.878 452.121 113.757L446.091 113.146C446.547 112.333 446.946 111.356 447.287 110.217C447.645 109.061 447.938 107.857 448.166 106.604C448.394 105.35 448.565 104.113 448.679 102.893C448.809 101.656 448.874 100.557 448.874 99.5967C448.874 98.7992 448.793 97.9528 448.63 97.0576C448.484 96.1624 448.215 95.3405 447.824 94.5918C447.45 93.8268 446.937 93.2002 446.286 92.7119C445.635 92.2074 444.813 91.9551 443.821 91.9551C443.218 91.9551 442.665 92.0771 442.16 92.3213C441.672 92.5492 441.216 92.8503 440.793 93.2246C440.386 93.599 440.02 94.0303 439.695 94.5186C439.369 95.0068 439.084 95.5033 438.84 96.0078C438.254 97.196 437.798 98.5469 437.473 100.061L436.936 111.853L432.37 112.243L431.418 77.8926L438.62 77.3555ZM486.151 77.5996L484.906 112.951L479.974 113.049L478.973 78.0391L486.151 77.5996ZM500.919 89.6113L500.675 94.0547C501.115 93.2572 501.627 92.5166 502.213 91.833C502.815 91.1331 503.483 90.5472 504.215 90.0752C504.964 89.5869 505.769 89.2288 506.632 89.001C507.511 88.7731 508.439 88.7243 509.415 88.8545C510.962 89.0824 512.272 89.5544 513.346 90.2705C514.42 90.9867 515.283 91.8981 515.934 93.0049C516.601 94.1117 517.081 95.3975 517.374 96.8623C517.667 98.3271 517.814 99.9222 517.814 101.647C517.814 102.608 517.732 103.617 517.57 104.675C517.407 105.733 517.187 106.791 516.91 107.849C516.634 108.89 516.316 109.916 515.958 110.925C515.616 111.934 515.267 112.878 514.908 113.757L508.878 113.146C508.911 113.13 509.017 112.935 509.196 112.561C509.375 112.186 509.586 111.682 509.83 111.047C510.074 110.412 510.327 109.672 510.587 108.825C510.864 107.963 511.116 107.035 511.344 106.042C511.588 105.049 511.783 104.007 511.93 102.917C512.093 101.81 512.174 100.703 512.174 99.5967C512.174 98.376 512.068 97.2936 511.857 96.3496C511.645 95.4056 511.311 94.6081 510.856 93.957C510.416 93.306 509.847 92.8096 509.147 92.4678C508.447 92.126 507.601 91.9551 506.608 91.9551C505.745 91.9551 504.98 92.1911 504.313 92.6631C503.645 93.1188 503.06 93.7129 502.555 94.4453C502.05 95.1777 501.619 96.0078 501.261 96.9355C500.903 97.847 500.602 98.7666 500.358 99.6943L499.723 112.854L495.182 113.244L494.23 90.1484L500.919 89.6113ZM543.178 97.3994C543.178 96.7809 542.991 96.1868 542.616 95.6172C542.258 95.0312 541.795 94.5186 541.225 94.0791C540.655 93.6396 540.02 93.2897 539.321 93.0293C538.621 92.7689 537.945 92.6387 537.294 92.6387C535.96 92.6387 534.812 92.9316 533.852 93.5176C532.892 94.1035 532.102 94.8685 531.484 95.8125C530.881 96.7402 530.434 97.79 530.141 98.9619C529.848 100.118 529.701 101.281 529.701 102.453C529.701 103.511 529.807 104.602 530.019 105.725C530.247 106.831 530.613 107.849 531.117 108.776C531.638 109.704 532.322 110.469 533.168 111.071C534.015 111.657 535.073 111.95 536.342 111.95C537.335 111.95 538.198 111.73 538.93 111.291C539.679 110.852 540.313 110.29 540.834 109.606C541.371 108.907 541.811 108.125 542.153 107.263C542.494 106.384 542.755 105.513 542.934 104.65C542.983 103.446 543.032 102.233 543.08 101.013C543.145 99.7757 543.178 98.5713 543.178 97.3994ZM548.94 78.6006L547.988 114.001L543.495 113.854L543.3 109.509C542.975 110.29 542.543 110.99 542.006 111.608C541.485 112.211 540.875 112.715 540.175 113.122C539.491 113.545 538.735 113.863 537.905 114.074C537.091 114.286 536.236 114.392 535.341 114.392C533.6 114.392 532.013 114.099 530.58 113.513C529.148 112.927 527.919 112.113 526.894 111.071C525.885 110.03 525.095 108.785 524.526 107.336C523.972 105.887 523.696 104.309 523.696 102.6C523.696 100.744 523.997 99.0433 524.599 97.4971C525.217 95.9346 526.072 94.5999 527.162 93.4932C528.269 92.3701 529.596 91.5156 531.142 90.9297C532.688 90.3275 534.389 90.0508 536.244 90.0996C536.798 90.1159 537.359 90.1729 537.929 90.2705C538.515 90.3519 539.085 90.4821 539.638 90.6611C540.191 90.8402 540.72 91.068 541.225 91.3447C541.746 91.6214 542.218 91.9551 542.641 92.3457L542.128 78.2588L548.94 78.6006ZM564.221 84.1914C564.221 84.7773 564.107 85.3307 563.879 85.8516C563.668 86.3724 563.366 86.8281 562.976 87.2188C562.585 87.6094 562.13 87.9186 561.609 88.1465C561.088 88.3743 560.526 88.4883 559.924 88.4883C559.322 88.4883 558.752 88.3743 558.215 88.1465C557.694 87.9186 557.239 87.6094 556.848 87.2188C556.457 86.8281 556.148 86.3724 555.92 85.8516C555.692 85.3307 555.578 84.7773 555.578 84.1914C555.578 83.5892 555.692 83.0277 555.92 82.5068C556.148 81.9697 556.457 81.5059 556.848 81.1152C557.239 80.7246 557.694 80.4154 558.215 80.1875C558.752 79.9596 559.322 79.8457 559.924 79.8457C560.526 79.8457 561.088 79.9596 561.609 80.1875C562.13 80.4154 562.585 80.7246 562.976 81.1152C563.366 81.5059 563.668 81.9697 563.879 82.5068C564.107 83.0277 564.221 83.5892 564.221 84.1914ZM563.391 90.9541L561.535 114.44L556.824 113.952L556.531 90.5879L563.391 90.9541ZM586.485 112.707L587.095 110.144C586.525 110.648 585.891 111.104 585.191 111.511C584.507 111.918 583.799 112.268 583.067 112.561C582.334 112.837 581.602 113.049 580.869 113.195C580.153 113.358 579.494 113.439 578.892 113.439C577.834 113.439 576.743 113.285 575.62 112.976C574.497 112.666 573.48 112.202 572.569 111.584C571.657 110.965 570.908 110.192 570.323 109.265C569.737 108.337 569.444 107.263 569.444 106.042C569.444 104.447 569.72 103.063 570.274 101.892C570.827 100.72 571.576 99.7513 572.52 98.9863C573.48 98.2214 574.603 97.6598 575.889 97.3018C577.175 96.9274 578.558 96.7402 580.039 96.7402C580.739 96.7402 581.455 96.7972 582.188 96.9111C582.92 97.0251 583.636 97.196 584.336 97.4238C585.036 97.6517 585.703 97.9528 586.338 98.3271C586.973 98.7015 587.543 99.141 588.047 99.6455C587.998 98.7666 587.876 97.8389 587.681 96.8623C587.502 95.8857 587.209 94.9987 586.802 94.2012C586.411 93.3874 585.882 92.7201 585.215 92.1992C584.548 91.6621 583.701 91.3936 582.676 91.3936C581.179 91.3936 579.909 91.7842 578.867 92.5654C577.842 93.3304 577.134 94.4453 576.743 95.9102L570.396 95.251C570.786 94.2419 571.34 93.3548 572.056 92.5898C572.772 91.8086 573.578 91.1576 574.473 90.6367C575.384 90.1159 576.353 89.7253 577.378 89.4648C578.404 89.1882 579.437 89.0498 580.479 89.0498C582.074 89.0498 583.498 89.2777 584.751 89.7334C586.021 90.1891 587.136 90.8158 588.096 91.6133C589.056 92.4108 589.87 93.3548 590.537 94.4453C591.205 95.5195 591.75 96.6833 592.173 97.9365C592.596 99.1735 592.906 100.476 593.101 101.843C593.296 103.194 593.394 104.545 593.394 105.896C593.394 107.1 593.329 108.296 593.199 109.484C593.068 110.656 592.881 111.828 592.637 113L586.485 112.707ZM587.779 105.798C587.827 105.424 587.86 105.057 587.876 104.699C587.909 104.341 587.941 103.975 587.974 103.601C587.893 102.836 587.624 102.16 587.168 101.574C586.713 100.972 586.159 100.467 585.508 100.061C584.857 99.6374 584.149 99.32 583.384 99.1084C582.619 98.8968 581.87 98.791 581.138 98.791C580.292 98.791 579.502 98.9375 578.77 99.2305C578.037 99.5072 577.403 99.9059 576.866 100.427C576.328 100.948 575.905 101.566 575.596 102.282C575.287 102.998 575.132 103.788 575.132 104.65C575.132 105.529 575.262 106.335 575.523 107.067C575.799 107.784 576.182 108.41 576.67 108.947C577.158 109.468 577.753 109.875 578.452 110.168C579.169 110.461 579.966 110.607 580.845 110.607C581.626 110.607 582.391 110.493 583.14 110.266C583.889 110.038 584.572 109.72 585.191 109.313C585.825 108.89 586.363 108.386 586.802 107.8C587.258 107.198 587.583 106.53 587.779 105.798ZM606.917 89.6113L606.673 94.0547C607.113 93.2572 607.625 92.5166 608.211 91.833C608.813 91.1331 609.481 90.5472 610.213 90.0752C610.962 89.5869 611.768 89.2288 612.63 89.001C613.509 88.7731 614.437 88.7243 615.413 88.8545C616.96 89.0824 618.27 89.5544 619.344 90.2705C620.418 90.9867 621.281 91.8981 621.932 93.0049C622.599 94.1117 623.079 95.3975 623.372 96.8623C623.665 98.3271 623.812 99.9222 623.812 101.647C623.812 102.608 623.73 103.617 623.568 104.675C623.405 105.733 623.185 106.791 622.908 107.849C622.632 108.89 622.314 109.916 621.956 110.925C621.615 111.934 621.265 112.878 620.907 113.757L614.876 113.146C614.909 113.13 615.015 112.935 615.194 112.561C615.373 112.186 615.584 111.682 615.828 111.047C616.073 110.412 616.325 109.672 616.585 108.825C616.862 107.963 617.114 107.035 617.342 106.042C617.586 105.049 617.782 104.007 617.928 102.917C618.091 101.81 618.172 100.703 618.172 99.5967C618.172 98.376 618.066 97.2936 617.855 96.3496C617.643 95.4056 617.31 94.6081 616.854 93.957C616.414 93.306 615.845 92.8096 615.145 92.4678C614.445 92.126 613.599 91.9551 612.606 91.9551C611.743 91.9551 610.978 92.1911 610.311 92.6631C609.644 93.1188 609.058 93.7129 608.553 94.4453C608.048 95.1777 607.617 96.0078 607.259 96.9355C606.901 97.847 606.6 98.7666 606.356 99.6943L605.721 112.854L601.18 113.244L600.228 90.1484L606.917 89.6113ZM679.936 90.6611C679.936 92.2399 679.635 93.6315 679.033 94.8359C678.447 96.0404 677.649 97.0902 676.64 97.9854C675.647 98.8643 674.5 99.6048 673.198 100.207C671.895 100.793 670.536 101.265 669.12 101.623C667.704 101.981 666.28 102.233 664.848 102.38C663.432 102.526 662.097 102.6 660.844 102.6C659.884 102.6 658.932 102.583 657.988 102.551C657.044 102.518 656.091 102.437 655.131 102.307L655.033 113.244L648.735 113.293C648.767 107.564 648.727 101.867 648.613 96.2031C648.499 90.5228 648.393 84.818 648.295 79.0889C649.451 78.861 650.671 78.6738 651.957 78.5273C653.243 78.3809 654.545 78.2669 655.864 78.1855C657.182 78.0879 658.492 78.0228 659.794 77.9902C661.096 77.9577 662.341 77.9414 663.53 77.9414C664.832 77.9414 666.142 78.0472 667.46 78.2588C668.779 78.4704 670.04 78.7959 671.244 79.2354C672.465 79.6748 673.604 80.2363 674.662 80.9199C675.72 81.6035 676.64 82.4173 677.421 83.3613C678.202 84.3053 678.813 85.3877 679.252 86.6084C679.708 87.8128 679.936 89.1637 679.936 90.6611ZM659.794 80.4072C658.964 80.4072 658.126 80.4235 657.28 80.4561C656.449 80.4886 655.619 80.5537 654.789 80.6514L655.18 99.8896C655.945 100.004 656.718 100.069 657.499 100.085C658.281 100.101 659.078 100.109 659.892 100.109C660.982 100.109 662.065 100.044 663.139 99.9141C664.229 99.7839 665.263 99.5723 666.24 99.2793C667.216 98.9701 668.119 98.5713 668.949 98.083C669.78 97.5785 670.496 96.96 671.098 96.2275C671.716 95.4788 672.197 94.6162 672.538 93.6396C672.88 92.6468 673.051 91.4993 673.051 90.1973C673.051 88.9928 672.864 87.9186 672.49 86.9746C672.115 86.0143 671.602 85.1761 670.951 84.46C670.317 83.7275 669.568 83.109 668.705 82.6045C667.843 82.0837 666.923 81.6605 665.947 81.335C664.97 81.0094 663.953 80.7734 662.895 80.627C661.853 80.4805 660.82 80.4072 659.794 80.4072ZM692.507 73.8887L691.311 113.098L686.648 113.488L685.451 74.5479L692.507 73.8887ZM715.674 112.707L716.284 110.144C715.715 110.648 715.08 111.104 714.38 111.511C713.697 111.918 712.989 112.268 712.256 112.561C711.524 112.837 710.791 113.049 710.059 113.195C709.343 113.358 708.684 113.439 708.081 113.439C707.023 113.439 705.933 113.285 704.81 112.976C703.687 112.666 702.67 112.202 701.758 111.584C700.847 110.965 700.098 110.192 699.512 109.265C698.926 108.337 698.633 107.263 698.633 106.042C698.633 104.447 698.91 103.063 699.463 101.892C700.017 100.72 700.765 99.7513 701.709 98.9863C702.67 98.2214 703.793 97.6598 705.078 97.3018C706.364 96.9274 707.748 96.7402 709.229 96.7402C709.929 96.7402 710.645 96.7972 711.377 96.9111C712.11 97.0251 712.826 97.196 713.526 97.4238C714.226 97.6517 714.893 97.9528 715.528 98.3271C716.162 98.7015 716.732 99.141 717.237 99.6455C717.188 98.7666 717.066 97.8389 716.87 96.8623C716.691 95.8857 716.398 94.9987 715.992 94.2012C715.601 93.3874 715.072 92.7201 714.405 92.1992C713.737 91.6621 712.891 91.3936 711.866 91.3936C710.368 91.3936 709.099 91.7842 708.057 92.5654C707.032 93.3304 706.324 94.4453 705.933 95.9102L699.585 95.251C699.976 94.2419 700.529 93.3548 701.245 92.5898C701.962 91.8086 702.767 91.1576 703.662 90.6367C704.574 90.1159 705.542 89.7253 706.568 89.4648C707.593 89.1882 708.627 89.0498 709.668 89.0498C711.263 89.0498 712.687 89.2777 713.941 89.7334C715.21 90.1891 716.325 90.8158 717.285 91.6133C718.246 92.4108 719.06 93.3548 719.727 94.4453C720.394 95.5195 720.939 96.6833 721.363 97.9365C721.786 99.1735 722.095 100.476 722.29 101.843C722.486 103.194 722.583 104.545 722.583 105.896C722.583 107.1 722.518 108.296 722.388 109.484C722.258 110.656 722.071 111.828 721.826 113L715.674 112.707ZM716.968 105.798C717.017 105.424 717.049 105.057 717.066 104.699C717.098 104.341 717.131 103.975 717.163 103.601C717.082 102.836 716.813 102.16 716.358 101.574C715.902 100.972 715.349 100.467 714.698 100.061C714.047 99.6374 713.339 99.32 712.574 99.1084C711.809 98.8968 711.06 98.791 710.327 98.791C709.481 98.791 708.692 98.9375 707.959 99.2305C707.227 99.5072 706.592 99.9059 706.055 100.427C705.518 100.948 705.095 101.566 704.785 102.282C704.476 102.998 704.322 103.788 704.322 104.65C704.322 105.529 704.452 106.335 704.712 107.067C704.989 107.784 705.371 108.41 705.86 108.947C706.348 109.468 706.942 109.875 707.642 110.168C708.358 110.461 709.156 110.607 710.034 110.607C710.816 110.607 711.581 110.493 712.329 110.266C713.078 110.038 713.762 109.72 714.38 109.313C715.015 108.89 715.552 108.386 715.992 107.8C716.447 107.198 716.773 106.53 716.968 105.798ZM737.62 78.9424L737.327 88.9521H743.114V91.0029H737.279L736.619 113.146L732.127 113.562L731.663 91.0029H725.658V88.9521H731.615L731.468 80.5049L737.62 78.9424ZM759.347 106.14C758.061 106.14 756.784 105.977 755.514 105.651C754.261 105.31 753.121 104.772 752.096 104.04C752.112 104.675 752.153 105.326 752.218 105.993C752.283 106.66 752.389 107.312 752.535 107.946C752.698 108.565 752.902 109.151 753.146 109.704C753.406 110.257 753.732 110.746 754.122 111.169C754.529 111.576 755.009 111.901 755.563 112.146C756.132 112.39 756.808 112.512 757.589 112.512C758.322 112.512 759.005 112.382 759.64 112.121C760.275 111.844 760.828 111.478 761.3 111.022C761.788 110.567 762.187 110.03 762.496 109.411C762.806 108.793 763.017 108.125 763.131 107.409L769.137 108.752C768.665 109.761 767.998 110.616 767.135 111.315C766.289 112.015 765.345 112.577 764.303 113C763.261 113.439 762.171 113.757 761.032 113.952C759.909 114.147 758.826 114.245 757.784 114.245C755.913 114.245 754.244 113.968 752.78 113.415C751.315 112.862 750.078 112.064 749.069 111.022C748.076 109.981 747.311 108.719 746.774 107.238C746.253 105.741 745.992 104.064 745.992 102.209C745.992 100.402 746.302 98.7015 746.92 97.1064C747.539 95.4951 748.401 94.0954 749.508 92.9072C750.615 91.7191 751.941 90.7832 753.488 90.0996C755.05 89.3997 756.767 89.0498 758.639 89.0498C760.006 89.0498 761.365 89.2207 762.716 89.5625C764.067 89.888 765.28 90.4089 766.354 91.125C767.428 91.8249 768.291 92.7282 768.942 93.835C769.609 94.9417 769.943 96.2764 769.943 97.8389C769.943 99.3688 769.633 100.663 769.015 101.721C768.413 102.762 767.615 103.617 766.622 104.284C765.63 104.935 764.498 105.407 763.229 105.7C761.959 105.993 760.665 106.14 759.347 106.14ZM758.297 90.8564C757.548 90.8564 756.881 91.0111 756.295 91.3203C755.726 91.6133 755.213 92.0202 754.757 92.541C754.318 93.0618 753.943 93.6559 753.634 94.3232C753.325 94.9906 753.064 95.6904 752.853 96.4229C752.641 97.1553 752.478 97.8958 752.365 98.6445C752.251 99.3932 752.177 100.093 752.145 100.744C752.763 101.802 753.585 102.673 754.611 103.356C755.636 104.024 756.824 104.357 758.175 104.357C759.038 104.357 759.811 104.162 760.494 103.771C761.178 103.365 761.756 102.844 762.228 102.209C762.7 101.574 763.058 100.866 763.302 100.085C763.562 99.3037 763.693 98.5225 763.693 97.7412C763.693 96.96 763.579 96.1624 763.351 95.3486C763.123 94.5186 762.781 93.778 762.326 93.127C761.886 92.4596 761.325 91.9144 760.641 91.4912C759.974 91.068 759.192 90.8564 758.297 90.8564Z" fill="#F85A11"/>
<defs>
<filter id="filter0_i_482_3" x="0" y="0" width="164" height="169" filterUnits="userSpaceOnUse" color-interpolation-filters="sRGB">
<feFlood flood-opacity="0" result="BackgroundImageFix"/>
<feBlend mode="normal" in="SourceGraphic" in2="BackgroundImageFix" result="shape"/>
<feColorMatrix in="SourceAlpha" type="matrix" values="0 0 0 0 0 0 0 0 0 0 0 0 0 0 0 0 0 0 127 0" result="hardAlpha"/>
<feOffset dy="5"/>
<feGaussianBlur stdDeviation="5"/>
<feComposite in2="hardAlpha" operator="arithmetic" k2="-1" k3="1"/>
<feColorMatrix type="matrix" values="0 0 0 0 0 0 0 0 0 0 0 0 0 0 0 0 0 0 0.3 0"/>
<feBlend mode="normal" in2="shape" result="effect1_innerShadow_482_3"/>
</filter>
<filter id="filter1_d_482_3" x="68" y="13" width="49.5" height="49.5" filterUnits="userSpaceOnUse" color-interpolation-filters="sRGB">
<feFlood flood-opacity="0" result="BackgroundImageFix"/>
<feColorMatrix in="SourceAlpha" type="matrix" values="0 0 0 0 0 0 0 0 0 0 0 0 0 0 0 0 0 0 127 0" result="hardAlpha"/>
<feOffset dy="5"/>
<feGaussianBlur stdDeviation="3"/>
<feComposite in2="hardAlpha" operator="out"/>
<feColorMatrix type="matrix" values="0 0 0 0 0 0 0 0 0 0 0 0 0 0 0 0 0 0 0.25 0"/>
<feBlend mode="normal" in2="BackgroundImageFix" result="effect1_dropShadow_482_3"/>
<feBlend mode="normal" in="SourceGraphic" in2="effect1_dropShadow_482_3" result="shape"/>
</filter>
<filter id="filter2_d_482_3" x="41" y="49.333" width="78.6665" height="78.6665" filterUnits="userSpaceOnUse" color-interpolation-filters="sRGB">
<feFlood flood-opacity="0" result="BackgroundImageFix"/>
<feColorMatrix in="SourceAlpha" type="matrix" values="0 0 0 0 0 0 0 0 0 0 0 0 0 0 0 0 0 0 127 0" result="hardAlpha"/>
<feOffset dy="5"/>
<feGaussianBlur stdDeviation="5"/>
<feComposite in2="hardAlpha" operator="out"/>
<feColorMatrix type="matrix" values="0 0 0 0 0 0 0 0 0 0 0 0 0 0 0 0 0 0 0.3 0"/>
<feBlend mode="normal" in2="BackgroundImageFix" result="effect1_dropShadow_482_3"/>
<feBlend mode="normal" in="SourceGraphic" in2="effect1_dropShadow_482_3" result="shape"/>
</filter>
<filter id="filter3_d_482_3" x="41.3335" y="13" width="49.5" height="49.5" filterUnits="userSpaceOnUse" color-interpolation-filters="sRGB">
<feFlood flood-opacity="0" result="BackgroundImageFix"/>
<feColorMatrix in="SourceAlpha" type="matrix" values="0 0 0 0 0 0 0 0 0 0 0 0 0 0 0 0 0 0 127 0" result="hardAlpha"/>
<feOffset dy="5"/>
<feGaussianBlur stdDeviation="3"/>
<feComposite in2="hardAlpha" operator="out"/>
<feColorMatrix type="matrix" values="0 0 0 0 0 0 0 0 0 0 0 0 0 0 0 0 0 0 0.25 0"/>
<feBlend mode="normal" in2="BackgroundImageFix" result="effect1_dropShadow_482_3"/>
<feBlend mode="normal" in="SourceGraphic" in2="effect1_dropShadow_482_3" result="shape"/>
</filter>
<filter id="filter4_d_482_3" x="21.333" y="23" width="49.5" height="49.5" filterUnits="userSpaceOnUse" color-interpolation-filters="sRGB">
<feFlood flood-opacity="0" result="BackgroundImageFix"/>
<feColorMatrix in="SourceAlpha" type="matrix" values="0 0 0 0 0 0 0 0 0 0 0 0 0 0 0 0 0 0 127 0" result="hardAlpha"/>
<feOffset dy="5"/>
<feGaussianBlur stdDeviation="3"/>
<feComposite in2="hardAlpha" operator="out"/>
<feColorMatrix type="matrix" values="0 0 0 0 0 0 0 0 0 0 0 0 0 0 0 0 0 0 0.25 0"/>
<feBlend mode="normal" in2="BackgroundImageFix" result="effect1_dropShadow_482_3"/>
<feBlend mode="normal" in="SourceGraphic" in2="effect1_dropShadow_482_3" result="shape"/>
</filter>
<filter id="filter5_d_482_3" x="11.3335" y="39.667" width="49.5" height="49.5" filterUnits="userSpaceOnUse" color-interpolation-filters="sRGB">
<feFlood flood-opacity="0" result="BackgroundImageFix"/>
<feColorMatrix in="SourceAlpha" type="matrix" values="0 0 0 0 0 0 0 0 0 0 0 0 0 0 0 0 0 0 127 0" result="hardAlpha"/>
<feOffset dy="5"/>
<feGaussianBlur stdDeviation="3"/>
<feComposite in2="hardAlpha" operator="out"/>
<feColorMatrix type="matrix" values="0 0 0 0 0 0 0 0 0 0 0 0 0 0 0 0 0 0 0.25 0"/>
<feBlend mode="normal" in2="BackgroundImageFix" result="effect1_dropShadow_482_3"/>
<feBlend mode="normal" in="SourceGraphic" in2="effect1_dropShadow_482_3" result="shape"/>
</filter>
<filter id="filter6_d_482_3" x="4.66699" y="59.6665" width="49.5" height="49.5" filterUnits="userSpaceOnUse" color-interpolation-filters="sRGB">
<feFlood flood-opacity="0" result="BackgroundImageFix"/>
<feColorMatrix in="SourceAlpha" type="matrix" values="0 0 0 0 0 0 0 0 0 0 0 0 0 0 0 0 0 0 127 0" result="hardAlpha"/>
<feOffset dy="5"/>
<feGaussianBlur stdDeviation="3"/>
<feComposite in2="hardAlpha" operator="out"/>
<feColorMatrix type="matrix" values="0 0 0 0 0 0 0 0 0 0 0 0 0 0 0 0 0 0 0.25 0"/>
<feBlend mode="normal" in2="BackgroundImageFix" result="effect1_dropShadow_482_3"/>
<feBlend mode="normal" in="SourceGraphic" in2="effect1_dropShadow_482_3" result="shape"/>
</filter>
<filter id="filter7_d_482_3" x="8" y="79.6665" width="49.5" height="49.5" filterUnits="userSpaceOnUse" color-interpolation-filters="sRGB">
<feFlood flood-opacity="0" result="BackgroundImageFix"/>
<feColorMatrix in="SourceAlpha" type="matrix" values="0 0 0 0 0 0 0 0 0 0 0 0 0 0 0 0 0 0 127 0" result="hardAlpha"/>
<feOffset dy="5"/>
<feGaussianBlur stdDeviation="3"/>
<feComposite in2="hardAlpha" operator="out"/>
<feColorMatrix type="matrix" values="0 0 0 0 0 0 0 0 0 0 0 0 0 0 0 0 0 0 0.25 0"/>
<feBlend mode="normal" in2="BackgroundImageFix" result="effect1_dropShadow_482_3"/>
<feBlend mode="normal" in="SourceGraphic" in2="effect1_dropShadow_482_3" result="shape"/>
</filter>
<filter id="filter8_d_482_3" x="100" y="35.2002" width="56.3999" height="56.3999" filterUnits="userSpaceOnUse" color-interpolation-filters="sRGB">
<feFlood flood-opacity="0" result="BackgroundImageFix"/>
<feColorMatrix in="SourceAlpha" type="matrix" values="0 0 0 0 0 0 0 0 0 0 0 0 0 0 0 0 0 0 127 0" result="hardAlpha"/>
<feOffset dy="6"/>
<feGaussianBlur stdDeviation="5"/>
<feComposite in2="hardAlpha" operator="out"/>
<feColorMatrix type="matrix" values="0 0 0 0 0 0 0 0 0 0 0 0 0 0 0 0 0 0 0.3 0"/>
<feBlend mode="normal" in2="BackgroundImageFix" result="effect1_dropShadow_482_3"/>
<feBlend mode="normal" in="SourceGraphic" in2="effect1_dropShadow_482_3" result="shape"/>
</filter>
<filter id="filter9_d_482_3" x="107.8" y="56.7998" width="56.3999" height="56.3999" filterUnits="userSpaceOnUse" color-interpolation-filters="sRGB">
<feFlood flood-opacity="0" result="BackgroundImageFix"/>
<feColorMatrix in="SourceAlpha" type="matrix" values="0 0 0 0 0 0 0 0 0 0 0 0 0 0 0 0 0 0 127 0" result="hardAlpha"/>
<feOffset dy="6"/>
<feGaussianBlur stdDeviation="5"/>
<feComposite in2="hardAlpha" operator="out"/>
<feColorMatrix type="matrix" values="0 0 0 0 0 0 0 0 0 0 0 0 0 0 0 0 0 0 0.3 0"/>
<feBlend mode="normal" in2="BackgroundImageFix" result="effect1_dropShadow_482_3"/>
<feBlend mode="normal" in="SourceGraphic" in2="effect1_dropShadow_482_3" result="shape"/>
</filter>
<filter id="filter10_d_482_3" x="103.6" y="80.7998" width="56.3999" height="56.3999" filterUnits="userSpaceOnUse" color-interpolation-filters="sRGB">
<feFlood flood-opacity="0" result="BackgroundImageFix"/>
<feColorMatrix in="SourceAlpha" type="matrix" values="0 0 0 0 0 0 0 0 0 0 0 0 0 0 0 0 0 0 127 0" result="hardAlpha"/>
<feOffset dy="6"/>
<feGaussianBlur stdDeviation="5"/>
<feComposite in2="hardAlpha" operator="out"/>
<feColorMatrix type="matrix" values="0 0 0 0 0 0 0 0 0 0 0 0 0 0 0 0 0 0 0.3 0"/>
<feBlend mode="normal" in2="BackgroundImageFix" result="effect1_dropShadow_482_3"/>
<feBlend mode="normal" in="SourceGraphic" in2="effect1_dropShadow_482_3" result="shape"/>
</filter>
<filter id="filter11_d_482_3" x="87.3999" y="99.3999" width="56.3999" height="56.3999" filterUnits="userSpaceOnUse" color-interpolation-filters="sRGB">
<feFlood flood-opacity="0" result="BackgroundImageFix"/>
<feColorMatrix in="SourceAlpha" type="matrix" values="0 0 0 0 0 0 0 0 0 0 0 0 0 0 0 0 0 0 127 0" result="hardAlpha"/>
<feOffset dy="6"/>
<feGaussianBlur stdDeviation="5"/>
<feComposite in2="hardAlpha" operator="out"/>
<feColorMatrix type="matrix" values="0 0 0 0 0 0 0 0 0 0 0 0 0 0 0 0 0 0 0.3 0"/>
<feBlend mode="normal" in2="BackgroundImageFix" result="effect1_dropShadow_482_3"/>
<feBlend mode="normal" in="SourceGraphic" in2="effect1_dropShadow_482_3" result="shape"/>
</filter>
<filter id="filter12_d_482_3" x="579.282" y="9.85791" width="64.9556" height="53.8076" filterUnits="userSpaceOnUse" color-interpolation-filters="sRGB">
<feFlood flood-opacity="0" result="BackgroundImageFix"/>
<feColorMatrix in="SourceAlpha" type="matrix" values="0 0 0 0 0 0 0 0 0 0 0 0 0 0 0 0 0 0 127 0" result="hardAlpha"/>
<feOffset dy="4"/>
<feGaussianBlur stdDeviation="1.5"/>
<feComposite in2="hardAlpha" operator="out"/>
<feColorMatrix type="matrix" values="0 0 0 0 0.996078 0 0 0 0 0.937255 0 0 0 0 0.905882 0 0 0 0.5 0"/>
<feBlend mode="normal" in2="BackgroundImageFix" result="effect1_dropShadow_482_3"/>
<feBlend mode="normal" in="SourceGraphic" in2="effect1_dropShadow_482_3" result="shape"/>
</filter>
</defs>
</svg>
