<svg width="124" height="124" viewBox="0 0 124 124" fill="none" xmlns="http://www.w3.org/2000/svg">
<rect x="12" y="11" width="101" height="101" rx="10" fill="#169C73"/>
<rect x="0.0644531" y="97.752" width="101" height="101" rx="10" transform="rotate(-75.4296 0.0644531 97.752)" fill="#169C73"/>
<path d="M95.9767 73.5679C95.9767 81.1088 80.9903 83.8133 62.504 83.8133C44.0176 83.8133 29.0312 81.1088 29.0312 73.5679C29.0312 66.027 44.0176 56.4497 62.504 56.4497C80.9903 56.4497 95.9767 65.9952 95.9767 73.5679Z" fill="#169C73" stroke="white" stroke-width="6" stroke-miterlimit="10"/>
<path d="M78.4453 56.6094L74.9453 70.5776" stroke="white" stroke-width="6" stroke-miterlimit="10"/>
<path d="M63.0776 57.1499L59.6094 71.1181" stroke="white" stroke-width="6" stroke-miterlimit="10"/>
<path d="M47.7412 57.6592L44.2412 71.6592" stroke="white" stroke-width="6" stroke-miterlimit="10"/>
<path d="M29.0318 83.8135H95.85C95.8503 87.0181 94.5882 90.0939 92.3371 92.3748C90.086 94.6556 87.0271 95.958 83.8227 95.9998H41.1864C37.9543 95.9998 34.8547 94.7159 32.5693 92.4305C30.2839 90.1451 29 87.0455 29 83.8135H29.0318Z" fill="#169C73" stroke="white" stroke-width="6" stroke-miterlimit="10"/>
<path d="M47.2951 26C47.2951 29.5318 44.1133 29.5318 44.1133 33.0955C44.1133 36.6591 47.2951 36.6591 47.2951 40.1909C47.2951 43.7227 44.1133 43.7545 44.1133 47.3182" fill="#169C73"/>
<path d="M47.2951 26C47.2951 29.5318 44.1133 29.5318 44.1133 33.0955C44.1133 36.6591 47.2951 36.6591 47.2951 40.1909C47.2951 43.7227 44.1133 43.7545 44.1133 47.3182" stroke="white" stroke-width="6" stroke-miterlimit="10"/>
<path d="M65.6867 29.0547C65.6867 32.5865 62.5049 32.5865 62.5049 36.1501C62.5049 39.7138 65.6867 39.682 65.6867 43.2456C65.6867 46.8092 62.5049 46.682 62.5049 50.341" fill="#169C73"/>
<path d="M65.6867 29.0547C65.6867 32.5865 62.5049 32.5865 62.5049 36.1501C62.5049 39.7138 65.6867 39.682 65.6867 43.2456C65.6867 46.8092 62.5049 46.682 62.5049 50.341" stroke="white" stroke-width="6" stroke-miterlimit="10"/>
<path d="M83.8224 26C83.8224 29.5318 80.6406 29.5318 80.6406 33.0955C80.6406 36.6591 83.8224 36.6591 83.8224 40.1909C83.8224 43.7227 80.6406 43.7545 80.6406 47.3182" fill="#169C73"/>
<path d="M83.8224 26C83.8224 29.5318 80.6406 29.5318 80.6406 33.0955C80.6406 36.6591 83.8224 36.6591 83.8224 40.1909C83.8224 43.7227 80.6406 43.7545 80.6406 47.3182" stroke="white" stroke-width="6" stroke-miterlimit="10"/>
</svg>
