<svg width="206" height="216" viewBox="0 0 206 216" fill="none" xmlns="http://www.w3.org/2000/svg">
<path d="M124.195 145.312C123.468 147.331 123.128 149.48 123.194 151.637C123.261 153.794 123.732 155.915 124.582 157.881C125.433 159.847 126.644 161.619 128.149 163.094C129.653 164.57 131.42 165.721 133.35 166.482C135.279 167.243 137.333 167.599 139.394 167.53C141.454 167.46 143.482 166.966 145.36 166.077C147.239 165.187 148.932 163.919 150.342 162.345C151.752 160.77 152.852 158.921 153.579 156.902C154.306 154.883 154.646 152.733 154.58 150.577C154.513 148.42 154.042 146.298 153.191 144.332C152.341 142.366 151.13 140.595 149.625 139.119C148.121 137.644 146.354 136.492 144.424 135.731C142.495 134.97 140.441 134.614 138.38 134.684C136.32 134.754 134.292 135.247 132.414 136.137C130.535 137.027 128.842 138.295 127.432 139.869C126.022 141.443 124.922 143.293 124.195 145.312Z" fill="#EDF7EE"/>
<path d="M35.0585 110.154C34.3314 112.174 33.9913 114.323 34.0578 116.479C34.1244 118.636 34.5961 120.758 35.4462 122.724C36.2963 124.69 37.5081 126.461 39.0124 127.937C40.5166 129.413 42.2839 130.564 44.2133 131.325C46.1427 132.086 48.1965 132.442 50.2573 132.372C52.3181 132.303 54.3457 131.809 56.2242 130.919C58.1027 130.03 59.7953 128.761 61.2055 127.187C62.6157 125.613 63.7158 123.763 64.4429 121.744C65.9116 117.666 65.7721 113.145 64.0552 109.175C62.3384 105.205 59.1848 102.111 55.2882 100.574C51.3915 99.0369 47.0711 99.1828 43.2773 100.98C39.4835 102.776 36.5271 106.077 35.0585 110.154Z" fill="#EDF7EE"/>
<path d="M47.9395 110.191C43.0152 123.865 43.4828 139.025 49.2396 152.338C54.9963 165.65 65.5706 176.024 78.6362 181.178C91.7018 186.331 106.188 185.842 118.909 179.817C131.63 173.793 141.543 162.727 146.467 149.053C151.392 135.38 150.924 120.219 145.167 106.907C139.411 93.5945 128.836 83.2205 115.771 78.0671C102.705 72.9137 88.2185 73.4031 75.4977 79.4276C62.7768 85.4521 52.8639 96.5182 47.9395 110.191Z" fill="#EDF7EE"/>
<path d="M74.9151 144.708L108.144 157.014C108.144 157.014 101.721 174.864 86.0955 168.707C69.8987 162.325 74.9151 144.708 74.9151 144.708Z" fill="#4CAF50"/>
<path d="M74.917 144.702C74.917 144.702 74.5381 146.195 74.3566 147.809L106.468 160.474C107.427 158.89 108.144 157.014 108.144 157.014L74.917 144.702ZM86.1 168.727C91.8688 171.002 96.0874 169.782 98.6152 168.491L75.6458 158.834C77.0159 162.259 79.9813 166.314 86.1 168.727Z" fill="white"/>
<g filter="url(#filter0_d_1424_7)">
<path d="M188.55 87.4423C192.839 75.535 185.921 61.7787 173.102 56.7226C167.071 54.3437 160.82 54.3382 155.432 56.2109C152.544 52.2182 148.461 48.9165 143.459 46.9435C137.649 44.6519 131.636 44.556 126.386 46.2248C123.495 41.3449 118.917 37.2636 113.107 34.972C108.826 33.2833 104.439 32.8014 100.319 33.3231C97.4122 28.8614 93.054 25.1497 87.6248 23.0083C74.8058 17.9522 60.933 23.5082 56.6447 35.4155C52.8917 45.8365 57.7172 57.6666 67.5722 63.854L56.0532 95.8384L149.888 132.849L161.358 100.999C173.024 103.725 184.683 98.181 188.55 87.4423Z" fill="#4CAF50"/>
</g>
<ellipse cx="7.22593" cy="7.4769" rx="7.22593" ry="7.4769" transform="matrix(0.930255 0.366915 -0.338839 0.940844 74.8018 114.416)" fill="white"/>
<ellipse cx="7.22593" cy="7.4769" rx="7.22593" ry="7.4769" transform="matrix(0.930255 0.366915 -0.338839 0.940844 113.64 129.735)" fill="white"/>
<ellipse cx="3.21152" cy="3.32307" rx="3.21152" ry="3.32307" transform="matrix(0.930255 0.366915 -0.338839 0.940844 76.468 124)" fill="black" fill-opacity="0.8"/>
<ellipse cx="3.21152" cy="3.32307" rx="3.21152" ry="3.32307" transform="matrix(0.930255 0.366915 -0.338839 0.940844 115.306 139.318)" fill="black" fill-opacity="0.8"/>
<defs>
<filter id="filter0_d_1424_7" x="52.3733" y="21.1394" width="140.448" height="118.71" filterUnits="userSpaceOnUse" color-interpolation-filters="sRGB">
<feFlood flood-opacity="0" result="BackgroundImageFix"/>
<feColorMatrix in="SourceAlpha" type="matrix" values="0 0 0 0 0 0 0 0 0 0 0 0 0 0 0 0 0 0 127 0" result="hardAlpha"/>
<feOffset dy="4"/>
<feGaussianBlur stdDeviation="1.5"/>
<feComposite in2="hardAlpha" operator="out"/>
<feColorMatrix type="matrix" values="0 0 0 0 0.996078 0 0 0 0 0.937255 0 0 0 0 0.905882 0 0 0 0.5 0"/>
<feBlend mode="normal" in2="BackgroundImageFix" result="effect1_dropShadow_1424_7"/>
<feBlend mode="normal" in="SourceGraphic" in2="effect1_dropShadow_1424_7" result="shape"/>
</filter>
</defs>
</svg>
