<svg xmlns="http://www.w3.org/2000/svg" xmlns:xlink="http://www.w3.org/1999/xlink" width="512" zoomAndPan="magnify" viewBox="0 0 384 383.999986" height="512" preserveAspectRatio="xMidYMid meet" version="1.2"><defs><clipPath id="5a9f316412"><path d="M 222.453125 92.941406 L 261.453125 92.941406 L 261.453125 131.941406 L 222.453125 131.941406 Z M 222.453125 92.941406 "/></clipPath></defs><g id="4830a6e957"><g style="fill:#fcd333;fill-opacity:1;"><g transform="translate(115.015457, 190.993275)"><path style="stroke:none" d="M 109.53125 22.0625 C 109.53125 29.625 107.203125 36.171875 102.546875 41.703125 C 97.890625 47.242188 91.75 51.460938 84.125 54.359375 C 76.5 57.265625 68.300781 58.71875 59.53125 58.71875 L 58.921875 58.71875 C 49.335938 58.582031 40.929688 57.296875 33.703125 54.859375 C 26.484375 52.429688 20.476562 49.296875 15.6875 45.453125 C 10.894531 41.609375 7.285156 37.660156 4.859375 33.609375 C 3.910156 31.585938 3.4375 29.425781 3.4375 27.125 C 3.4375 23.082031 4.753906 19.539062 7.390625 16.5 C 10.023438 13.46875 12.960938 11.953125 16.203125 11.953125 C 17.816406 11.953125 19.398438 12.421875 20.953125 13.359375 C 22.503906 14.304688 23.890625 15.859375 25.109375 18.015625 C 28.753906 24.492188 33.710938 29.554688 39.984375 33.203125 C 46.265625 36.847656 52.710938 38.671875 59.328125 38.671875 L 59.9375 38.671875 C 64.65625 38.671875 68.734375 37.722656 72.171875 35.828125 C 75.617188 33.941406 77.953125 31.515625 79.171875 28.546875 C 79.703125 27.066406 79.96875 25.582031 79.96875 24.09375 C 79.96875 20.3125 78.210938 16.898438 74.703125 13.859375 C 71.203125 10.828125 66.648438 7.828125 61.046875 4.859375 C 55.441406 1.890625 49.535156 -1.378906 43.328125 -4.953125 C 37.117188 -8.535156 31.210938 -12.617188 25.609375 -17.203125 C 20.003906 -21.796875 15.445312 -27.195312 11.9375 -33.40625 C 8.4375 -39.613281 6.6875 -46.90625 6.6875 -55.28125 L 6.6875 -56.6875 C 6.957031 -65.195312 9.21875 -72.925781 13.46875 -79.875 C 17.71875 -86.820312 23.789062 -92.351562 31.6875 -96.46875 C 39.582031 -100.59375 48.929688 -102.65625 59.734375 -102.65625 L 61.546875 -102.65625 C 70.859375 -102.519531 78.820312 -100.5625 85.4375 -96.78125 C 92.050781 -93 97.144531 -88.003906 100.71875 -81.796875 C 104.300781 -75.585938 106.09375 -68.835938 106.09375 -61.546875 C 106.09375 -54.796875 104.472656 -47.976562 101.234375 -41.09375 C 99.617188 -36.914062 97.15625 -33.878906 93.84375 -31.984375 C 90.539062 -30.097656 87.132812 -29.15625 83.625 -29.15625 C 80.25 -29.15625 77.207031 -30.066406 74.5 -31.890625 C 71.800781 -33.710938 70.453125 -36.242188 70.453125 -39.484375 C 70.453125 -39.753906 70.484375 -40.054688 70.546875 -40.390625 C 70.617188 -40.734375 70.65625 -41.035156 70.65625 -41.296875 C 71.0625 -44.003906 71.398438 -46.84375 71.671875 -49.8125 C 71.941406 -52.78125 72.078125 -55.75 72.078125 -58.71875 C 72.078125 -64.113281 71.535156 -69.171875 70.453125 -73.890625 C 69.378906 -78.617188 67.59375 -82.46875 65.09375 -85.4375 C 62.59375 -88.40625 59.050781 -89.890625 54.46875 -89.890625 L 53.453125 -89.890625 C 49.265625 -89.617188 45.785156 -88.335938 43.015625 -86.046875 C 40.253906 -83.753906 38.128906 -80.816406 36.640625 -77.234375 C 35.160156 -73.660156 34.113281 -69.882812 33.5 -65.90625 C 32.894531 -61.925781 32.59375 -58.179688 32.59375 -54.671875 C 32.59375 -53.046875 32.625 -51.523438 32.6875 -50.109375 C 32.757812 -48.691406 32.863281 -47.441406 33 -46.359375 C 33.8125 -40.421875 36.207031 -35.328125 40.1875 -31.078125 C 44.164062 -26.828125 49.054688 -23.113281 54.859375 -19.9375 C 60.671875 -16.769531 66.75 -13.800781 73.09375 -11.03125 C 79.4375 -8.269531 85.375 -5.367188 90.90625 -2.328125 C 96.4375 0.710938 100.921875 4.1875 104.359375 8.09375 C 107.804688 12.007812 109.53125 16.664062 109.53125 22.0625 Z M 109.53125 22.0625 "/></g></g><g style="fill:#fcd333;fill-opacity:1;"><g transform="translate(0.0000072, 190.993275)"><path style="stroke:none" d="M 169.0625 -135.859375 C 170.8125 -134.910156 172.054688 -133.691406 172.796875 -132.203125 C 173.546875 -130.722656 173.921875 -129.175781 173.921875 -127.5625 C 173.921875 -125.800781 173.445312 -124.144531 172.5 -122.59375 C 171.5625 -121.039062 170.210938 -119.859375 168.453125 -119.046875 C 166.160156 -118.109375 162.785156 -117.0625 158.328125 -115.90625 C 153.878906 -114.757812 148.988281 -113.679688 143.65625 -112.671875 C 138.320312 -111.660156 133.222656 -110.75 128.359375 -109.9375 C 123.503906 -109.125 119.523438 -108.585938 116.421875 -108.328125 C 116.960938 -103.460938 117.332031 -98.128906 117.53125 -92.328125 C 117.738281 -86.523438 117.84375 -80.453125 117.84375 -74.109375 C 117.84375 -62.359375 117.503906 -49.96875 116.828125 -36.9375 C 116.148438 -23.914062 115.203125 -10.925781 113.984375 2.03125 C 112.773438 14.988281 111.460938 27.234375 110.046875 38.765625 C 108.628906 50.304688 107.144531 60.5 105.59375 69.34375 C 104.039062 78.1875 102.585938 84.96875 101.234375 89.6875 C 100.691406 91.582031 98.9375 93.203125 95.96875 94.546875 C 93 95.898438 89.828125 96.578125 86.453125 96.578125 C 83.617188 96.578125 81.019531 95.96875 78.65625 94.75 C 76.289062 93.539062 74.640625 91.585938 73.703125 88.890625 C 72.078125 87.265625 70.316406 81.15625 68.421875 70.5625 C 66.535156 59.96875 64.953125 45.757812 63.671875 27.9375 C 62.390625 10.125 61.75 -10.390625 61.75 -33.609375 C 61.75 -44.941406 61.953125 -56.851562 62.359375 -69.34375 C 62.765625 -81.832031 63.441406 -94.691406 64.390625 -107.921875 C 60.742188 -107.921875 56.21875 -108.359375 50.8125 -109.234375 C 45.414062 -110.109375 39.984375 -111.117188 34.515625 -112.265625 C 29.054688 -113.410156 24.332031 -114.457031 20.34375 -115.40625 C 16.363281 -116.351562 13.898438 -116.960938 12.953125 -117.234375 C 9.984375 -118.171875 7.753906 -119.648438 6.265625 -121.671875 C 4.785156 -123.703125 4.046875 -125.796875 4.046875 -127.953125 C 4.046875 -129.984375 4.617188 -131.875 5.765625 -133.625 C 6.910156 -135.382812 8.566406 -136.664062 10.734375 -137.46875 C 19.503906 -140.707031 30.128906 -143.003906 42.609375 -144.359375 C 55.097656 -145.710938 67.957031 -146.390625 81.1875 -146.390625 C 91.039062 -146.390625 100.722656 -146.082031 110.234375 -145.46875 C 119.753906 -144.863281 128.53125 -144.054688 136.5625 -143.046875 C 144.59375 -142.035156 151.441406 -140.921875 157.109375 -139.703125 C 162.785156 -138.484375 166.769531 -137.203125 169.0625 -135.859375 Z M 169.0625 -135.859375 "/></g></g><g style="fill:#fcd333;fill-opacity:1;"><g transform="translate(256.220231, 268.791836)"><path style="stroke:none" d="M 83.625 -2.234375 C 81.1875 -1.828125 78.753906 -1.625 76.328125 -1.625 C 72.273438 -1.625 68.328125 -2.195312 64.484375 -3.34375 C 60.640625 -4.488281 56.828125 -6.070312 53.046875 -8.09375 C 52.097656 -8.632812 51.285156 -8.90625 50.609375 -8.90625 C 50.078125 -8.90625 49.675781 -7.894531 49.40625 -5.875 C 48.726562 3.707031 48.351562 12.515625 48.28125 20.546875 C 48.21875 28.578125 47.847656 35.929688 47.171875 42.609375 C 46.492188 49.296875 44.875 55.472656 42.3125 61.140625 C 41.238281 63.835938 39.113281 65.960938 35.9375 67.515625 C 32.769531 69.078125 29.429688 69.859375 25.921875 69.859375 C 22.679688 69.859375 19.742188 69.078125 17.109375 67.515625 C 14.472656 65.960938 12.753906 63.503906 11.953125 60.140625 C 10.460938 53.785156 9.242188 46.019531 8.296875 36.84375 C 7.359375 27.664062 6.648438 17.675781 6.171875 6.875 C 5.703125 -3.914062 5.363281 -14.910156 5.15625 -26.109375 C 4.957031 -37.316406 4.859375 -48.050781 4.859375 -58.3125 C 4.859375 -68.84375 4.925781 -78.425781 5.0625 -87.0625 C 5.195312 -95.695312 5.332031 -102.679688 5.46875 -108.015625 C 5.601562 -113.347656 5.671875 -116.21875 5.671875 -116.625 C 6.078125 -120.539062 7.660156 -123.878906 10.421875 -126.640625 C 13.191406 -129.410156 16.566406 -131.503906 20.546875 -132.921875 C 24.523438 -134.335938 28.539062 -135.046875 32.59375 -135.046875 C 38.132812 -135.046875 42.992188 -133.765625 47.171875 -131.203125 C 51.359375 -128.640625 53.453125 -124.585938 53.453125 -119.046875 L 53.453125 -118.84375 C 53.453125 -117.09375 53.414062 -115.335938 53.34375 -113.578125 C 53.28125 -111.828125 53.25 -110.007812 53.25 -108.125 C 53.382812 -107.988281 53.550781 -107.921875 53.75 -107.921875 C 53.957031 -107.921875 54.128906 -107.851562 54.265625 -107.71875 C 58.984375 -113.789062 64.109375 -118.109375 69.640625 -120.671875 C 75.179688 -123.234375 80.648438 -124.515625 86.046875 -124.515625 C 90.097656 -124.515625 93.945312 -123.875 97.59375 -122.59375 C 101.238281 -121.3125 104.34375 -119.59375 106.90625 -117.4375 C 112.976562 -112.570312 117.226562 -106.222656 119.65625 -98.390625 C 122.082031 -90.566406 123.296875 -82.066406 123.296875 -72.890625 C 123.296875 -66.953125 122.890625 -60.945312 122.078125 -54.875 C 121.273438 -48.800781 120.195312 -42.859375 118.84375 -37.046875 C 116.6875 -27.867188 112.707031 -20.242188 106.90625 -14.171875 C 101.101562 -8.097656 93.34375 -4.117188 83.625 -2.234375 Z M 50.609375 -24.296875 L 50.609375 -24.09375 C 50.609375 -22.070312 52.5 -20.148438 56.28125 -18.328125 C 60.0625 -16.503906 64.046875 -15.59375 68.234375 -15.59375 C 70.796875 -15.59375 73.191406 -16.0625 75.421875 -17 C 77.648438 -17.945312 79.300781 -19.566406 80.375 -21.859375 C 82.269531 -25.367188 83.890625 -30.128906 85.234375 -36.140625 C 86.585938 -42.148438 87.632812 -48.726562 88.375 -55.875 C 89.113281 -63.03125 89.484375 -69.984375 89.484375 -76.734375 C 89.484375 -83.078125 89.144531 -88.914062 88.46875 -94.25 C 87.800781 -99.582031 86.722656 -103.867188 85.234375 -107.109375 C 83.753906 -110.347656 81.863281 -111.96875 79.5625 -111.96875 L 78.96875 -111.96875 C 76.800781 -111.5625 74.234375 -110.207031 71.265625 -107.90625 C 68.296875 -105.613281 65.425781 -102.878906 62.65625 -99.703125 C 59.894531 -96.535156 57.566406 -93.46875 55.671875 -90.5 C 53.785156 -87.53125 52.84375 -85.238281 52.84375 -83.625 C 52.707031 -73.769531 52.46875 -63.878906 52.125 -53.953125 C 51.789062 -44.035156 51.285156 -34.148438 50.609375 -24.296875 Z M 50.609375 -24.296875 "/></g></g><g clip-rule="nonzero" clip-path="url(#5a9f316412)"><path style=" stroke:none;fill-rule:nonzero;fill:#169c73;fill-opacity:1;" d="M 261.417969 112.421875 C 261.417969 113.058594 261.386719 113.695312 261.324219 114.332031 C 261.261719 114.96875 261.167969 115.597656 261.042969 116.222656 C 260.917969 116.847656 260.765625 117.46875 260.578125 118.078125 C 260.394531 118.6875 260.179688 119.289062 259.933594 119.878906 C 259.691406 120.46875 259.417969 121.042969 259.117188 121.605469 C 258.816406 122.167969 258.488281 122.714844 258.132812 123.246094 C 257.78125 123.777344 257.402344 124.289062 256.996094 124.78125 C 256.589844 125.273438 256.164062 125.746094 255.710938 126.199219 C 255.261719 126.648438 254.789062 127.078125 254.296875 127.484375 C 253.800781 127.886719 253.289062 128.265625 252.757812 128.621094 C 252.230469 128.976562 251.683594 129.304688 251.121094 129.605469 C 250.558594 129.90625 249.980469 130.175781 249.390625 130.421875 C 248.800781 130.664062 248.203125 130.878906 247.589844 131.066406 C 246.980469 131.25 246.363281 131.40625 245.738281 131.53125 C 245.109375 131.65625 244.480469 131.75 243.84375 131.8125 C 243.210938 131.875 242.574219 131.90625 241.933594 131.90625 C 241.296875 131.90625 240.660156 131.875 240.027344 131.8125 C 239.390625 131.75 238.761719 131.65625 238.132812 131.53125 C 237.507812 131.40625 236.890625 131.25 236.28125 131.066406 C 235.667969 130.878906 235.070312 130.664062 234.480469 130.421875 C 233.890625 130.175781 233.3125 129.90625 232.75 129.605469 C 232.1875 129.304688 231.640625 128.976562 231.113281 128.621094 C 230.582031 128.265625 230.070312 127.886719 229.574219 127.484375 C 229.082031 127.078125 228.609375 126.648438 228.160156 126.199219 C 227.707031 125.746094 227.28125 125.273438 226.875 124.78125 C 226.46875 124.289062 226.089844 123.777344 225.738281 123.246094 C 225.382812 122.714844 225.054688 122.167969 224.753906 121.605469 C 224.453125 121.042969 224.179688 120.46875 223.9375 119.878906 C 223.691406 119.289062 223.476562 118.6875 223.292969 118.078125 C 223.105469 117.46875 222.953125 116.847656 222.828125 116.222656 C 222.703125 115.597656 222.609375 114.96875 222.546875 114.332031 C 222.484375 113.695312 222.453125 113.058594 222.453125 112.421875 C 222.453125 111.785156 222.484375 111.148438 222.546875 110.511719 C 222.609375 109.878906 222.703125 109.246094 222.828125 108.621094 C 222.953125 107.996094 223.105469 107.378906 223.292969 106.765625 C 223.476562 106.15625 223.691406 105.554688 223.9375 104.964844 C 224.179688 104.378906 224.453125 103.800781 224.753906 103.238281 C 225.054688 102.675781 225.382812 102.128906 225.738281 101.597656 C 226.089844 101.066406 226.46875 100.554688 226.875 100.0625 C 227.28125 99.570312 227.707031 99.097656 228.160156 98.644531 C 228.609375 98.195312 229.082031 97.765625 229.574219 97.363281 C 230.070312 96.957031 230.582031 96.578125 231.113281 96.222656 C 231.640625 95.867188 232.1875 95.542969 232.75 95.242188 C 233.3125 94.941406 233.890625 94.667969 234.480469 94.421875 C 235.070312 94.179688 235.667969 93.964844 236.28125 93.777344 C 236.890625 93.59375 237.507812 93.4375 238.132812 93.3125 C 238.761719 93.191406 239.390625 93.097656 240.027344 93.035156 C 240.660156 92.972656 241.296875 92.941406 241.933594 92.941406 C 242.574219 92.941406 243.210938 92.972656 243.84375 93.035156 C 244.480469 93.097656 245.109375 93.191406 245.738281 93.3125 C 246.363281 93.4375 246.980469 93.59375 247.589844 93.777344 C 248.203125 93.964844 248.800781 94.179688 249.390625 94.421875 C 249.980469 94.667969 250.558594 94.941406 251.121094 95.242188 C 251.683594 95.542969 252.230469 95.867188 252.757812 96.222656 C 253.289062 96.578125 253.800781 96.957031 254.296875 97.363281 C 254.789062 97.765625 255.261719 98.195312 255.710938 98.644531 C 256.164062 99.097656 256.589844 99.570312 256.996094 100.0625 C 257.402344 100.554688 257.78125 101.066406 258.132812 101.597656 C 258.488281 102.128906 258.816406 102.675781 259.117188 103.238281 C 259.417969 103.800781 259.691406 104.378906 259.933594 104.964844 C 260.179688 105.554688 260.394531 106.15625 260.578125 106.765625 C 260.765625 107.378906 260.917969 107.996094 261.042969 108.621094 C 261.167969 109.246094 261.261719 109.878906 261.324219 110.511719 C 261.386719 111.148438 261.417969 111.785156 261.417969 112.421875 Z M 261.417969 112.421875 "/></g><g style="fill:#fcd333;fill-opacity:1;"><g transform="translate(225.625024, 221.128438)"><path style="stroke:none" d="M 23.078125 30.359375 C 22.242188 31.722656 21.160156 32.820312 19.828125 33.65625 C 18.503906 34.488281 17.085938 34.90625 15.578125 34.90625 C 14.441406 34.90625 13.300781 34.597656 12.15625 33.984375 C 11.019531 33.378906 9.925781 32.4375 8.875 31.15625 C 8.5625 30.695312 8.160156 28.722656 7.671875 25.234375 C 7.179688 21.753906 6.6875 17.207031 6.1875 11.59375 C 5.695312 5.988281 5.222656 -0.222656 4.765625 -7.046875 C 4.316406 -13.867188 3.957031 -20.898438 3.6875 -28.140625 C 3.425781 -35.378906 3.296875 -42.332031 3.296875 -49 C 3.296875 -54.15625 3.390625 -58.96875 3.578125 -63.4375 C 3.765625 -67.90625 4.085938 -71.804688 4.546875 -75.140625 C 5.234375 -78.398438 6.5625 -80.691406 8.53125 -82.015625 C 10.5 -83.347656 12.65625 -84.015625 15 -84.015625 C 16.976562 -84.015625 18.875 -83.632812 20.6875 -82.875 C 22.507812 -82.113281 24.046875 -81.109375 25.296875 -79.859375 C 26.546875 -78.609375 27.285156 -77.191406 27.515625 -75.609375 C 27.742188 -73.710938 27.910156 -71.320312 28.015625 -68.4375 C 28.128906 -65.5625 28.1875 -62.34375 28.1875 -58.78125 C 28.1875 -53.550781 28.09375 -47.769531 27.90625 -41.4375 C 27.71875 -35.113281 27.472656 -28.671875 27.171875 -22.109375 C 26.867188 -15.554688 26.523438 -9.226562 26.140625 -3.125 C 25.765625 2.976562 25.367188 8.492188 24.953125 13.421875 C 24.535156 18.347656 24.175781 22.328125 23.875 25.359375 C 23.570312 28.390625 23.304688 30.054688 23.078125 30.359375 Z M 23.078125 30.359375 "/></g></g></g></svg>