<svg width="154" height="154" viewBox="0 0 154 154" fill="none" xmlns="http://www.w3.org/2000/svg">
<path d="M41.7083 12.8335H32.0833C25.025 12.8335 19.25 18.6085 19.25 25.6668V102.522C19.25 109.581 25.025 115.356 32.0833 115.356H41.7083V12.8335Z" fill="white"/>
<path d="M129.064 68.9601L96.2496 36.1485V25.6668C96.2496 18.6085 90.4746 12.8335 83.4163 12.8335H60.958V115.356H83.4163C90.4746 115.356 96.2496 109.581 96.2496 102.522V90.6131L103.051 97.4148L112.128 88.3416L97.1672 73.3812L76.9515 53.1655C75.7388 51.9527 75.0746 50.3293 75.0778 48.5968C75.081 46.8835 75.742 45.2826 76.9515 44.0795C79.3706 41.6572 83.6216 41.6636 86.0375 44.0795L99.458 57.5031L120.043 78.0878L119.812 78.0172L120.161 78.2482C120.582 78.8802 121.916 81.2897 121.916 86.4808V128.189H70.583C64.439 128.189 59.0169 122.95 57.9646 116.001L57.8908 115.5H44.9131L45.2788 117.919C47.2712 131.089 58.1507 141.022 70.5862 141.022H134.753V86.4808C134.75 75.3415 130.438 70.2851 129.064 68.9601Z" fill="white"/>
</svg>
