<svg width="135" height="90" viewBox="0 0 135 90" fill="none" xmlns="http://www.w3.org/2000/svg">
<path d="M131.936 0H3.0636C1.37257 0 0 1.37257 0 3.0636V19.8269C0 21.5179 1.37257 22.8905 3.0636 22.8905H8.14573V86.374C8.14573 88.068 9.5183 89.4376 11.2093 89.4376H123.791C125.485 89.4376 126.854 88.0684 126.854 86.374V22.8901H131.936C133.63 22.8901 135 21.5176 135 19.8265V3.06322C135 1.37257 133.63 0 131.936 0ZM120.727 83.3104H14.2726V22.8901H120.727V83.3104ZM128.873 16.7633H123.791H11.209H6.12682V6.12682H128.873V16.7633Z" fill="white"/>
<path d="M50.3294 73.6849L67.0928 56.9186L83.8557 73.6849L88.1875 69.3531L71.4245 52.5868L88.1875 35.8269L83.8557 31.4951L67.0928 48.255L50.3294 31.4951L45.998 35.8269L62.761 52.5868L45.998 69.3531L50.3294 73.6849Z" fill="white"/>
</svg>
