<svg width="124" height="124" viewBox="0 0 124 124" fill="none" xmlns="http://www.w3.org/2000/svg">
<rect x="0.0644531" y="97.752" width="101" height="101" rx="10" transform="rotate(-75.4296 0.0644531 97.752)" fill="#169C73"/>
<rect x="12" y="10.936" width="101" height="101" rx="10" fill="#169C73"/>
<path d="M91.9647 71.2419C94.0685 70.3342 95.5386 68.2467 95.5386 65.8121C95.5386 63.3104 93.9831 61.1823 91.7881 60.3152C93.0735 59.2289 93.904 57.6287 93.904 55.8154C93.904 52.5441 91.254 49.8941 87.9847 49.8941H74.4935C75.789 47.3437 76.914 43.9728 76.5302 39.9401C76.1707 36.1449 72.9705 29.4358 68.0362 29.0398C64.2349 28.7352 63.4999 30.1607 63.4999 33.9742C63.4999 33.9742 63.5425 37.6679 63.5425 40.0356C63.5425 44.2776 62.1313 46.436 57.1441 50.012C50.565 54.7291 49.4238 57.1637 49.4238 57.1637V85.3221C49.4238 88.8594 52.2911 91.7266 55.8283 91.7266H68.1134H83.1074C86.3808 91.7266 90.8034 90.1468 90.8034 85.8074C90.8034 84.1829 90.1496 82.7127 89.0895 81.6426C91.9526 81.2283 94.16 78.7875 94.16 75.8086C94.1599 73.9589 93.2947 72.3283 91.9647 71.2419Z" fill="white"/>
<path d="M41.5674 55.0923H32.2002C30.4336 55.0923 29 56.5238 29 58.2945V91.7995C29 93.5661 30.4336 94.9997 32.2002 94.9997H41.5674C43.336 94.9997 44.7697 93.5661 44.7697 91.7995V58.2945C44.7697 56.5238 43.3361 55.0923 41.5674 55.0923ZM37.565 89.917C35.9283 89.917 34.6003 88.589 34.6003 86.9523C34.6003 85.3156 35.9283 83.9875 37.565 83.9875C39.2058 83.9875 40.5298 85.3156 40.5298 86.9523C40.5298 88.589 39.2058 89.917 37.565 89.917Z" fill="white"/>
</svg>
